<svg xmlns="http://www.w3.org/2000/svg" xmlns:xlink="http://www.w3.org/1999/xlink" width="172.002" height="171.998" viewBox="0 0 172.002 171.998">
  <defs>
    <filter id="Rectangle_296" x="35.502" y="26.5" width="100.469" height="119" filterUnits="userSpaceOnUse">
      <feOffset input="SourceAlpha"/>
      <feGaussianBlur stdDeviation="3" result="blur"/>
      <feFlood flood-opacity="0.161"/>
      <feComposite operator="in" in2="blur"/>
      <feComposite in="SourceGraphic"/>
    </filter>
    <filter id="Subtraction_20" x="0" y="0" width="172.002" height="171.998" filterUnits="userSpaceOnUse">
      <feOffset input="SourceAlpha"/>
      <feGaussianBlur stdDeviation="3" result="blur-2"/>
      <feFlood flood-opacity="0.161"/>
      <feComposite operator="in" in2="blur-2"/>
      <feComposite in="SourceGraphic"/>
    </filter>
  </defs>
  <g transform="matrix(1, 0, 0, 1, 0, 0)" filter="url(#Subtraction_20)">
    <path id="Subtraction_20-2" data-name="Subtraction 20" d="M18390-152.5a76.023,76.023,0,0,1-29.777-6.012,76.541,76.541,0,0,1-12.994-7.053,77.016,77.016,0,0,1-11.322-9.341,77.063,77.063,0,0,1-9.342-11.321,76.45,76.45,0,0,1-7.053-12.994A75.977,75.977,0,0,1,18313.5-229a75.989,75.989,0,0,1,6.014-29.779,76.456,76.456,0,0,1,7.053-12.995,77.061,77.061,0,0,1,9.342-11.322,77.012,77.012,0,0,1,11.322-9.341,76.537,76.537,0,0,1,12.994-7.053A76.022,76.022,0,0,1,18390-305.5a76.022,76.022,0,0,1,29.777,6.012,76.4,76.4,0,0,1,12.994,7.053,76.916,76.916,0,0,1,11.322,9.341,77.053,77.053,0,0,1,9.342,11.322,76.412,76.412,0,0,1,7.053,12.995A76.032,76.032,0,0,1,18466.5-229a76.021,76.021,0,0,1-6.012,29.776,76.41,76.41,0,0,1-7.053,12.994,77.051,77.051,0,0,1-9.342,11.321,76.916,76.916,0,0,1-11.322,9.341,76.389,76.389,0,0,1-12.994,7.053A76.023,76.023,0,0,1,18390-152.5Zm-1.43-67.335a.667.667,0,0,0-.459.18.246.246,0,0,0-.072.192l1.766,26.166.432,6.423.217,3.36c.01.176.016.35.023.558a6.305,6.305,0,0,0,.357,2.32,3,3,0,0,0,2.66,1.636h.922a6.53,6.53,0,0,0,.7-.093,19.693,19.693,0,0,0,2.9-.816,6.734,6.734,0,0,0,2.3-1.274,3.72,3.72,0,0,0,1.221-1.979,3.51,3.51,0,0,0-.566-2.438,14.471,14.471,0,0,1-1.225-2.466,9.713,9.713,0,0,0,3.986,4.176,10.236,10.236,0,0,0,4.8,1.237,7.715,7.715,0,0,0,3.42-.75,3.844,3.844,0,0,0,2.3-2.9,5.335,5.335,0,0,0-1.357-3.879c-1.578-1.91-3.936-2.954-6.016-3.874l-.281-.125c-2.2-.977-4.943-2.193-6.578-4.347-.023-.035-.08-.054-.164-.054a.955.955,0,0,0-.369.086c.006-.068.01-.135.016-.2l.006-.108c0-.077.01-.155.016-.232a.283.283,0,0,0,.223.1l23.59,1.381,6.613.38a.575.575,0,0,0,.061,0,.564.564,0,0,0,.4-.166.179.179,0,0,0,.057-.1v-.107a.178.178,0,0,0-.084-.12,44.042,44.042,0,0,0-11.41-4.421,45.249,45.249,0,0,0-10.332-1.2c-.594,0-1.2.012-1.787.036a44.227,44.227,0,0,0-6.887.839.467.467,0,0,0-.2.088c.01-.136.021-.273.031-.409s.02-.274.033-.411l0-.042q.094-1.144.186-2.289c.617-7.5,1.256-15.249.783-22.909a67.705,67.705,0,0,0-1.582-11.251,46.894,46.894,0,0,0-3.84-10.684c-.395-.777-.842-1.588-1.326-2.41a.285.285,0,0,0-.248-.1.6.6,0,0,0-.488.225.188.188,0,0,0,0,.2l.057-.028c3.441,5.767,5.6,12.882,6.424,21.147.8,7.909.262,15.939-.408,24.155-.08,1.04-.166,2.079-.244,3.048-.252,3.084-.512,6.272-.674,9.451l0,.014a24.14,24.14,0,0,0,.162,5.436,9.132,9.132,0,0,0,.842,2.549c.129.263.281.519.449.8a7.345,7.345,0,0,1,.74,1.5,2.523,2.523,0,0,1-.463,2.419,4.947,4.947,0,0,1-2.113,1.484,18.58,18.58,0,0,1-2.762.816,5.724,5.724,0,0,1-1.191.139,3.081,3.081,0,0,1-1.52-.356,2.307,2.307,0,0,1-1.225-2.035c-.039-.455-.072-.964-.107-1.5l-.012-.155c-.029-.459-.061-.934-.1-1.378l-.432-6.372-1.705-25.346-.219-3.063C18388.818-219.778,18388.721-219.837,18388.57-219.837Zm-23.611,29.249v0a16.314,16.314,0,0,1-.75,3.275,14.288,14.288,0,0,1-.7,1.58c-.172.351-.34.7-.492,1.053a3.409,3.409,0,0,0-.328,2.438,2.09,2.09,0,0,0,1.709,1.437,19.379,19.379,0,0,0,2.248.244c.25.018.51.037.76.058l3.281.269.367.036a11.579,11.579,0,0,0,1.172.08,3.588,3.588,0,0,0,1.256-.195c1.686-.636,1.49-2.494,1.133-4.041-.449-2.086-.85-4.183-1.187-6.233a121.563,121.563,0,0,1-1.437-25.541c.068-1.316.127-2.3.189-3.175a.234.234,0,0,0-.061-.188.346.346,0,0,0-.254-.091c-.215,0-.459.128-.473.335a123.276,123.276,0,0,0,.676,24.943c.273,2.064.594,4.134.953,6.155.17.956.369,1.96.6,2.985.031.145.066.294.1.44l.023.094a9.755,9.755,0,0,1,.336,2.149c0,1.009-.326,1.535-1.057,1.705a3.789,3.789,0,0,1-.672.06,3.77,3.77,0,0,1-.492-.032l-1.738-.134-3.143-.246-1.463-.107a3.207,3.207,0,0,1-1.387-.329,1.868,1.868,0,0,1-.7-2.03,7.67,7.67,0,0,1,.762-1.815c.152-.3.3-.592.428-.868a15.467,15.467,0,0,0,1.219-5.316,31.2,31.2,0,0,0-1.951-11.3c-.232-.708-.48-1.437-.719-2.141l-.062-.187a74.976,74.976,0,0,1-2.613-8.9,51.851,51.851,0,0,1-1.027-10.979,52.126,52.126,0,0,1,1.307-10.915,52.054,52.054,0,0,1,3.574-10.394c.045-.1.092-.2.139-.3l.123-.26,0,0,.018.021a.193.193,0,0,0,.02.021,27.069,27.069,0,0,0,5.59,4.472,18.2,18.2,0,0,0,6.691,2.415,14.214,14.214,0,0,0,2.037.147,14.176,14.176,0,0,0,3.408-.416c.15.615.9,1.026,1.492,1.191a2.968,2.968,0,0,0,.971.162,2.94,2.94,0,0,0,1.17-.241,1.3,1.3,0,0,0,.678-.681,1.2,1.2,0,0,0-.051-.973,1.783,1.783,0,0,0-.854-.825,17.342,17.342,0,0,0,3.67-2.725,49.883,49.883,0,0,0,4.924-5.582l.014-.016.055-.07a.226.226,0,0,0,.055-.236.38.38,0,0,0-.348-.15.46.46,0,0,0-.361.141l-.006.008a36.28,36.28,0,0,1-6.732,7.129,1.524,1.524,0,0,0,.117-.547.674.674,0,0,0,.389-.626.215.215,0,0,0-.223-.232c.26-.273.492-.533.709-.8a55.6,55.6,0,0,0,4.014-5.367,17.748,17.748,0,0,0,2.682-6.4,28.988,28.988,0,0,0,.275-7.183c-.01-.17-.02-.335-.027-.505.635,1,1.309,2.033,2.006,3.054.869,1.256,1.9,2.741,2.953,4.227a.276.276,0,0,0,.227.073c.236,0,.543-.108.561-.235v-.022a.075.075,0,0,0,0-.029h.023a.061.061,0,0,0-.012-.016,13.708,13.708,0,0,1,1.6-4.187c.914-1.781,1.855-3.619,1.609-5.719-.494-4.257-5.586-7.012-7.752-8-.459-.214-.934-.424-1.391-.628l-.02-.009a28.764,28.764,0,0,1-4.963-2.616.229.229,0,0,0-.133-.033,1.032,1.032,0,0,0-.592.232.075.075,0,0,0-.021.047h-.027l-.01,0s0,0,0,0l.006,0a42.421,42.421,0,0,1-5.729.392c-1.084,0-2.18-.043-3.258-.128-1.871-.149-3.781-.224-5.678-.224-1.2,0-2.416.03-3.619.09-1.764.087-3.553.261-5.316.514a.7.7,0,0,0-.338.134,2.89,2.89,0,0,0-1.906-.64c-.109,0-.221,0-.332.015a7.476,7.476,0,0,0-3.092,1.274,59.809,59.809,0,0,0-5.854,4.611c-.889.782-1.8,1.64-2.711,2.549a7.767,7.767,0,0,0-1.9,2.549c-.941,2.149.355,4.138,1.766,5.992a28.654,28.654,0,0,0,5.691,5.585.317.317,0,0,0,.188.042c.207,0,.533-.09.572-.232.7-2.758,1.523-5.538,2.457-8.263a26.258,26.258,0,0,0,2.529,10.974,22.54,22.54,0,0,0,2.744,4.305l-.006,0a.537.537,0,0,0-.457.22,52.3,52.3,0,0,0-5.4,15.912,52.308,52.308,0,0,0-.08,16.864,52.734,52.734,0,0,0,1.191,5.534c.074.26.148.524.223.788a.275.275,0,0,0-.111.107h.023l-2.684,4.417-1.381,2.225a15.613,15.613,0,0,0-1.113,2.035,4.362,4.362,0,0,0-.4,2,2.88,2.88,0,0,0,.867,1.794,17.627,17.627,0,0,0,1.816,1.488l2.029,1.576,4.668,3.578a.512.512,0,0,0,.277.083.486.486,0,0,0,.225-.054Zm9.551,2.022a.706.706,0,0,0-.434.147.187.187,0,0,0-.068.175c.012.034.049.078.15.093l-.055.028a65.753,65.753,0,0,0,9.375.677c1.85,0,3.74-.083,5.617-.246.127,0,.436-.1.463-.269a.11.11,0,0,0-.02-.091c-.061-.072-.223-.072-.309-.072-1.791.153-3.613.231-5.414.231a64.14,64.14,0,0,1-9.2-.667A.718.718,0,0,0,18374.51-188.566Zm1.256-8.536a45,45,0,0,1,12.76,1.847.918.918,0,0,0,.111.009.876.876,0,0,0,.432-.116c.061-.02.174-.095.174-.156,0-.027-.02-.048-.062-.062a45.845,45.845,0,0,0-12.982-1.878c-.945,0-1.9.03-2.85.089-.148,0-.465.057-.52.19a.092.092,0,0,0,0,.09c.029.044.121.044.193.044l-.029.028C18373.92-197.074,18374.854-197.1,18375.766-197.1Zm33.23,14.079a10.154,10.154,0,0,1-3.879-.845,9.525,9.525,0,0,1-5.473-7.239c-.008-.048-.072-.074-.176-.074a1.089,1.089,0,0,0-.26.037,39.739,39.739,0,0,1,.133-5.2l.033-.457c.02-.333.043-.668.066-1.011l.021-.3c1.652,2.087,4.082,3.155,6.432,4.188l.006,0a21.76,21.76,0,0,1,5.02,2.756,7.26,7.26,0,0,1,2.252,2.929,3.594,3.594,0,0,1-.486,3.791A4.81,4.81,0,0,1,18409-183.024Zm-43.986-8.033h0q-.847-.653-1.7-1.3l-.031-.025-.062-.047c-1.957-1.506-3.98-3.062-5.926-4.638a3.833,3.833,0,0,1-1.3-1.571,3.229,3.229,0,0,1,.107-2.113,10.433,10.433,0,0,1,1-1.951l1.33-2.169,2.545-4.19c.352,1.146.754,2.3,1.141,3.408l.008.023.311.889.01.031c1.406,4.068,2.574,7.754,2.629,11.684a15.746,15.746,0,0,1-.064,1.972Zm63.656-6.781-22.029-1.293-6.613-.38a.419.419,0,0,0-.074,0,.526.526,0,0,0-.4.19c.035-.47.07-.953.1-1.379l0-.032c.027-.392.057-.785.086-1.175a.49.49,0,0,0,.238.054.7.7,0,0,0,.129-.012v-.028a43.151,43.151,0,0,1,8.463-.84c1.135,0,2.281.045,3.41.135a44.129,44.129,0,0,1,11.688,2.549,42.122,42.122,0,0,1,5,2.213Zm-43.121-41.553h-.6a2.609,2.609,0,0,1-1.463-.677,1.106,1.106,0,0,1-.262-.487c.215-.069.537-.175.859-.3.426-.183.775-.345,1.1-.51a1.885,1.885,0,0,1,.395.292,1.122,1.122,0,0,1,.3,1.437.8.8,0,0,1-.191.19l-.135.056Zm-6.355-1.122a16.494,16.494,0,0,1-7.848-2.1,25.818,25.818,0,0,1-5.965-4.667.392.392,0,0,0-.27-.088.753.753,0,0,0-.348.088c.268-.541.529-1.04.8-1.529a21.9,21.9,0,0,0,5.158,4.458,20.078,20.078,0,0,0,5.613,2.387,15.97,15.97,0,0,0,3.932.542,11.268,11.268,0,0,0,1.3-.074v.371c0,.18.154.207.246.207a.678.678,0,0,0,.523-.253l.068,0v-.111l.111.028a.8.8,0,0,0,.1.01l.051,0a1,1,0,0,0-.236.338A13.041,13.041,0,0,1,18379.189-240.511Zm4.92-1h0a.684.684,0,0,0-.135-.055l.082-.03c.045-.016.088-.032.131-.049l.037-.013.01,0,.047-.016a1.1,1.1,0,0,1,.109.024l.008,0,.021.005.041.01c-.076.036-.158.071-.268.116a.055.055,0,0,0-.033-.069l-.051.078Zm-1.191-.222h0l-.051-.013.008,0,.016,0a8.618,8.618,0,0,0,3.48-1.914.977.977,0,0,1-.131.607.6.6,0,0,0-.223-.043.61.61,0,0,0-.338.1,7.062,7.062,0,0,1-2.762,1.265Zm2.154-.209h0a1.061,1.061,0,0,0-.119-.032,9.208,9.208,0,0,0,.926-.547l.074.037.018.007.02.007c-.311.194-.619.371-.918.528Zm-4.707-.04a14.091,14.091,0,0,1-2.629-.257,19.291,19.291,0,0,1-5.473-2.007,21.476,21.476,0,0,1-8.352-8.3,25.245,25.245,0,0,1-3.119-12.393c0-.55.027-1.107.057-1.627a.329.329,0,0,0-.033-.176c.764-2.053,1.6-4.091,2.471-6.057.633-1.445,1.354-2.96,2.141-4.5a.059.059,0,0,0,.008-.06c-.023-.042-.121-.051-.2-.051a.459.459,0,0,0,.152-.111,66.26,66.26,0,0,1,9.023-.621h.287c1.393.013,2.809.1,4.178.192,1.477.1,3,.193,4.5.193.2,0,.4,0,.592-.005a40.464,40.464,0,0,0,5.232-.431.715.715,0,0,0,.361-.162,32.293,32.293,0,0,0,4.582,2.325,25.3,25.3,0,0,1,5.684,3.121,8.928,8.928,0,0,1,3.17,4.611,7.423,7.423,0,0,1-.811,5.2c-.158.333-.33.667-.512,1.021l-.057.107a17.9,17.9,0,0,0-1.453,3.373c-3.381-4.75-6.6-9.451-8.852-14.724a37.536,37.536,0,0,1-1.682-4.824c-.012-.05-.08-.078-.189-.078a.865.865,0,0,0-.57.2.108.108,0,0,0-.023.092,45.656,45.656,0,0,0,5.32,11.781.276.276,0,0,0-.061.2h.027a43.1,43.1,0,0,1,.078,7.021,16.564,16.564,0,0,1-1.951,6.479,41.326,41.326,0,0,1-3.74,5.436l-.031.042a13.408,13.408,0,0,1-4.361,4.2A8.32,8.32,0,0,1,18380.365-241.978Zm-23.451-14.707h0a28.86,28.86,0,0,1-4.148-3.985,24.437,24.437,0,0,1-1.979-2.632,5.258,5.258,0,0,1-1-2.98c.07-1.934,1.715-3.463,3.037-4.691l.006-.005.035-.034c.115-.106.229-.21.336-.312a63.493,63.493,0,0,1,5.34-4.528l.473-.361a12.837,12.837,0,0,1,2.729-1.757,2.988,2.988,0,0,1,1.15-.246,2.253,2.253,0,0,1,1.779.871.151.151,0,0,0,.111.046.323.323,0,0,0-.139.116,102.57,102.57,0,0,0-6.562,16.346c-.418,1.369-.811,2.766-1.168,4.151Z" transform="translate(-18304 315)" fill="#fff" stroke="#78c6f7" stroke-width="1"/>
  </g>
</svg>
