<svg xmlns="http://www.w3.org/2000/svg" xmlns:xlink="http://www.w3.org/1999/xlink" width="172" height="172" viewBox="0 0 172 172">
  <defs>
    <filter id="Subtraction_31" x="0" y="0" width="172" height="172" filterUnits="userSpaceOnUse">
      <feOffset input="SourceAlpha"/>
      <feGaussianBlur stdDeviation="3" result="blur"/>
      <feFlood flood-opacity="0.161"/>
      <feComposite operator="in" in2="blur"/>
      <feComposite in="SourceGraphic"/>
    </filter>
  </defs>
  <g transform="matrix(1, 0, 0, 1, 0, 0)" filter="url(#Subtraction_31)">
    <path id="Subtraction_31-2" data-name="Subtraction 31" d="M76.5,153a76.143,76.143,0,0,1-42.772-13.065A76.724,76.724,0,0,1,6.012,106.277a76.4,76.4,0,0,1,7.053-72.549A76.724,76.724,0,0,1,46.723,6.012a76.4,76.4,0,0,1,72.549,7.053,76.724,76.724,0,0,1,27.716,33.658,76.4,76.4,0,0,1-7.053,72.549,76.724,76.724,0,0,1-33.658,27.716A76.02,76.02,0,0,1,76.5,153ZM40.928,110.311h0v.008c-.006.053-.012.1-.016.157a4.643,4.643,0,0,0,.165,1.943,2.923,2.923,0,0,0,2.572,1.573,3.953,3.953,0,0,0,2.931,3,5.577,5.577,0,0,0,1.635.234,13.908,13.908,0,0,0,4.421-1,.415.415,0,0,0,.05-.017,15.8,15.8,0,0,0,1.991.127c.469,0,.943-.021,1.41-.064a19.229,19.229,0,0,0,3.527-.736,7.248,7.248,0,0,1,1.6-.3c.3-.017.608-.02.906-.023.241,0,.49,0,.732-.015a5.056,5.056,0,0,0,2.984-.929,9.146,9.146,0,0,0,2.049-2.44,16.52,16.52,0,0,0,6.38-1.26,9.621,9.621,0,0,0,4.935-4.732,9.425,9.425,0,0,0,.641-1.946c.04-.2.065-.409.09-.614a3.636,3.636,0,0,1,.332-1.331.456.456,0,0,0,.076-.015l2.818-.921a.567.567,0,0,0,.067,0,.558.558,0,0,0,.277-.073c2.127.317,3.9.568,5.765.676.461.023.928.034,1.389.034a28.353,28.353,0,0,0,4.575-.373,55.724,55.724,0,0,1,5.681-.694c.733-.039,1.479-.063,2.2-.087,1.079-.036,2.193-.073,3.289-.157a19.727,19.727,0,0,0,5.816-1.193.511.511,0,0,0,.362-.161l1.1-1.078c.1-.1.2-.189.3-.277a.567.567,0,0,0,.148.02,4.042,4.042,0,0,1,.462-.026,8.377,8.377,0,0,1,2.822.674c.319.116.648.236.973.339a11.616,11.616,0,0,0,3.545.432c.335,0,.676-.005,1.005-.01l.34-.005,5.1-.046c.319,0,.642,0,.954,0a31.916,31.916,0,0,0,3.592-.139,7.541,7.541,0,0,0,4.255-1.654.554.554,0,0,0,.14-.529,3.714,3.714,0,0,0,2.073-2.584.537.537,0,0,0,.011-.247,2.854,2.854,0,0,0,.6-.992,2.807,2.807,0,0,0-.031-2.079,6.854,6.854,0,0,0-2.115-2.985,1.913,1.913,0,0,0-.722-1.133,8.493,8.493,0,0,0-.924-.595l-.728-.433A2.864,2.864,0,0,0,133.92,83.6a.616.616,0,0,0-.214-.067,9.381,9.381,0,0,0-2.86-1.169.568.568,0,0,0-.145-.019h-.038a3.66,3.66,0,0,0-3.236-1.117.552.552,0,0,0-.2-.106,7.04,7.04,0,0,0-4.221-.286,3.629,3.629,0,0,0-3.754-.05,6.2,6.2,0,0,0-3.181.155.552.552,0,0,0-.353.3l-.018.01a8.475,8.475,0,0,1-3.418,1.138H111.01a5.653,5.653,0,0,0-.5-.829.537.537,0,0,0-.148-.309,48.157,48.157,0,0,0-13.6-10.264c-.866-.439-1.756-.862-2.617-1.27l-.238-.113a17.222,17.222,0,0,0-2.855-1.15,11.91,11.91,0,0,0-3.1-.37,27.9,27.9,0,0,0-3.016.2,7.222,7.222,0,0,0,.821-2.745,9.255,9.255,0,0,0-.89-5.046,4.612,4.612,0,0,0,1.145-4.045c-.286-1.87-1.554-3.439-2.673-4.823a5.574,5.574,0,0,0-.908-4.7A12.487,12.487,0,0,0,78.3,43.54a7.779,7.779,0,0,0-8.336-5.365,3.008,3.008,0,0,0-1.724-1.248l-.086-.036a14.8,14.8,0,0,0-2.947-.931,10.8,10.8,0,0,0-1.989-.191,8.225,8.225,0,0,0-3.691.821,10.67,10.67,0,0,0-8.3.276,8.291,8.291,0,0,0-1.47.9.615.615,0,0,0-.161-.072,6.15,6.15,0,0,0-4.612.6,7.914,7.914,0,0,0-3.169,3.41,9.214,9.214,0,0,0-.834,2.435,7.629,7.629,0,0,0-3.219,1.828,5.13,5.13,0,0,0-1.56,3.413,7.3,7.3,0,0,1-.823.877,7.66,7.66,0,0,0-.794.838,6.869,6.869,0,0,0-1.069,2.075,9.767,9.767,0,0,0-.149,4.984,20.216,20.216,0,0,0,.878,2.965.545.545,0,0,0,.047.11,7.282,7.282,0,0,0-.045,2.741l.022.162a8.051,8.051,0,0,0,.637,2.568,7.766,7.766,0,0,0,3.24,2.893,8.988,8.988,0,0,0,.77,4.591,5.19,5.19,0,0,0,3.1,2.493,1.577,1.577,0,0,0-.279,1.1,1.417,1.417,0,0,0-.548.587,1.5,1.5,0,0,0-.133.49,1.44,1.44,0,0,0,.019.389,1.479,1.479,0,0,0,.054.2,2.7,2.7,0,0,0-.693,1.787l0,.047a.564.564,0,0,0-.084.283v-.007a5.42,5.42,0,0,0,.012.849,2.863,2.863,0,0,1-.185,1.566,7.051,7.051,0,0,1-1.449,1.693l-.237.225c-1.092,1.049-2.545,2.674-2.55,4.656,0,.013,0,.026,0,.039a12.015,12.015,0,0,0-4.027,2.515q-.36.311-.716.623a37.424,37.424,0,0,1-3.5,2.819,29.757,29.757,0,0,1-2.786,1.679.543.543,0,0,0-.176.145,7.323,7.323,0,0,0-2.384,2.388,6.372,6.372,0,0,0-.949,3.227.5.5,0,0,0,.162.392,2.67,2.67,0,0,0-.437.526,2.389,2.389,0,0,0-.267,1.653c.13.706.671,1.715,2.516,2.515a15.042,15.042,0,0,0,2.134.7c.657,1.492,2.37,1.683,3.789,1.683.4,0,.788-.016,1.161-.032l.265-.011c2.283-.091,4.594-.288,6.871-.584,1.094-.143,2.213-.313,3.327-.506Zm7.331,5.826h0A4.82,4.82,0,0,1,47.1,116c-1.207-.3-2.463-1.218-2.37-2.53a.55.55,0,0,0-.549-.549.562.562,0,0,0-.141.019,5.088,5.088,0,0,1-.533-.074,4.331,4.331,0,0,1-.67-.176,1.161,1.161,0,0,1-.729-.633,2.159,2.159,0,0,1-.105-.731,7.714,7.714,0,0,1,0-.788,1.434,1.434,0,0,1,.439-1.067.546.546,0,0,0,.152-.3.583.583,0,0,0,.054-.137,7.376,7.376,0,0,1,2.76-3.514c.245-.2.5-.395.743-.585.428-.333.867-.675,1.282-1.033a6.243,6.243,0,0,0,1.579-1.822,2.872,2.872,0,0,0,.263-2,14.659,14.659,0,0,1,6.059-2.312.549.549,0,0,0-.292-1.058,15.339,15.339,0,0,0-6.25,2.376A.383.383,0,0,1,48.617,99a2.1,2.1,0,0,1-.409-.439c-.232-.291-.461-.594-.683-.887l-.277-.365-1.993-2.6a.568.568,0,0,0-.751-.2.557.557,0,0,0-.2.765l2.216,2.893c.1.131.2.267.3.4.242.328.492.667.768.97a2.39,2.39,0,0,0,.432.382.641.641,0,0,0,.047.093l.009,0,.009.016c.011.021.024.044.035.067a.44.44,0,0,0,.022.047,2.007,2.007,0,0,1-.556,2.091,14.2,14.2,0,0,1-2.043,1.8l0,0-.3.236c-1.543,1.2-3.1,2.529-3.641,4.473,0,.011-.005.022-.007.032a1.792,1.792,0,0,0-.29.361l-.057.01h-.006c-2.078.377-4.2.672-6.311.878-1.076.1-2.161.183-3.224.237-.778.06-1.568.091-2.349.091-.254,0-.512,0-.767-.01-.67-.033-1.837-.23-2.129-1.188l0-.006,0-.006a.48.48,0,0,0-.381-.376,14.089,14.089,0,0,1-2.172-.675,4.3,4.3,0,0,1-1.66-1.121,1.612,1.612,0,0,1-.285-.582c-.011-.047-.022-.092-.03-.137a.624.624,0,0,0,0-.112c0-.023,0-.04,0-.045a1.278,1.278,0,0,1,0-.167v-.018a.334.334,0,0,1,.016-.085l.006-.022a1.154,1.154,0,0,1,.274-.544,1.5,1.5,0,0,1,.617-.407.549.549,0,0,0-.15-1.079.556.556,0,0,0-.142.019l-.03.011a5.293,5.293,0,0,1,.94-2.735,6.373,6.373,0,0,1,2.162-1.952.582.582,0,0,0,.125-.091,29.945,29.945,0,0,0,4.49-3.005c.512-.416,1.015-.865,1.5-1.3a26.621,26.621,0,0,1,2.414-1.994,7.932,7.932,0,0,1,2.508-1.211.5.5,0,0,0,.335-.257.588.588,0,0,0,.008-.477.55.55,0,0,0,.052-.243c0-1.74,1.428-3.11,2.575-4.211l.033-.032A6.3,6.3,0,0,0,41.3,84.125a3.8,3.8,0,0,0,.153-1.629,6.415,6.415,0,0,1,0-.943c0-.014,0-.03,0-.045a.558.558,0,0,0,.083-.284c0-.07,0-.138.012-.2a2.256,2.256,0,0,1,.108-.406,2.4,2.4,0,0,1,.2-.351A2.085,2.085,0,0,1,42.121,80a.529.529,0,0,0,.086-.07.562.562,0,0,0,.024-.75c-.009-.012-.017-.024-.025-.037l-.006-.008-.008-.014c-.007-.013-.015-.025-.021-.038-.011-.037-.02-.067-.026-.1s0-.049,0-.075.014-.052.023-.078.02-.035.031-.05l.055-.055c.028-.017.051-.031.075-.043l.037-.011.016,0h.052a.562.562,0,0,0,.387-.16.547.547,0,0,0,.12-.6.534.534,0,0,0-.074-.127c0-.012-.01-.024-.015-.036a.8.8,0,0,1-.026-.094,1.119,1.119,0,0,1,0-.123,1.391,1.391,0,0,1,.041-.149c.017-.033.037-.067.063-.108a.954.954,0,0,1,.08-.08l0,0,.006,0a8.07,8.07,0,0,0,6.755,4.8,11.21,11.21,0,0,0,8,3.381c.311,0,.627-.013.937-.039a10.475,10.475,0,0,0,2.8-.623.427.427,0,0,0,.067-.025A9.632,9.632,0,0,0,69.3,82.408a9.116,9.116,0,0,0,1.4-1.554c.153.013.31.019.468.019a8.138,8.138,0,0,0,4.7-1.748c1.873-1.342,2.832-2.708,2.932-4.178a10.484,10.484,0,0,0,2.8-1.959,4.416,4.416,0,0,0,1.3-3.125.486.486,0,0,0,.242.065.539.539,0,0,0,.273-.079,3.688,3.688,0,0,0,.563-.4.537.537,0,0,0,.153.022l-.008,0,.319-.036a31.023,31.023,0,0,1,3.479-.263,11.516,11.516,0,0,1,2.13.181,11.785,11.785,0,0,1,2.811.977l.231.11c.833.4,1.694.8,2.534,1.208a46.863,46.863,0,0,1,13.494,9.893.549.549,0,0,0,.142.247,5.818,5.818,0,0,1,1.3,4.578,17.176,17.176,0,0,1-.514,2.728,5.575,5.575,0,0,1-.957,2.268.68.68,0,0,0-.137.563.42.42,0,0,0,.249.3,1.1,1.1,0,0,0,.386.116.551.551,0,0,0,.62.257l-.012,0a1.145,1.145,0,0,1,.405-.076,1.749,1.749,0,0,1,1.2.635,10.237,10.237,0,0,1,1.186,1.722c.184.312.365.636.538.962a3.448,3.448,0,0,0,.22.438,2.153,2.153,0,0,0-.154.159L111.926,98.1c-2.82,1.113-5.889,1.214-8.857,1.312-.495.016-1.006.033-1.51.055a47.874,47.874,0,0,0-5.621.6,30.5,30.5,0,0,1-5.48.5h-.271a50.291,50.291,0,0,1-5.873-.6l2.993-3.885L87.6,95.7a14.967,14.967,0,0,0,2.561-4.139.549.549,0,1,0-1.058-.292,13.484,13.484,0,0,1-2.325,3.717c-.16.2-.326.414-.486.622l-3.321,4.31-2.751.9a38.324,38.324,0,0,1-2.6-4.962.554.554,0,0,0-.752-.2.565.565,0,0,0-.2.751,38.6,38.6,0,0,0,2.629,5.01,4.417,4.417,0,0,0-.416,1.563l-.017.12a8.5,8.5,0,0,1-.415,1.673,7.924,7.924,0,0,1-1.781,2.844,10.409,10.409,0,0,1-5.518,2.777,18.052,18.052,0,0,1-3.444.333h-.173a.506.506,0,0,0-.517.42,9.19,9.19,0,0,1-1.622,2.063,3.882,3.882,0,0,1-2.545.878c-.224.009-.449.014-.667.019a10.808,10.808,0,0,0-2.476.249c-.275.071-.55.147-.817.221a17.181,17.181,0,0,1-2.395.539,14.479,14.479,0,0,1-3.733,0,.563.563,0,0,0-.375.039l-.049.01-.207.072A12.232,12.232,0,0,1,48.26,116.137Zm73.559-18.152a10.4,10.4,0,0,1-2.965-.345c-.391-.116-.79-.259-1.176-.4a10.01,10.01,0,0,0-2.813-.707,1.57,1.57,0,0,0-.263-1.021c-.205-.4-.427-.8-.659-1.184l-.032-.054a9.5,9.5,0,0,0-1.5-2.079,2.739,2.739,0,0,0-1.813-.778,1.9,1.9,0,0,0-.2.01.269.269,0,0,0-.02-.025,7.966,7.966,0,0,0,.719-1.93,19.121,19.121,0,0,0,.575-3.108,8.172,8.172,0,0,0-.242-2.885h.336a.525.525,0,0,0,.181.032c.122-.007.247-.017.382-.032h.01a.525.525,0,0,0,.119-.014,9.669,9.669,0,0,0,3.805-1.273.537.537,0,0,0,.216-.232c.2-.06.4-.11.6-.15l.19-.03h.006l.067,0,.035,0c.11-.012.226-.019.365-.024.076,0,.153-.005.229-.005.168,0,.337.008.5.025l.042,0c.032,0,.068.007.084.007s.008,0,.008,0-.009,0-.028-.009a.532.532,0,0,1,.112.016l.054.011c.112.019.231.044.386.081a.563.563,0,0,0,.148.02,1.424,1.424,0,0,0,.4-.093l0-.006a2.882,2.882,0,0,1,.386-.219l.055-.024.057-.022c.081-.028.155-.052.22-.07s.133-.034.2-.05l.1-.018.013,0a.08.08,0,0,0,.024,0,3.164,3.164,0,0,1,.328-.017l.111,0a1.866,1.866,0,0,1,.22.013h.012l.1.017a2.948,2.948,0,0,1,.439.112l.123.046.031.012.01,0-.029-.016.037.017c.051.024.1.049.152.077l.018.01c.059.033.125.07.185.111l.085.059.012.008.005,0,.018.014a.566.566,0,0,0,.775,0,6.018,6.018,0,0,1,3.5.276.546.546,0,0,0,.572.184l.011,0c.069-.015.149-.033.22-.046l.009,0,.108,0c.072-.005.146-.008.219-.008s.147,0,.22.008l.116.011h.014a1.59,1.59,0,0,1,.221.049,3.536,3.536,0,0,1,.424.136.562.562,0,0,0,.067.033l.038.017c.065.033.134.07.2.112l.177.114.067.049.006,0,.04.03a2.922,2.922,0,0,1,.316.308l.023.027c.018.021.035.042.054.063l0,0,.009.014c.047.065.09.132.13.2a.545.545,0,0,0,.482.3h.009a.544.544,0,0,0,.427-.205c.086.024.173.05.258.076.142.047.272.092.4.139l.2.076.067.027.011.006.011.006a9.229,9.229,0,0,1,1.409.767.561.561,0,0,0,.275.075l.051.035.007.005s0,0,.009.009a.782.782,0,0,1,.085.067,2.212,2.212,0,0,1,.22.22c.008.01.02.026.029.039l.013.018a.336.336,0,0,0-.021-.036.038.038,0,0,1,.009.009l.007.01a1.414,1.414,0,0,1,.1.147c.028.043.054.09.079.139l.038.073a.214.214,0,0,0,.015.045l0,.009a.224.224,0,0,1-.018-.03v.02l.026.075c.014.042.032.1.046.154l.007.029c.011.043.022.084.031.127a.055.055,0,0,1,0,.012.555.555,0,0,0,.018.239c0,.037,0,.076-.006.127a.543.543,0,0,0,.775.5l.017.009c.34.2.725.418,1.082.658l.067.046.05.035-.031-.023c.035,0,.087.058.125.1l.031.033c.022.021.077.079.112.118l0,.006.006.011.013.02c.013.02.026.04.037.061a.345.345,0,0,0,.021.032l0,.007.015.042a.814.814,0,0,1,.026.092.625.625,0,0,1,.013.072.155.155,0,0,1-.013-.033c0-.013-.007-.019-.009-.019a.16.16,0,0,0,0,.062c0,.018,0,.035.005.048a.064.064,0,0,1-.007.025.562.562,0,0,0,.207.752.555.555,0,0,0,.274.073.549.549,0,0,0,.194-.035c.083.083.17.172.283.289.077.08.149.16.225.245l.108.12c.052.062.105.126.156.189s.064.081.066.082l.007.01.01.014.03.042a4.328,4.328,0,0,1,.465.79.282.282,0,0,0,.029.07.114.114,0,0,1,.013.024.565.565,0,0,0,.07.273l0-.007.032.063c.013.048.023.1.033.155,0,.022.008.044.012.065v.01a.616.616,0,0,0,.014.15.554.554,0,0,0,.079.284c0,.058,0,.116,0,.173v.1a2.983,2.983,0,0,1-.116.452l-.007.016-.009.022,0,.006,0,.005c-.008.019-.023.055-.028.063-.031.065-.067.131-.107.2-.03.05-.064.1-.1.148l-.027.04-.006.007-.008.008-.068.076c-.051.056-.106.108-.158.157a.663.663,0,0,1-.059.051l-.012.009-.021.016a2.061,2.061,0,0,1-.189.116l-.09.046a.139.139,0,0,0-.038.009.55.55,0,0,0,.021,1.066,3.263,3.263,0,0,1-.207.317l-.066.079c-.049.056-.1.11-.156.167s-.109.106-.165.156l-.082.066-.011.008c-.053.03-.1.065-.151.1a2.362,2.362,0,0,1-.205.131c-.061.035-.128.068-.2.1a.667.667,0,0,0-.07.024l.009,0-.035.017a3.575,3.575,0,0,1-.439.121.541.541,0,0,0-.273.879,6.674,6.674,0,0,1-3.03,1.007,30.4,30.4,0,0,1-3.491.141c-.294,0-.588,0-.881,0l-5,.044c-.247,0-.5.007-.741.012C122.516,97.978,122.165,97.985,121.819,97.985ZM57.741,84.266h0a10.1,10.1,0,0,1-5.288-1.494,9.287,9.287,0,0,1-1.989-1.641.539.539,0,0,0-.206-.143.56.56,0,0,0-.288-.087A6.7,6.7,0,0,1,46,79.36a6.785,6.785,0,0,1-2.3-3.582.484.484,0,0,0-.491-.391.6.6,0,0,0-.538.324h-.031a.6.6,0,0,0-.139-.051l.012,0a4.073,4.073,0,0,1-2.684-2.1,7.747,7.747,0,0,1-.589-3.868.591.591,0,0,0,.127-.469.5.5,0,0,0-.258-.344l-.185-.107A7.283,7.283,0,0,1,35.9,66.21a5.829,5.829,0,0,1-.5-1.936c-.019-.136-.038-.269-.058-.4a6.23,6.23,0,0,1,.059-2.558.5.5,0,0,0-.08-.455c0-.013-.006-.028-.01-.042a15.835,15.835,0,0,1-1.072-4.58A6.672,6.672,0,0,1,35.416,51.8a7.728,7.728,0,0,1,.881-.954,9.071,9.071,0,0,0,.765-.8A.5.5,0,0,0,37.3,49.6a4.081,4.081,0,0,1,1.3-2.923,6.822,6.822,0,0,1,3.018-1.588.5.5,0,0,0,.39-.5.327.327,0,0,0,.01-.035A7.933,7.933,0,0,1,44.5,39.97a5.5,5.5,0,0,1,3.563-1.391,4.659,4.659,0,0,1,1.08.126.62.62,0,0,0,.551.376.544.544,0,0,0,.364-.145h0v0a8.34,8.34,0,0,1,5.557-1.947,10.055,10.055,0,0,1,3.773.731.558.558,0,0,0,.143.019.906.906,0,0,0,.339-.082,7.061,7.061,0,0,1,3.339-.793,8.785,8.785,0,0,1,1.514.134,13.722,13.722,0,0,1,2.583.729c.346.134.747.292,1.129.482l.032.016c.181.089.518.256.534.459,0,.02,0,.04,0,.059a.545.545,0,0,0,.015.2.562.562,0,0,0,.677.384,6.741,6.741,0,0,1,1.191-.107,6.7,6.7,0,0,1,6.249,4.3.51.51,0,0,0,.19.724v.006a12.978,12.978,0,0,1,4.054,3.1,4.447,4.447,0,0,1,.793,4.295.569.569,0,0,0,.2.751.537.537,0,0,0,.243.073,9.926,9.926,0,0,1,2.3,4.044,3.423,3.423,0,0,1-1.06,3.417.563.563,0,0,0-.2.751.549.549,0,0,0,.163.175,8.221,8.221,0,0,1,.858,4.494c-.09.987-.445,2.76-1.8,3.549a.524.524,0,0,0-.228.251.579.579,0,0,0-.3-.1.553.553,0,0,0-.549.549c.254,2.189-1.76,3.454-3.667,4.468a.506.506,0,0,0-.323.205.484.484,0,0,0-.084.514c-.051,1.178-.859,2.3-2.47,3.444a7.133,7.133,0,0,1-4.034,1.559,4.162,4.162,0,0,1-.737-.065.563.563,0,0,0-.676.383.558.558,0,0,0-.018.148,8.445,8.445,0,0,1-8.245,3.314.561.561,0,0,0-.542.157A10.073,10.073,0,0,1,57.741,84.266Z" transform="translate(9.5 9.5)" fill="#fff" stroke="#b064e8" stroke-width="1"/>
  </g>
</svg>
