<svg xmlns="http://www.w3.org/2000/svg" xmlns:xlink="http://www.w3.org/1999/xlink" width="172" height="172" viewBox="0 0 172 172">
  <defs>
    <filter id="Rectangle_577" x="31.955" y="12.509" width="108.09" height="146.982" filterUnits="userSpaceOnUse">
      <feOffset input="SourceAlpha"/>
      <feGaussianBlur stdDeviation="3" result="blur"/>
      <feFlood flood-opacity="0.161"/>
      <feComposite operator="in" in2="blur"/>
      <feComposite in="SourceGraphic"/>
    </filter>
    <filter id="Subtraction_29" x="0" y="0" width="172" height="172" filterUnits="userSpaceOnUse">
      <feOffset input="SourceAlpha"/>
      <feGaussianBlur stdDeviation="3" result="blur-2"/>
      <feFlood flood-opacity="0.161"/>
      <feComposite operator="in" in2="blur-2"/>
      <feComposite in="SourceGraphic"/>
    </filter>
  </defs>
  <g transform="matrix(1, 0, 0, 1, 0, 0)" filter="url(#Subtraction_29)">
    <path id="Subtraction_29-2" data-name="Subtraction 29" d="M76.5,153a76.143,76.143,0,0,1-42.772-13.065A76.724,76.724,0,0,1,6.012,106.277a76.4,76.4,0,0,1,7.053-72.549A76.724,76.724,0,0,1,46.723,6.012a76.4,76.4,0,0,1,72.549,7.053,76.724,76.724,0,0,1,27.716,33.658,76.4,76.4,0,0,1-7.053,72.549,76.724,76.724,0,0,1-33.658,27.716A76.02,76.02,0,0,1,76.5,153Zm-1.337-24.391v0a8.264,8.264,0,0,0-.193,4.948,9.309,9.309,0,0,0,4.254,5.448,11,11,0,0,0,3.263,1.3l.023.005a8.412,8.412,0,0,0,1.007.173h.611a1.952,1.952,0,0,0,.339-.066,2.732,2.732,0,0,0,1.418-1.238c1.148-1.789,1.506-4.092,1.125-7.248-.076-.641-.178-1.3-.276-1.937-.369-2.392-.751-4.866.029-7.224a6.093,6.093,0,0,1,.18-.72.581.581,0,0,0-.475-.4c.043-.312.08-.587.115-.866a28.154,28.154,0,0,0,.265-3.9,5.832,5.832,0,0,0,1.558,1.554,17.336,17.336,0,0,0,1.9,1.125c.362.195.737.4,1.1.608.325.192.638.406.94.614a7.789,7.789,0,0,0,1.986,1.1,10.394,10.394,0,0,0,2.767.43h.01l.33.021a15.791,15.791,0,0,1,1.782.189,5.247,5.247,0,0,0-1.872,1.049,4.793,4.793,0,0,0-1.351,2.206,7.853,7.853,0,0,0-.293,2.611,2.579,2.579,0,0,0,1.193,2.228,5.828,5.828,0,0,0,2.681.629h.02c.544.033,1.1.049,1.641.049.579,0,1.164-.019,1.739-.055a.548.548,0,0,0,.085.007,1.15,1.15,0,0,0,.528-.172,115.134,115.134,0,0,1,12.776-5.05l.16-.05a10.509,10.509,0,0,0,2.978-1.284,2.8,2.8,0,0,0,1.476-1.817,3.281,3.281,0,0,0,.068-.491v-.407a3.288,3.288,0,0,0-.743-1.893,7.272,7.272,0,0,0-3.224-1.958,9.27,9.27,0,0,1-2.651-1.374c-1.76-1.451-1-3.562-.327-5.425.165-.458.321-.891.439-1.306a15.97,15.97,0,0,0-.045-8.125,41.926,41.926,0,0,0-2.948-7.765l-.269-.577a66.34,66.34,0,0,1-2.973-7.1l0-.01c-.4-1.236-.808-2.514-1.3-3.725a16.328,16.328,0,0,0-1.958-3.4l-.094-.127a11.541,11.541,0,0,1-1.864-3.181,19.968,19.968,0,0,1-.52-2.095c-.119-.563-.241-1.145-.4-1.71-1.5-5.181-4.733-9.609-7.7-13.257l-.856-1.026a.579.579,0,0,0,.045-.212,21.167,21.167,0,0,0-.045-3.4,9.116,9.116,0,0,0-.36-1.711,11.561,11.561,0,0,0-.675-1.576,6.833,6.833,0,0,1-.585-1.6c-.1-.414-.163-.844-.225-1.26-.023-.153-.045-.3-.069-.451a23.775,23.775,0,0,0-.878-3.421c-.393-1.179-.852-2.345-1.3-3.472l-.122-.31a.578.578,0,0,0-.21-.288l.345-8.468a.509.509,0,0,0-.12-.361c.743-.633,1.495-1.291,2.236-1.958a6.8,6.8,0,0,0,1.666-1.936,5.924,5.924,0,0,0,.338-2.791c-.045-.975-.024-1.6.653-2a.533.533,0,0,0,.224-.743c.391-2.471-1.2-4.631-2.812-5.828A14.125,14.125,0,0,0,88.5,14.467a20.836,20.836,0,0,0-3.6-1.148,8.688,8.688,0,0,0-1.719-.183,6.343,6.343,0,0,0-2.307.416h-.014a9.185,9.185,0,0,0-4.092-1.04,7.592,7.592,0,0,0-1.3.112,17.506,17.506,0,0,0-2.04.517,9.743,9.743,0,0,1-2.834.548c-.093,0-.188,0-.281-.007h-.04a.492.492,0,0,0-.288.084.579.579,0,0,0-.279-.083,8.418,8.418,0,0,0-.995-.058,16.5,16.5,0,0,0-5.038,1.026l-.256.083c-1.825.592-3.4,1.1-4.628,2.438a4.677,4.677,0,0,0-1.26,2.633.558.558,0,0,0,.1.315.579.579,0,0,0-.006.09,13.177,13.177,0,0,0,1.161,4.774,23.884,23.884,0,0,1,.887,2.631,7.076,7.076,0,0,1,.225,1.8,5.664,5.664,0,0,1-.1.891,4.423,4.423,0,0,0-.084,1.135c.071.711.5,1.487,1.26,1.508H61c.813,0,1.066-1.049,1.188-1.554.151-.681.287-1.308.415-1.916a9.1,9.1,0,0,0,1.364,3.2c.01.015.021.031.031.044a9.972,9.972,0,0,1-.651,1.493c-.167.332-.34.675-.484,1.028a12.923,12.923,0,0,0-.81,2.746,33.257,33.257,0,0,0-.36,5.784.52.52,0,0,0,.16.391.6.6,0,0,0,.585.5.651.651,0,0,0,.2-.032,1.136,1.136,0,0,1,.341-.052,2.733,2.733,0,0,1,1.363.556c.167.1.325.2.48.284a3.837,3.837,0,0,0,1.652.455l.09,0a17.138,17.138,0,0,1-3.228,4.543l-.145.162a25.768,25.768,0,0,0-3.771,4.992,33.328,33.328,0,0,0-1.463,3.444l-1.418,3.736c-.16.429-.329.866-.492,1.289a29.351,29.351,0,0,0-1.849,6.072,35.812,35.812,0,0,0-.215,5.844c.016.889.032,1.806.017,2.706l0,0a18.744,18.744,0,0,0-3.848,9.319,26.111,26.111,0,0,0-.135,2.8,26.1,26.1,0,0,1-.135,2.8,18.78,18.78,0,0,1-1.082,4.127c-.089.255-.18.518-.269.781a18.29,18.29,0,0,0-1.17,5.407.6.6,0,0,0-.045.062v-.023a8.259,8.259,0,0,0-1.107,2.15c-.059.148-.117.294-.176.439a14.546,14.546,0,0,1-1.4,2.562,4.933,4.933,0,0,1-.83-.829.561.561,0,0,0-.787,0,.9.9,0,0,1-.248.585c-1.031,2.214-2.993,3.718-4.891,5.173l-.152.117c-2.072,1.591-4.018,3.2-5.064,5.4a6.577,6.577,0,0,0-.7,2.334v.371a2.047,2.047,0,0,0,.405,1.145,5.105,5.105,0,0,0,1.6,1.238,11.52,11.52,0,0,0,1.823.832,10.216,10.216,0,0,0,3.425.6,8.9,8.9,0,0,0,4.025-.934,8.4,8.4,0,0,0,3.664-3.693l.025-.011.025-.011a.558.558,0,0,0,.19-.184,2.948,2.948,0,0,0,.418.814,1.27,1.27,0,0,0,.992.487A1.751,1.751,0,0,0,50.1,121.36a3.871,3.871,0,0,0,.112-1.688l-.112-1.89-.112-1.891-.006-.131a3.873,3.873,0,0,1,.118-1.468,2.079,2.079,0,0,1,.744-.929c.06-.05.119-.1.178-.151a5.427,5.427,0,0,0,.757-.7.483.483,0,0,0,.367-.187.61.61,0,0,0,.1-.489.478.478,0,0,0-.1-.408.638.638,0,0,0-.486-.234l-.043,0c.133-.286.267-.592.4-.911a8.275,8.275,0,0,1,1.575-2.522.669.669,0,0,0,.249-.56.472.472,0,0,0-.246-.342,32.458,32.458,0,0,1,2.832-10.149c.4-.957.834-1.936,1.252-2.883a73.177,73.177,0,0,0,2.98-7.494,25.98,25.98,0,0,0,.851-3.407,18.06,18.06,0,0,0,2.66,6.176A45.379,45.379,0,0,0,67.249,92.8a17.975,17.975,0,0,0,3.421,3.083A9.3,9.3,0,0,0,73.72,97.2a4.585,4.585,0,0,0-1.2,1,6.821,6.821,0,0,0-1.53,3.8,6.044,6.044,0,0,0,.54,3.894,4.286,4.286,0,0,0,1.507,1.327c.544.33,1.125.629,1.687.919l.271.14a22.273,22.273,0,0,0,2.341.99l.332.121c.127.046.251.091.372.136a37.637,37.637,0,0,1-4.236.564,34.715,34.715,0,0,0-4.581.64.522.522,0,0,0-.18-.033.509.509,0,0,0-.372.17l.008,0a.489.489,0,0,0-.3.357q-.4.391-.8.78l-.013.013c-.657.641-1.336,1.3-1.979,1.974a2.385,2.385,0,0,0-.787,1.553,1.3,1.3,0,0,0,1.1,1.282,11.641,11.641,0,0,0,1.794.14c.114,0,.23,0,.345-.005.193.006.393.009.593.009.494,0,1.007-.017,1.612-.054,1.433-.09,2.887-.249,4.322-.473s3.03-.5,4.389-.756a9.3,9.3,0,0,0-.336,2.584.587.587,0,0,0-.227-.14.731.731,0,0,0-.736,1.03,5.464,5.464,0,0,0,.06,1.041l.009.092a2.626,2.626,0,0,1-.1,1.348,3.559,3.559,0,0,1-.878,1.081l-1.351,1.26-1.327,1.261a7.18,7.18,0,0,0-1.126,1.193,1.988,1.988,0,0,0-.228,1.687,1.271,1.271,0,0,0,.836.811,1.319,1.319,0,0,0,.419.067,2.336,2.336,0,0,0,1.19-.4Zm26.082,1.6c-.362,0-.728-.007-1.088-.022h-.006a7.433,7.433,0,0,1-2.335-.315,1.622,1.622,0,0,1-.743-.5,1.655,1.655,0,0,1-.27-.968,6.835,6.835,0,0,1,.27-2.363,3.565,3.565,0,0,1,1.215-1.8,4.734,4.734,0,0,1,1.981-.81,14.488,14.488,0,0,1,2.708-.186c.6,0,1.213-.007,1.816-.061a6.373,6.373,0,0,0,4.5-2.093.564.564,0,0,0-.2-.765l-.019-.009-.019-.009c-1.049-2.608-3.641-3.373-6.147-4.113a20.066,20.066,0,0,1-3.133-1.113,25.807,25.807,0,0,1-4.682-3.2l-.533-.432A21.52,21.52,0,0,1,91,108.1a7.176,7.176,0,0,1-1.305-2.561,4.5,4.5,0,0,1,.113-2.864.564.564,0,0,0-.383-.7.582.582,0,0,0-.134-.018c.1-.441.193-.855.269-1.265a40.455,40.455,0,0,0,.586-5.177c.112-1.936.112-3.827.112-5.829a.609.609,0,0,0-.013-.131,65.21,65.21,0,0,1,1.994-12.2c.3-1.126.629-2.269.99-3.4a.494.494,0,0,0-.059-.462.6.6,0,0,0-.48-.23.551.551,0,0,0-.541.4h-.023a66.827,66.827,0,0,0-2.7,12.447c-.133,1.168-.239,2.372-.315,3.579a.173.173,0,0,0,0,.022v.017a62.755,62.755,0,0,1-.563,10.248,50.5,50.5,0,0,1-1.215,4.952,34.533,34.533,0,0,0-1.013,5.154c-.207,1.8-.3,3.581-.382,5.393a.474.474,0,0,0-.225.46l-.022.023a30.46,30.46,0,0,1-.378,5.72,5.658,5.658,0,0,1-1.265-.251,13.341,13.341,0,0,1-1.981-.7,14.192,14.192,0,0,1-2.165-1.2l.014-.086.013-.085a.586.586,0,0,0-.158-.56l-.013-.013-.01-.01a8.185,8.185,0,0,1,.422-3.192.586.586,0,0,0,.165-.254,76.936,76.936,0,0,0,1.575-18.1c-.059-1.688-.172-3.407-.338-5.109a.59.59,0,0,0-.07-.257c0-.019,0-.039,0-.059a11.545,11.545,0,0,0-2.026-6.1,40.3,40.3,0,0,0-4.052-5.087,11.689,11.689,0,0,0-2.678-2.273.561.561,0,0,0-.28-.079.587.587,0,0,0-.539.448.509.509,0,0,0,.256.6,15.153,15.153,0,0,1,3.78,3.633l.384.464A19.534,19.534,0,0,1,79.673,88.5a9.07,9.07,0,0,1,.7,3.309.541.541,0,0,0,.069.276s0,.007,0,.01,0,.007,0,.01a75.738,75.738,0,0,1-.251,17.384.6.6,0,0,0-.193-.21l-.007-.007v-.042a8.745,8.745,0,0,0-2.376-1.1c-.385-.133-.782-.271-1.157-.43a20.112,20.112,0,0,1-1.868-.9,10.818,10.818,0,0,1-1.576-.945,3.467,3.467,0,0,1-.967-3.017,7.161,7.161,0,0,1,.945-3.421,3.52,3.52,0,0,1,2.9-1.711.522.522,0,0,0,.532-.461.561.561,0,0,0-.351-.637.472.472,0,0,0-.477-.366h-.041c-.092,0-.186.006-.278.006A7.064,7.064,0,0,1,71.4,95a15.918,15.918,0,0,1-3.117-2.748c-.962-1.049-1.979-2.175-2.9-3.4a14.436,14.436,0,0,1-2.116-3.916A37.964,37.964,0,0,1,62.027,80.1a.483.483,0,0,0-.459-.4.61.61,0,0,0-.25-.052.571.571,0,0,0-.6.541,32.833,32.833,0,0,1-2.9,10.534c-.393.929-.819,1.886-1.23,2.812a68.075,68.075,0,0,0-3.024,7.61,25.406,25.406,0,0,0-1.125,6.144.438.438,0,0,0,0,.049,11.7,11.7,0,0,0-1.673,2.975c-.139.315-.281.638-.429.952a14.124,14.124,0,0,1-3.006-.756,12.141,12.141,0,0,1-1.777-.8,15.337,15.337,0,0,0,1.461-2.642c.053-.129.1-.258.157-.387a9.266,9.266,0,0,1,1.059-2.1.489.489,0,0,0,.248-.464H48.5a17.258,17.258,0,0,1,1.269-5.787,26.207,26.207,0,0,0,1.095-3.8,22.279,22.279,0,0,0,.257-3.673c.009-.634.019-1.29.058-1.932a17.388,17.388,0,0,1,3.6-9.476.573.573,0,0,0,.076-.106.529.529,0,0,0,.261-.456c.026-1.006,0-2.029-.016-3.018a40.893,40.893,0,0,1,.084-4.747,24.713,24.713,0,0,1,1.867-6.583l.007-.019q.121-.312.241-.624l1.417-3.737.089-.238c.4-1.061.8-2.158,1.307-3.205a15.448,15.448,0,0,1,1.711-2.836c.634-.839,1.342-1.614,2.026-2.363a31.491,31.491,0,0,0,2.4-2.893l.055.12a.547.547,0,0,0-.122.116.561.561,0,0,0,.03.721l.966.8a16.055,16.055,0,0,0,1.979,2.6A40.385,40.385,0,0,0,65.2,55.343a20.913,20.913,0,0,0-2.161,1.486A3.06,3.06,0,0,0,61.95,58.9a.592.592,0,0,0,.015.589.519.519,0,0,0,.441.277.531.531,0,0,0,.3-.1,28.829,28.829,0,0,1,6.7-2.969,2.73,2.73,0,0,0-.447.763,2.346,2.346,0,0,0,.427,2.3,2.07,2.07,0,0,0,.779.554.592.592,0,0,0-.059.233l.045.023a16.225,16.225,0,0,0,0,3.984.582.582,0,0,0,.338.518.563.563,0,0,0,.608-.112,4.143,4.143,0,0,0,.578-4.638A1.944,1.944,0,0,0,72.9,58.495a3.656,3.656,0,0,0-1.26-2.431.583.583,0,0,0-.075-.081c1.2-.4,2.477-.847,3.743-1.4A29.346,29.346,0,0,0,88.866,42.284a33.842,33.842,0,0,1,1.612,5.159c.063.323.115.656.165.978a10.13,10.13,0,0,0,.6,2.465c.113.26.239.519.361.769s.246.5.359.762a7.2,7.2,0,0,1,.451,1.553,15.993,15.993,0,0,1,.124,3.432.561.561,0,0,0-.1.079.582.582,0,0,0,0,.787v.023c2.953,3.515,6.257,7.676,8.08,12.56a25.427,25.427,0,0,1,1.058,3.668,11.036,11.036,0,0,0,1.283,3.647c.341.551.708,1.047,1.063,1.527.382.517.742,1,1.075,1.556a17.436,17.436,0,0,1,1.553,3.467c.186.528.362,1.069.532,1.593.222.684.451,1.389.706,2.076.42,1.134,1,2.5,1.621,3.849.265.578.541,1.165.809,1.733a61.081,61.081,0,0,1,2.455,5.717,18.718,18.718,0,0,1,1.193,7.833,14.818,14.818,0,0,1-.923,3.737,8.4,8.4,0,0,0-.743,3.691,4.1,4.1,0,0,0,1.756,2.9,10.952,10.952,0,0,0,2.524,1.25c.179.07.358.141.537.213a5.1,5.1,0,0,1,2.588,1.756,2.092,2.092,0,0,1,.068,2.116,1.052,1.052,0,0,1-.743.54.464.464,0,0,0-.368.3,8.368,8.368,0,0,1-2.02.815c-.136.041-.27.083-.4.125-1.321.419-2.374.779-3.219,1.1-2.3.83-4.544,1.786-6.437,2.611l-3.534,1.478C102.381,130.188,101.808,130.206,101.245,130.206Zm-20.377-4.477h0l-.227-.187a4.5,4.5,0,0,0,.519.164l.011,0,.014.005c-.107,0-.21.007-.316.015Zm-42.6-.894c-.3-.024-.6-.064-.892-.118.234.018.486.033.751.043h.022a.575.575,0,0,0,.068.044l.052.027Zm63.209-2.671h0a.647.647,0,0,0-.147-.1l.045-.022a9.524,9.524,0,0,0-3.8-.808,17.292,17.292,0,0,1-2.183-.25,5.112,5.112,0,0,1-1.328-.427,13.059,13.059,0,0,1-1.372-.923,18.086,18.086,0,0,0-1.834-1.061c-.393-.207-.8-.421-1.183-.649a5.142,5.142,0,0,1-2.25-2.251.587.587,0,0,0-.353-.365,45.716,45.716,0,0,1,1.23-9.652c.047-.171.094-.343.142-.514a7.545,7.545,0,0,0,.938,2.629,15.933,15.933,0,0,0,3.894,4.1l.368.3a38.724,38.724,0,0,0,4.291,3.189,16.3,16.3,0,0,0,2.633,1.305c.654.249,1.348.446,2.02.638.3.086.608.173.906.263,1.716.5,3.779,1.3,4.5,3.106a.587.587,0,0,0,.083.16,5.569,5.569,0,0,1-3.594,1.258c-.408.027-.869.032-1.358.037-.533.005-1.085.011-1.646.045ZM68.488,115.84c-.344,0-.693-.006-1.037-.017l-.945-.045c-.039-.006-.089-.008-.142-.011-.17-.01-.381-.022-.466-.124-.114-.137.283-.689.406-.833.675-.72,1.394-1.424,2.089-2.1.275-.269.559-.547.837-.823a32.673,32.673,0,0,1,4.86-.708,28.968,28.968,0,0,0,5.479-.876.565.565,0,0,0,.136.017.559.559,0,0,0,.391-.157c-.208,1.453-.46,2.914-.746,4.343l-.051,0a.591.591,0,0,0-.143.017,75.025,75.025,0,0,1-7.788,1.193C70.413,115.8,69.444,115.84,68.488,115.84Zm2.5-56.536H70.6a.54.54,0,0,1-.121-.04l-.127-.073-.067-.045.049.029-.01-.007a.6.6,0,0,1-.062-.045l-.117-.136a.172.172,0,0,0-.018-.044l-.045-.067-.09-.158a.1.1,0,0,0-.01-.03l.01.03a.228.228,0,0,1-.02-.045s0,0,0,.005l.005.01-.035-.105-.045-.2v-.406l.059-.2a.274.274,0,0,1,.031-.05l.068-.112.123-.185c.012-.014.026-.032.034-.04l.09-.09.09-.09.067-.068h.045l.113-.068.226-.112.083-.023.232.248.067.09.158.225.225.4a.1.1,0,0,0,.02.045.044.044,0,0,0,0-.013l.03.058.068.247v.406l-.059.2a.254.254,0,0,1-.031.051l-.045.09a.26.26,0,0,0-.045.061.047.047,0,0,0,.018-.012l-.04.041-.105.087-.006,0-.024.02-.113.068h-.09l-.2.045Zm-3.832-2.984v0l.124-.064c.1-.032.205-.066.31-.1l.289-.1H67.9C67.675,56.132,67.432,56.219,67.154,56.321Zm5.375-6.181a4.718,4.718,0,0,1-1.656-.289,3.321,3.321,0,0,1-1.8-1.621c-.143-.273-.268-.553-.388-.825a6.5,6.5,0,0,0-.894-1.594l.011-.029.011-.029a20.859,20.859,0,0,1-.227-.873.542.542,0,0,0-.039-.058,3.42,3.42,0,0,0,1.1-1.1,1.329,1.329,0,0,1,.45-.472,1.566,1.566,0,0,1,.615-.124,1.584,1.584,0,0,1,.2.012,4.674,4.674,0,0,1,1.666.45,6.386,6.386,0,0,1,1.463,1.013,5.344,5.344,0,0,0,1.531,1.035,2.942,2.942,0,0,0,1.1.2,5.309,5.309,0,0,0,2.415-.671A5.791,5.791,0,0,0,80.664,42.4a.59.59,0,0,0-.2-.766.564.564,0,0,0-.766.2l-.023-.023a4.8,4.8,0,0,1-1.958,2.251,4.29,4.29,0,0,1-2.047.639,2.022,2.022,0,0,1-.834-.166,4.092,4.092,0,0,1-1.036-.766c-.076-.069-.15-.137-.224-.2a6.5,6.5,0,0,0-1.508-.99,5.9,5.9,0,0,0-2.311-.587,2.439,2.439,0,0,0-1.267.317,2.52,2.52,0,0,0-.728.766,3.247,3.247,0,0,1-.51.607,1.461,1.461,0,0,1-1.4.27.592.592,0,0,0-.181-.03.514.514,0,0,0-.49.417c-.094-.056-.175-.11-.251-.162a3.946,3.946,0,0,0-1.983-.722c-.044,0-.089,0-.133,0a27.258,27.258,0,0,1,.36-5.269,11.667,11.667,0,0,1,.788-2.611c.14-.322.3-.639.456-.946a10.2,10.2,0,0,0,.714-1.642.569.569,0,0,0-.13-.643.551.551,0,0,0-.073-.235,8.171,8.171,0,0,1-1.373-5.559.559.559,0,0,0-.268-.48.586.586,0,0,0-.218-.6v-.009a24.264,24.264,0,0,1,1.183-4.783,9.815,9.815,0,0,1,2.9-3.893c.6-.509,1.27-.982,1.914-1.439l.382-.272a.584.584,0,0,0,.227-.272l.021,0a.564.564,0,0,0,.315-.1.573.573,0,0,0,.292.1c.1,0,.2.007.3.007a11.586,11.586,0,0,0,3.246-.628c.5-.147,1.011-.3,1.522-.414a6.288,6.288,0,0,1,2.476-.091,9.55,9.55,0,0,1,2.03.644,3.141,3.141,0,0,0,.311,2.508,14.844,14.844,0,0,0,2.273,3.556A14.768,14.768,0,0,1,83.7,21.963a5.352,5.352,0,0,1,.7,1.8,15.443,15.443,0,0,1,.251,2.55c.023.546.047,1.111.109,1.659A20.094,20.094,0,0,0,86,32.9a.579.579,0,0,0,.167.253.557.557,0,0,0,.125.2.584.584,0,0,0,.787,0c.439-.355.879-.716,1.308-1.073l-.28,6.873a.58.58,0,0,0-.284.231,29.592,29.592,0,0,1-7.293,7.271,29.051,29.051,0,0,1-4.569,2.611A8.32,8.32,0,0,1,72.529,50.14Zm9.877-3.35h0a.581.581,0,0,0-.069-.07c.177-.138.36-.283.544-.432l-.281.3c-.064.068-.128.136-.193.2Zm4.482-14.709h0a19.611,19.611,0,0,1-.934-3.657c-.106-.707-.145-1.433-.182-2.134-.034-.638-.069-1.3-.155-1.94A7.153,7.153,0,0,0,84.2,20.724c-.247-.323-.507-.642-.758-.951a18.245,18.245,0,0,1-1.628-2.223,8.565,8.565,0,0,1-.877-1.891,1.783,1.783,0,0,1-.09-.72.382.382,0,0,1,.082-.248.568.568,0,0,0,.256-.067,4.631,4.631,0,0,1,1.963-.4,13.305,13.305,0,0,1,4.473,1.1l.047.017c2.007.753,4.014,1.7,5.109,3.534a4.256,4.256,0,0,1,.607,3.151.432.432,0,0,0-.008.045,2.757,2.757,0,0,0-.779,1.643,6.134,6.134,0,0,0,0,1.175,5.932,5.932,0,0,1-.04,1.5,3.7,3.7,0,0,1-1.294,1.926l-.057.054c-.561.54-1.409,1.263-2.157,1.9l-.093.08c-.735.627-1.447,1.222-2.058,1.722Zm-25.964-.358v0a.724.724,0,0,1-.044-.1,2.007,2.007,0,0,1,0-.922,7.9,7.9,0,0,0,.112-1.8,9.21,9.21,0,0,0-.292-1.711,22.206,22.206,0,0,0-.852-2.462c-.106-.271-.215-.55-.318-.824a10.645,10.645,0,0,1-.788-3.692.533.533,0,0,0-.1-.322.506.506,0,0,0,.009-.083v-.022c.227-1.69,1.861-2.7,2.814-3.151a19.131,19.131,0,0,1,2.408-.878,23.671,23.671,0,0,1,2.746-.765,9.345,9.345,0,0,1,1.3-.2,15.91,15.91,0,0,0-3.1,2.745,12.043,12.043,0,0,0-2.273,4.839c-.262,1.026-.443,2.078-.585,2.971a.582.582,0,0,0,.217.611c-.267,1.382-.552,2.751-.848,4.071L61.081,31.1c0,.023-.053.232-.157.619Z" transform="translate(9.5 9.5)" fill="#fff" stroke="#b064e8" stroke-width="1"/>
  </g>
</svg>
