<svg xmlns="http://www.w3.org/2000/svg" xmlns:xlink="http://www.w3.org/1999/xlink" width="172" height="172" viewBox="0 0 172 172">
  <defs>
    <filter id="Exclusion_5" x="0" y="0" width="172" height="172" filterUnits="userSpaceOnUse">
      <feOffset input="SourceAlpha"/>
      <feGaussianBlur stdDeviation="3" result="blur"/>
      <feFlood flood-opacity="0.161"/>
      <feComposite operator="in" in2="blur"/>
      <feComposite in="SourceGraphic"/>
    </filter>
  </defs>
  <g transform="matrix(1, 0, 0, 1, 0, 0)" filter="url(#Exclusion_5)">
    <path id="Exclusion_5-2" data-name="Exclusion 5" d="M76.5,153a76.143,76.143,0,0,1-42.772-13.065A76.724,76.724,0,0,1,6.012,106.277a76.4,76.4,0,0,1,7.053-72.549A76.724,76.724,0,0,1,46.723,6.012a76.4,76.4,0,0,1,72.549,7.053,76.724,76.724,0,0,1,27.716,33.658,76.4,76.4,0,0,1-7.053,72.549,76.724,76.724,0,0,1-33.658,27.716A76.02,76.02,0,0,1,76.5,153ZM51.717,133.006a39.686,39.686,0,0,0,10.807,2.821,39.06,39.06,0,0,0,4.509.262c.35,0,.7,0,1.054-.013a11.056,11.056,0,0,0,4.869-.927c1.637-.847,2.425-2.489,3.031-4.138a.666.666,0,0,0,.232-.35v-.008a2.158,2.158,0,0,0-.891-2.354,8.521,8.521,0,0,0-2.09-1.108l-.01,0-.292-.122-.342-.143a11.657,11.657,0,0,1-3.813-2.189c-1.235-1.215-1.579-2.918-1.911-4.565v-.006l-.056-.276c-.415-2.06-.9-4.125-1.446-6.137-.364-1.346-.769-2.716-1.205-4.073a12.97,12.97,0,0,0,6.235,2.469,14.165,14.165,0,0,0,1.769.11,20.611,20.611,0,0,0,9.436-2.605c.482-.251.965-.531,1.432-.8a14.9,14.9,0,0,1,3.582-1.672.694.694,0,0,0,.059.071,13.308,13.308,0,0,0,4.312,3.183c.31.17.63.345.94.522,1.586.9,3.281,2.079,3.825,3.947a9.19,9.19,0,0,0-1.507,2.1,7.822,7.822,0,0,0-.668,2.731,20.387,20.387,0,0,0-.059,2.709,5.717,5.717,0,0,0,.641,2.59c.7,1.219,2.06,1.963,4.039,2.211a23.549,23.549,0,0,0,2.424.126l.612.015c.821.02,1.665.04,2.493.053l.221,0a5.544,5.544,0,0,0,2.529-.5,7.8,7.8,0,0,0,2.065-1.718,22.059,22.059,0,0,0,3.466-4.446c1.981-3.706,2.044-8.032,2.1-11.848a.668.668,0,0,0-.007-.106,7.586,7.586,0,0,0,2.625-3.963,8.917,8.917,0,0,0,.176-1.017,5.122,5.122,0,0,1,.44-1.733,1.513,1.513,0,0,1,.981-.746c.131.045.264.09.407.136a.691.691,0,0,0,.912-.036.677.677,0,0,0,0-.95l-.019-.013a1.934,1.934,0,0,0-.966-.444,12.858,12.858,0,0,1-5.722-4.079.752.752,0,0,0,.323-.337.671.671,0,0,0-.5-1.116c-.056,0-.114-.007-.173-.007h-.071a16.127,16.127,0,0,1-6.93-8.5,15.347,15.347,0,0,1-.731-3.035.681.681,0,0,0,.343-.261.674.674,0,0,0-.486-1.107l-.014-.009-.014-.009v-.011h-.016l-.07-.043-.009-.006h0l-.028-.024-.037-.034a2.005,2.005,0,0,1-.151-.151l-.074-.087c-.019-.031-.039-.059-.059-.087s-.043-.061-.064-.1c-.04-.067-.07-.121-.1-.186a.483.483,0,0,0-.022-.06c0,.015,0,.018,0,.02h0c-.006,0-.017-.017-.032-.05a3.458,3.458,0,0,1-.121-.431.2.2,0,0,0-.019-.1v-.265a9.978,9.978,0,0,0,2.41.566.679.679,0,0,0,.545-.282.673.673,0,0,0-.346-1.1,3.45,3.45,0,0,1-.469-.126l-.075-.03a.172.172,0,0,0-.032-.019l-.029-.013c-.061-.028-.123-.057-.182-.089a3.431,3.431,0,0,1-.389-.244.635.635,0,0,0-.056-.045l-.028-.021-.189-.169c-.053-.053-.1-.112-.149-.169a2.045,2.045,0,0,0-.171-.19h0l0,0a11.025,11.025,0,0,0,3.781-.251c.068,0,.142,0,.229,0a.674.674,0,0,0,0-1.347c-.056,0-.117,0-.185,0a.738.738,0,0,0-.094-.006H108.4l-.224-.013h-.018l-.117-.019c-.091-.018-.176-.037-.253-.057a4.408,4.408,0,0,1-.522-.165l-.081-.032-.051-.024c-.077-.034-.162-.075-.269-.129a4.3,4.3,0,0,1-.439-.269l-.118-.084c-.049-.038-.146-.125-.216-.189a4.887,4.887,0,0,1-.358-.376l-.04-.05s-.027-.037-.032-.043l-.018-.026c.023,0,.041-.008.058-.013a7.367,7.367,0,0,0,3.469-2.182.673.673,0,0,0-.477-1.148.676.676,0,0,0-.165.02.639.639,0,0,0-.083-.005H107.1a.682.682,0,0,0-.159.02l-.031-.006s-.008,0-.027-.005c.794-.475,1.579-1,2.331-1.554a.667.667,0,0,0,.373-.282l.067-.05a.753.753,0,0,0,.31-.4.686.686,0,0,0-.067-.517.8.8,0,0,0-.619-.342.484.484,0,0,0-.3.1l.011-.011c-.055.043-.111.085-.167.128l-.072.054c-.029-.006-.058-.014-.09-.023l-.116-.038-.035-.018c-.087-.045-.119-.062-.181-.1l-.1-.07c-.065-.054-.127-.111-.186-.17l-.021-.02a1.582,1.582,0,0,1-.116-.117c0-.006-.009-.023-.03-.051l-.07-.105c-.048-.076-.093-.156-.135-.239a.934.934,0,0,1-.05-.105.534.534,0,0,0-.044-.1s0,0,.009.03c-.076-.206-.125-.36-.167-.514,0-.012-.005-.022-.009-.034l1.429.581a.69.69,0,0,0,.7.232l.014,0,.014,0a.693.693,0,0,0,.286-.088.674.674,0,0,0-.044-1.187,11.345,11.345,0,0,0-2.459-3.026l0,0c-.193-.189-.393-.384-.587-.579a16.44,16.44,0,0,1-2.479-3.228,1.887,1.887,0,0,0,1.014-.342.746.746,0,0,0,.311-.4.674.674,0,0,0-.472-.83.433.433,0,0,0-.046-.012,3.436,3.436,0,0,1-.538-1.52c-.045-.268-.077-.543-.107-.809-.036-.31-.072-.63-.13-.941a5.281,5.281,0,0,0-.452-1.39l.516.068c.051.022.1.042.155.062a.673.673,0,0,0,.691-1.086.6.6,0,0,0-.072-.086.784.784,0,0,0-.43-.193c-1.568-.669-2.052-2.544-2.279-3.9a4.52,4.52,0,0,0,2.434-.187.671.671,0,0,0-.031-1.3,5.446,5.446,0,0,1-.753-.431l-.094-.065-.028-.021s-.014-.014-.069-.054l-.107-.089a4.141,4.141,0,0,1-.382-.358l-.111-.123c-.078-.085-.152-.165-.222-.252l-.038-.051L103,45.418l-.166-.231c-.1-.165-.184-.3-.251-.434-.04-.077-.081-.16-.121-.247l-.011-.023a.965.965,0,0,1-.04-.1.655.655,0,0,0-.056-.139,8.263,8.263,0,0,0-1.757-5.491c-.351-.5-.731-1-1.1-1.477-.467-.608-.949-1.236-1.374-1.884.207.036.424.064.645.081a.677.677,0,0,0,.5-.229.658.658,0,0,0,.081-.039.67.67,0,0,0,.317-.409.745.745,0,0,0-.068-.517L98.8,32.659a.562.562,0,0,0-.059-.085.506.506,0,0,0-.014-.064,16.285,16.285,0,0,0-4.433-6.3,47.143,47.143,0,0,0-6.506-5.09c-1.226-.806-2.566-1.6-3.983-2.354a.621.621,0,0,0-.3-.345,12.349,12.349,0,0,0-6.15-1.511,22.716,22.716,0,0,0-7,1.26c-1.307.431-2.581.922-3.812,1.4a.714.714,0,0,0-.194-.027.68.68,0,0,0-.339.091H66l-4,2.731c-.385.264-.781.528-1.164.783-.883.588-1.795,1.2-2.649,1.848A6.964,6.964,0,0,0,56.664,26.5a6.316,6.316,0,0,0-.86,1.885,15.16,15.16,0,0,0-.514,4.43,17.1,17.1,0,0,0,.864,5.019.652.652,0,0,0,.274.357,37.213,37.213,0,0,0-7.091,6.825.7.7,0,0,0-.092.829c-.331,2.376-.554,4.8-.662,7.212-.028.636-.047,1.225-.06,1.8l-3.645,1.657c-.171.078-.342.158-.513.238a11.588,11.588,0,0,1-3.107,1.108c-.234.027-.476.067-.716.12a.674.674,0,0,0-.446-.171l-.005.005a21.287,21.287,0,0,0-4.72.978,8.653,8.653,0,0,0-4.039,2.962,23.381,23.381,0,0,0-2.495,4.777l-.083.193c-.376.88-.739,1.776-1.077,2.663a6.459,6.459,0,0,0-.511,2.276,1.957,1.957,0,0,0,1.309,2,1.585,1.585,0,0,0,.409.054,2.1,2.1,0,0,0,1.044-.313c-.011.273-.015.564-.009.865a27.206,27.206,0,0,0,.479,4.338,12.293,12.293,0,0,0,1.346,3.854.636.636,0,0,0,.323.288,13.988,13.988,0,0,0,4.7,3.3.694.694,0,0,0,.77-.071A1.674,1.674,0,0,0,38.88,84.6a3.42,3.42,0,0,0-.207-1.661A12.816,12.816,0,0,0,46.264,86.8a.715.715,0,0,0,.2-.032l.029.019.029.019a1.614,1.614,0,0,0,1.156.232,5.212,5.212,0,0,0,4.9,1.06,4.888,4.888,0,0,0,.593-.225,8.482,8.482,0,0,1-2.89,1.953c-.382.19-.743.369-1.077.558a7.589,7.589,0,0,0-2.548,2.263c-.332.475-.619.988-.9,1.484-.265.474-.54.965-.853,1.421a10.892,10.892,0,0,1-2.637,2.677.692.692,0,0,0-.239.921.662.662,0,0,0,.079.106.673.673,0,0,0,.626.92h1.933l-3.046,2.03a.69.69,0,0,0-.239.922.674.674,0,0,0,.566.331.68.68,0,0,0,.517.248l4.039-.248a10.66,10.66,0,0,1-3.517,7.6.574.574,0,0,0-.175.656.757.757,0,0,0,.681.476.631.631,0,0,0,.222-.04.677.677,0,0,0,.212.1h-.019a2.852,2.852,0,0,0,.726.094,2.89,2.89,0,0,0,.395-.027l1.44,4.388.088.271a15.707,15.707,0,0,0,1.614,3.79c.279.43.588.845.886,1.247a14.182,14.182,0,0,1,1.427,2.192,10.549,10.549,0,0,1,1.026,3.6,10.843,10.843,0,0,1-.423,4.322.605.605,0,0,0,.03.483.675.675,0,0,0,.419.317.7.7,0,0,0,.174.081v0Zm15.308,1.742a38.323,38.323,0,0,1-9.316-1.151,39.383,39.383,0,0,1-5.154-1.687,12.1,12.1,0,0,0-.479-7.433,15.214,15.214,0,0,0-2.155-3.558,10.928,10.928,0,0,1-1.177-1.885,18.028,18.028,0,0,1-.733-1.949c-.345-1.043-.692-2.1-1.027-3.131q-.356-1.089-.712-2.175a.662.662,0,0,0,.107-.218.669.669,0,0,0-.238-.712.674.674,0,0,0-.75-.048c-.058.031-.117.062-.176.091a2.388,2.388,0,0,1-.249.074,11.967,11.967,0,0,0,2.894-7.589l.267-.016a.685.685,0,0,0,.673-.673.678.678,0,0,0-.673-.673l-4.164.256,3.38-2.254A.673.673,0,0,0,47,98.764a.672.672,0,0,0-.3.068H43.693a12.559,12.559,0,0,0,1.871-1.906,18.12,18.12,0,0,0,1.372-2.14c.178-.309.363-.629.553-.941a6.352,6.352,0,0,1,2.354-2.27c.376-.214.769-.411,1.15-.6A15.7,15.7,0,0,0,52.8,89.96,5.235,5.235,0,0,0,55.113,87a.624.624,0,0,0-.094-.546,8.761,8.761,0,0,0,1.27-2.014c.407-.87.738-1.782,1.042-2.642a14.478,14.478,0,0,0,.808-3.2,11.089,11.089,0,0,0,.023-1.625,10.825,10.825,0,0,1,.028-1.665,7.379,7.379,0,0,1,1.045-2.666l.067-.119c1.044-1.845,2.227-3.936,1.429-6.082a4.543,4.543,0,0,0,1.407-.251,5.232,5.232,0,0,0,1.486-.895c.064-.049.127-.1.2-.158a2.763,2.763,0,0,1,.795-.515,8.176,8.176,0,0,0,5.131,2.119h.079a5.659,5.659,0,0,0,4.628-2.405,4.515,4.515,0,0,0,.824-2.851.22.22,0,0,0,0-.024,13.26,13.26,0,0,0,6.483-8.4,12.7,12.7,0,0,0,.377-3.1.674.674,0,0,0-1.346,0v-.006a11.932,11.932,0,0,1-3.932,8.757,11.276,11.276,0,0,1-2.318,1.616.579.579,0,0,0-.33.612.67.67,0,0,0-.278.544A3.4,3.4,0,0,1,73.1,63.9a4.235,4.235,0,0,1-2.19,1.373,4.509,4.509,0,0,1-1.111.137,6.827,6.827,0,0,1-4.4-1.884.675.675,0,0,0-.557-.3,2.888,2.888,0,0,0-1.4.518c-.19.128-.372.277-.548.421a6.911,6.911,0,0,1-.608.462,3.061,3.061,0,0,1-2.273.412,3.251,3.251,0,0,1-1.168-.487,5.552,5.552,0,0,1-.943-.973A4.122,4.122,0,0,0,55.07,62.4c-.169-.015-.341-.028-.507-.041a7.784,7.784,0,0,1-2.41-.444,3.287,3.287,0,0,1-1.8-1.809,7.808,7.808,0,0,1-.474-2.693c-.035-.993-.009-2.007.015-2.986V54.39q.006-.23.011-.46a76.059,76.059,0,0,1,.743-8.369.47.47,0,0,0,.012-.06,36.015,36.015,0,0,1,10.45-8.711.6.6,0,0,0,.31-.7.714.714,0,0,0-.659-.55.677.677,0,0,0-.33.09c-1.021.565-2.025,1.184-2.986,1.84a15.479,15.479,0,0,1-.477-8.214,6.11,6.11,0,0,1,.665-1.788,4.945,4.945,0,0,1,1.268-1.346c.822-.632,1.708-1.217,2.565-1.783l.007,0c.305-.2.621-.41.929-.617l4.142-2.826a.67.67,0,0,0,.156.018.687.687,0,0,0,.175-.023l.018-.01c3.352-1.3,6.818-2.636,10.392-2.636a12.952,12.952,0,0,1,2.3.2,10.281,10.281,0,0,1,3.162,1.105.611.611,0,0,0,.312.356l-.019-.005a48.555,48.555,0,0,1,6.81,4.328A32.035,32.035,0,0,1,95.4,29.352a12.005,12.005,0,0,1,2.022,3.5.68.68,0,0,0,.136.258.762.762,0,0,0,.076.227l.322.643c-.07-.017-.163-.041-.268-.072-.134-.039-.282-.088-.464-.156l-.046-.105a.6.6,0,0,0-.576-.326.693.693,0,0,0-.344.086A.675.675,0,0,0,96,34.66c.068.036.138.071.207.105a18.956,18.956,0,0,0,2.127,3.182c.3.391.612.794.905,1.2.941,1.309,2.144,3.282,1.737,5.291a.687.687,0,0,0,.355.782,6.08,6.08,0,0,0,1.382,1.862l-.086-.016a3.53,3.53,0,0,1-.377-.108l-.032-.013a.694.694,0,0,0-.617-.415.647.647,0,0,0-.162.021.665.665,0,0,0-.215-.036.674.674,0,0,0-.342,1.256l.035.022.091.056a10.458,10.458,0,0,0,.9,3.4,4.756,4.756,0,0,0,.43.727l-.086-.011a.675.675,0,0,0-.476.2.657.657,0,0,0-.131.187c-.008.011-.015.022-.022.033a.683.683,0,0,0,.24.922h-.006a2.841,2.841,0,0,1,1.2,2.3q.022.164.043.326a9.066,9.066,0,0,0,.489,2.251.707.707,0,0,0-.237-.047.661.661,0,0,1-.33.036.669.669,0,0,0-.577,1.011,17.428,17.428,0,0,0,3.124,4.524c.281.295.591.587.892.87.387.365.787.742,1.145,1.141l-.836-.342a.682.682,0,0,0-.517.07.673.673,0,0,0-.231.223.693.693,0,0,0-.146.617l.008-.011a6.046,6.046,0,0,0,.848,2.556,3.421,3.421,0,0,0,.8.8c-.4.269-.806.529-1.218.777a2.9,2.9,0,0,0-.808.539,1.087,1.087,0,0,0-.032,1.061,1.562,1.562,0,0,0,1.346.972h.018a6.747,6.747,0,0,1-.71.378.757.757,0,0,1-.116.053l.034-.013.023-.008a.234.234,0,0,1-.038.021l-.218.084c-.159.057-.315.108-.464.151a.9.9,0,0,1-.794.807.676.676,0,0,0-.243.922v-.008a5.125,5.125,0,0,0,1.271,1.387,9.529,9.529,0,0,1-1.757-.219.666.666,0,0,0-.253-.05.673.673,0,0,0-.65.853l.007-.005a4.194,4.194,0,0,0,.39,1.012.674.674,0,0,0-.644.824,3.2,3.2,0,0,0,.176,2.262c-.221-.055-.438-.12-.644-.194l-.178-.067-.116-.046.007,0,.028.013a.092.092,0,0,1-.023-.007l-.025-.009-.005,0c-.13-.059-.265-.12-.39-.187a.674.674,0,0,0-.922.243l-.019.034-.007.013a.694.694,0,0,0-.149.2h.006c-.36.7-.684,1.463-1,2.2-.9,2.129-1.829,4.331-3.826,5.573a4.04,4.04,0,0,1-3.794.328,6.156,6.156,0,0,1-2.878-2.766,15.373,15.373,0,0,1-1.441-5.243.663.663,0,0,0-1-.392,2.814,2.814,0,0,1-1.371-3.013,6.34,6.34,0,0,1,1.077-2.532c.207-.343.431-.686.647-1.018.345-.53.7-1.077,1-1.642a.662.662,0,0,0-.247-.9,5.191,5.191,0,0,0-.951-3.206c-.072-.123-.146-.246-.22-.369a5.255,5.255,0,0,1-1.022-2.693.675.675,0,0,0,.159-.64v.006c-.706-1.842.487-3.774,1.276-5.052.886-1.434,1.891-3.059,1.878-4.853a.646.646,0,0,0,.147-.595q-.143-.634-.286-1.268c-.465-2.052-.945-4.174-1.359-6.272-.435-2.211-.709-4.531.226-6.514a.692.692,0,0,0-.239-.921.681.681,0,0,0-.923.242c-1.122,2.377-.846,4.975-.428,7.2.386,2.058.86,4.138,1.319,6.15q.134.59.268,1.179a.68.68,0,0,0-.1.343c.174,1.658-.709,3.079-1.564,4.453-.135.218-.275.443-.407.663-1.672,2.815-1.486,4.387-1.2,5.324a.694.694,0,0,0-.105.35h.011a5.869,5.869,0,0,0,1.191,3.568,10.525,10.525,0,0,1,.807,1.527,2.188,2.188,0,0,1,.124,1.491.6.6,0,0,0,.173.644c-.229.384-.481.77-.725,1.143a9.277,9.277,0,0,0-1.879,4.344c-.111,1.7.729,3.75,2.5,4.208A16.208,16.208,0,0,0,87.6,87.111a7.3,7.3,0,0,0,3.218,3.442,5.408,5.408,0,0,0,2.562.648,5.351,5.351,0,0,0,2.089-.422A7.923,7.923,0,0,0,98.9,87.665a22.4,22.4,0,0,0,1.645-3.324c.277-.648.563-1.316.879-1.956a7.679,7.679,0,0,0,2.065.532,17.452,17.452,0,0,0,5.836,10.953,17.174,17.174,0,0,0,1.775,1.352.68.68,0,0,0,.045.579,14.338,14.338,0,0,0,5.59,4.894,4.245,4.245,0,0,0-1.1,2.595,7.381,7.381,0,0,1-.868,2.755,6.052,6.052,0,0,1-1.957,2.039.639.639,0,0,0-.31.5.762.762,0,0,0,.255.616c-.043,2.858-.1,6.41-1.305,9.559a14.014,14.014,0,0,1-2.728,4.249c-.557.631-1.132,1.284-1.755,1.885a3.841,3.841,0,0,1-1.983,1.128,5.985,5.985,0,0,1-1.08.084c-.311,0-.628-.015-.935-.029-.218-.01-.443-.02-.662-.025l-.794-.015c-.637-.012-1.295-.024-1.934-.047a5.776,5.776,0,0,1-3.754-1.023c-1.079-.982-1.02-2.567-.967-3.966,0-.109.008-.217.012-.323a8.968,8.968,0,0,1,.347-2.51,5.926,5.926,0,0,1,1.253-2.057c1.306-1.5,2.775-2.908,4.2-4.273l.134-.129c1.531-1.47,3.13-2.92,4.75-4.309a.674.674,0,0,0-.953-.953c-2.711,2.314-5.34,4.793-7.813,7.367A8.871,8.871,0,0,0,92.961,110c-.431-.257-.883-.5-1.319-.743a14.828,14.828,0,0,1-3.452-2.333,15.2,15.2,0,0,1,2.377-.238l.406-.006a7.344,7.344,0,0,0,2.67-.363,7.324,7.324,0,0,0,3.29-3.377,13.546,13.546,0,0,1,1.49-2.154.645.645,0,0,0,.124-.72.726.726,0,0,0-.63-.443.6.6,0,0,0-.447.212,14.078,14.078,0,0,0-1.557,2.219c-.33.542-.672,1.1-1.061,1.619a4.231,4.231,0,0,1-1.526,1.322,5.334,5.334,0,0,1-2.285.341c-.137,0-.273,0-.407,0a16.832,16.832,0,0,0-3.318.391.672.672,0,0,0-.333,0,12.932,12.932,0,0,0-4.47,1.877l-.54.31a24.845,24.845,0,0,1-5.117,2.251,16.486,16.486,0,0,1-4.739.73,12.1,12.1,0,0,1-5.211-1.115,9.754,9.754,0,0,1-3.705-2.944.685.685,0,0,0-.227-.308l-.042-.06a.656.656,0,0,0-.557-.3.766.766,0,0,0-.657.379.569.569,0,0,0,.05.606c.077.114.155.225.239.339a94.35,94.35,0,0,1,3.3,11.751c.065.311.127.63.187.939a11.826,11.826,0,0,0,1.521,4.517,9.173,9.173,0,0,0,3.892,2.962c.42.19.853.371,1.271.547s.85.357,1.271.547l.021.009c.469.215,1.445.662,1.491,1.271a.69.69,0,0,0-.132.249c-.446,1.261-1,2.83-2.367,3.613a8.9,8.9,0,0,1-4.308.838C67.778,134.743,67.4,134.748,67.025,134.748ZM51.08,86.984a3.827,3.827,0,0,1-2.393-.843.737.737,0,0,0-.709-.623.656.656,0,0,0-.448.185.155.155,0,0,0-.038.024h-.081l-.037,0,.012,0h0a.62.62,0,0,1-.344-.209s0-.01-.023-.038a.619.619,0,0,1-.036-.055.213.213,0,0,0-.017-.029l0-.009c0-.006,0-.012-.007-.019a1,1,0,0,1-.065-.334,2.7,2.7,0,0,1,.14-.872c.254-.885.562-1.772.859-2.63.138-.4.279-.806.413-1.208a.676.676,0,0,0-.469-.827.647.647,0,0,0-.169-.022H47.61a.652.652,0,0,0-.336.092l-.955.715a4.422,4.422,0,0,1,.483-2.241,4.49,4.49,0,0,1,2.237-2.136.678.678,0,0,0,.243-.921c-.009-.015-.018-.029-.028-.043a.675.675,0,0,0-.589-.345h-1.32l.014-.025.062-.1c.014-.023.03-.045.046-.066l.026-.036c.05-.058.1-.119.159-.173s.112-.108.175-.158c.022-.015.046-.03.07-.043a2.579,2.579,0,0,1,.34-.2,2.356,2.356,0,0,1,.387-.113h.054a.739.739,0,0,0,.438-.164.7.7,0,0,0,.42-.085.672.672,0,0,0,.242-.921.655.655,0,0,0-.271-.258l1.427-1.454a.665.665,0,0,0,.156-.245c.058-.008.117-.019.176-.032a.67.67,0,0,0,.468-.841.655.655,0,0,0-.31-.4.726.726,0,0,0-.517-.07l-.018,0-.066,0-.091,0a3.331,3.331,0,0,0,1.659-2.155.675.675,0,0,0-.176-.658.541.541,0,0,0-.027-.05l-.105-.134a.483.483,0,0,0-.039-.036,3.033,3.033,0,0,0,1.119-2.52.744.744,0,0,0-.011-.11c.168.027.341.052.515.072.242.028.492.04.758.052a4.012,4.012,0,0,1,2.126.487,3.185,3.185,0,0,1,.631.63,4.519,4.519,0,0,0,.446.487,4.218,4.218,0,0,0,1.2.776,4.693,4.693,0,0,0,.569.2.688.688,0,0,0,.05.555c.7,1.535-.289,3.256-1.082,4.638l-.12.209a11.81,11.81,0,0,0-1.193,2.55,9.127,9.127,0,0,0-.222,2.875l0,.128a9.424,9.424,0,0,1-.374,2.914c-.258.9-.593,1.8-.886,2.566a7.241,7.241,0,0,1-2.539,3.74A3.817,3.817,0,0,1,51.08,86.984Zm-5.52-1.653h0a11.377,11.377,0,0,1-7.7-5.8A.577.577,0,0,0,37.4,79.2l-.392-1.158.017.013.006,0a4.607,4.607,0,0,0,1.107.654,2.04,2.04,0,0,0,.69.12,2.9,2.9,0,0,0,1.828-.769,8.138,8.138,0,0,0,1.667-2.313l1.729-3.173a.634.634,0,0,0,0-.649.759.759,0,0,0-.63-.365.593.593,0,0,0-.531.332l-.016.008L41.2,74.964l-.081.15a6.477,6.477,0,0,1-1.441,2,1.506,1.506,0,0,1-.77.382A1.428,1.428,0,0,1,38,77.131a3.039,3.039,0,0,0-1.68-.754,1.735,1.735,0,0,0-.687.148.671.671,0,0,0-.31.76l1.419,4.185c.014.043.045.123.087.234.254.672.929,2.459.674,2.864a.168.168,0,0,1-.133.082.673.673,0,0,0-.292.071A12.89,12.89,0,0,1,33,81.779a.674.674,0,0,0-.166-.122,15.878,15.878,0,0,1-1.547-6.61,13.629,13.629,0,0,1,.188-3.593,13.043,13.043,0,0,1,1.048-3.04A26.614,26.614,0,0,1,36.247,63a28.033,28.033,0,0,1,2.2-2.424,5.986,5.986,0,0,1,1.2-.877,4.737,4.737,0,0,1,1.589-.474,8.736,8.736,0,0,0,1.95-.5c.593-.236,1.186-.51,1.759-.775l.242-.112,3.326-1.51c0,.162,0,.339,0,.557a11.559,11.559,0,0,0,.356,3.043,4.857,4.857,0,0,0,1.615,2.542,4.957,4.957,0,0,0,1.474.788.677.677,0,0,0-.136.407l-.038.019a2.022,2.022,0,0,1,.006.41c-.012.067-.027.129-.044.19s-.034.115-.05.162l-.014.035a2.195,2.195,0,0,1-.132.247c-.027.043-.057.087-.086.129h0v.014a2.792,2.792,0,0,1-.212.223l-.1.084-.032.024a2.091,2.091,0,0,1-.269.161l-.024.012-.15.05a.675.675,0,0,0-.489.733.535.535,0,0,0-.034.1.694.694,0,0,0,.068.517l.108.138a.667.667,0,0,0,.3.172l.3.1a2.671,2.671,0,0,1-.178.29,1.981,1.981,0,0,1-.827.644,2.64,2.64,0,0,1-.34.1.677.677,0,0,0-.472.826l0,.007c0,.009.006.018.01.027a.622.622,0,0,0-.025.072.676.676,0,0,0,.067.519v.011a1.959,1.959,0,0,0,.372.418c.038.031.076.061.115.091l-1.7,1.728a.693.693,0,0,0-.439.083.673.673,0,0,0-.289.822,3.173,3.173,0,0,0-.428.333,3.094,3.094,0,0,0-.969,1.656.667.667,0,0,0,.013.4c0,.017,0,.034,0,.051a.674.674,0,0,0,.673.673h.123a5.991,5.991,0,0,0-1.518,5.418.585.585,0,0,0,.521.476.672.672,0,0,0,.241.124.65.65,0,0,0,.181.026.668.668,0,0,0,.286-.065l-.171.514c-.049.147-.1.3-.152.441a6.618,6.618,0,0,0-.483,2.046,2.113,2.113,0,0,0,.02.405ZM28.914,72.367a.393.393,0,0,1-.186-.045c-.1-.054-.165-.182-.2-.415a2.566,2.566,0,0,1,.022-.695,10.308,10.308,0,0,1,.665-2.06c.3-.774.621-1.558.958-2.329l.043-.1a22.344,22.344,0,0,1,2.211-4.192,7.018,7.018,0,0,1,3.216-2.407,13.351,13.351,0,0,1,1.943-.559,18.05,18.05,0,0,0-1.908,2.045A31.023,31.023,0,0,0,31.6,67.268a14.2,14.2,0,0,0-1.464,4.213l-.011.011-.022.023c-.032.032-.069.071-.111.114C29.727,71.9,29.286,72.367,28.914,72.367Z" transform="translate(9.5 9.5)" fill="#fff" stroke="#b064e8" stroke-width="1"/>
  </g>
</svg>
