<svg xmlns="http://www.w3.org/2000/svg" xmlns:xlink="http://www.w3.org/1999/xlink" width="172" height="172" viewBox="0 0 172 172">
  <defs>
    <filter id="Subtraction_34" x="0" y="0" width="172" height="172" filterUnits="userSpaceOnUse">
      <feOffset input="SourceAlpha"/>
      <feGaussianBlur stdDeviation="3" result="blur"/>
      <feFlood flood-opacity="0.161"/>
      <feComposite operator="in" in2="blur"/>
      <feComposite in="SourceGraphic"/>
    </filter>
  </defs>
  <g transform="matrix(1, 0, 0, 1, 0, 0)" filter="url(#Subtraction_34)">
    <path id="Subtraction_34-2" data-name="Subtraction 34" d="M76.5,153a76.143,76.143,0,0,1-42.772-13.065A76.724,76.724,0,0,1,6.012,106.277a76.4,76.4,0,0,1,7.053-72.549A76.724,76.724,0,0,1,46.723,6.012a76.4,76.4,0,0,1,72.549,7.053,76.724,76.724,0,0,1,27.716,33.658,76.4,76.4,0,0,1-7.053,72.549,76.724,76.724,0,0,1-33.658,27.716A76.02,76.02,0,0,1,76.5,153ZM65.113,126.84h0a.663.663,0,0,0,.322.105c1.027.088,2.063.183,3.065.275.965.088,1.959.179,2.937.264.264.023.533.052.793.08a18.245,18.245,0,0,0,1.923.137c.063,0,.126,0,.19,0a3.785,3.785,0,0,0,2.452-.753,2.345,2.345,0,0,0,.947-2.109,4.679,4.679,0,0,0-.43-1.312c-.17-.4-.366-.817-.581-1.227a16.288,16.288,0,0,0-1.463-2.324c-.2-.267-.414-.531-.622-.786a14.689,14.689,0,0,1-.907-1.193,4.15,4.15,0,0,1-.559-1.162,3.033,3.033,0,0,1,0-1.247c.019-.106.039-.212.059-.318a4.593,4.593,0,0,0,.083-2.041c.371-.092.753-.182,1.121-.269h.006a33.134,33.134,0,0,0,3.508-.965,7.243,7.243,0,0,0,3.025-1.851,5.828,5.828,0,0,0,1.816,3.315,7.187,7.187,0,0,0,4.91,1.786h.1a10.094,10.094,0,0,0,1.633-.139,4.118,4.118,0,0,0-1.548,1.172,4.536,4.536,0,0,0-.732,2.087c-.007.048-.014.1-.021.147-.107.724-.253,1.714.452,2.176a1.908,1.908,0,0,0,1.076.258c.5.022,1,.022,1.484.022s1,.016,1.49.022h.006c.491.005,1,.011,1.5.022.476,0,.968,0,1.442.022.159,0,.319,0,.474.009s.315.009.473.009c.182,0,.332-.006.473-.019a1.557,1.557,0,0,0,1.14-.517,2.181,2.181,0,0,0,.43-1.076c.257-1.458.5-2.937.733-4.367q.164-1,.329-2a14.987,14.987,0,0,0,4.554-.5,6.157,6.157,0,0,0,3.041-2.061,8.177,8.177,0,0,0,.918,1.588l.021.027a4.055,4.055,0,0,0,1.635,1.48,1.384,1.384,0,0,0,.457.072,3.6,3.6,0,0,0,.649-.08h.006a3.613,3.613,0,0,1,.653-.081,1.492,1.492,0,0,1,.28.025,1.787,1.787,0,0,1,1.247.968.439.439,0,0,0,.081.111,2.976,2.976,0,0,1-1.372,1.245,4.117,4.117,0,0,1-1.123.254,5.136,5.136,0,0,0-.921.177,1.864,1.864,0,0,0-.925.645,2.272,2.272,0,0,0-.365,1.291c-.014.314-.01.622,0,.948,0,.161,0,.327,0,.493,0,.095,0,.191,0,.287a8.159,8.159,0,0,0,.044,1.155,1.617,1.617,0,0,0,.732,1.248,1.3,1.3,0,0,0,.712.212,1.186,1.186,0,0,0,.332-.046,19.789,19.789,0,0,0,3.515.317,19.443,19.443,0,0,0,4.672-.57.486.486,0,0,0,.333-.261.576.576,0,0,0-.008-.482,5.238,5.238,0,0,0,.46-2.331.331.331,0,0,0,.054-.046l.215-.215.008-.008,0,0a23.115,23.115,0,0,0,11.025-.418,23.944,23.944,0,0,0,3.163-1.162.462.462,0,0,0,.263-.488.555.555,0,0,0-.392-.5,26.822,26.822,0,0,0-6.692-.838,28.452,28.452,0,0,0-3.194.182c3.839-5.163,2.328-12.319,1.086-16.125A25.032,25.032,0,0,0,113.544,86a20.744,20.744,0,0,0-8.726-3.073.609.609,0,0,0-.1-.068,62.268,62.268,0,0,0-11.146-5.143c-2-.689-3.975-1.268-5.873-1.721-1.678-.4-3.412-.715-5.088-1.018l-.915-.166a24.633,24.633,0,0,1-6.54-1.85.6.6,0,0,0-.213-.062l-.023-.024A12.74,12.74,0,0,0,72.191,70.7a13.666,13.666,0,0,0-1.592-.8c-.218-.095-.449-.178-.671-.259-.285-.1-.579-.21-.856-.343a3.476,3.476,0,0,1-1.184-.968l-.1-.131a6.189,6.189,0,0,0-1.019-1.139,10.119,10.119,0,0,0-1.252-.833,8.564,8.564,0,0,1-1.438-1,2.177,2.177,0,0,1-.824-2.148,5.979,5.979,0,0,0,.975-.154,8.453,8.453,0,0,0,3.851-2.324c2.058-2.115,3.148-4.864,4.2-7.522q.19-.479.381-.955a18.461,18.461,0,0,1,2.711-4.927.541.541,0,0,0,0-.753.5.5,0,0,0-.129-.112.449.449,0,0,0,0-.319,21.383,21.383,0,0,0-4.411-7.25,21.745,21.745,0,0,0-3.184-2.819A11.589,11.589,0,0,1,66,34.536,9.429,9.429,0,0,1,64.94,33.03l-.179-.307-.007-.011a8.343,8.343,0,0,0-2.5-3.06A.446.446,0,0,0,62,29.568a.4.4,0,0,0-.178.042l-.043,0h-.053c-1.765,0-3.294-.969-4.773-1.906l-.005,0-.418-.264a17.715,17.715,0,0,0-2.668-1.442,9.184,9.184,0,0,0-3.4-.688c-.117,0-.236-.006-.354-.006a15.876,15.876,0,0,0-3.734.5.513.513,0,0,0-.227.1.561.561,0,0,0-.483-.292c-.376-.032-.758-.048-1.133-.048-1.759,0-5.037.364-7.222,2.805a.556.556,0,0,0-.251.083,11.3,11.3,0,0,1-2.2.956,10.8,10.8,0,0,0-2.273,1,3.866,3.866,0,0,0-2.057,3.487,45.15,45.15,0,0,0-5.086,4.839q-.308.34-.618.678l0,0c-.6.66-1.23,1.343-1.809,2.05a11.552,11.552,0,0,0-1.894,3.12,22.686,22.686,0,0,0-1.014,3.55l0,.018-.079.346a.523.523,0,0,0,.23.571l0,.006,0,.006a50.677,50.677,0,0,1,2.431,4.841q.151.337.3.675l0,.008a26.761,26.761,0,0,1,1.672,4.352l.043.163a9.5,9.5,0,0,0,.774,2.2A6.333,6.333,0,0,0,26.815,63a6.567,6.567,0,0,0,4,1.678c.108,0,.205.007.3.007A6.53,6.53,0,0,0,35.2,63.215,50.712,50.712,0,0,1,34,75.587a6.952,6.952,0,0,0-.15,3.529.119.119,0,0,1,0,.014,14.421,14.421,0,0,0,.168,10.507,14.226,14.226,0,0,0,1.462,2.711.684.684,0,0,0,.07.082.646.646,0,0,0,.058.175,10.654,10.654,0,0,0,2.8,3.594,31.941,31.941,0,0,1,3.271,3.356,56.537,56.537,0,0,1,4.41,6.806l.012.02q.274.471.548.941c.141.244.29.492.434.732l0,.006a11.913,11.913,0,0,1,1.758,3.952.392.392,0,0,0,.092.194,8.554,8.554,0,0,1-1.684,3.743,22.412,22.412,0,0,1-1.42,1.785c-.075.084-.155.182-.239.286-.331.411-.743.921-1.24.921l-.049,0h-.04a.451.451,0,0,0-.451.335,9.915,9.915,0,0,0-3.727,2.29,7.081,7.081,0,0,0-1.506,1.915,1.123,1.123,0,0,0,.108,1.334.951.951,0,0,0,.7.326.762.762,0,0,0,.292-.056.462.462,0,0,0,.234.139c2.133.386,4.371.674,6.842.882l.508.042c.548.047,1.111.1,1.665.1a7.012,7.012,0,0,0,1.205-.094,5.327,5.327,0,0,0,2.517-1.227c.435-.352.838-.75,1.227-1.134l0,0q.17-.167.341-.334a.541.541,0,0,0,.437.336.313.313,0,0,0,.058,0c1.152-.13,1.665-1.172,1.527-3.1-.042-.583-.087-1.177-.131-1.751v-.014c-.09-1.183-.183-2.4-.255-3.614a7,7,0,0,1,.131-2.274,19.115,19.115,0,0,0,7.786,2.054c-.028.765-.059,1.54-.089,2.291v.008c-.036.9-.073,1.832-.1,2.741-.022.475-.038.955-.054,1.42s-.032.945-.054,1.42q0,.113-.007.225a8.073,8.073,0,0,0,.094,1.948,2.2,2.2,0,0,0,1.334,1.678.434.434,0,0,0,.153.028.478.478,0,0,0,.063,0Zm9.055-.189a15.281,15.281,0,0,1-1.535-.1c-.265-.027-.54-.055-.807-.075l-3.017-.273-.123-.011-3.271-.3h-.038a.731.731,0,0,0-.177-.106c-.395-.149-.612-.67-.646-1.55a20.667,20.667,0,0,1,.059-2.129c.018-.292.037-.593.049-.884q.065-1.678.129-3.367t.129-3.367a.538.538,0,0,0-.565-.535.6.6,0,0,0-.309.082.652.652,0,0,0-.138-.02,17.7,17.7,0,0,1-7.637-2.045.526.526,0,0,0-.263-.074.215.215,0,0,1-.232.01.525.525,0,0,0-.145-.021.586.586,0,0,0-.522.386,6.97,6.97,0,0,0-.323,2.969c.033.537.072,1.073.11,1.591.036.5.074,1.02.106,1.529.023.356.058.722.092,1.076.06.63.123,1.282.123,1.915a2.9,2.9,0,0,1-.055.625.524.524,0,0,0-.3-.1.452.452,0,0,0-.229.062.518.518,0,0,0-.1-.011.583.583,0,0,0-.388.153c-.331.285-.656.61-.97.925a6.53,6.53,0,0,1-2.968,2.045,5.362,5.362,0,0,1-1.229.127c-.485,0-.979-.045-1.457-.089l-.433-.038c-1.108-.089-2.2-.2-3.249-.323-1.177-.147-2.373-.339-3.53-.525l-.084-.014a.7.7,0,0,0-.105-.008.677.677,0,0,0-.11.009.577.577,0,0,0-.437-.209h-.023a1.157,1.157,0,0,1,.085-.146l.008-.012a4.344,4.344,0,0,1,.517-.71,10.334,10.334,0,0,1,1.27-1.291,8.645,8.645,0,0,1,3.119-1.635.539.539,0,0,0,.308-.236,3.458,3.458,0,0,0,1.543-1.227,26.394,26.394,0,0,0,1.678-2.087,9.253,9.253,0,0,0,1.958-4.755.491.491,0,0,0-.2-.411,13.507,13.507,0,0,0-1.769-3.9l-.1-.168c-.8-1.375-1.634-2.8-2.474-4.174a30.667,30.667,0,0,0-5.68-7.25,12,12,0,0,1-3.271-3.959.336.336,0,0,0-.074-.11.394.394,0,0,0-.055-.105,13.4,13.4,0,0,1-2.259-9.682,13.7,13.7,0,0,1,.753-2.8.441.441,0,0,0,0-.305.554.554,0,0,0-.023-.19,5.866,5.866,0,0,1,.15-2.926c.213-.947.409-1.982.6-3.163.069-.429.135-.874.2-1.322a25.388,25.388,0,0,0,9.409,2.136,2.715,2.715,0,0,0,1.24.971,2.342,2.342,0,0,0,.858.16A2.669,2.669,0,0,0,49.3,73.8a2.628,2.628,0,0,0,.319-.442,26.98,26.98,0,0,0,9-2.807,24.605,24.605,0,0,0,5.508-3.894.517.517,0,0,0,.039-.038c.231.151.472.3.706.437.145.087.294.177.439.267A5.566,5.566,0,0,1,66.6,68.38c.107.133.211.272.311.406a5.538,5.538,0,0,0,.808.928,6.665,6.665,0,0,0,2.014,1.022,11.583,11.583,0,0,1,1.213.5,12.111,12.111,0,0,1,3.227,2.389.5.5,0,0,0,.3.158.418.418,0,0,0,.127.1,32,32,0,0,0,8.341,2.235c1.165.2,2.369.41,3.536.669a60.931,60.931,0,0,1,17.678,6.976.607.607,0,0,0,.418.189A20.711,20.711,0,0,1,118.385,91.7a26.834,26.834,0,0,1,5.7,15.169c.07,2.354-.266,5.7-2.26,8.262a.705.705,0,0,0-.145.412.546.546,0,0,0-.191.47.528.528,0,0,0,.249.423l0,.007a.519.519,0,0,0,.542.375.884.884,0,0,0,.125-.009,25.514,25.514,0,0,1,3.437-.232,26.362,26.362,0,0,1,4.806.445,22.071,22.071,0,0,1-7.445,1.281c-.6,0-1.211-.025-1.809-.074a25.252,25.252,0,0,1-3.1-.473.6.6,0,0,0-.113-.011.581.581,0,0,0-.555.551l-.043.042-.043.042a9.3,9.3,0,0,0-.387.6,5.628,5.628,0,0,1,.022.6,1.32,1.32,0,0,1-.011.151,1.325,1.325,0,0,0-.011.151c0,.011-.006.056-.008.075s0,.012,0,.013l0,.009h0a.419.419,0,0,0-.011.075c-.039.178-.084.382-.129.56a1.513,1.513,0,0,1-.108.28.3.3,0,0,0-.022.066.315.315,0,0,1-.02.063l0-.006a.412.412,0,0,0-.025.071.757.757,0,0,0-.058.251,18.076,18.076,0,0,1-3.958.438,18.447,18.447,0,0,1-3.139-.271.574.574,0,0,0-.359-.132.446.446,0,0,0-.169.032l-.017,0-.068-.014a.58.58,0,0,0-.3.011.6.6,0,0,1-.15-.334,4.428,4.428,0,0,1-.053-1.111c0-.138.009-.268.009-.394,0-.145,0-.3-.007-.444a7.906,7.906,0,0,1,.028-1.149.7.7,0,0,1,.473-.625,3.681,3.681,0,0,1,.775-.166c.106-.015.216-.03.322-.049a5.109,5.109,0,0,0,1.247-.344,3.926,3.926,0,0,0,1.85-1.829.553.553,0,0,0-.172-.718.61.61,0,0,0-.065-.272,2.772,2.772,0,0,0-1.312-1.269,2.687,2.687,0,0,0-1.012-.258c-.038,0-.077,0-.117,0a3.97,3.97,0,0,0-.766.1l-.172.033a1.373,1.373,0,0,1-.27.032.733.733,0,0,1-.526-.225,6.075,6.075,0,0,1-.71-.775,6.618,6.618,0,0,1-1.011-1.764.593.593,0,0,0-.355-.363.487.487,0,0,0-.462-.284.7.7,0,0,0-.109.009.655.655,0,0,0-.106-.009.5.5,0,0,0-.52.418.657.657,0,0,0-.083.1c-1.514,2.281-4.643,2.281-6.928,2.281a2.4,2.4,0,0,0-.925.559q-.452,2.678-.9,5.358c-.064.423-.13.861-.215,1.312l-.013.067a.918.918,0,0,1-.267.6.956.956,0,0,1-.5.105c-.143,0-.289-.014-.418-.026l-.158-.014c-.454,0-.883,0-1.335-.022-.449,0-.907-.005-1.35-.011s-.917-.011-1.383-.011c-.215,0-.434,0-.646.005s-.437.005-.658.005c-.532,0-.939-.017-1.32-.054a.6.6,0,0,1-.277-.062c-.058-.041-.078-.113-.067-.24a7.912,7.912,0,0,1,.086-1.032,3.439,3.439,0,0,1,.6-1.7,3.148,3.148,0,0,1,1.2-.809c.123-.058.251-.118.371-.181a2.385,2.385,0,0,0,1.355-1.442.481.481,0,0,0-.058-.45.577.577,0,0,0-.463-.225.55.55,0,0,0-.131.016.465.465,0,0,0-.218-.053.585.585,0,0,0-.161.024,10.379,10.379,0,0,1-2.946.457,7.434,7.434,0,0,1-2-.263,5.374,5.374,0,0,1-3.291-2.624,3.95,3.95,0,0,1-.431-2.217.467.467,0,0,0-.134-.352.564.564,0,0,0-.4-.186h-.043a.483.483,0,0,0-.4.185.568.568,0,0,0-.063,0,.51.51,0,0,0-.441.25,5.715,5.715,0,0,1-3.1,2.087c-1.1.361-2.254.635-3.369.9-.412.1-.838.2-1.257.3a1.135,1.135,0,0,1-.43.3.549.549,0,0,0-.193.732,2.685,2.685,0,0,1,0,1.676c-.031.15-.061.293-.083.432a4.156,4.156,0,0,0,.237,2.389,9.009,9.009,0,0,0,1.313,1.936,19.684,19.684,0,0,1,1.463,2.023A18.583,18.583,0,0,1,76.322,124c.3.664.525,1.306.043,1.872a2.465,2.465,0,0,1-1.872.774C74.389,126.649,74.28,126.651,74.168,126.651ZM47.084,73.594l-.046-.008L47,73.577l-.037-.009.1,0c.188-.006.384-.014.6-.026l-.041.011-.17.037h-.323c-.027,0-.041,0-.041,0Zm-2.224-1.133h0a24.6,24.6,0,0,1-2.726-.294,23.066,23.066,0,0,1-6.161-1.887c.038-.338.071-.662.1-.991a.643.643,0,0,0,.078.038,24.335,24.335,0,0,0,9.093,1.823,1.928,1.928,0,0,0-.357.844,2.123,2.123,0,0,0-.027.466Zm5.087-.242h0A2.009,2.009,0,0,0,49.577,71c-.04-.058-.082-.114-.13-.171a25.644,25.644,0,0,0,8.436-2.841,24.1,24.1,0,0,0,4.54-3.2,3.565,3.565,0,0,0,.237.427,3.918,3.918,0,0,0,.643.751,24.27,24.27,0,0,1-9.832,5.489,26.83,26.83,0,0,1-3.523.762Zm-4.514-2.129h0a24.076,24.076,0,0,1-3.128-.2,22.178,22.178,0,0,1-5.873-1.592.36.36,0,0,0-.137-.027.463.463,0,0,0-.139.023c.049-.674.085-1.36.1-2.04.045-1.313.038-2.509-.022-3.658a.466.466,0,0,0-.261-.436c.176-.229.368-.48.6-.791a.559.559,0,0,0,.065-.409.6.6,0,0,0-.237-.323.672.672,0,0,0-.3-.082.352.352,0,0,0-.112.017l-.129.065a.824.824,0,0,0-.194.194q-.418.549-.839,1.1a.454.454,0,0,0-.076.269A5.443,5.443,0,0,1,31.118,63.6a5.271,5.271,0,0,1-3.506-1.334,5.634,5.634,0,0,1-1.183-1.484,7.33,7.33,0,0,1-.659-1.919q-.036-.148-.073-.3a26.4,26.4,0,0,0-1.716-4.412l0,0-.175-.381a51.345,51.345,0,0,0-2.6-5.207.578.578,0,0,0-.078-.107,27.761,27.761,0,0,1,.831-3.078,9.274,9.274,0,0,1,1.635-2.947c.771-.947,1.582-1.822,2.367-2.668.783-.869,1.609-1.738,2.452-2.582A34.742,34.742,0,0,1,31.4,34.535a.557.557,0,0,0,.194-.732l-.008-.014c-.15-1.18.93-2.178,1.9-2.675a13.451,13.451,0,0,1,1.9-.775,12.029,12.029,0,0,0,2.09-.883.556.556,0,0,0,.067,0,.447.447,0,0,0,.356-.154,8.495,8.495,0,0,1,6.664-2.671c.363,0,.734.016,1.1.047h.031a.487.487,0,0,0,.344-.157.516.516,0,0,0,.468.3.611.611,0,0,0,.148-.019,14.619,14.619,0,0,1,3.434-.447,8.966,8.966,0,0,1,3.386.619,17.377,17.377,0,0,1,2.875,1.6,22.255,22.255,0,0,0,2.225,1.308,7.257,7.257,0,0,0,3.1.8h.1a.669.669,0,0,0,.1-.007,6.89,6.89,0,0,1,1.875,2.4l.159.279a13.56,13.56,0,0,0,1.032,1.592,10.207,10.207,0,0,0,1.549,1.485l.268.21a31.418,31.418,0,0,1,2.916,2.479,20.674,20.674,0,0,1,2.517,3.141,20.407,20.407,0,0,1,2.023,4.067.641.641,0,0,0,.232.3,24.568,24.568,0,0,0-3.285,6.355c-.29.727-.59,1.479-.907,2.207-1.492,3.387-3.273,5.484-5.443,6.412a5.768,5.768,0,0,1-1.6.415.506.506,0,0,0-.195-.039.523.523,0,0,0-.239.059,2.427,2.427,0,0,1-1.963-.843.429.429,0,0,0-.355-.162.542.542,0,0,0-.4.162.562.562,0,0,0,0,.753,3.159,3.159,0,0,0,2.112,1.114,2.382,2.382,0,0,0-.041.554,23.584,23.584,0,0,1-9.106,5.3,25.742,25.742,0,0,1-5.234,1.059c-.044,0-.089,0-.132,0a1.98,1.98,0,0,0-.461.054C46.608,70.068,46.016,70.089,45.433,70.089Z" transform="translate(9.5 9.5)" fill="#fff" stroke="#b064e8" stroke-width="1"/>
  </g>
</svg>
