<svg xmlns="http://www.w3.org/2000/svg" xmlns:xlink="http://www.w3.org/1999/xlink" width="172" height="172" viewBox="0 0 172 172">
  <defs>
    <filter id="Rectangle_386" x="58.494" y="7.366" width="81.252" height="157.267" filterUnits="userSpaceOnUse">
      <feOffset input="SourceAlpha"/>
      <feGaussianBlur stdDeviation="3" result="blur"/>
      <feFlood flood-opacity="0.161"/>
      <feComposite operator="in" in2="blur"/>
      <feComposite in="SourceGraphic"/>
    </filter>
    <filter id="Exclusion_1" x="0" y="0" width="172" height="172" filterUnits="userSpaceOnUse">
      <feOffset input="SourceAlpha"/>
      <feGaussianBlur stdDeviation="3" result="blur-2"/>
      <feFlood flood-opacity="0.161"/>
      <feComposite operator="in" in2="blur-2"/>
      <feComposite in="SourceGraphic"/>
    </filter>
  </defs>
  <g transform="matrix(1, 0, 0, 1, 0, 0)" filter="url(#Exclusion_1)">
    <path id="Exclusion_1-2" data-name="Exclusion 1" d="M76.5,153a76.143,76.143,0,0,1-42.772-13.065A76.724,76.724,0,0,1,6.012,106.277a76.4,76.4,0,0,1,7.053-72.549A76.724,76.724,0,0,1,46.723,6.012a76.4,76.4,0,0,1,72.549,7.053,76.724,76.724,0,0,1,27.716,33.658,76.4,76.4,0,0,1-7.053,72.549,76.724,76.724,0,0,1-33.658,27.716A76.02,76.02,0,0,1,76.5,153Zm7.752-21.782v0a10.036,10.036,0,0,1-.635,6.005,32.533,32.533,0,0,1-1.677,3.543l-1.947,3.677a.676.676,0,0,0,.406,1,3.754,3.754,0,0,0,1,.186h.417a5.149,5.149,0,0,0,2.833-1.106,8.875,8.875,0,0,0,2.515-3.785c.206-.519.387-1.067.562-1.6a17.33,17.33,0,0,1,1.115-2.811,10.607,10.607,0,0,1,1.447-1.96,11.461,11.461,0,0,0,1.149-1.475c.886-1.431.929-3.158.135-5.436a.7.7,0,0,0-.1-.2,21.278,21.278,0,0,1,2.056-2.289c.556-.562,1.131-1.143,1.641-1.76a10.241,10.241,0,0,0,2.462-5.787,9.712,9.712,0,0,0-.245-3.1c.659-.035,1.189-.051,1.671-.051a12.008,12.008,0,0,1,3.954.559,11.526,11.526,0,0,1,2.222,1.156c.236.146.48.3.725.44a15.389,15.389,0,0,0,3.056,1.325,14.375,14.375,0,0,0,4.22.663,10.984,10.984,0,0,0,2.406-.257,6.3,6.3,0,0,0,4.624-3.515,4.3,4.3,0,0,0,.216-3.326,2.445,2.445,0,0,0-2.157-1.552,1.878,1.878,0,0,0-.656.118.707.707,0,0,0-.11.047l-.013,0-.013,0a13.14,13.14,0,0,1-3.429.444,18.208,18.208,0,0,1-5.576-.957,34.7,34.7,0,0,1-7.924-3.759,19.121,19.121,0,0,1-3.2-2.567.626.626,0,0,0,.094-.544A184.994,184.994,0,0,1,94,82.294l-.111-.831-.811-6.084a.7.7,0,0,0-.094-.325,13.182,13.182,0,0,0,.175-6.923c-.074-.3-.157-.613-.238-.913a15.259,15.259,0,0,1-.519-2.467c-.019-.2-.031-.4-.042-.587a2.983,2.983,0,0,0-.493-1.828,8.244,8.244,0,0,0,1.265-1.859,21.8,21.8,0,0,0,2.309-13.533A6.642,6.642,0,0,1,96.5,45.581a10.2,10.2,0,0,0,.72-.842,4.649,4.649,0,0,0,.757-3.515,13.538,13.538,0,0,0-1.136-3.462,4.1,4.1,0,0,0-2.163-2.326.681.681,0,0,0-.181-.024.673.673,0,0,0-.577.322,4.4,4.4,0,0,0-.279,2.37l.009.145a2.8,2.8,0,0,1-.087.959c-1.153-2.072-2.588-4.367-5.051-5.367a9.239,9.239,0,0,0-1.812-.433,1.968,1.968,0,0,1-1.3-.73,9.355,9.355,0,0,1-.811-1.461,12.593,12.593,0,0,0-1.055-1.677,31.535,31.535,0,0,0-3.083-3.461.645.645,0,0,0-.459-.2.631.631,0,0,0-.218.04l-.05,0,.011.015-.032.015a3.474,3.474,0,0,0-1.978.987c-.184.149-.374.3-.573.443-.3.209-.612.4-.919.581a7.56,7.56,0,0,0-1.624,1.176,5.365,5.365,0,0,0-1.384,4.943,6.751,6.751,0,0,0,1.222,3.279c.149.238.3.469.449.692a8.855,8.855,0,0,1,1.121,2.064c.025,4,.056,8.977-2.921,12.334-.2.234-.425.464-.638.686a7.611,7.611,0,0,0-1.526,1.992.7.7,0,0,0-.072.439.6.6,0,0,0-.09.562h-.027a3.674,3.674,0,0,1,.115.523,2.11,2.11,0,0,0-.44.072,2.262,2.262,0,0,0-1.136.73,2,2,0,0,0-.487,1.407,2.241,2.241,0,0,0,.7,1.46,2.182,2.182,0,0,0,.261.222c-.18.313-.369.62-.551.918-.095.154-.188.306-.278.456a12.28,12.28,0,0,0-1.379,2.893,11.113,11.113,0,0,0-.324,2.974L66.8,68a16.013,16.013,0,0,1-1.623.486c-.558.14-1.754.383-2.6.541-1.326.266-3.164.826-3.813,2.624a6.1,6.1,0,0,0-.27,1.837v1.111l.054,3.353.054,3.218c0,.119,0,.241-.007.37a4.664,4.664,0,0,0,.061,1.144,1.111,1.111,0,0,0,1.07.821,1.122,1.122,0,0,0,.146-.01c2.162-.12,3.119-2.608,3.43-3.672a7.415,7.415,0,0,0,3.421-1.957A25.262,25.262,0,0,0,70.177,88.63c.172.289.355.578.532.858a12.653,12.653,0,0,1,1.388,2.63A8.938,8.938,0,0,1,72.5,96.31a.7.7,0,0,0,.158.609.671.671,0,0,0,.464.473l.027.054h.135l.085.043a.169.169,0,0,0,.049.039l.108.108.163.243a7.768,7.768,0,0,1,.465.967c.043.1.086.2.13.3l1.1,2.425a2.668,2.668,0,0,0-1.044,1.632,4.07,4.07,0,0,0,.595,2.894c.14.233.31.461.474.682.123.165.249.335.364.507a2.691,2.691,0,0,1,.514,1.3c.073.611.139,1.231.2,1.831.056.523.113,1.063.176,1.6a.706.706,0,0,0,.308.555,10,10,0,0,1-.822,5.719.708.708,0,0,0-.069.2.67.67,0,0,0-.066.531,5.388,5.388,0,0,1,.088,2.5c-.011.1-.023.191-.034.287a7.061,7.061,0,0,0,.216,2.813,16.144,16.144,0,0,0,.577,1.512,7.479,7.479,0,0,1,.83,3.329.573.573,0,0,0,.206.509,17.265,17.265,0,0,1-2.4,5.129l-.239.393q-.22.351-.436.7c-.515.831-1.047,1.69-1.618,2.516-.109.157-.221.313-.329.463a4.142,4.142,0,0,0-1.131,2.755.707.707,0,0,0,.676.676c.1,0,.193,0,.289,0a12.467,12.467,0,0,0,4.065-.679,3.106,3.106,0,0,0,1.6-1.109,4.034,4.034,0,0,0,.582-1.6q.02-.093.039-.184a12.482,12.482,0,0,1,3.1-5.044l.359-.419a17.751,17.751,0,0,0,1.8-2.355ZM67.352,7.446l-.15,0A3.684,3.684,0,0,0,64.12,8.8a5.9,5.9,0,0,0-.271,5.787,4.891,4.891,0,0,0,4.4,2.789c.074,0,.137,0,.2,0a4.635,4.635,0,0,0,2.542-.839,4.411,4.411,0,0,0,1.65-2.6,8.049,8.049,0,0,0-.047-3.881,3.588,3.588,0,0,0-2.522-2.664.738.738,0,0,0-.183-.024.624.624,0,0,0-.554.343A7.507,7.507,0,0,0,67.352,7.446ZM81.682,144.3h-.049l.338-.631c.793-1.48,1.61-3.006,2.322-4.552a13.826,13.826,0,0,0,1.542-6.247A8.441,8.441,0,0,0,85,129.357a.676.676,0,0,0-.92-.244.7.7,0,0,0-.282.352.661.661,0,0,0-.205.243,18.978,18.978,0,0,1-2.548,3.473c-.462.539-.94,1.1-1.373,1.665a11.419,11.419,0,0,0-1.65,2.813,12.9,12.9,0,0,0-.459,1.623,1.724,1.724,0,0,1-.785,1.217,7.194,7.194,0,0,1-2,.595,11.571,11.571,0,0,1-1.571.181,4.424,4.424,0,0,1,.394-.726l.014-.023,1-1.487c.649-1,1.322-2.069,2.056-3.272a16.017,16.017,0,0,0,2.678-6.436.676.676,0,0,0-.309-.568,10.189,10.189,0,0,0-.829-2.863c-.2-.5-.408-1.021-.566-1.546a6.324,6.324,0,0,1-.19-2.677l.014-.127a6.494,6.494,0,0,0-.085-2.717A11.575,11.575,0,0,0,78.236,112a.672.672,0,0,0-.261-.365l-.307-2.718a6.019,6.019,0,0,0-.271-1.461,4.638,4.638,0,0,0-.73-1.19,4.367,4.367,0,0,1-1.082-2.218c-.053-.825.187-1.3.757-1.488a.7.7,0,0,0,.475-.761.694.694,0,0,0-.069-.455L75.316,98.2l-.084-.187a3.2,3.2,0,0,0-1.4-1.822,10.46,10.46,0,0,0-.224-3.588,12.46,12.46,0,0,0-1.7-3.705,24.984,24.984,0,0,1-3.191-7.112,23.635,23.635,0,0,1-.73-4.408.675.675,0,0,0-.293-.556c.393-.463.774-.949,1.13-1.444l.649-.893c.157-.235.4-.546.691-.546a.411.411,0,0,1,.067.006,2.86,2.86,0,0,1,.8.383c.15.09.292.174.421.239l1.379.622a18.248,18.248,0,0,0,2.7.893,19.357,19.357,0,0,0,2.921.46c.379.032.825.064,1.267.064a5.891,5.891,0,0,0,1.734-.227,7.783,7.783,0,0,0,1.637-.81,11.443,11.443,0,0,1,1.257-.676,8.988,8.988,0,0,1,3.218-.7.667.667,0,0,0,.649-.71.615.615,0,0,0-.624-.643h-.025a10.443,10.443,0,0,0-3.028.541,15.22,15.22,0,0,0-2.651,1.3,4.169,4.169,0,0,1-2.246.555c-.153,0-.312,0-.486-.014a16.839,16.839,0,0,1-2.921-.378A18.145,18.145,0,0,1,73.476,74a13.976,13.976,0,0,1-1.413-.681c-.365-.193-.742-.393-1.128-.562a1.825,1.825,0,0,0-.787-.179,1.8,1.8,0,0,0-.728.152,2.876,2.876,0,0,0-1.055.974c-.219.281-.43.576-.634.861-.248.346-.5.7-.772,1.032a7.86,7.86,0,0,1-3.6,2.795.7.7,0,0,0-.35-.346v-.095c0-.046,0-.45.027-.623a8.868,8.868,0,0,1,.135-1.109,10.088,10.088,0,0,1,.731-2.272,10.268,10.268,0,0,1,2.974-3.786.675.675,0,0,0,.12-.779,4.379,4.379,0,0,0,.662-.281.588.588,0,0,0,.167.024.776.776,0,0,0,.755-.776V68.17a1.147,1.147,0,0,0,0-.7,8.766,8.766,0,0,1,.347-2.529,12.557,12.557,0,0,1,1.448-2.777l.04-.062c.278-.447.5-.816.685-1.16h.045a.73.73,0,0,0,.487-.189.693.693,0,0,0,.117-.164H71.8a.708.708,0,0,0,.329-.081l.054.055a18.509,18.509,0,0,1,7.086-1.488c.392-.017.856-.035,1.322-.035a10.523,10.523,0,0,1,2.355.224,13.811,13.811,0,0,1,3.271,1.376l.11.058,3.948,2.191a.674.674,0,0,0,.335.094l.044,0a.711.711,0,0,0,.189.177c.189.162.189.619.189.839a14.254,14.254,0,0,0,.135,1.487c.107.695.288,1.391.463,2.065.091.35.185.712.268,1.073a11.714,11.714,0,0,1-.244,6.22.592.592,0,0,0,.121.617c.224,1.657.443,3.345.656,4.978.705,5.428,1.434,11.04,2.468,16.5.365,1.926.774,3.822,1.214,5.633a.749.749,0,0,0-.293.524.634.634,0,0,0,.187.494l-.027-.027a23.914,23.914,0,0,0,7.356,5.138,29.034,29.034,0,0,0,9.032,2.948,14.848,14.848,0,0,0,5.516-.405.726.726,0,0,0,.125-.044l.037-.01a.906.906,0,0,1,.315-.06c.539,0,.917.574,1.011,1.141a3.445,3.445,0,0,1-.514,2.217A5.641,5.641,0,0,1,114.582,117a12.769,12.769,0,0,1-5.788-.757,14.288,14.288,0,0,1-2.65-1.3,13.661,13.661,0,0,0-2.812-1.433,12.829,12.829,0,0,0-4.177-.585c-.857,0-1.7.046-2.557.1a.7.7,0,0,0-.676.676.637.637,0,0,0,.014.139.653.653,0,0,0,.013.348,8.65,8.65,0,0,1-.3,5.76,13.722,13.722,0,0,1-3.272,4.246l-.025.025-.245.245a17.154,17.154,0,0,0-2.191,2.624.572.572,0,0,0-.078.545.73.73,0,0,0,.509.423,4.873,4.873,0,0,1,.056,3.954,9.567,9.567,0,0,1-1.348,1.79,9.822,9.822,0,0,0-1.085,1.375,20.179,20.179,0,0,0-1.677,4.029,10.166,10.166,0,0,1-1.893,3.731A3.775,3.775,0,0,1,81.682,144.3Zm-.254-82.454a.682.682,0,0,0-.109.009c-1.388.272-2.231,1.506-2.974,2.6a9.3,9.3,0,0,1-1.109,1.488,2.333,2.333,0,0,1-.649.487l-.379.162a3.136,3.136,0,0,1-.73.108,20.684,20.684,0,0,0-3.759.433.592.592,0,0,0-.475.674.687.687,0,0,0,.663.642.758.758,0,0,0,.164-.019l-.027-.054A16.234,16.234,0,0,1,75.261,68h.108a3.954,3.954,0,0,0,2.3-.732,7.781,7.781,0,0,0,1.681-1.989,13.34,13.34,0,0,1,.806-1.121l.352-.379.189-.162.108-.081a1.841,1.841,0,0,1,.866-.379.676.676,0,0,0-.243-1.307ZM59.967,82.115h0a1.451,1.451,0,0,0-.012-.3v-2l-.055-3c-.013-.486-.02-.988-.027-1.472s-.014-.989-.027-1.475a3.3,3.3,0,0,1,.514-2.3c.5-.663,2.5-1.179,3.6-1.379.345-.067.688-.14,1.018-.22a11.412,11.412,0,0,0-2.614,4.059c-.269.681-1.393,4.315-.238,5.134a.728.728,0,0,0-.086.193A6.077,6.077,0,0,1,61.2,81.22a2.7,2.7,0,0,1-.541.595,2.982,2.982,0,0,1-.69.3ZM91.376,60.9v0a.72.72,0,0,0-.131-.177,16.981,16.981,0,0,0-18.979-3.8,4.838,4.838,0,0,0-.18-1.1L72.1,55.8a7.152,7.152,0,0,1,1.449-1.861c.147-.151.3-.308.444-.464A11,11,0,0,0,75.775,50.8a17.915,17.915,0,0,0,1.542-6.625c.072-1.241.079-2.5.081-3.583a.787.787,0,0,0,.027-.446q-.012-.053-.027-.108V39.98a.623.623,0,0,0-.175-.453,17.4,17.4,0,0,0-1.42-2.576,6.944,6.944,0,0,1-1.179-2.5.642.642,0,0,0-.011-.4c-.012-.039-.023-.077-.034-.116,0-.065,0-.133.007-.209a.838.838,0,0,0-.141-.592,4.027,4.027,0,0,1,1.169-3.112c.029-.029.058-.057.087-.084a9.754,9.754,0,0,0,1.855,3.328l.221.3a5.682,5.682,0,0,1,1.515,3.759.676.676,0,1,0,1.352,0,6.407,6.407,0,0,0-1.515-4.165c-.139-.192-.282-.382-.42-.566a8.83,8.83,0,0,1-1.716-3.057.632.632,0,0,0-.222-.353l.165-.1c.293-.173.6-.351.868-.55.354-.259.515-.389.617-.472a.654.654,0,0,0,.167.122,2.965,2.965,0,0,0,.785.243l.487.054.486-.054a.676.676,0,0,0,.338-.207c.51.548,1.006,1.118,1.474,1.695a12.8,12.8,0,0,1,1.082,1.65c.077.146.152.293.227.439.183.358.372.727.584,1.075a3.5,3.5,0,0,0,1.244,1.244,4.294,4.294,0,0,0,1.314.39c.2.036.406.074.606.124a5.8,5.8,0,0,1,2.921,1.731,17.87,17.87,0,0,1,2.526,3.785l.016.029a.646.646,0,0,0,.227.248.677.677,0,0,0,.747.265v.027a2.255,2.255,0,0,0,1.352-2,4.822,4.822,0,0,0-.024-1.043,5.7,5.7,0,0,1-.039-.724,5.363,5.363,0,0,1,.847,1.466,11.462,11.462,0,0,1,.92,3.112,3.286,3.286,0,0,1-.216,1.569,4.318,4.318,0,0,1-.7,1.055c-.1.115-.2.228-.3.34a7.188,7.188,0,0,0-1.461,2.121.677.677,0,0,0,.134.628,20.471,20.471,0,0,1-1.783,11.6,16.425,16.425,0,0,1-.839,1.569c-.038.063-.076.13-.116.2l-.048.084ZM70.384,59.333h0l-.07-.07v.054l-.054-.054-.109-.216v.027l-.053-.158a.658.658,0,0,0,0-.085.725.725,0,0,0,0-.108v-.081l.109-.189.081-.081.081-.081h.081l.108-.055.081-.054h-.027l.183-.06a6.4,6.4,0,0,1-.408,1.212Zm-2.153-43.3h0a3.475,3.475,0,0,1-2.921-1.584,4.745,4.745,0,0,1-.666-1.745c.016-.013.03-.026.044-.04a6.136,6.136,0,0,1,6.727-1.783,7.226,7.226,0,0,1,.007,2.189,3.588,3.588,0,0,1-.974,2.137,3.09,3.09,0,0,1-1.677.784A3.5,3.5,0,0,1,68.231,16.035ZM64.7,10.8v0a4.919,4.919,0,0,1,.171-.561,2.021,2.021,0,0,1,.731-1.028,2.784,2.784,0,0,1,1.325-.378c.158-.011.31-.017.451-.017a6.057,6.057,0,0,1,2.074.365h-.11a7.472,7.472,0,0,0-4.64,1.622Z" transform="translate(9.5 9.5)" fill="#fff" stroke="#93ff9b" stroke-width="1"/>
  </g>
</svg>
