<?xml version="1.0" encoding="utf-8"?>
<!-- Generator: Adobe Illustrator 25.0.1, SVG Export Plug-In . SVG Version: 6.00 Build 0)  -->
<svg version="1.1" id="Layer_1" xmlns="http://www.w3.org/2000/svg" xmlns:xlink="http://www.w3.org/1999/xlink" x="0px" y="0px"
	 viewBox="0 0 486.2 504" style="enable-background:new 0 0 486.2 504;" xml:space="preserve">
<style type="text/css">
	.st0{fill:#FFFFFF;}
</style>
<g>
	<g>
		<path class="st0" d="M203,96.6c1.3,3.3,1,6.9,0.5,10.3c-0.6,4-1.4,8-1.5,12.1c0,1.9,0.1,3.9,0.7,5.8c0.6,2,1.6,3.8,2.4,5.7
			c1.2,2.8,1.9,5.6-0.1,8c-2.3,2.6-6,3.8-9.1,5.4c-2.9,1.5-0.3,5.8,2.5,4.3c3.1-1.6,6.4-2.9,9.1-5.2c3-2.6,4.4-6.6,3.5-10.5
			c-0.9-3.8-3.6-7.1-4-11c-0.4-4.1,0.5-8.2,1.1-12.1c0.7-4.6,1.4-9.5-0.3-13.9c-0.5-1.3-1.7-2.1-3.1-1.7
			C203.6,93.9,202.6,95.4,203,96.6L203,96.6z"/>
	</g>
</g>
<g>
	<g>
		<path class="st0" d="M198.3,145.3c-0.5-1.6-0.3-3.3-0.3-5c-0.1-1.7-0.4-3.4-1.4-4.9c-1.7-2.6-4.4-4.4-6.8-6.3
			c-4.8-3.6-8.4-9.3-10.1-15c-0.9-2.9-1.3-6.1-0.4-9c0.8-2.5,2.7-4.8,4.5-6.8c2.2-2.5,4.5-4.8,6.8-7.1c2.1-2.2,4.2-4.3,6.5-6.3
			c5.5-4.8,11.8-9.2,15.4-15.7c1.6-2.8-2.7-5.3-4.3-2.5c-3.2,5.7-8.8,9.8-13.7,14c-4.8,4.1-9.3,8.8-13.6,13.5
			c-2.1,2.3-4.3,4.9-5.6,7.8c-1.5,3.2-1.7,6.7-1.2,10.2c1,6.8,4.9,13.3,9.5,18.3c2.2,2.4,5.2,4,7.6,6.3c1.1,1.1,1.8,2.1,1.8,3.7
			c0.1,2.1-0.1,4.3,0.5,6.3C194.4,149.7,199.3,148.4,198.3,145.3L198.3,145.3z"/>
	</g>
</g>
<g>
	<g>
		<path class="st0" d="M209,69.4c3.2,1.9,6.8,0.7,9.9-0.6c1.5-0.6,3-1.3,4.6-1.8c2-0.5,4.2-0.7,6.3-1c4.6-0.6,9.2-1.4,13.8-1.6
			c4.3-0.2,8.6,0.2,12.9,0.6c4.9,0.5,9.8,1.2,14.7,1.2c3.2,0,3.2-5,0-5c-8.4-0.1-16.7-1.9-25.1-1.9c-4.4,0-8.8,0.8-13.2,1.3
			c-2.4,0.3-4.7,0.6-7.1,0.9c-1.8,0.3-3.6,0.5-5.3,1.2c-1.7,0.6-3.4,1.4-5.1,2c-0.7,0.2-1.6,0.5-2.2,0.6c-0.3,0-0.9,0-1,0
			c-0.2,0-0.5-0.2-0.7-0.3C208.7,63.4,206.2,67.7,209,69.4L209,69.4z"/>
	</g>
</g>
<g>
	<g>
		<path class="st0" d="M273.9,67c4.7,0.1,9.3,3.7,12.8,6.8c4.1,3.6,7.6,7.7,11.4,11.7c3.8,4.1,6.5,8.9,7.4,14.4
			c1,5.6,0.5,11.8-0.8,17.4c-0.6,2.7-1.6,5.4-3.5,7.5c-1.5,1.7-3.3,2.8-5.1,4.1c-2.2,1.7-3.9,3.7-4.9,6.3c-0.8,2-0.9,4.1-1.1,6.3
			c0,0.2,0,0.4-0.1,0.7c-0.1,0.7,0.1-0.5,0,0.2c-0.1,0.3-0.1,0.7-0.2,1c0,0.2-0.3,1.3-0.1,0.6c0,0.1-0.2,0.3-0.2,0.4
			c0.6-0.7-0.3,0.1,0.2-0.2c0.4-0.2-0.4,0,0.4-0.2c-0.5,0.1,0.6-0.1,0.1,0c0.6-0.1,0.2,0.1-0.1,0c-0.7-0.3,0.5,0.3-0.3-0.1
			c-1-0.5-2.2-1.3-2.9-2.3c-1.1-1.5-1.4-4.2-1.4-6.3c-0.1-2.8-0.1-5.6,0-8.3c0.5-13.9,5.9-28.3,1.9-42c-0.9-3.1-5.7-1.8-4.8,1.3
			c1.8,6.2,1.3,12.9,0.5,19.2c-0.8,6.8-2.2,13.6-2.6,20.5c-0.2,2.9-0.1,5.9,0,8.8c0.1,3,0.4,6.1,1.8,8.7c2,3.7,9.2,8.4,11.9,2.8
			c0.9-1.9,1-4,1.2-6c0-0.2,0-0.4,0.1-0.7c0-0.1,0.1-0.7,0-0.4c0,0.3,0-0.3,0.1-0.4c0.1-0.4,0.1-0.7,0.2-1.1
			c0.3-1.1,0.8-2.4,1.4-3.1c1.5-1.9,3.6-3,5.6-4.5c2.5-2,4.4-4.6,5.6-7.6c1.3-3.2,1.8-6.5,2.2-9.9c0.4-3.2,0.6-6.5,0.4-9.7
			C310.5,97,308.7,91,305,86c-1.8-2.4-3.9-4.5-5.9-6.7c-2-2.2-4.1-4.4-6.3-6.6c-4.2-4.1-9.1-8.4-14.9-10.1c-1.3-0.4-2.7-0.6-4.1-0.6
			C270.7,61.9,270.7,66.9,273.9,67L273.9,67z"/>
	</g>
</g>
<g>
	<g>
		<path class="st0" d="M205.3,100c2.7,3.8,2,9.1,2.2,13.5c0.3,5.7,2.1,11,4,16.3c2,5.9,3.7,11.8,4.3,18c0.6,6.2,0.6,12.4,0.7,18.6
			c0.1,7.1,0.5,14.3,2.3,21.3c0.8,3.1,5.6,1.8,4.8-1.3c-3-12.3-1.6-25.1-2.7-37.7c-0.6-6.4-1.9-12.5-4-18.6
			c-1.8-5.3-4-10.7-4.3-16.3c-0.3-5.4,0.4-11.7-2.9-16.4c-0.8-1.1-2.2-1.6-3.4-0.9C205.2,97.2,204.6,98.9,205.3,100L205.3,100z"/>
	</g>
</g>
<g>
	<g>
		<path class="st0" d="M220.1,186c-3.2,3.3-5.7,7-7.3,11.3c-1.4,3.7-2.1,7.5-3.1,11.3c-2.5,9.4-7.5,17.9-10.6,27
			c-3.4,10.3-4.7,21.3-5,32.1c-0.2,8.1-0.4,16.7,1.5,24.6c2,8.1,6.9,14.8,12.1,21.1c0.9,1,2.6,0.9,3.5,0c1-1,0.9-2.5,0-3.5
			c-4.3-5.2-8.5-10.9-10.4-17.1c-2.1-7-2-14.4-1.9-21.8c0.1-10.4,1-20.9,3.9-30.9c2.7-9.2,7.5-17.6,10.5-26.6
			c1.4-4.2,2.2-8.5,3.4-12.7c1.3-4.3,3.5-8.1,6.7-11.3C225.9,187.2,222.4,183.7,220.1,186L220.1,186z"/>
	</g>
</g>
<g>
	<g>
		<path class="st0" d="M209,310.9c-7.8,4-9.1,14.7-9.5,22.4c-0.5,10.4,0.7,20.9,2.1,31.2c0.3,2.4,0.7,4.9,1,7.3
			c0.1,0.5,0.1,1,0.2,1.5c0,0.1,0,0.3,0.1,0.4c0,0-0.1-0.4,0-0.1c0,0.2,0.1,0.5,0.1,0.7c0.1,0.9,0.2,1.8,0.3,2.7
			c0.7,6.2,0.8,12.6,0.8,18.9c0.1,17.7-1.1,35.5,0,53.2c0.4,7.2,1.8,15.9-3.2,21.9c-2.3,2.8-5.2,5-7.4,7.9c-2.4,3.2-3.4,7.1-4,11
			c-0.3,2-0.6,4.1-0.9,6.1c-0.2,1.2,0.1,2.1,1.1,2.8c3.5,2.4,8.6,2.9,12.7,3.3c5.5,0.4,11.1,0.2,16.5-0.7c4-0.7,9-1.8,11.8-5.1
			c1.9-2.3,2.4-5.6,2.7-8.5c0.5-3.7,0.4-7.4,0.2-11c-0.6-8.5-2.5-16.9-2.5-25.4c0-3.2-5-3.2-5,0c0,7.1,1.4,14.2,2.1,21.2
			c0.7,6.6,1.3,13.7-1,20.1c0.3-0.9-0.4,0.5-0.1,0.1c0.2-0.3-0.1,0.1-0.2,0.2c-0.1,0.1-0.3,0.3-0.4,0.4c-0.2,0.2-0.5,0.4-0.1,0.1
			c-0.1,0.1-0.3,0.2-0.4,0.3c-0.4,0.3-0.8,0.5-1.2,0.7c-0.2,0.1-0.4,0.2-0.6,0.3c-0.4,0.2,0.3-0.1-0.2,0.1c-0.5,0.2-1,0.4-1.6,0.6
			c-1,0.3-2.1,0.6-3.1,0.8c-4.7,1-9.7,1.3-14.8,1c-1.4-0.1-2.7-0.2-4.1-0.3c-0.1,0-0.3,0-0.4,0c-0.3,0,0.2,0-0.2,0
			c-0.3,0-0.6-0.1-1-0.1c-0.6-0.1-1.1-0.2-1.7-0.3c-1-0.2-2.1-0.5-3.1-0.9c-0.2-0.1-0.8-0.3-0.2-0.1c-0.2-0.1-0.4-0.2-0.6-0.3
			c-0.4-0.2-0.7-0.4-1-0.6c0.4,0.9,0.8,1.9,1.1,2.8c0.6-4,0.9-8,2.2-11.8c1.2-3.4,3.6-5.7,6.1-8.2c2.8-2.7,4.9-5.5,6.2-9.2
			c1.3-3.6,1.6-7.6,1.5-11.4c-0.1-4.2-0.5-8.3-0.7-12.5c-0.2-4.4-0.2-8.7-0.2-13.1c0-8.8,0.3-17.7,0.4-26.5
			c0.1-8.1,0.2-16.3-0.5-24.5c-0.3-3.8-0.9-7.5-1.4-11.2c-0.2-1.2-0.3-2.3-0.5-3.5c-0.1-0.6-0.1-0.5-0.2-1.3
			c-0.1-0.6-0.2-1.2-0.2-1.9c-0.3-2.6-0.6-5.1-0.9-7.7c-0.6-5.2-1-10.5-1-15.7c0-2.5,0-5,0.2-7.5c0.2-2.4,0.4-3.9,0.9-6.3
			c0.2-1,0.5-2,0.8-2.9c0.2-0.5,0.3-0.9,0.5-1.4c0.2-0.5-0.1,0.3,0.1-0.2c0.1-0.2,0.2-0.5,0.3-0.7c0.4-0.8,0.8-1.5,1.3-2.2
			c0.3-0.5-0.2,0.2,0.1-0.1c0.1-0.1,0.2-0.3,0.4-0.4c0.3-0.3,0.6-0.6,0.9-0.9c0.1-0.1,0.5-0.4,0.2-0.2c-0.3,0.2,0.2-0.2,0.3-0.2
			c0.3-0.2,0.7-0.4,1.1-0.6C214.4,313.8,211.8,309.5,209,310.9L209,310.9z"/>
	</g>
</g>
<g>
	<g>
		<path class="st0" d="M230.2,451.3c5.9-9.8,4.8-21.9,3.8-32.8c-0.1-1.3-1.1-2.5-2.5-2.5c-1.2,0-2.6,1.1-2.5,2.5
			c1,9.9,2.3,21.3-3.1,30.2C224.2,451.6,228.6,454.1,230.2,451.3L230.2,451.3z"/>
	</g>
</g>
<g>
	<g>
		<path class="st0" d="M234.7,417.2c1.6-12.4,2.8-24.8,3.3-37.3c0.3-6.4,0.3-12.8,0.2-19.2c0-6.2,0.2-12.5-0.2-18.7
			c-0.5-6.9-2.1-13.8-1.9-20.8c0.1-3.2-4.9-3.2-5,0c-0.2,6.2,1.1,12.3,1.7,18.4c0.6,6.1,0.4,12.4,0.4,18.6
			c0.1,12.6-0.2,25.2-1.2,37.7c-0.6,7.1-1.4,14.2-2.3,21.2c-0.2,1.3,1.3,2.5,2.5,2.5C233.7,419.7,234.5,418.6,234.7,417.2
			L234.7,417.2z"/>
	</g>
</g>
<g>
	<g>
		<path class="st0" d="M204.8,454.4c-5,0.3-9.2,3.5-11.9,7.5c-2.3,3.4-3.8,8.7-0.4,11.9c2.2,2.1,5.4,2.3,8.2,2
			c1.3-0.1,2.6-1,2.5-2.5c-0.1-1.2-1.1-2.7-2.5-2.5c-0.6,0.1-1.2,0.1-1.8,0.1c-0.3,0-0.5,0-0.8,0c-0.1,0-0.3,0-0.4,0
			c-0.6,0,0.4,0.1,0,0c-0.4-0.1-0.8-0.2-1.2-0.3c-0.4-0.1,0.2,0.1,0.3,0.1c0,0-0.2-0.1-0.3-0.1c-0.2-0.1-0.4-0.2-0.5-0.3
			c-0.3-0.2,0.2,0.2,0.2,0.2c0,0-0.2-0.2-0.2-0.2c-0.1-0.1-0.2-0.3-0.3-0.3c0.3,0.1,0.3,0.5,0.2,0.2c0-0.1-0.1-0.1-0.1-0.2
			c0-0.1-0.1-0.1-0.1-0.2c-0.2-0.4,0.1,0.1,0.1,0.2c0-0.1-0.1-0.4-0.2-0.5c0-0.1,0-0.1,0-0.2c-0.1-0.4,0.1-0.2,0,0.3
			c0.1-0.3,0-0.8,0-1.1c0-0.1,0-0.2,0-0.2c0-0.4,0,0.3,0,0.3c0.1-0.1,0.1-0.4,0.1-0.6c0.1-0.4,0.2-0.8,0.4-1.2
			c0-0.1,0.1-0.2,0.1-0.3c0.1-0.3-0.3,0.6-0.1,0.2c0.1-0.2,0.2-0.3,0.2-0.5c0.2-0.4,0.5-0.9,0.7-1.3c0.1-0.2,0.5-1,0.8-1.1
			c0,0-0.4,0.5-0.1,0.2c0.1-0.1,0.1-0.2,0.2-0.2c0.2-0.2,0.4-0.4,0.6-0.7c0.3-0.3,0.6-0.6,0.9-0.9c0.2-0.2,0.4-0.3,0.6-0.5
			c0.1-0.1,0.2-0.1,0.2-0.2c0.4-0.4-0.5,0.3,0,0c0.4-0.3,0.9-0.6,1.3-0.9c0.2-0.1,0.5-0.3,0.7-0.4c0.1-0.1,0.2-0.1,0.3-0.2
			c0.2-0.1,0.4-0.4-0.1,0c0.3-0.3,1.1-0.4,1.5-0.5c0.2-0.1,0.5-0.1,0.7-0.1c0.5-0.1-0.5,0-0.2,0c0.2,0,0.3,0,0.5,0
			c1.3-0.1,2.6-1.1,2.5-2.5C207.2,455.6,206.2,454.4,204.8,454.4L204.8,454.4z"/>
	</g>
</g>
<g>
	<g>
		<path class="st0" d="M233.5,473.1c4.6,0.4,9.2-0.4,12.8-3.4c3-2.5,4.7-6.4,5.4-10.1c0.5-2.5,0.7-5,0.7-7.5c0-3.2-5-3.2-5,0
			c0,1,0,1.9-0.1,2.9c0,0.5-0.1,0.9-0.1,1.3c0,0.1-0.1,0.9,0,0.3c0,0.3-0.1,0.5-0.1,0.8c-0.1,0.9-0.3,1.7-0.6,2.6
			c-0.1,0.4-0.2,0.8-0.4,1.2c-0.1,0.2-0.1,0.4-0.2,0.6c0,0.1-0.1,0.2-0.1,0.3c-0.1,0.3,0.2-0.4,0-0.1c-0.3,0.7-0.7,1.4-1.1,2.1
			c-0.1,0.2-0.3,0.4-0.4,0.5c-0.2,0.2,0.1-0.1,0.1-0.1c-0.1,0.1-0.1,0.1-0.2,0.2c-0.3,0.3-0.5,0.6-0.8,0.9c-0.3,0.3-0.6,0.5-0.8,0.7
			c0.3-0.3,0.1-0.1-0.1,0.1c-0.2,0.1-0.4,0.2-0.6,0.4c-0.3,0.2-0.7,0.4-1,0.5c-0.1,0-0.2,0.1-0.3,0.1c0,0,0.4-0.2,0.1-0.1
			c-0.2,0.1-0.5,0.2-0.7,0.2c-0.5,0.2-1,0.3-1.6,0.4c-0.1,0-0.8,0.1-0.3,0.1c-0.3,0-0.6,0.1-0.8,0.1c-1.3,0.1-2.5,0.1-3.8-0.1
			c-1.3-0.1-2.5,1.2-2.5,2.5C231,472.1,232.2,473,233.5,473.1L233.5,473.1z"/>
	</g>
</g>
<g>
	<g>
		<path class="st0" d="M248.9,453.9c11.6,9.5,27.9,9.4,42.1,9.2c3.9-0.1,7.8-0.2,11.7-0.2c3.2,0,3.2-5,0-5
			c-13.6,0-27.9,1.7-41.1-2.6c-3.3-1.1-6.5-2.6-9.2-4.8c-1-0.9-2.5-1-3.5,0C248,451.3,247.8,453,248.9,453.9L248.9,453.9z"/>
	</g>
</g>
<g>
	<g>
		<path class="st0" d="M303,461c-0.1,6.9-2,13.4-3.7,20c-0.8,3.1-1.6,6.2-1.9,9.4c-0.3,2.3-0.5,5,0.8,7c2.1,3.4,6.8,4.6,10.4,5.3
			c5,1,10.2,1.4,15.3,1c4.7-0.4,10.3-1.2,13.3-5.2c0.8-1.1,0.2-2.8-0.9-3.4c-1.3-0.7-2.6-0.2-3.4,0.9c0.4-0.6-0.2,0.1-0.4,0.3
			c-0.3,0.3,0.1-0.1,0,0c-0.2,0.1-0.3,0.2-0.5,0.3c-0.3,0.2-0.7,0.4-1,0.6c-0.4,0.2,0,0-0.1,0.1c-0.2,0.1-0.4,0.2-0.7,0.2
			c-0.9,0.3-1.8,0.5-2.8,0.7c-0.5,0.1-1,0.2-1.5,0.3c-0.1,0-0.2,0-0.4,0.1c0.1,0,0.3,0,0,0c-0.3,0-0.6,0.1-0.9,0.1
			c-4.5,0.4-9.4,0.2-13.5-0.5c-2-0.4-4-0.9-5.9-1.6c-0.1,0-0.2-0.1-0.3-0.1c-0.3-0.1,0.4,0.2,0,0c-0.2-0.1-0.3-0.2-0.5-0.2
			c-0.3-0.2-0.7-0.4-1-0.6c-0.2-0.1-0.3-0.2-0.5-0.3c-0.4-0.3,0.1,0.1,0,0c-0.2-0.2-0.4-0.4-0.6-0.6c0.2,0.2,0.3,0.4,0.1,0
			c-0.1-0.1-0.3-0.5-0.1-0.1c0.2,0.5-0.2-1.1-0.1-0.5c-0.2-1.2-0.1-2.4,0.1-3.5c0.3-2.6,1-5.5,1.7-8.1c1.9-7.1,3.9-14.2,4-21.6
			C308,457.8,303,457.8,303,461L303,461z"/>
	</g>
</g>
<g>
	<g>
		<path class="st0" d="M338,496c-1.1-4.1-1.3-8.4-1.7-12.7c-0.3-4.1-0.8-8-1.7-12c-0.8-3.4-1.6-6.8-2-10.2c-0.4-3.2-0.6-6.6,0.6-9.7
			c0.5-1.3-0.5-2.7-1.7-3.1c-1.4-0.4-2.6,0.5-3.1,1.7c-1.3,3.3-1.2,7-0.9,10.4c0.4,3.9,1.2,7.7,2.1,11.5c0.9,3.8,1.4,7.6,1.7,11.6
			c0.3,4.6,0.6,9.3,1.8,13.8C334,500.4,338.9,499.1,338,496L338,496z"/>
	</g>
</g>
<g>
	<g>
		<path class="st0" d="M328.4,451.4c1,4.7,2.1,9.6,4.8,13.7c2.9,4.3,7.1,6.7,12.1,7.5c5.8,1,11.7,1.1,17.6,1.4
			c3.5,0.2,7.4-0.1,8.3-4.2c0.5-2.3,0.3-4.8-0.1-7.1c-0.3-1.9-1-3.7-2.1-5.2c-2-2.7-5.1-3.9-8.3-4.7c-1.4-0.3-2.8-0.6-4.2-1
			c-0.3-0.1-0.6-0.2-1-0.3c-0.1,0-0.7-0.3-0.1,0c-0.2-0.1-0.3-0.1-0.4-0.2c-0.3-0.2-0.6-0.3-0.9-0.5c-0.1-0.1-0.3-0.2-0.4-0.3
			c0.5,0.4-0.1-0.1-0.2-0.2c-0.1-0.1-0.7-0.7-0.6-0.6c0.2,0.3-0.2-0.3-0.2-0.3c-0.2-0.3-0.4-0.6-0.5-0.9c-0.6-0.9-0.9-1.7-1.2-2.7
			c-0.1-0.4-0.2-0.9-0.3-1.3c0.1,0.4,0-0.7,0-0.8c0-0.2,0.1-1.2,0-0.8c0.1-0.5,0.2-0.9,0.3-1.4c0-0.1,0.1-0.3,0.2-0.4
			c0.1-0.3,0.1-0.3,0-0.1c0.1-0.1,0.1-0.3,0.2-0.4c0.2-0.4,0.4-0.9,0.7-1.3c0.2-0.4,0.5-0.8,0.8-1.1c0.1-0.1,0.4-0.5,0.1-0.2
			c0.2-0.2,0.4-0.5,0.6-0.7c1.4-1.6,2.9-3,4.4-4.5c3.2-3.1,6.3-6.2,8-10.3c0.5-1.2-0.6-2.7-1.7-3.1c-1.4-0.4-2.6,0.5-3.1,1.7
			c0.2-0.4-0.3,0.5-0.4,0.7c-0.2,0.4-0.4,0.7-0.6,1.1c-0.5,0.8-0.8,1.2-1.4,1.8c-1.2,1.4-2.5,2.7-3.8,3.9c-2.6,2.5-5.3,5-7.2,8.1
			c-2,3.2-2.6,6.9-1.5,10.5c1.1,3.6,3.3,6.9,6.8,8.4c2.7,1.2,5.5,1.5,8.3,2.3c0.3,0.1,0.6,0.2,1,0.3c0.7,0.2-0.1-0.1,0.5,0.2
			c0.3,0.1,0.5,0.3,0.8,0.4c0.1,0.1,0.3,0.2,0.4,0.3c0.5,0.3-0.3-0.3,0.1,0.1c0.3,0.2,0.5,0.5,0.7,0.7c0.5,0.5-0.2-0.3,0.1,0.1
			c0.1,0.2,0.2,0.3,0.3,0.5c0.5,0.9,0.6,1.1,0.8,2c0.4,1.7,0.6,4.1,0.4,5.5c0-0.2-0.2,0.6-0.2,0.8c-0.1,0.4,0.1-0.6,0-0.1
			c-0.1,0.4,0-0.1,0.1-0.1c0,0-0.1,0.1-0.1,0.1c-0.2,0.2-0.1,0.1,0.2-0.1c0,0-0.3,0.2-0.3,0.1c0.5-0.3,0.3-0.1,0.1-0.1
			c-0.2,0-0.4,0.1-0.6,0.1c0.7-0.1-0.3,0-0.5,0c-0.4,0-0.7,0-1.1,0c-1,0-2-0.1-3-0.2c-2.8-0.2-5.6-0.3-8.4-0.5
			c-5.2-0.4-11-0.7-14.5-4.9c-3-3.6-4.1-8.9-5-13.5c-0.3-1.3-1.8-2.1-3.1-1.7C328.8,448.7,328.1,450.1,328.4,451.4L328.4,451.4z"/>
	</g>
</g>
<g>
	<g>
		<path class="st0" d="M365.8,423.3c2.4-3.4,2.7-8.1,2.6-12.1c-0.1-4.7-0.7-9.4-1.9-14c-2.6-10.4-10-18.4-16.9-26.2
			c-4.3-4.8-8.6-9.7-11.9-15.3c-1.6-2.8-6-0.3-4.3,2.5c5.7,9.8,14.4,17.3,21.2,26.3c1.6,2.2,3.2,4.5,4.5,6.9c1,1.9,1.4,2.8,2.1,4.9
			c1.3,4.1,2,8.3,2.2,12.6c0.1,2.2,0.1,4.9-0.1,6.7c-0.1,1-0.4,2.1-0.7,3.1c-0.1,0.2-0.1,0.3-0.2,0.5c-0.1,0.3-0.1,0.3,0,0.1
			c-0.1,0.1-0.1,0.3-0.2,0.4c-0.2,0.4-0.4,0.8-0.7,1.1c-0.8,1.1-0.2,2.8,0.9,3.4C363.7,424.9,365.1,424.4,365.8,423.3L365.8,423.3z"
			/>
	</g>
</g>
<g>
	<g>
		<path class="st0" d="M281,142.5c-0.7,7.9-2.8,15.6-3.4,23.5c-0.5,7.4,0.7,14.4,4,21.1c2.9,6,7,11.4,10.7,16.9
			c4.1,6,7.4,12.4,10.5,19c6.6,14.3,12,29.2,16.9,44.2c4.9,15,8.9,30.7,8.7,46.6c-0.1,7-1,14-1,21c0,7.1,1,14,4,20.5
			c0.8,1.7,1.7,3.4,2.7,5c1.7,2.7,6.1,0.2,4.3-2.5c-3.7-5.8-5.7-12.3-6-19.3c-0.3-6.8,0.5-13.7,0.8-20.5c0.7-15.8-2.4-31.5-7-46.6
			c-4.6-15.1-10.1-30-16.3-44.4c-3-6.9-6.1-13.8-10-20.3c-3.5-5.7-7.6-11-11.1-16.7c-3.4-5.6-6.1-11.6-6.3-18.2
			c-0.4-7.8,1.6-15.5,2.8-23.2c0.3-2,0.6-4.1,0.7-6.1c0.1-1.3-1.2-2.5-2.5-2.5C282.1,140,281.1,141.2,281,142.5L281,142.5z"/>
	</g>
</g>
<g>
	<g>
		<path class="st0" d="M228.6,205.7c-3.7,8-10.3,19.3-2.3,27c2.3,2.2,5.9-1.3,3.5-3.5c-2.8-2.7-2.6-6.4-1.5-10c1.1-3.8,3-7.4,4.7-11
			c0.6-1.2,0.3-2.7-0.9-3.4C231,204.1,229.2,204.4,228.6,205.7L228.6,205.7z"/>
	</g>
</g>
<g>
	<g>
		<path class="st0" d="M231.1,208c2.2,2,4.8,3.5,7.2,5.2c0.6,0.4,1.1,0.8,1.6,1.2c-0.5-0.4,0,0,0.1,0.1c0.1,0.1,0.2,0.2,0.4,0.3
			c0.3,0.2,0.5,0.5,0.8,0.7c0.5,0.5,1,1,1.5,1.5c0.1,0.1,0.2,0.3,0.3,0.4c0.2,0.2-0.2-0.3,0,0c0.2,0.3,0.5,0.7,0.7,1
			c0.7,1.1,2.3,1.6,3.4,0.9c1.1-0.7,1.6-2.2,0.9-3.4c-1.7-2.8-4.1-4.8-6.7-6.7c-1.2-0.8-2.4-1.6-3.5-2.4c-0.6-0.4-1.2-0.8-1.8-1.2
			c-0.2-0.2-0.3-0.2,0,0c-0.2-0.1-0.3-0.2-0.5-0.4c-0.3-0.2-0.6-0.5-0.9-0.8c-1-0.9-2.6-1-3.5,0C230.2,205.4,230,207.1,231.1,208
			L231.1,208z"/>
	</g>
</g>
<g>
	<g>
		<path class="st0" d="M248.5,219.4c0.2-0.1,0.4-0.2,0.6-0.3c0.1,0,0.6-0.2,0.6-0.3c-0.4,0.1-0.4,0.2-0.2,0.1c0.1,0,0.2-0.1,0.3-0.1
			c0.1,0,0.3-0.1,0.4-0.1c0.2-0.1,0.4-0.1,0.6-0.1c0.1,0,0.2,0,0.3-0.1c-0.4,0.1-0.5,0.1-0.2,0c0.4,0,0.8-0.1,1.1,0
			c0.2,0,0.4,0,0.5,0c0.1,0,0.2,0,0.3,0c-0.4-0.1-0.5-0.1-0.2,0c0.4,0.1,0.8,0.1,1.1,0.2c0.4,0.1,0.7,0.2,1.1,0.4
			c0.2,0.1,0.2,0.1-0.2-0.1c0.1,0,0.2,0.1,0.3,0.1c0.2,0.1,0.4,0.2,0.6,0.3c1.2,0.6,2.8,0.3,3.4-0.9c0.6-1.2,0.3-2.8-0.9-3.4
			c-3.8-2-8.4-2.4-12.1,0c-1.1,0.7-1.7,2.3-0.9,3.4C245.8,219.6,247.3,220.1,248.5,219.4L248.5,219.4z"/>
	</g>
</g>
<g>
	<g>
		<path class="st0" d="M260.6,217.6c0.9-1,1.9-2,3-2.9c0.3-0.2,0.5-0.5,0.8-0.7c0.1-0.1,0.2-0.2,0.4-0.3c0.6-0.5-0.2,0.1,0.2-0.1
			c0.6-0.4,1.2-0.9,1.8-1.3c1.2-0.8,2.4-1.5,3.6-2.1c0.6-0.3,1.2-0.6,1.8-0.9c0.2-0.1-0.2,0.1,0.2-0.1c0.1-0.1,0.3-0.1,0.4-0.2
			c0.4-0.1,0.7-0.3,1.1-0.4c1.2-0.4,2.2-1.7,1.7-3.1c-0.4-1.2-1.8-2.2-3.1-1.7c-5.9,2.1-11.3,5.6-15.5,10.2c-0.9,1-1,2.6,0,3.5
			C258.1,218.5,259.7,218.6,260.6,217.6L260.6,217.6z"/>
	</g>
</g>
<g>
	<g>
		<path class="st0" d="M272.2,208.7c5.7,5.6,2,16.8-4.3,20.7c-2.7,1.7-0.2,6,2.5,4.3c8.9-5.6,13.4-20.5,5.3-28.6
			C273.4,202.9,269.9,206.4,272.2,208.7L272.2,208.7z"/>
	</g>
</g>
<g>
	<g>
		<path class="st0" d="M269.1,229.9c-0.2,0-0.4-0.1-0.6-0.2c-0.1,0-0.3-0.1-0.4-0.1c-0.1,0-0.5-0.2-0.1,0c0.4,0.2,0,0-0.1,0
			c-0.1-0.1-0.2-0.1-0.3-0.2c-0.2-0.1-0.5-0.3-0.7-0.4c-0.4-0.3-0.9-0.6-1.3-0.9c-0.4-0.3,0.3,0.2,0.1,0.1c-0.1-0.1-0.2-0.2-0.3-0.3
			c-0.2-0.2-0.5-0.4-0.7-0.6c-1.6-1.4-3.1-2.9-4.7-4.3c-1-0.8-2.6-1-3.5,0c-0.9,0.9-1.1,2.6,0,3.5c1.7,1.5,3.3,3.1,5,4.5
			c1.9,1.6,4,3.2,6.4,3.6c1.3,0.2,2.8-0.4,3.1-1.7C271.2,231.7,270.5,230.1,269.1,229.9L269.1,229.9z"/>
	</g>
</g>
<g>
	<g>
		<path class="st0" d="M256.9,224c-0.2,0.2-0.5,0.3-0.7,0.5c-0.1,0.1-0.3,0.2-0.5,0.2c-0.3,0.2,0.4-0.1,0,0
			c-0.3,0.1-0.5,0.2-0.8,0.2c-0.2,0-0.3,0.1-0.5,0.1c0.2,0,0.4,0,0.1,0c-0.6,0-1.2,0-1.8,0c-0.1,0-0.5-0.1-0.2,0
			c0.3,0.1-0.1,0-0.2,0c-0.3-0.1-0.6-0.1-1-0.2c-2.4-0.6-4.6-1.6-7-2.4c-1.2-0.4-2.8,0.5-3.1,1.7c-0.3,1.4,0.4,2.6,1.7,3.1
			c5,1.7,11.4,4.9,16.3,1.1c1-0.8,1.7-2.2,0.9-3.4C259.7,223.8,258,223.1,256.9,224L256.9,224z"/>
	</g>
</g>
<g>
	<g>
		<path class="st0" d="M229.4,233.4c5.3-0.7,10.5-2.9,14.1-6.9c0.9-1,1-2.6,0-3.5c-1-0.9-2.6-1-3.5,0c-0.4,0.4-0.7,0.8-1.2,1.2
			c-0.2,0.2-0.4,0.4-0.7,0.6c-0.1,0.1-0.2,0.2-0.3,0.2c0.2-0.1,0.3-0.2,0,0c-0.9,0.7-1.9,1.3-3,1.8c-0.2,0.1-0.5,0.2-0.7,0.3
			c-0.1,0-0.5,0.2-0.2,0.1c0.3-0.1-0.2,0.1-0.3,0.1c-0.5,0.2-1,0.4-1.6,0.5c-0.5,0.2-1.1,0.3-1.6,0.4c-0.3,0.1-0.5,0.1-0.8,0.2
			c-0.2,0-1.1,0.2-0.5,0.1c-1.3,0.2-2.6,1-2.5,2.5C227,232.1,228,233.6,229.4,233.4L229.4,233.4z"/>
	</g>
</g>
<g>
	<g>
		<path class="st0" d="M247.4,217.2c0,1.6,0,3.2,0,4.8c0,0.7,0.6,1.3,1.2,1.2c0.7,0,1.2-0.5,1.2-1.2c0-1.6,0-3.2,0-4.8
			c0-0.7-0.6-1.3-1.2-1.2C247.9,216,247.4,216.5,247.4,217.2L247.4,217.2z"/>
	</g>
</g>
<g>
	<g>
		<path class="st0" d="M250.1,219.9c0.1,0.6,0.1,1.3,0,1.9c0-0.1,0-0.2,0-0.3c-0.1,0.6-0.3,1.3-0.5,1.9c0-0.1,0.1-0.2,0.1-0.3
			c0,0.1-0.1,0.2-0.2,0.3c-0.1,0.3-0.2,0.6-0.1,1c0.1,0.3,0.3,0.6,0.6,0.7c0.6,0.3,1.4,0.2,1.7-0.4c0.7-1.5,1-3.1,0.9-4.7
			c0-0.3-0.1-0.6-0.4-0.9c-0.2-0.2-0.6-0.4-0.9-0.4c-0.3,0-0.7,0.1-0.9,0.4C250.2,219.3,250.1,219.6,250.1,219.9L250.1,219.9z"/>
	</g>
</g>
<g>
	<g>
		<path class="st0" d="M252.8,222c0,0.2,0,0.5,0,0.7c0,0.2,0,0.3,0.1,0.5c0.1,0.2,0.1,0.3,0.3,0.4c0.1,0.1,0.2,0.2,0.4,0.3
			c0.1,0.1,0.3,0.1,0.5,0.1c0.1,0,0.2,0,0.3,0c0.2-0.1,0.4-0.2,0.6-0.3c0.1-0.1,0.1-0.2,0.2-0.3c0.1-0.2,0.2-0.4,0.2-0.6
			c0-0.2,0-0.5,0-0.7c0-0.2,0-0.3-0.1-0.5c-0.1-0.2-0.1-0.3-0.3-0.4c-0.1-0.1-0.2-0.2-0.4-0.3c-0.1-0.1-0.3-0.1-0.5-0.1
			c-0.1,0-0.2,0-0.3,0c-0.2,0.1-0.4,0.2-0.6,0.3c-0.1,0.1-0.1,0.2-0.2,0.3C252.9,221.6,252.8,221.8,252.8,222L252.8,222z"/>
	</g>
</g>
<g>
	<g>
		<path class="st0" d="M255.1,220c-0.5,1.1-0.8,2.2-0.9,3.4c0,0.3,0.1,0.7,0.4,0.9c0.2,0.2,0.6,0.4,0.9,0.4c0.7,0,1.2-0.5,1.2-1.2
			c0-0.2,0-0.5,0.1-0.7c0,0.1,0,0.2,0,0.3c0.1-0.6,0.2-1.1,0.4-1.6c0,0.1-0.1,0.2-0.1,0.3c0.1-0.1,0.1-0.3,0.2-0.4
			c0.1-0.3,0.2-0.6,0.1-1c-0.1-0.3-0.3-0.6-0.6-0.7c-0.3-0.2-0.6-0.2-1-0.1C255.5,219.5,255.2,219.7,255.1,220L255.1,220z"/>
	</g>
</g>
<g>
	<g>
		<path class="st0" d="M244.6,219.3c0.2,2.2,0.4,4.3,0.7,6.5c0.1,0.7,1,1.1,1.5,0.9c0.7-0.2,1-0.8,0.9-1.5c0-0.1,0-0.2,0-0.4
			c0,0.3,0-0.2,0-0.2c0-0.2-0.1-0.5-0.1-0.7c-0.1-0.5-0.1-1-0.2-1.5c-0.1-1-0.2-2-0.3-3c-0.1-0.6-0.5-1.3-1.2-1.2
			C245.2,218,244.6,218.6,244.6,219.3L244.6,219.3z"/>
	</g>
</g>
<g>
	<g>
		<path class="st0" d="M247.8,217.2c0,1.1,0.2,2.1,0.2,3.2c0,0.3,0,0.5,0,0.8c0,0.1,0,0.3,0,0.4c0-0.3,0,0.1,0,0.1
			c-0.1,0.6-0.2,1.2-0.2,1.8c0,0.7,0.6,1.3,1.2,1.2c0.7,0,1.2-0.5,1.2-1.2c0-0.2,0-0.3,0-0.5c0-0.3,0,0.2,0-0.1
			c0-0.3,0.1-0.5,0.1-0.8c0.1-0.6,0.1-1.2,0.1-1.7c0-1.1-0.2-2.1-0.2-3.2c0-0.7-0.6-1.3-1.2-1.2C248.3,216,247.8,216.5,247.8,217.2
			L247.8,217.2z"/>
	</g>
</g>
<g>
	<g>
		<path class="st0" d="M246.4,218.4c-0.1,2.2,0.3,4.5,0.8,6.7c0.1,0.6,0.9,1.1,1.5,0.9c0.7-0.2,1-0.9,0.9-1.5
			c-0.2-1-0.4-2.1-0.6-3.1c0,0.3,0-0.1,0-0.2c0-0.1,0-0.3,0-0.4c0-0.3,0-0.5-0.1-0.8c0-0.5,0-1.1,0-1.6c0-0.7-0.6-1.3-1.2-1.2
			C246.9,217.2,246.4,217.7,246.4,218.4L246.4,218.4z"/>
	</g>
</g>
<g>
	<g>
		<path class="st0" d="M249.4,218c0,0.1,0.1,0.1,0.1,0.2c-0.1-0.2,0,0,0,0.1c0,0.1,0.1,0.3,0.1,0.4c0.1,0.3,0.1,0.6,0.2,0.9
			c0,0.3,0.1,0.6,0.1,0.9c0,0.2,0,0.3,0.1,0.5c0,0.2,0-0.1,0-0.1c0,0,0,0.2,0,0.2c0.1,1.2,0,2.4,0.6,3.5c0.3,0.6,1.2,0.8,1.7,0.4
			c0.6-0.4,0.8-1.1,0.4-1.7c-0.1-0.2,0,0.1,0,0.1c0,0-0.1-0.2-0.1-0.2c0-0.1-0.1-0.2-0.1-0.3c0-0.1,0-0.2,0,0c0-0.1,0-0.1,0-0.2
			c0-0.1,0-0.3,0-0.4c0-0.6-0.1-1.2-0.1-1.8c-0.2-1.3-0.3-2.7-1-3.9c-0.3-0.6-1.2-0.8-1.7-0.4C249.2,216.7,249,217.4,249.4,218
			L249.4,218z"/>
	</g>
</g>
<g>
	<g>
		<path class="st0" d="M251.9,219.6c0,0.2,0.1,0.4,0.1,0.7c0,0.1,0,0.2,0,0.3c0,0.1,0,0.1,0,0.2c0-0.2,0-0.2,0,0
			c0,0.4,0.1,0.8,0.1,1.3c0,0.4,0,0.8,0,1.3c0,0.1,0,0.2,0,0.3c0,0,0,0.1,0,0.1c0-0.2,0-0.2,0,0c0,0.2-0.1,0.4-0.1,0.7
			c-0.1,0.6,0.1,1.2,0.7,1.5c0.5,0.2,1.3,0.1,1.6-0.5c0.1-0.2,0.2-0.5,0.3-0.7c0.1-0.3,0.2-0.6,0.1-1c-0.1-0.3-0.3-0.6-0.6-0.7
			c-0.5-0.3-1.4-0.2-1.7,0.4c-0.1,0.2-0.2,0.5-0.3,0.7c0.8,0.3,1.5,0.6,2.3,1c0.4-2,0.3-4.1-0.1-6c-0.1-0.6-0.9-1.1-1.5-0.9
			C252.1,218.3,251.8,218.9,251.9,219.6L251.9,219.6z"/>
	</g>
</g>
<g>
	<g>
		<path class="st0" d="M253.8,219.2c0,1.1,0,2.3,0,3.4c0,0.4,0,0.8,0,1.2c0,0.2,0,0.4,0.1,0.6c0.2,0.7,0.9,1.1,1.6,0.9
			c0.6-0.2,1.1-0.9,0.9-1.5c-0.2-0.7-0.9-1-1.5-0.9c0,0,0,0,0,0c0.2,0,0.4,0,0.7,0c0,0,0,0,0,0c0.2,0.1,0.4,0.2,0.6,0.3
			c0.4,0.4,0.4,0.7,0.3,0.5c0-0.1,0-0.2,0,0.1c0,0.3,0,0.1,0,0c0-0.1,0-0.3,0-0.4c0-0.4,0-0.7,0-1.1c0-1,0-2,0-3.1
			c0-0.7-0.6-1.3-1.2-1.2C254.4,217.9,253.8,218.5,253.8,219.2L253.8,219.2z"/>
	</g>
</g>
<g>
	<g>
		<path class="st0" d="M251.5,217.9c0,0.6-0.1,1.3-0.1,1.9c0,0.4,0,0.8,0.1,1.3c0.1,0.5,0.3,0.9,0.6,1.2c0.2,0.2,0.6,0.4,0.9,0.4
			c0.3,0,0.7-0.1,0.9-0.4c0.2-0.2,0.4-0.6,0.4-0.9c0-0.3-0.1-0.6-0.4-0.9c0,0,0,0,0,0c0.1,0.1,0.1,0.2,0.2,0.3
			c-0.1-0.1-0.1-0.1-0.1-0.2c0,0.1,0.1,0.2,0.1,0.3c-0.1-0.2-0.1-0.3-0.1-0.5c0,0.1,0,0.2,0,0.3c-0.1-0.9,0.1-1.8,0.1-2.7
			c0-0.7-0.6-1.3-1.2-1.2C252.1,216.7,251.5,217.2,251.5,217.9L251.5,217.9z"/>
	</g>
</g>
<g>
	<g>
		<path class="st0" d="M255.6,218.4c0,0.4,0.1,0.9,0.1,1.3c0,0.2,0.1,0.4,0.1,0.6c0,0.1,0,0.1,0,0.2c0,0.2,0-0.3,0-0.1
			c0,0.1,0,0.2,0,0.3c0,0.4,0.1,0.8,0.1,1.2c0,0,0,0.1,0,0.1c0,0.2,0.1-0.3,0-0.1c0,0.1,0,0.2-0.1,0.2c0,0,0,0.1,0,0.1
			c0,0.2,0.1-0.2,0.1-0.2c0,0-0.1,0.2-0.1,0.2c-0.2,0.2-0.2,0.7-0.1,1c0.1,0.3,0.3,0.6,0.6,0.7c0.3,0.2,0.6,0.2,1,0.1
			c0.3-0.1,0.5-0.3,0.7-0.6c0.3-0.4,0.4-1,0.5-1.5c0-0.4,0-0.9,0-1.3c-0.1-0.5-0.1-1.1-0.2-1.6c0,0,0-0.1,0-0.1c0-0.2,0,0.3,0,0.1
			c0-0.1,0-0.2,0-0.3c0-0.2,0-0.4,0-0.5c0-0.7-0.6-1.3-1.2-1.2C256.2,217.2,255.6,217.7,255.6,218.4L255.6,218.4z"/>
	</g>
</g>
<g>
	<g>
		<path class="st0" d="M243.4,218.1c0,0.2,0,0.4,0,0.6c0,0,0,0.3,0,0.3c0-0.1,0-0.1,0-0.2c0,0.1,0,0.1,0,0.2
			c-0.1,0.5-0.1,0.9-0.1,1.4c0,0.4,0.1,0.7,0.1,1.1c0,0.2,0,0.4,0,0.6c0,0.1,0,0.2,0,0.2c0-0.2,0-0.2,0-0.1c0,0,0,0.1,0,0.1
			c-0.2,0.6,0.2,1.4,0.9,1.5c0.6,0.1,1.4-0.2,1.5-0.9c0.2-0.8,0.1-1.7,0-2.5c0-0.2,0-0.4,0-0.6c0,0,0-0.3,0-0.3c0,0.1,0,0.1,0,0.2
			c0-0.1,0-0.1,0-0.2c0.1-0.5,0.2-1,0.1-1.5c-0.1-0.7-0.5-1.3-1.2-1.2C244.1,216.9,243.4,217.4,243.4,218.1L243.4,218.1z"/>
	</g>
</g>
<g>
	<g>
		<path class="st0" d="M206.8,394.6c3.5,2.4,7.9,3.2,12.1,3.4c4.2,0.2,8.5-0.2,12.5-1.2c3.1-0.8,1.8-5.6-1.3-4.8
			c-3.6,0.9-7.1,1.2-10.8,1c-3.5-0.2-7.1-0.8-9.9-2.8c-1.1-0.8-2.8-0.2-3.4,0.9C205.1,392.4,205.7,393.8,206.8,394.6L206.8,394.6z"
			/>
	</g>
</g>
<g>
	<g>
		<path class="st0" d="M297.9,330.3c3.7,5.6,5.4,12.4,6.6,19.1c1.4,7.5,1.9,15.1,2.2,22.7c0.3,8,0.3,16.1-0.3,24.1
			c-0.4,5.1-1.1,10.2-2.1,15.2c-1,5.1-2.5,10.1-3.1,15.4c-1.3,11.2,0.6,22.5,1.7,33.6c0.1,1.3,1.1,2.5,2.5,2.5
			c1.3,0,2.6-1.1,2.5-2.5c-1-10.1-2.6-20.2-2-30.4c0.3-5.2,1.7-10.1,2.8-15.2c1.1-5.1,1.9-10.3,2.4-15.5c0.8-8.4,0.9-16.8,0.7-25.2
			c-0.2-7.9-0.8-15.8-2-23.6c-1.2-7.8-3.1-16.1-7.6-22.7C300.4,325.2,296.1,327.7,297.9,330.3L297.9,330.3z"/>
	</g>
</g>
<g>
	<g>
		<path class="st0" d="M331.9,449.1c0.4-27.6-3.4-55.2-2.3-82.8c0.3-7.8,1-15.5,2.3-23.2c0.2-1.3-0.3-2.7-1.7-3.1
			c-1.2-0.3-2.9,0.4-3.1,1.7c-4.6,27.8-1.8,55.9-0.6,83.9c0.4,7.8,0.6,15.6,0.5,23.5C326.8,452.3,331.8,452.3,331.9,449.1
			L331.9,449.1z"/>
	</g>
</g>
<g>
	<g>
		<path class="st0" d="M308.7,398.8c5.7,2.2,11.8,1.4,17.3-0.9c1.2-0.5,1.6-2.4,0.9-3.4c-0.8-1.3-2.1-1.4-3.4-0.9
			c0.2-0.1,0.1,0-0.2,0.1c-0.2,0.1-0.3,0.1-0.5,0.2c-0.3,0.1-0.5,0.2-0.8,0.3c-0.6,0.2-1.2,0.4-1.9,0.5c-1.3,0.3-1.9,0.4-3.1,0.5
			c-0.6,0-1.2,0-1.8,0c-0.3,0-0.6,0-1-0.1c0,0-0.8-0.1-0.4,0c-1.3-0.2-2.6-0.6-3.8-1c-1.2-0.5-2.8,0.5-3.1,1.7
			C306.6,397.2,307.4,398.3,308.7,398.8L308.7,398.8z"/>
	</g>
</g>
<g>
	<g>
		<path class="st0" d="M218.2,194.4c-0.2,5.9,5,9.4,8.7,13.1c0.9,0.9,2.6,1,3.5,0c0.9-1,1-2.6,0-3.5c-1.7-1.7-3.5-3.1-5.1-4.8
			c-0.2-0.2-0.4-0.4-0.6-0.7c-0.1-0.1-0.2-0.2-0.3-0.4c0.1,0.2,0.3,0.4,0.1,0.1c-0.3-0.5-0.6-1-0.9-1.5c-0.1-0.1-0.1-0.3-0.2-0.4
			c0.1,0.1,0.2,0.5,0.1,0.1c-0.1-0.3-0.2-0.5-0.2-0.8c0-0.1-0.1-0.3-0.1-0.4c-0.1-0.5,0,0.6,0,0.1c0-0.3,0-0.6,0-0.9
			c0-1.3-1.2-2.6-2.5-2.5C219.3,192,218.3,193,218.2,194.4L218.2,194.4z"/>
	</g>
</g>
<g>
	<g>
		<path class="st0" d="M281.5,191.1c-0.1,0.7,0.1-0.5,0,0.2c0,0.2-0.1,0.3-0.1,0.5c-0.1,0.4-0.2,0.7-0.3,1.1
			c-0.1,0.2-0.1,0.3-0.2,0.5c0,0.1-0.3,0.5,0,0.1c-0.2,0.3-0.3,0.6-0.5,0.9c-0.4,0.7-0.8,1.4-1.3,2c-0.1,0.1-0.2,0.3-0.3,0.4
			c-0.2,0.2,0.2-0.3-0.1,0.1c-0.3,0.3-0.5,0.6-0.8,0.9c-1,1.2-2.2,2.2-3.3,3.2c-0.6,0.5-1.2,1-1.8,1.4c-0.4,0.3,0.2-0.1-0.1,0.1
			c-0.1,0.1-0.3,0.2-0.4,0.3c-0.3,0.2-0.6,0.5-1,0.7c-1.1,0.8-1.7,2.2-0.9,3.4c0.7,1,2.3,1.7,3.4,0.9c5.7-4.2,11.8-9.4,12.6-16.8
			c0.1-1.3-1.3-2.6-2.5-2.5C282.6,188.6,281.7,189.7,281.5,191.1L281.5,191.1z"/>
	</g>
</g>
<g>
	<g>
		<path class="st0" d="M250.7,244.9c0.2,0,0.4,0,0.7,0c0.3,0,0.7-0.1,1-0.2c0.3-0.1,0.6-0.3,0.8-0.5c0.2-0.2,0.4-0.5,0.5-0.8
			c0.2-0.3,0.2-0.6,0.2-1c0-0.2-0.1-0.4-0.1-0.7c-0.1-0.4-0.3-0.8-0.6-1.1c-0.2-0.1-0.3-0.3-0.5-0.4c-0.4-0.2-0.8-0.3-1.3-0.3
			c-0.2,0-0.4,0-0.7,0c-0.3,0-0.7,0.1-1,0.2c-0.3,0.1-0.6,0.3-0.8,0.5c-0.2,0.2-0.4,0.5-0.5,0.8c-0.2,0.3-0.2,0.6-0.2,1
			c0,0.2,0.1,0.4,0.1,0.7c0.1,0.4,0.3,0.8,0.6,1.1c0.2,0.1,0.3,0.3,0.5,0.4C249.8,244.8,250.2,244.9,250.7,244.9L250.7,244.9z"/>
	</g>
</g>
<g>
	<g>
		<path class="st0" d="M252,260.2c3.2,0,3.2-5,0-5C248.8,255.2,248.8,260.2,252,260.2L252,260.2z"/>
	</g>
</g>
<g>
	<g>
		<path class="st0" d="M254.7,281.6c3.2,0,3.2-5,0-5C251.5,276.6,251.5,281.6,254.7,281.6L254.7,281.6z"/>
	</g>
</g>
<g>
	<g>
		<path class="st0" d="M256.7,300.9c3.2,0,3.2-5,0-5C253.5,295.9,253.5,300.9,256.7,300.9L256.7,300.9z"/>
	</g>
</g>
<g>
	<g>
		<path class="st0" d="M259.4,326.2c3.2,0,3.2-5,0-5C256.1,321.2,256.1,326.2,259.4,326.2L259.4,326.2z"/>
	</g>
</g>
<g>
	<g>
		<path class="st0" d="M237.6,370.2c6.9,6,14.7,10.7,23.7,12.8c4.8,1.1,9.6,1.3,14.4,1.3c5.6,0,11.2,0.1,16.7-0.9
			c5.6-1,10.7-4,16.2-5.2c3.1-0.7,1.8-5.5-1.3-4.8c-4.7,1-9,3.3-13.7,4.6c-5,1.4-10.4,1.4-15.5,1.4c-4.6,0-9.2,0.1-13.7-0.8
			c-3.9-0.7-7.8-1.9-11.4-3.7c-4.4-2.1-8.3-5-12-8.1c-1-0.9-2.5-1-3.5,0C236.7,367.5,236.6,369.3,237.6,370.2L237.6,370.2z"/>
	</g>
</g>
<g>
	<g>
		<path class="st0" d="M274,256.2c6.1,0.4,12-1.4,18-2c1.3-0.1,2.5-1,2.5-2.5c0-1.2-1.1-2.6-2.5-2.5c-6,0.6-11.9,2.4-18,2
			c-1.3-0.1-2.5,1.2-2.5,2.5C271.5,255.2,272.7,256.2,274,256.2L274,256.2z"/>
	</g>
</g>
<g>
	<g>
		<path class="st0" d="M275.1,255.5c1.6-1.6,3.4-2.9,5-4.4c1.9-1.7,3.4-3.7,4.3-6c0.5-1.2-0.5-2.8-1.7-3.1c-1.4-0.3-2.6,0.4-3.1,1.7
			c0,0.1-0.1,0.2-0.1,0.4c0.2-0.7,0.1-0.3,0-0.1c-0.1,0.2-0.2,0.5-0.4,0.7c-0.1,0.2-0.3,0.4-0.4,0.6c-0.1,0.1-0.2,0.2-0.2,0.3
			c-0.2,0.2,0.4-0.5,0.1-0.1c-0.7,0.8-1.4,1.6-2.2,2.3c-1.6,1.4-3.3,2.7-4.8,4.2c-0.9,0.9-1,2.6,0,3.5
			C272.6,256.4,274.2,256.5,275.1,255.5L275.1,255.5z"/>
	</g>
</g>
<g>
	<g>
		<path class="st0" d="M281.6,245.5c2.6,2.9,5.1,5.8,8.5,7.7c1.1,0.6,2.8,0.3,3.4-0.9c0.6-1.2,0.3-2.7-0.9-3.4
			c-0.8-0.4-1.5-0.9-2.2-1.5c0.2,0.1,0.3,0.3,0.5,0.4c-2.2-1.7-4-3.8-5.8-5.9c-0.9-1-2.7-1-3.5,0C280.6,243,280.7,244.5,281.6,245.5
			L281.6,245.5z"/>
	</g>
</g>
<g>
	<g>
		<path class="st0" d="M271.6,254.4c0.7,2.5,0.7,4.6,0.9,7.3c0.1,2.7,0.3,5.4,1.1,8c0.4,1.2,1.7,2.2,3.1,1.7
			c1.2-0.4,2.2-1.7,1.7-3.1c-0.2-0.6-0.4-1.2-0.5-1.8c-0.1-0.4-0.1-0.7-0.2-1.1c-0.1-0.5,0,0.1-0.1-0.4c-0.1-1.3-0.2-2.6-0.3-4
			c-0.1-2.7-0.3-5.5-1-8.1c-0.4-1.3-1.8-2.2-3.1-1.7C272.1,251.7,271.2,253.1,271.6,254.4L271.6,254.4z"/>
	</g>
</g>
<g>
	<g>
		<path class="st0" d="M277.4,272.8c1-0.4,2.1-0.6,3.2-0.7c-0.6,0.1,0.3,0,0.4,0c0.2,0,0.4,0,0.7-0.1c0.6-0.1,1.2-0.1,1.8-0.1
			c2.2-0.1,4.4-0.1,6.7-0.3c1.3-0.1,2.6-1.1,2.5-2.5c-0.1-1.3-1.1-2.6-2.5-2.5c-4.6,0.4-9.5-0.1-14,1.4c-1.2,0.4-2.2,1.7-1.7,3.1
			C274.7,272.3,276,273.3,277.4,272.8L277.4,272.8z"/>
	</g>
</g>
<g>
	<g>
		<path class="st0" d="M290.2,253.1c0,4.9-0.2,9.8,0.8,14.7c0.3,1.3,1.9,2.1,3.1,1.7c1.4-0.4,2-1.7,1.7-3.1
			c-0.1-0.6-0.2-1.2-0.3-1.8c0.1,0.4,0-0.3,0-0.4c0-0.3-0.1-0.5-0.1-0.8c-0.1-1.1-0.1-2.3-0.2-3.4c0-2.3,0-4.6,0-6.9
			c0-1.3-1.2-2.6-2.5-2.5C291.3,250.6,290.2,251.7,290.2,253.1L290.2,253.1z"/>
	</g>
</g>
<g>
	<g>
		<path class="st0" d="M280,224.6c6.8-3,12.2-9,15.6-15.6c0.6-1.2,0.3-2.8-0.9-3.4c-1.1-0.6-2.8-0.3-3.4,0.9c-0.8,1.5-1.7,3-2.7,4.4
			c-0.1,0.2-0.3,0.4-0.4,0.6c0,0-0.4,0.5-0.2,0.3c0.2-0.2-0.2,0.3-0.2,0.3c-0.1,0.2-0.3,0.4-0.5,0.6c-0.6,0.7-1.1,1.3-1.8,1.9
			c-0.6,0.6-1.2,1.2-1.9,1.8c-0.3,0.3-0.6,0.5-0.9,0.8c0,0-0.6,0.5-0.2,0.2c-0.2,0.1-0.4,0.3-0.6,0.4c-1.4,1-2.9,1.8-4.4,2.5
			c-1.2,0.5-1.6,2.4-0.9,3.4C277.3,224.9,278.7,225.1,280,224.6L280,224.6z"/>
	</g>
</g>
<g>
	<g>
		<path class="st0" d="M212.1,215.2c0.2,0.1,0.4,0.3,0.6,0.4c0.1,0.1,0.2,0.2,0.3,0.3c-0.1-0.1-0.4-0.3-0.1-0.1
			c0.4,0.3,0.8,0.6,1.2,1c0.8,0.7,1.6,1.4,2.5,2c1.7,1.4,3.5,2.7,5.5,3.7c1.2,0.6,2.8,0.4,3.4-0.9c0.6-1.1,0.4-2.8-0.9-3.4
			c-0.9-0.4-1.8-0.9-2.6-1.5c-0.4-0.3-0.8-0.6-1.2-0.9c-0.5-0.3,0.3,0.2,0,0c-0.1-0.1-0.2-0.2-0.3-0.3c-0.2-0.2-0.4-0.3-0.6-0.5
			c-1.7-1.4-3.4-2.9-5.3-4.2c-1.1-0.8-2.8-0.2-3.4,0.9C210.5,213.1,211,214.4,212.1,215.2L212.1,215.2z"/>
	</g>
</g>
<g>
	<g>
		<path class="st0" d="M241.4,225.7c-0.5,5-0.1,10,0.4,14.9c0.5,5.1,0.9,10.1,1.1,15.2c0.3,10.7,0.6,21.5,1.2,32.2
			c0.6,10.7,1.6,21.4,3.1,32c0.8,5.4,1.7,10.7,2.5,16c0.8,4.7,1.7,9.5,2.1,14.3c0.8,9.4,0.4,19.4,3.7,28.4c0.6,1.5,3,0.8,2.4-0.7
			c-2.9-8-2.8-16.8-3.4-25.2c-0.7-9.8-2.8-19.5-4.3-29.2c-3.3-21.2-4.1-42.5-4.8-63.9c-0.2-5.8-0.5-11.5-1-17.2
			c-0.5-5.6-1.1-11.2-0.5-16.8C244.1,224.1,241.6,224.2,241.4,225.7L241.4,225.7z"/>
	</g>
</g>
<g>
	<g>
		<path class="st0" d="M259.5,226.7c2.3,9.4,1.9,19,2.7,28.6c0.4,4.7,1.1,9.4,1.7,14.2c0.5,4.9,1,9.9,1.4,14.8
			c0.8,9.9,1.2,19.8,2.1,29.8c0.8,10.1,1.8,20.1,2.6,30.2c0.9,11.4,1.6,22.8,1.6,34.2c0,1.6,2.5,1.6,2.5,0c0-20.4-2.1-40.6-3.9-60.9
			c-0.8-10-1.4-20.1-2.1-30.1c-0.7-9.8-1.8-19.6-3-29.4c-1.3-10.6-0.5-21.5-3.1-32C261.5,224.5,259.1,225.2,259.5,226.7L259.5,226.7
			z"/>
	</g>
</g>
<g>
	<g>
		<path class="st0" d="M261.4,348.9c3.2,0,3.2-5,0-5C258.1,343.9,258.1,348.9,261.4,348.9L261.4,348.9z"/>
	</g>
</g>
<g>
	<g>
		<path class="st0" d="M262.7,368.2c3.2,0,3.2-5,0-5C259.5,363.2,259.5,368.2,262.7,368.2L262.7,368.2z"/>
	</g>
</g>
<g>
	<g>
		<path class="st0" d="M224.5,378.6c1.1,1.1,2.2,2.2,3.3,3.3c0.5,0.5,1.3,0.5,1.8,0c0.5-0.5,0.5-1.3,0-1.8c-1.1-1.1-2.2-2.2-3.3-3.3
			c-0.5-0.5-1.3-0.5-1.8,0C224,377.4,224,378.1,224.5,378.6L224.5,378.6z"/>
	</g>
</g>
<g>
	<g>
		<path class="st0" d="M228.7,375.3c-1.9,0.9-3.5,2.5-4.4,4.4c-0.1,0.3-0.2,0.6-0.1,1c0.1,0.3,0.3,0.6,0.6,0.7
			c0.6,0.3,1.4,0.2,1.7-0.4c0.3-0.5,0.6-1.1,1-1.6c-0.1,0.1-0.1,0.2-0.2,0.3c0.4-0.6,0.9-1.1,1.5-1.5c-0.1,0.1-0.2,0.1-0.3,0.2
			c0.5-0.4,1-0.7,1.6-1c0.6-0.3,0.8-1.2,0.4-1.7C230.1,375.2,229.4,375,228.7,375.3L228.7,375.3z"/>
	</g>
</g>
<g>
	<g>
		<path class="st0" d="M314.5,382c0.7,0.7,1.3,1.3,2,2c0.2,0.2,0.6,0.4,0.9,0.4c0.3,0,0.7-0.1,0.9-0.4c0.2-0.2,0.4-0.6,0.4-0.9
			c0-0.3-0.1-0.6-0.4-0.9c-0.7-0.7-1.3-1.3-2-2c-0.2-0.2-0.6-0.4-0.9-0.4c-0.3,0-0.7,0.1-0.9,0.4c-0.2,0.2-0.4,0.6-0.4,0.9
			C314.1,381.4,314.2,381.7,314.5,382L314.5,382z"/>
	</g>
</g>
<g>
	<g>
		<path class="st0" d="M317.1,378.9c-1.1,1.1-2.2,2.2-3.3,3.3c-0.5,0.5-0.5,1.3,0,1.8c0.5,0.5,1.3,0.5,1.8,0
			c1.1-1.1,2.2-2.2,3.3-3.3c0.5-0.5,0.5-1.3,0-1.8C318.4,378.4,317.6,378.4,317.1,378.9L317.1,378.9z"/>
	</g>
</g>
<g>
	<g>
		<path class="st0" d="M218.7,101.7c5.3,0.5,10.1-2,15.3-2c1.6,0,1.6-2.5,0-2.5c-5.2,0-10.1,2.5-15.3,2c-0.7-0.1-1.2,0.6-1.2,1.2
			C217.4,101.1,218,101.6,218.7,101.7L218.7,101.7z"/>
	</g>
</g>
<g>
	<g>
		<path class="st0" d="M217,101.7c0.9,1.5,1.8,3.1,2.7,4.7c0.3,0.6,1.2,0.8,1.7,0.4c0.6-0.4,0.8-1.1,0.4-1.7
			c-0.8-1.6-1.7-3.1-2.7-4.7c-0.3-0.6-1.1-0.8-1.7-0.4C216.8,100.4,216.6,101.1,217,101.7L217,101.7z"/>
	</g>
</g>
<g>
	<g>
		<path class="st0" d="M221.7,108.9c5.1-2,11-1.3,16.3-1.3c1.6,0,1.6-2.5,0-2.5c-5.6,0-11.7-0.7-17,1.4c-0.6,0.2-1.1,0.8-0.9,1.5
			C220.3,108.7,221.1,109.2,221.7,108.9L221.7,108.9z"/>
	</g>
</g>
<g>
	<g>
		<path class="st0" d="M239.2,105.4c-0.8-2.5-2.1-4.8-2.7-7.3c-0.2-0.6-0.9-1.1-1.5-0.9c-0.7,0.2-1,0.9-0.9,1.5
			c0.6,2.5,1.8,4.9,2.7,7.3c0.2,0.6,0.9,1.1,1.5,0.9C239,106.8,239.5,106.1,239.2,105.4L239.2,105.4z"/>
	</g>
</g>
<g>
	<g>
		<path class="st0" d="M238.4,103.6c5.1-1.5,10.5-0.6,15.7-0.6c1.6,0,1.6-2.5,0-2.5c-5.4,0-11-0.9-16.3,0.7
			C236.2,101.7,236.8,104.1,238.4,103.6L238.4,103.6z"/>
	</g>
</g>
<g>
	<g>
		<path class="st0" d="M256.1,97.1c0,2.4,0,4.9,0,7.3c0,0.7,0.6,1.3,1.2,1.2c0.7,0,1.2-0.5,1.2-1.2c0-2.4,0-4.9,0-7.3
			c0-0.7-0.6-1.3-1.2-1.2C256.7,95.9,256.1,96.4,256.1,97.1L256.1,97.1z"/>
	</g>
</g>
<g>
	<g>
		<path class="st0" d="M257.4,99c6,0,12.5-1.3,18.3,0.6c1.5,0.5,2.2-1.9,0.7-2.4c-6.1-2-12.7-0.7-19-0.7
			C255.8,96.5,255.8,99,257.4,99L257.4,99z"/>
	</g>
</g>
<g>
	<g>
		<path class="st0" d="M258,106.3c4.7-0.3,9.3-0.6,14-0.7c1.6,0,1.6-2.5,0-2.5c-4.7,0-9.3,0.4-14,0.7
			C256.4,103.9,256.4,106.4,258,106.3L258,106.3z"/>
	</g>
</g>
<g>
	<g>
		<path class="st0" d="M274.1,98.4c0,0.4,0.1,0.8,0.1,1.2c0,0.2,0,0.4,0,0.6c0,0.1,0,0.2,0,0.3c0,0.1,0,0.1,0,0.2c0-0.2,0-0.2,0-0.1
			c-0.1,0.8-0.3,1.5-0.6,2.2c-0.1,0.3,0,0.7,0.1,1c0.2,0.3,0.4,0.5,0.7,0.6c0.3,0.1,0.7,0.1,1-0.1c0.3-0.2,0.4-0.4,0.6-0.7
			c0.6-1.6,0.9-3.3,0.7-5c0-0.3-0.1-0.6-0.4-0.9c-0.2-0.2-0.6-0.4-0.9-0.4C274.7,97.2,274,97.7,274.1,98.4L274.1,98.4z"/>
	</g>
</g>
<g>
	<g>
		<path class="st0" d="M275.7,102.9c3.2-1.1,6-3.1,9-4.8c1.4-0.8,0.1-3-1.3-2.2c-2.7,1.6-5.4,3.5-8.4,4.5c-0.6,0.2-1.1,0.9-0.9,1.5
			C274.3,102.7,275.1,103.2,275.7,102.9L275.7,102.9z"/>
	</g>
</g>
<g>
	<g>
		<path class="st0" d="M220,102.5c-4.5,0.3-8.9-1.1-13.3-0.7c-0.7,0.1-1.2,0.5-1.2,1.2c0,0.6,0.6,1.3,1.2,1.2
			c4.5-0.4,8.9,0.9,13.3,0.7C221.6,104.9,221.6,102.4,220,102.5L220,102.5z"/>
	</g>
</g>
<g>
	<g>
		<path class="st0" d="M219,90.9c1.6,0.3,3.2,0.6,4.7,0.6c1.6,0,3.7-0.1,4.8-1.5c1.5-1.7,0.6-4.6-0.8-6c-1.7-1.7-4.3-1.5-6.3-0.5
			c-2.1,1-4.1,3.1-4.1,5.6c0,0.7,0.6,1.2,1.2,1.2c0.7,0,1.3-0.6,1.2-1.2c0-0.1,0-0.2,0-0.3c0-0.3-0.1,0.2,0,0
			c0.1-0.2,0.1-0.4,0.1-0.5c0.1-0.2-0.1,0.2,0,0c0-0.1,0.1-0.2,0.1-0.3c0.1-0.2,0.2-0.4,0.3-0.5c0.2-0.2-0.1,0.1,0-0.1
			c0.1-0.1,0.1-0.1,0.2-0.2c0.2-0.2,0.3-0.3,0.5-0.5c0.1-0.1,0.2-0.1,0.2-0.2c0.1-0.1,0.2-0.2,0,0c0.2-0.1,0.4-0.3,0.6-0.4
			c0.2-0.1,0.4-0.2,0.6-0.3c0.1,0,0.2-0.1,0.3-0.1c-0.3,0.1,0,0,0.1,0c0.2-0.1,0.4-0.1,0.6-0.2c0.1,0,0.2,0,0.3-0.1c0,0,0.1,0,0.1,0
			c0.2,0-0.3,0,0,0c0.2,0,0.4,0,0.6,0c0.1,0,0.2,0,0.3,0c-0.3,0-0.1,0,0.1,0c0.1,0,0.2,0.1,0.3,0.1c0.3,0.1-0.1-0.1,0,0
			c0.2,0.1,0.3,0.2,0.5,0.3c-0.2-0.1,0,0,0,0.1c0.1,0.1,0.1,0.2,0.2,0.2c0.1,0.1-0.1-0.2,0.1,0.1c0.1,0.1,0.1,0.2,0.2,0.3
			c0.1,0.1,0.1,0.2,0.2,0.3c0.1,0.2-0.1-0.2,0,0c0,0,0,0.1,0.1,0.1c0.1,0.2,0.2,0.4,0.2,0.7c0,0.1,0,0.2,0.1,0.3c0-0.2,0-0.2,0,0
			c0,0.1,0,0.2,0,0.3c0,0,0,0.1,0,0.1c0,0.2,0.1-0.2,0-0.1c0,0.1,0,0.1,0,0.2c0,0.1-0.1,0.3,0,0.1c0.1-0.3-0.3,0.3-0.1,0.1
			c0.2-0.2-0.2,0.1-0.2,0.2c0,0,0.3-0.2,0,0c-0.1,0-0.1,0.1-0.2,0.1c-0.1,0-0.1,0.1-0.2,0.1c-0.2,0.1,0.3-0.1,0,0
			c-0.2,0.1-0.3,0.1-0.5,0.2c-0.2,0-0.3,0.1-0.5,0.1c-0.3,0.1,0,0,0,0c0,0-0.3,0-0.3,0c-0.4,0-0.7,0-1.1,0c-0.4,0-0.9,0-1.3-0.1
			c-0.2,0-0.4,0-0.6-0.1c-0.1,0-0.2,0-0.3,0c-0.2,0,0.3,0,0,0c-0.7-0.1-1.3-0.2-2-0.4c-0.7-0.1-1.4,0.2-1.5,0.9
			C218,90,218.4,90.8,219,90.9L219,90.9z"/>
	</g>
</g>
<g>
	<g>
		<path class="st0" d="M263,88.9c3.1,1.1,6.4,0.7,9.6,0.6c0.5,0,1.1-0.4,1.2-0.9c0.7-2.6,0-5.2-2.3-6.7c-2-1.3-4.7-1.3-6.8-0.3
			c-1.3,0.6-2.4,1.6-3.1,2.8c-0.8,1.4,1.3,2.7,2.2,1.3c0.1-0.1,0.1-0.2,0.2-0.4c0,0,0.2-0.3,0.1-0.2c-0.1,0.1,0.1-0.1,0.2-0.2
			c0.1-0.1,0.2-0.2,0.3-0.3c0.1-0.1,0.2-0.2,0.3-0.3c0.2-0.2-0.2,0.1,0.1-0.1c0.2-0.1,0.4-0.3,0.6-0.4c0.1-0.1,0.2-0.1,0.3-0.2
			c0.2-0.1-0.2,0.1,0.1,0c0.2-0.1,0.5-0.2,0.7-0.2c0.1,0,0.2,0,0.3-0.1c0.1,0,0.4-0.1,0.2,0c-0.2,0,0.1,0,0.2,0c0.1,0,0.3,0,0.4,0
			c0.2,0,0.4,0,0.6,0c0.3,0-0.2,0,0.1,0c0.1,0,0.3,0,0.4,0.1c0.2,0,0.4,0.1,0.6,0.2c0,0,0.3,0.1,0.2,0.1c-0.2-0.1,0.1,0.1,0.2,0.1
			c0.2,0.1,0.4,0.2,0.5,0.3c0,0,0.1,0.1,0.1,0.1c0.1,0.1-0.2-0.2-0.1,0c0.1,0.1,0.2,0.1,0.3,0.2c0.1,0.1,0.1,0.1,0.2,0.2
			c0.1,0.1,0.3,0.4,0.1,0.1c0.1,0.2,0.2,0.4,0.4,0.6c0,0,0,0.1,0.1,0.1c0.1,0.1-0.1-0.2,0,0c0,0.1,0.1,0.2,0.1,0.3
			c0,0.1,0.1,0.3,0.1,0.4c0.1,0.3,0-0.2,0,0.1c0,0.3,0,0.6,0,0.9c0,0.1,0,0.2,0,0c0,0.1,0,0.1,0,0.2c0,0.2-0.1,0.4-0.1,0.6
			c0.4-0.3,0.8-0.6,1.2-0.9c-3,0.1-6.1,0.4-8.9-0.6c-0.6-0.2-1.4,0.3-1.5,0.9C262,88.1,262.4,88.7,263,88.9L263,88.9z"/>
	</g>
</g>
<g>
	<g>
		<path class="st0" d="M258.6,115c-1.1-1.3-3.1-1.5-4.4-0.5c-0.7,0.5-1.2,1.1-1.4,1.9c-0.2,1,0.1,1.9,0.7,2.6c0.6,0.7,1.6,1.2,2.6,1
			c0.7-0.2,1.4-0.7,1.7-1.4c0.3-0.7,0.5-1.4,0.3-2.2c-0.3-1-1.4-1.6-2.3-1.2c-0.8,0.3-1.3,1.1-1.6,1.8c-0.2,0.4-0.4,0.8-0.5,1.2
			c-0.1,0.3-0.2,0.6-0.2,0.9c0,0.7,0.5,1.2,1.2,1.2c1.5,0.1,3.1,0.2,4.6,0.2c0.7,0,1.3-0.6,1.2-1.2c0-0.7-0.5-1.2-1.2-1.2
			c-1.6,0-3.1-0.1-4.6-0.2c0.4,0.4,0.8,0.8,1.2,1.2c0,0,0-0.1,0-0.1c0,0-0.1,0.4,0,0.3c0,0,0,0,0-0.1c0-0.1,0-0.2,0.1-0.3
			c0-0.1,0.1-0.2,0.1-0.3c0-0.1-0.1,0.3,0,0.1c0-0.1,0.1-0.1,0.1-0.2c0.1-0.2,0.2-0.5,0.4-0.7c0.1-0.1,0.1-0.2,0.2-0.3
			c0.1-0.1,0.2-0.2-0.1,0.1c0,0,0.1-0.1,0.1-0.1c0.1-0.1,0.1-0.1,0.2-0.2c0,0-0.3,0.2-0.1,0.1c0.2-0.1-0.4,0.1-0.2,0.1
			c-0.2,0-0.4,0-0.5,0c0.2,0-0.2-0.1-0.2-0.1c0.2,0.1-0.1-0.1-0.1-0.1c0,0,0,0,0,0c0,0,0.1,0.1,0-0.1c-0.2-0.2-0.1-0.1,0,0
			c0,0-0.1-0.4-0.1-0.2c0,0,0,0.1,0,0.1c0,0,0-0.4,0-0.2c0,0,0,0.1,0,0.1c0,0,0,0.1,0,0.1c0,0.2,0.1-0.3,0-0.2c0,0.1,0,0.2-0.1,0.3
			c0,0.1-0.1,0.3,0.1-0.1c0,0,0,0.1-0.1,0.1c0,0-0.2,0.2-0.2,0.3c0,0,0.2-0.3,0.1-0.2c0,0,0,0,0,0c0,0-0.1,0.1-0.1,0.1
			c-0.1,0.1,0.3-0.2,0.1-0.1c0,0-0.1,0.1-0.1,0.1c-0.2,0.1,0.3-0.1,0.1-0.1c0,0-0.1,0-0.1,0c0.3-0.1,0.3,0,0.2,0c0,0-0.1,0-0.1,0
			c-0.1,0,0.2,0,0.2,0c0,0-0.1,0-0.2,0c-0.1,0,0.2,0.1,0.2,0.1c0,0-0.1,0-0.1,0c0,0-0.1-0.1-0.1-0.1c0,0-0.1-0.1,0,0
			c0.2,0.1,0,0,0,0c-0.1-0.1-0.1-0.1-0.2-0.2c0,0-0.2-0.2,0,0c0.2,0.2,0,0,0-0.1c0-0.1-0.1-0.1-0.1-0.2c0,0,0.1,0.3,0.1,0.2
			c0,0,0-0.1,0-0.1c0-0.1,0-0.1,0-0.2c0-0.1,0,0.2,0,0.2c0,0,0-0.1,0-0.1c0-0.1,0-0.1,0-0.2c0-0.2-0.1,0.3,0,0.1c0-0.1,0-0.1,0-0.2
			c0,0,0.1-0.1,0.1-0.2c0,0-0.2,0.3-0.1,0.2c0,0,0,0,0-0.1c0,0,0.1-0.1,0.1-0.1c0.1-0.1,0.2-0.2-0.1,0.1c0.1-0.1,0.2-0.2,0.2-0.2
			c0,0,0,0,0.1-0.1c0.1-0.1-0.2,0.2-0.1,0.1c0.1,0,0.1-0.1,0.2-0.1c0,0,0.1-0.1,0.2-0.1c0.1,0,0.3-0.1,0.1,0c-0.2,0.1,0,0,0.1,0
			c0.1,0,0.1,0,0.2-0.1c0.1,0,0.3,0-0.1,0c0.1,0,0.1,0,0.2,0c0.1,0,0.1,0,0.2,0c0.2,0-0.4-0.1-0.1,0c0.1,0,0.1,0,0.2,0.1
			c0,0,0.1,0,0.1,0c0.1,0-0.3-0.2-0.2-0.1c0.1,0,0.1,0.1,0.2,0.1c0,0,0.1,0,0.1,0.1c0.2,0.1-0.2-0.2-0.1-0.1
			c0.1,0.1,0.2,0.2,0.3,0.3c0.2,0.2,0.6,0.4,0.9,0.4c0.3,0,0.7-0.1,0.9-0.4c0.2-0.2,0.4-0.6,0.4-0.9
			C258.9,115.6,258.8,115.3,258.6,115L258.6,115z"/>
	</g>
</g>
<g>
	<g>
		<path class="st0" d="M244.8,117.5c0,0,0-0.1,0.1-0.1C244.9,117.3,244.8,117.5,244.8,117.5c0,0,0.3-0.3,0.1-0.2
			c-0.2,0.1,0.1,0,0.1-0.1c0.1-0.1-0.2,0.1-0.1,0c0,0,0.1,0,0.2,0c0.2-0.1-0.1,0-0.1,0c0,0,0.1,0,0.1,0c0,0,0.1,0,0.1,0
			c0,0-0.3-0.1-0.2,0c0.2,0-0.1,0-0.1-0.1c0,0,0.2,0.2,0,0c-0.2-0.1,0,0,0,0c0.1,0.1-0.2-0.3-0.1-0.1c0.1-0.5,0.1-1,0.2-1.5
			c0,0-0.1,0.1-0.1,0.1c0,0,0,0-0.1,0.1c-0.1,0.1-0.1,0,0.1-0.1c-0.1,0-0.2,0.1-0.3,0.2c-0.2,0.1,0,0,0.1,0c0,0-0.1,0-0.2,0.1
			c0,0-0.1,0.1-0.2,0c0,0,0.4,0,0.1,0c0,0-0.1,0-0.1,0c-0.2,0,0.3,0.1,0.1,0c-0.2-0.1,0.2,0.1,0.1,0.1c-0.1-0.1-0.2-0.2,0.1,0.1
			c-0.1-0.1-0.1-0.2,0.1,0.1c-0.1-0.1,0-0.1,0,0.1c0,0,0-0.1,0-0.2c-0.1-0.2,0,0.3,0,0c-0.1,0.3-0.2,0.6-0.4,0.9
			c0.2-0.2-0.1,0-0.1,0c0,0,0.1-0.1,0.1-0.1c0,0,0.3-0.2,0.1-0.1c-0.2,0.1,0,0,0.1,0c0.2-0.1-0.1,0-0.1,0c0,0,0.1,0,0.2,0
			c0.1,0-0.2,0-0.2,0c0,0,0.1,0,0.1,0c0,0,0.1,0,0.1,0c0,0-0.3-0.1-0.1-0.1c0.1,0,0.1,0.1,0.2,0.1c0.1,0.1-0.1-0.1-0.1-0.1
			c0,0,0.1,0.1,0.1,0.1c0,0,0.1,0.1,0.1,0.1c0.1,0.1-0.1-0.2-0.1-0.1c0,0.1,0.1,0.1,0.1,0.2c0,0,0,0.1,0.1,0.1c0,0-0.1-0.3-0.1-0.1
			c0,0.1,0.1,0.2,0.1,0.3c0,0,0,0.1,0,0.1c0,0,0-0.3,0-0.2c0,0.1,0,0.2,0,0.2c0,0,0,0.1,0,0.1c0-0.2,0-0.3,0-0.1
			c0,0.1,0,0.2-0.1,0.3c-0.1,0.2,0.1-0.3,0,0c0,0.1-0.1,0.1-0.1,0.2c-0.1,0.1,0.2-0.2,0.1-0.1c0,0,0,0-0.1,0.1c0,0-0.3,0.2-0.1,0.1
			c0.2-0.1,0,0-0.1,0c-0.1,0-0.1,0.1-0.2,0.1c0,0-0.3,0.1-0.1,0c0.2-0.1-0.1,0-0.1,0c-0.3,0.1-0.6,0.2-0.9,0.2c-0.1,0-0.2,0-0.2,0
			c0,0-0.4,0.1-0.1,0c0.2,0,0,0-0.1,0c-0.1,0-0.2,0-0.3,0c-0.8,0.1-1.6,0.1-2.4,0.4c-0.6,0.2-1,0.7-0.9,1.4c0.1,0.6,0.6,1.1,1.2,1.1
			c0.2,0,0.4,0,0.6,0c0.7,0,1.3-0.6,1.2-1.2c0-0.7-0.5-1.3-1.2-1.2c-0.2,0-0.4,0-0.6,0c0.1,0.8,0.2,1.6,0.3,2.5
			c0.2-0.1,0.5-0.1,0.7-0.2c0.1,0,0.2,0,0.4-0.1c0.2,0-0.2,0-0.1,0c0.1,0,0.2,0,0.2,0c0.7-0.1,1.3-0.1,2-0.3
			c1.2-0.2,2.5-0.8,3.1-1.9c0.7-1.5,0.3-3.5-1.2-4.3c-0.8-0.5-1.7-0.4-2.5,0c-0.6,0.3-1.1,0.8-1.1,1.5c0,0.4,0.1,0.9,0.3,1.2
			c0.9,1.5,3.1,1.1,4.2,0c0.4-0.4,0.5-1,0.2-1.5c-0.5-0.9-1.5-1.2-2.5-1.1c-0.8,0.1-1.5,0.7-1.9,1.4c-0.3,0.6-0.2,1.4,0.4,1.7
			C243.6,118.3,244.4,118.2,244.8,117.5L244.8,117.5z"/>
	</g>
</g>
<g>
	<g>
		<path class="st0" d="M244.4,120c1.6,0,1.6-2.5,0-2.5C242.8,117.5,242.8,120,244.4,120L244.4,120z"/>
	</g>
</g>
<g>
	<g>
		<path class="st0" d="M244,120c1.6,0,1.6-2.5,0-2.5C242.4,117.5,242.4,120,244,120L244,120z"/>
	</g>
</g>
<g>
	<g>
		<path class="st0" d="M243.7,119c1.6,0,1.6-2.5,0-2.5C242.1,116.5,242.1,119,243.7,119L243.7,119z"/>
	</g>
</g>
<g>
	<g>
		<path class="st0" d="M243.4,118.5c1.6,0,1.6-2.5,0-2.5C241.8,116,241.8,118.5,243.4,118.5L243.4,118.5z"/>
	</g>
</g>
<g>
	<g>
		<path class="st0" d="M249,120.1c-0.1,0.5-0.2,1-0.3,1.6c-0.1,0.2-0.2,0.5-0.2,0.7c-0.1,0.3,0.1-0.2,0,0.1c0,0.1-0.1,0.2-0.1,0.3
			c-0.1,0.2-0.2,0.4-0.4,0.6c0,0-0.2,0.3-0.1,0.1c-0.1,0.1-0.1,0.2-0.2,0.3c-0.4,0.4-0.7,0.8-1.2,1.1c-0.1,0.1-0.2,0.2-0.3,0.2
			c0.2-0.1,0,0-0.1,0.1c-0.2,0.1-0.4,0.3-0.6,0.4c-0.2,0.1-0.4,0.3-0.7,0.4c0,0-0.4,0.2-0.1,0.1c-0.1,0-0.2,0.1-0.4,0.1
			c-0.1,0-0.2,0.1-0.4,0.1c-0.1,0-0.4,0-0.1,0c-0.1,0-0.2,0-0.3,0c-0.1,0-0.1,0-0.2,0c0.1,0,0.2,0,0.1,0c-0.1,0-0.2-0.1-0.3-0.1
			c0.2,0.1,0,0-0.1,0c-0.1,0-0.3-0.2-0.1-0.1c-0.1-0.1-0.2-0.2-0.3-0.3c-0.4-0.5-1.3-0.4-1.8,0c-0.5,0.5-0.4,1.3,0,1.8
			c2,2.3,5.1,1,7.1-0.6c0.9-0.7,1.8-1.6,2.4-2.7c0.6-1.1,0.9-2.3,1.1-3.5c0.1-0.7-0.2-1.3-0.9-1.5C249.9,119,249.1,119.4,249,120.1
			L249,120.1z"/>
	</g>
</g>
<g>
	<g>
		<path class="st0" d="M249.8,120.9c0,2.7,1,5.6,3.8,6.6c2.6,0.9,5.7-0.3,7.1-2.6c0.3-0.6,0.1-1.4-0.4-1.7c-0.6-0.3-1.4-0.1-1.7,0.4
			c-0.1,0.1-0.2,0.3-0.2,0.4c0.1-0.2,0,0-0.1,0.1c-0.1,0.1-0.2,0.2-0.2,0.2c0,0-0.4,0.3-0.2,0.2c-0.2,0.1-0.4,0.3-0.6,0.4
			c-0.1,0.1-0.2,0.1-0.3,0.2c-0.1,0-0.1,0,0,0c-0.1,0-0.1,0.1-0.2,0.1c-0.2,0.1-0.5,0.1-0.7,0.2c-0.1,0-0.1,0-0.2,0c0.1,0,0.1,0,0,0
			c-0.1,0-0.2,0-0.3,0c-0.1,0-0.3,0-0.4,0c-0.1,0-0.1,0-0.2,0c0.1,0,0.1,0,0,0c-0.2,0-0.5-0.1-0.7-0.2c-0.1,0-0.1,0-0.2-0.1
			c0.1,0.1,0.1,0.1,0,0c-0.1-0.1-0.2-0.1-0.3-0.2c-0.1,0-0.3-0.2-0.1-0.1c-0.1-0.1-0.2-0.2-0.3-0.3c0,0-0.2-0.3-0.1-0.1
			c-0.1-0.1-0.1-0.2-0.2-0.3c-0.1-0.1-0.2-0.3-0.2-0.4c0,0-0.2-0.3-0.1-0.1c-0.2-0.5-0.3-0.9-0.4-1.4c0-0.1,0-0.1,0-0.2
			c0,0.1,0,0.1,0,0.1c0-0.1,0-0.3,0-0.4c0-0.2,0-0.5,0-0.7c0-0.7-0.6-1.2-1.2-1.2C250.4,119.7,249.8,120.2,249.8,120.9L249.8,120.9z
			"/>
	</g>
</g>
<g>
	<g>
		<path class="st0" d="M242.9,126.4c-0.9-2.2-2.7-3.8-3.9-5.9c-1.2-2-1.7-4.3-1.1-6.6c0.4-1.6-2-2.2-2.4-0.7c-0.7,2.7-0.2,5.3,1,7.8
			c1.1,2.2,3.1,3.8,4,6c0.3,0.6,0.8,1.1,1.5,0.9C242.6,127.8,243.2,127,242.9,126.4L242.9,126.4z"/>
	</g>
</g>
<g>
	<g>
		<path class="st0" d="M260.6,125.4c3.1-4,4.7-10.2,2.5-14.9c-0.3-0.6-1.2-0.8-1.7-0.4c-0.6,0.4-0.7,1.1-0.4,1.7
			c0.9,2,0.8,4.3,0.3,6.4c-0.5,2.2-1.4,4.3-2.8,6c-0.4,0.5-0.1,1.4,0.4,1.7C259.5,126.2,260.2,125.9,260.6,125.4L260.6,125.4z"/>
	</g>
</g>
<g>
	<g>
		<path class="st0" d="M237.2,114.5c1.8-1.1,3.1-2.9,4.9-4c2.3-1.5,4.3-1.1,6.8-0.7c2.3,0.3,4.6-0.4,6.9-0.2
			c2.2,0.2,4.1,1.6,5.9,2.8c1.3,0.9,2.6-1.3,1.3-2.2c-1.9-1.3-3.9-2.7-6.3-3c-2.7-0.4-5.4,0.5-8,0c-2.4-0.5-4.7-0.5-6.9,0.6
			c-2.3,1.1-3.7,3.2-5.9,4.5C234.5,113.2,235.8,115.3,237.2,114.5L237.2,114.5z"/>
	</g>
</g>
<g>
	<g>
		<path class="st0" d="M225.3,149.2c0.4,2.2,1.9,3.8,3.7,5c1.5,1,3.7,2.2,5.6,2c3.7-0.4,4.4-4.7,6.6-7c1.7-1.7,4.3-1.8,6.6-1.7
			c1.1,0,2.3,0.2,3.4,0.2c1.1,0,2.3,0,3.3,0.4c2.1,0.9,2.9,3.2,4.3,4.8c1.4,1.7,3.8,2.5,5.9,2.3c5-0.4,8.1-5.4,8-10.1
			c0-1.6-2.5-1.6-2.5,0c0.1,3.5-2.2,7.9-6.3,7.6c-2.3-0.1-3.4-1.6-4.6-3.4c-1.1-1.7-2.5-3.1-4.5-3.7c-1.8-0.6-3.9-0.4-5.8-0.5
			c-2-0.1-4.1-0.2-6.1,0.3c-1.8,0.5-3.2,1.5-4.3,3c-0.9,1.2-1.5,2.7-2.5,3.9c-1.2,1.5-2.3,1.5-4,0.8c-2-0.9-4.1-2.3-4.5-4.6
			C227.4,147,225,147.7,225.3,149.2L225.3,149.2z"/>
	</g>
</g>
<g>
	<g>
		<path class="st0" d="M227.6,148.7c0-3-0.4-6-1.1-8.8c-0.6-2.6-2.3-5-2.4-7.7c-0.1-1.6-2.6-1.6-2.5,0c0.1,2.8,1.6,5.2,2.4,7.8
			c0.8,2.8,1.1,5.8,1.1,8.7C225.1,150.4,227.6,150.4,227.6,148.7L227.6,148.7z"/>
	</g>
</g>
<g>
	<g>
		<path class="st0" d="M272.2,147.1c0.5-1.3,0.6-2.7,0.8-4.1c0.2-1.5,0.5-2.9,0.7-4.4c0.1-0.8,0.1-1.6,0.2-2.4c0-0.7,0-1.6,0.3-2.3
			c0.4-1,1.4-1.8,2-2.8c0.8-1.4-1.3-2.6-2.2-1.3c-0.6,1-1.6,1.8-2.1,2.9c-0.7,1.5-0.5,3.3-0.6,4.9c-0.1,1.5-0.5,3-0.7,4.5
			c-0.2,1.4-0.3,2.8-0.8,4.2C269.3,147.9,271.7,148.6,272.2,147.1L272.2,147.1z"/>
	</g>
</g>
<g>
	<g>
		<path class="st0" d="M249.3,125.9c0,1.9-0.1,3.8-0.2,5.7c0,0.7,0.6,1.3,1.2,1.2c0.7,0,1.2-0.5,1.2-1.2c0.1-1.9,0.2-3.8,0.2-5.7
			c0-0.7-0.6-1.3-1.2-1.2C249.9,124.7,249.3,125.2,249.3,125.9L249.3,125.9z"/>
	</g>
</g>
<g>
	<g>
		<path class="st0" d="M241.1,146.1c1.4-1.4,2.5-3.2,3.7-4.8c1.1-1.5,2.5-3.4,4.2-4c2.1-0.8,4.2,0.9,5.4,2.5c1.3,1.8,3,4,3.4,6.3
			c0.3,1.6,2.7,0.9,2.4-0.7c-0.4-2.6-2.3-5.1-3.9-7.2c-1.7-2.3-4.3-4-7.3-3.5c-2.3,0.4-4,2.3-5.4,4c-1.5,1.8-2.7,3.9-4.4,5.6
			C238.2,145.5,240,147.3,241.1,146.1L241.1,146.1z"/>
	</g>
</g>
<g>
	<g>
		<path class="st0" d="M266,83.1c-0.1,0.4-0.2,0.8-0.3,1.3c-0.1,0.8-0.2,1.5,0.2,2.3c0.4,0.9,1.4,1.2,2.3,0.9c0.9-0.3,1.4-1.1,1.6-2
			c0.1-0.7,0.1-1.4,0.2-2.1c-0.7,0.3-1.4,0.6-2.1,0.9c0,0,0,0,0,0c-0.1-0.1-0.1-0.2-0.2-0.3c0,0.1,0.1,0.1,0.1,0.2
			c0-0.1-0.1-0.2-0.1-0.3c0,0.1,0.1,0.2,0.1,0.4c0-0.1,0-0.2,0-0.3c0,0.2,0,0.5,0,0.7c0-0.1,0-0.2,0-0.3c-0.1,0.4-0.2,0.8-0.3,1.1
			c0-0.1,0.1-0.2,0.1-0.3c-0.1,0.3-0.2,0.5-0.4,0.7c0.1-0.1,0.1-0.2,0.2-0.3c-0.1,0.1-0.2,0.3-0.3,0.4c0.1-0.1,0.2-0.1,0.3-0.2
			c-0.1,0.1-0.2,0.1-0.3,0.2c0.1,0,0.2-0.1,0.3-0.1c-0.1,0-0.1,0.1-0.2,0.1c0.1,0,0.2,0,0.3,0c-0.1,0-0.2,0-0.3,0c0.1,0,0.2,0,0.3,0
			c-0.1,0-0.1,0-0.2-0.1c0.1,0,0.2,0.1,0.3,0.1c-0.1,0-0.1-0.1-0.1-0.1c0.1,0.1,0.2,0.1,0.3,0.2c0,0-0.1-0.1-0.1-0.1
			c0.1,0.1,0.1,0.2,0.2,0.3c0-0.1-0.1-0.1-0.1-0.2c0,0.1,0.1,0.2,0.1,0.3c0-0.1-0.1-0.2-0.1-0.3c0,0.1,0,0.2,0,0.3
			c0-0.4,0-0.8,0.1-1.2c0,0.1,0,0.2,0,0.3c0.1-0.5,0.2-1.1,0.2-1.6c0-0.3-0.1-0.6-0.4-0.9c-0.2-0.2-0.6-0.4-0.9-0.4
			c-0.6,0-1.3,0.6-1.2,1.2c0,0.3,0,0.6-0.1,0.8c0-0.1,0-0.2,0-0.3c-0.1,0.7-0.2,1.4-0.1,2.1c0.1,0.5,0.2,0.9,0.6,1.3
			c0.4,0.4,0.9,0.6,1.4,0.6c1.7,0.1,2.7-1.7,3-3.1c0.1-0.4,0.1-0.8,0.1-1.2c0-0.2,0-0.5-0.1-0.7c-0.1-0.3-0.2-0.5-0.5-0.8
			c-0.1-0.1-0.4-0.3-0.6-0.3c-0.3-0.1-0.6,0-0.8,0.1c-0.2,0.1-0.4,0.2-0.5,0.4c-0.2,0.2-0.2,0.5-0.3,0.8c-0.1,0.5,0,1-0.1,1.5
			c0-0.1,0-0.2,0-0.3c0,0.3-0.1,0.6-0.2,0.8c0-0.1,0.1-0.2,0.1-0.3c0,0.1-0.1,0.2-0.2,0.3c0.1-0.1,0.1-0.2,0.2-0.3
			c-0.1,0.1-0.1,0.1-0.2,0.2c0.1-0.1,0.2-0.1,0.3-0.2c-0.1,0-0.1,0.1-0.2,0.1c0.1,0,0.2-0.1,0.3-0.1c-0.1,0-0.2,0-0.2,0.1
			c0.1,0,0.2,0,0.3,0c-0.1,0-0.2,0-0.3,0c0.1,0,0.2,0,0.3,0c-0.1,0-0.1,0-0.2,0c0.1,0,0.2,0.1,0.3,0.1c0,0-0.1,0-0.1-0.1
			c0.1,0.1,0.2,0.1,0.3,0.2c0,0-0.1-0.1-0.1-0.1c0.1,0.1,0.1,0.2,0.2,0.3c0-0.1-0.1-0.1-0.1-0.2c0,0.1,0.1,0.2,0.1,0.3
			c0-0.1-0.1-0.2-0.1-0.3c0,0.1,0,0.2,0,0.3c0-0.3,0-0.6,0-0.9c0,0.1,0,0.2,0,0.3c0.1-0.5,0.2-0.9,0.3-1.4c0.2-0.6-0.2-1.4-0.9-1.5
			C266.8,82,266.2,82.4,266,83.1L266,83.1z"/>
	</g>
</g>
<g>
	<g>
		<path class="st0" d="M223.3,84.7c-0.5,0.4-0.9,0.9-1.3,1.4c-0.4,0.6-0.7,1.3-0.6,2c0,0.3,0.1,0.5,0.3,0.8c0.2,0.2,0.4,0.4,0.6,0.4
			c0.5,0.2,1.1,0.2,1.6,0c0.6-0.2,1-0.6,1.3-1.1c0.5-0.8,0.6-1.8,0.4-2.7c0-0.2-0.2-0.4-0.3-0.6c-0.2-0.2-0.4-0.3-0.7-0.3
			c-0.5-0.1-1,0.2-1.2,0.6c-0.4,0.7-0.7,1.5-0.8,2.3c-0.1,0.9,0.2,1.8,0.9,2.5c0.5,0.5,1.3,0.5,1.8,0c0.5-0.5,0.5-1.3,0-1.8
			c-0.1-0.1-0.1-0.1-0.1-0.2c0.1,0.1,0.1,0.2,0.2,0.3c-0.1-0.1-0.2-0.3-0.2-0.4c0,0.1,0.1,0.2,0.1,0.3c-0.1-0.2-0.1-0.3-0.1-0.5
			c0,0.1,0,0.2,0,0.3c0-0.2,0-0.4,0-0.7c0,0.1,0,0.2,0,0.3c0-0.3,0.1-0.6,0.3-0.9c0,0.1-0.1,0.2-0.1,0.3c0.1-0.2,0.2-0.5,0.4-0.7
			c-0.8-0.1-1.5-0.2-2.3-0.3c0,0,0,0.1,0,0.1c0-0.1,0-0.2,0-0.3c0,0.2,0,0.5,0,0.7c0-0.1,0-0.2,0-0.3c0,0.2-0.1,0.5-0.2,0.7
			c0-0.1,0.1-0.2,0.1-0.3c-0.1,0.1-0.1,0.3-0.2,0.4c0.1-0.1,0.1-0.2,0.2-0.3c-0.1,0.1-0.2,0.2-0.3,0.3c0.1-0.1,0.2-0.1,0.3-0.2
			c-0.1,0.1-0.1,0.1-0.2,0.1c0.1,0,0.2-0.1,0.3-0.1c-0.1,0-0.2,0.1-0.3,0.1c0.1,0,0.2,0,0.3,0c-0.1,0-0.2,0-0.3,0c0.1,0,0.2,0,0.3,0
			c-0.1,0-0.2,0-0.3-0.1c0.3,0.4,0.6,0.8,0.9,1.2c0-0.1,0-0.3,0-0.4c0,0.1,0,0.2,0,0.3c0-0.2,0.1-0.3,0.1-0.5c0,0.1-0.1,0.2-0.1,0.3
			c0.1-0.3,0.3-0.5,0.4-0.7c-0.1,0.1-0.1,0.2-0.2,0.3c0.3-0.3,0.6-0.7,0.9-1c0.5-0.4,0.5-1.3,0-1.8
			C224.6,84.2,223.8,84.2,223.3,84.7L223.3,84.7z"/>
	</g>
</g>
<g>
	<g>
		<path class="st0" d="M0,2.4c0.6,32,1.2,64,1.8,95.9c0.6,31.8,1.2,63.6,1.8,95.4c0.3,18,0.7,36,1,54c0.1,3.2,5.1,3.2,5,0
			c-0.6-32-1.2-64-1.8-95.9C7.3,120,6.6,88.2,6,56.4c-0.3-18-0.7-36-1-54C4.9-0.8-0.1-0.8,0,2.4L0,2.4z"/>
	</g>
</g>
<g>
	<g>
		<path class="st0" d="M6.7,253.1c24.3,0.1,48.5,0.2,72.8,0.3c24.1,0.1,48.2,0.2,72.3,0.3c13.6,0,27.3,0.1,40.9,0.1c3.2,0,3.2-5,0-5
			c-24.3-0.1-48.5-0.2-72.8-0.3c-24.1-0.1-48.2-0.2-72.3-0.3c-13.6,0-27.3-0.1-40.9-0.1C3.5,248.1,3.5,253.1,6.7,253.1L6.7,253.1z"
			/>
	</g>
</g>
<g>
	<g>
		<path class="st0" d="M321.4,253.6c20.9-0.2,41.7-0.4,62.6-0.6s41.7-0.4,62.6-0.6c11.8-0.1,23.6-0.2,35.4-0.4c3.2,0,3.2-5,0-5
			c-20.9,0.2-41.7,0.4-62.6,0.6s-41.7,0.4-62.6,0.6c-11.8,0.1-23.6,0.2-35.4,0.4C318.1,248.6,318.1,253.6,321.4,253.6L321.4,253.6z"
			/>
	</g>
</g>
<g>
	<g>
		<path class="st0" d="M486.2,249.7c-0.1-30.9-0.3-61.9-0.4-92.8s-0.3-61.9-0.4-92.8c-0.1-17.5-0.1-34.9-0.2-52.4c0-3.2-5-3.2-5,0
			c0.1,30.9,0.3,61.9,0.4,92.8c0.1,30.9,0.3,61.9,0.4,92.8c0.1,17.5,0.1,34.9,0.2,52.4C481.2,253,486.2,253,486.2,249.7L486.2,249.7
			z"/>
	</g>
</g>
<g>
	<g>
		<path class="st0" d="M3.3,5.3c62.5,1,125,1.7,187.5,1.9c62.2,0.3,124.4,0.1,186.6-0.4c35.1-0.3,70.2-0.7,105.2-1.2
			c3.2,0,3.2-5,0-5c-62.5,0.9-125,1.5-187.5,1.6C233,2.4,170.8,2.2,108.6,1.6C73.5,1.3,38.4,0.8,3.3,0.3C0.1,0.2,0.1,5.2,3.3,5.3
			L3.3,5.3z"/>
	</g>
</g>
<g>
	<g>
		<path class="st0" d="M480.2,3.1c0,3.8,0,7.6,0,11.3c0,1.3,1.1,2.6,2.5,2.5c1.4-0.1,2.5-1.1,2.5-2.5c0-3.8,0-7.6,0-11.3
			c0-1.3-1.1-2.6-2.5-2.5C481.3,0.6,480.2,1.7,480.2,3.1L480.2,3.1z"/>
	</g>
</g>
<g>
	<g>
		<path class="st0" d="M48.9,227.7c0,4,0,8,0,12c0,1.3,1.1,2.6,2.5,2.5c1.4-0.1,2.5-1.1,2.5-2.5c0-4,0-8,0-12c0-1.3-1.1-2.6-2.5-2.5
			C50,225.3,48.9,226.3,48.9,227.7L48.9,227.7z"/>
	</g>
</g>
<g>
	<g>
		<path class="st0" d="M52,230.2c8.7,0,17.3,0,26,0c3.2,0,3.2-5,0-5c-8.7,0-17.3,0-26,0C48.8,225.2,48.8,230.2,52,230.2L52,230.2z"
			/>
	</g>
</g>
<g>
	<g>
		<path class="st0" d="M75.5,227.7c0,3.3,0,6.7,0,10c0,1.3,1.1,2.6,2.5,2.5c1.4-0.1,2.5-1.1,2.5-2.5c0-3.3,0-6.7,0-10
			c0-1.3-1.1-2.6-2.5-2.5C76.7,225.3,75.5,226.3,75.5,227.7L75.5,227.7z"/>
	</g>
</g>
<g>
	<g>
		<path class="st0" d="M77.4,236c-7.6,1.9-15.6,0.3-23.3,1.2c-1.3,0.2-2.5,1-2.5,2.5c0,1.2,1.1,2.7,2.5,2.5c8.2-1,16.6,0.6,24.7-1.4
			C81.8,240,80.5,235.2,77.4,236L77.4,236z"/>
	</g>
</g>
<g>
	<g>
		<path class="st0" d="M70.7,23.7c7.9-0.1,15.8-0.4,23.7-1.1c3.9-0.3,7.8-0.7,11.8-1c1.6-0.2,3.3-0.3,4.9-0.6
			c1.6-0.3,3.3-0.9,4.9-0.7c0.8,0.1,0.8-1.2,0-1.2c-1.5-0.2-2.9,0.2-4.3,0.5c-1.8,0.4-3.7,0.5-5.5,0.7c-3.9,0.4-7.8,0.7-11.8,1
			c-7.9,0.7-15.8,1-23.7,1.1C69.9,22.5,69.9,23.7,70.7,23.7L70.7,23.7z"/>
	</g>
</g>
<g>
	<g>
		<path class="st0" d="M92.1,23.1c0.1,3.4,0.7,6.8,0.7,10.3c0,1.6-0.1,3.2,0,4.8c0.2,1.6,0.6,3.2,0.6,4.9c0,0.8,1.3,0.8,1.2,0
			c0-1.7-0.5-3.3-0.6-4.9c-0.2-1.6,0-3.2,0-4.8c0-3.4-0.6-6.8-0.7-10.3C93.3,22.3,92.1,22.3,92.1,23.1L92.1,23.1z"/>
	</g>
</g>
<g>
	<g>
		<path class="st0" d="M106.7,28.5c-2.8-0.2-4.8,2.9-5.5,5.2c-0.9,2.8,0.4,5.7,2.9,7.1c2.2,1.2,6,1.8,7.4-0.9
			c0.6-1.1,0.7-2.4,0.7-3.6c-0.1-1.3-0.3-2.5-1.1-3.6c-1.9-2.4-5.4-3.2-8.2-3.6c-0.8-0.1-1.1,1.1-0.3,1.2c2.2,0.3,4.6,0.9,6.5,2.2
			c0.9,0.6,1.5,1.4,1.8,2.5c0.2,1,0.3,2.1,0.1,3c-0.2,0.9-0.6,1.8-1.4,2.2c-1,0.5-2.5,0.3-3.5-0.1c-2.2-0.7-4.2-2.8-3.8-5.2
			c0.2-1.2,0.8-2.5,1.6-3.5c0.7-0.9,1.7-1.9,3-1.8C107.5,29.7,107.5,28.5,106.7,28.5L106.7,28.5z"/>
	</g>
</g>
<g>
	<g>
		<path class="st0" d="M116.7,29.7c0,1.2-0.2,2.4-0.1,3.6c0.1,1.1,0.5,2.2,0.7,3.3c0.2,1.2,0.1,2.6,0.1,3.8c0,1.3-0.1,2.6-0.1,4
			c0,0.8,1.2,0.8,1.2,0c0-2.6,0.3-5.2,0-7.7c-0.1-1.1-0.6-2.2-0.7-3.3c-0.1-1.2,0-2.4,0.1-3.6C118,28.9,116.7,28.9,116.7,29.7
			L116.7,29.7z"/>
	</g>
</g>
<g>
	<g>
		<path class="st0" d="M115.8,30.2c0.9-0.8,2.3-0.7,3.3-0.7c1.3-0.1,2.4-0.3,3.7-0.2c1.2,0.1,2.4,0.4,3.3,1.1
			c0.8,0.7,1.3,1.6,1.6,2.6c0.7,2.2,0.5,4.5-0.8,6.5c-1.2,1.9-2.9,3.5-5,4.4c-1.8,0.8-4.7,1.4-6.2-0.5c-0.5-0.6-1.6,0-1.1,0.6
			c1.5,2,4.1,2.1,6.3,1.5c2.6-0.7,4.6-2.3,6.2-4.4c1.8-2.3,2.5-4.9,1.8-7.8c-0.3-1.2-0.8-2.4-1.6-3.3c-0.9-1.1-2.1-1.6-3.4-1.9
			c-1.7-0.4-3.3-0.2-5,0c-1.5,0.1-3.1,0.1-4.3,1.1C114.3,29.8,115.2,30.7,115.8,30.2L115.8,30.2z"/>
	</g>
</g>
<g>
	<g>
		<path class="st0" d="M134.7,29.7c0,2.2,0,4.4,0,6.7c0,2.1-0.4,4.2-0.8,6.3c0.3-0.1,0.7-0.2,1-0.3c-0.2-0.1-0.4-0.3-0.6-0.4
			c-0.6-0.5-1.5,0.4-0.9,0.9c0.2,0.1,0.4,0.3,0.6,0.4c0.3,0.3,1,0.2,1-0.3c0.3-2.1,0.8-4.2,0.8-6.4c0-2.3,0-4.6,0-6.9
			C136,28.9,134.7,28.9,134.7,29.7L134.7,29.7z"/>
	</g>
</g>
<g>
	<g>
		<path class="st0" d="M136.3,29.5c2.1,2.2,4.6,3.9,6.8,6c0.9,0.9,1.7,1.9,2.4,3c0.6,0.9,0.6,2.2,1.5,3c0.6,0.5,1.5-0.4,0.9-0.9
			c-0.4-0.4-0.6-0.9-0.7-1.4c-0.2-0.5-0.4-1-0.7-1.5c-0.7-1.1-1.5-2.1-2.5-3c-2.2-2.1-4.6-3.9-6.8-6
			C136.6,28.1,135.7,28.9,136.3,29.5L136.3,29.5z"/>
	</g>
</g>
<g>
	<g>
		<path class="st0" d="M135.5,39c1.5-0.2,2.9-1.1,4.5-1.2c1.4-0.1,2.7,0.1,3.8-0.9c0.6-0.6-0.3-1.4-0.9-0.9
			c-0.9,0.8-2.3,0.5-3.4,0.6c-1.5,0.2-2.8,1-4.3,1.2c-0.3,0.1-0.5,0.5-0.4,0.8C134.9,38.9,135.2,39.1,135.5,39L135.5,39z"/>
	</g>
</g>
<g>
	<g>
		<path class="st0" d="M146.9,30.9c1.4,1.7,3.3,2.9,4.7,4.7c0.2,0.3,0.7,0.2,0.9,0c0.3-0.3,0.2-0.6,0-0.9c-1.4-1.7-3.2-3-4.7-4.7
			c-0.2-0.3-0.7-0.2-0.9,0C146.7,30.2,146.7,30.6,146.9,30.9L146.9,30.9z"/>
	</g>
</g>
<g>
	<g>
		<path class="st0" d="M156.7,29.7c-0.1,1.6-1.3,3.1-2,4.5c-0.7,1.4-1.2,2.9-1.7,4.4c-0.5,1.6-0.9,3.2-1.3,4.9
			c-0.4,1.5-1,2.9-0.9,4.4c0,0.6,0.8,0.8,1.2,0.3c0.2-0.3,0.4-0.6,0.6-0.9c0.4-0.7-0.6-1.3-1.1-0.6c-0.2,0.3-0.4,0.6-0.6,0.9
			c0.4,0.1,0.8,0.2,1.2,0.3c-0.1-1.6,0.7-3.2,1-4.8c0.4-1.6,0.8-3.2,1.3-4.8c0.6-1.6,1.2-3.2,2-4.7c0.7-1.3,1.4-2.5,1.6-3.9
			C158.1,28.9,156.8,28.9,156.7,29.7L156.7,29.7z"/>
	</g>
</g>
<g>
	<g>
		<path class="st0" d="M165.4,21.7c0,0.5-0.1,1,0,1.6c0.1,0.6,0.4,1.2,0.8,1.5c0.1,0.1,0.3,0.2,0.4,0.2c0.2,0,0.3-0.1,0.4-0.2
			c0.2-0.2,0.3-0.7,0-0.9c-0.1-0.1-0.2-0.2-0.3-0.3c-0.1-0.1,0.1,0.1,0,0c0,0,0,0,0-0.1c0,0-0.1-0.1-0.1-0.1c0,0-0.1-0.1,0,0
			c0,0.1,0,0,0,0c0-0.1,0-0.1,0-0.2c0-0.1,0-0.1,0-0.2c0,0,0,0,0-0.1c0,0,0,0.1,0,0c0-0.5,0-0.9,0-1.4c0-0.3-0.3-0.6-0.6-0.6
			C165.7,21.1,165.4,21.4,165.4,21.7L165.4,21.7z"/>
	</g>
</g>
<g>
	<g>
		<path class="st0" d="M174.5,30c-2.5-2.3-8.2-0.2-6.5,3.6c0.7,1.6,2.4,2.4,3.5,3.8c0.9,1.1,2.1,3.7,0.5,4.8
			c-0.7,0.5-1.7,0.7-2.6,0.9c-0.5,0.1-1.8,0.3-2.2-0.3c-0.5-0.6-1.6,0-1.1,0.6c1,1.3,3,1,4.4,0.7c1.6-0.4,3.2-1.2,3.4-3.1
			c0.2-1.8-0.8-3.8-2.1-5.1c-1-1-3.2-2.3-2.9-4c0.4-1.9,3.4-2.2,4.6-1.1C174.2,31.4,175.1,30.5,174.5,30L174.5,30z"/>
	</g>
</g>
<g>
	<g>
		<path class="st0" d="M207.4,20.5c-3.5,0-7.2,0.2-10.5,1.3c-2.4,0.8-3.6,3.1-4.3,5.5c-0.7,2.2-0.8,4.8,0.3,6.9
			c1.2,2.5,3.9,3.1,6.3,4.2c1.3,0.6,2.5,0.8,4,0.6c1.2-0.2,2.6-0.4,3.5-1.4c0.5-0.6-0.3-1.5-0.9-0.9c-0.6,0.7-1.8,0.9-2.7,1
			c-1.1,0.1-2,0.1-3.1-0.3c-1.2-0.5-2.4-1-3.6-1.5c-0.9-0.4-1.7-1-2.2-1.9c-1.1-1.7-1-4-0.5-6c0.5-2,1.5-4.3,3.6-5
			c3.3-1.1,6.8-1.3,10.2-1.3C208.2,21.7,208.2,20.4,207.4,20.5L207.4,20.5z"/>
	</g>
</g>
<g>
	<g>
		<path class="st0" d="M212.3,20.9c1,0.8,0.4,2.3,0.4,3.3c0,1.6,0.4,3.2,0.7,4.8c0.3,1.7,0.5,3.5,0.6,5.2c0.1,0.8,0.1,1.5,0.3,2.3
			c0.2,0.9,0.5,1.7,0.4,2.6c-0.1,0.8,1.2,0.8,1.2,0c0.1-0.8-0.1-1.6-0.3-2.4c-0.3-0.9-0.3-1.8-0.4-2.7c-0.1-1.9-0.4-3.7-0.7-5.6
			c-0.3-1.7-0.7-3.3-0.5-5c0.1-1.2,0.2-2.5-0.9-3.3C212.5,19.5,211.6,20.3,212.3,20.9L212.3,20.9z"/>
	</g>
</g>
<g>
	<g>
		<path class="st0" d="M225.4,27.1c-1.7,0-3.5,0-4.9,1c-1.4,1-1.9,2.7-1.8,4.4c0.2,1.6,0.9,3.1,2.1,4.1c1.2,1,3,1.5,4.3,0.4
			c0.8-0.7,1.2-1.9,1.3-2.9c0.1-1-0.1-2.1,0.3-3.1c-0.3,0-0.7,0.1-1,0.1c0-0.1,0.1,0.2,0.1,0.2c0,0,0.1,0.2,0.1,0.3
			c0.1,0.3,0.1,0.5,0.2,0.8c0.1,0.6,0.2,1.2,0.4,1.9c0.1,0.5,0.3,1,0.6,1.4c0.1,0.2,0.3,0.4,0.5,0.5c0.5,0.3,1-0.2,1.4-0.4
			c0.7-0.4,0.1-1.5-0.6-1.1c-0.2,0.2-0.5,0.3-0.7,0.5c0.2,0,0.3,0,0.5-0.1c0.1,0,0,0,0,0c0-0.1,0,0-0.1-0.1
			c-0.1-0.2-0.1-0.3-0.2-0.5c-0.1-0.5-0.2-1-0.3-1.5c-0.2-0.9-0.3-1.9-0.9-2.7c-0.2-0.3-0.8-0.2-1,0.1c-0.3,0.8-0.5,1.6-0.5,2.4
			c0,0.8,0,1.5-0.2,2.2c-0.2,0.6-0.7,1.3-1.4,1.4c-0.5,0.1-1.1-0.2-1.5-0.4c-1.1-0.7-1.8-1.7-2.1-3c-0.2-1.2-0.1-2.7,0.9-3.6
			c1.2-1,3-1,4.5-1C226.2,28.4,226.2,27.1,225.4,27.1L225.4,27.1z"/>
	</g>
</g>
<g>
	<g>
		<path class="st0" d="M236,27.1c-1.9,0-4.5-0.7-6.1,0.7c-0.6,0.5-1,1.3-0.8,2.1c0.2,0.7,0.8,1.3,1.3,1.7c1.4,1,3.2,1.6,4.8,2
			c0.8,0.2,1.5,0.4,2.3,0.5c0.6,0.1,1.3,0,1.9,0.2c0.3,0.1,1.1,0.5,0.9,0.9c-0.1,0.4-0.9,0.7-1.3,0.9c-0.5,0.3-0.9,0.6-1.4,0.8
			c-0.5,0.2-2,1.1-2.4,0.5c-0.4-0.7-1.5-0.1-1.1,0.6c1.2,1.9,4,0.1,5.3-0.7c0.8-0.5,2.1-1,2.2-2.1c0.1-1.3-1.4-2.1-2.6-2.2
			c-1-0.1-1.9-0.2-2.9-0.4c-0.8-0.2-1.6-0.5-2.4-0.7c-0.8-0.3-1.7-0.6-2.4-1.1c-0.3-0.2-0.6-0.4-0.8-0.7c-0.2-0.2-0.2-0.4-0.2-0.6
			c0-0.2,0.2-0.6,0.5-0.8c0.4-0.3,1-0.4,1.6-0.4c1.2-0.1,2.4,0.1,3.6,0.1C236.8,28.4,236.8,27.1,236,27.1L236,27.1z"/>
	</g>
</g>
<g>
	<g>
		<path class="st0" d="M245.8,28c-1.1-1.1-3.2-1.4-4.4-0.3c-0.6,0.5-0.8,1.4-0.6,2.1c0.2,0.7,0.8,1.2,1.4,1.6
			c1.2,0.8,2.7,1.3,4.2,1.5c1,0.2,3.5,0.8,2.5,2.3c-0.5,0.7-1.3,1.2-2,1.6c-0.6,0.4-1.5,0.9-2.2,0.9c-0.8,0.1-0.8,1.3,0,1.2
			c1.5-0.1,3.1-1.1,4.2-2.1c0.5-0.4,1.1-0.9,1.3-1.6c0.3-0.8,0.1-1.7-0.5-2.3c-1-1.1-2.6-1.2-4-1.5c-0.7-0.2-1.5-0.4-2.1-0.8
			c-0.5-0.3-1.3-0.6-1.5-1.2c-0.3-0.6,0.2-1.1,0.8-1.2c0.7-0.1,1.5,0.1,2,0.6C245.5,29.4,246.4,28.5,245.8,28L245.8,28z"/>
	</g>
</g>
<g>
	<g>
		<path class="st0" d="M83.4,57c5.7,0,11.4,0.1,17.2-0.4c2.8-0.2,5.6-0.3,8.4-0.6c1.4-0.1,2.8-0.4,4.2-0.4c1.4-0.1,2.7,0.1,4.1-0.1
			c2.8-0.4,5.6-0.6,8.4-0.9c2.8-0.3,5.5-0.2,8.3-0.1c2.8,0,5.5-0.5,8.4-0.6c2.7-0.1,5.4,0,8.1-0.3c1.4-0.2,2.9-0.5,4.3-0.5
			c1.5,0,2.9,0.2,4.4,0c1.4-0.1,2.7-0.5,4.1-0.6c1.3-0.1,2.7-0.1,4-0.1c2.8-0.1,5.5-0.5,8.3-0.7c2.9-0.2,5.8-0.5,8.7-0.6
			c2.9-0.1,5.7-0.2,8.5-0.5c2.8-0.3,5.6-0.2,8.3-0.4c5.5-0.4,11.1-1.2,16.6-2.2c3.2-0.6,6.5-0.9,9.8-1c3.1-0.1,6.1-0.5,9.1-1
			c3.2-0.6,6.4-1,9.6-1.3c2.9-0.3,5.9-0.7,8.7-1.7c0.7-0.3,0.4-1.5-0.3-1.2c-5.1,1.9-10.7,1.7-16,2.6c-2.9,0.5-5.8,1.1-8.7,1.3
			c-2.9,0.2-5.7,0.2-8.6,0.5c-5.6,0.7-11.1,1.8-16.7,2.4c-2.8,0.3-5.5,0.4-8.3,0.4c-2.7,0.1-5.4,0.5-8.1,0.6
			c-5.7,0.2-11.4,0.5-17.1,1.1c-2.7,0.3-5.5,0.2-8.2,0.4c-1.3,0.1-2.6,0.4-3.9,0.5c-1.5,0.1-3.1-0.1-4.6,0c-2.8,0.2-5.4,0.7-8.2,0.8
			c-2.7,0-5.4,0.2-8.1,0.5c-2.8,0.4-5.6,0.1-8.4,0.1c-2.8,0-5.6,0.5-8.5,0.7c-1.6,0.1-3.1,0.5-4.6,0.6c-1.5,0.1-3,0-4.5,0.1
			c-3.1,0.3-6.2,0.5-9.3,0.7c-3.1,0.2-6.2,0.6-9.3,0.6c-3.3,0-6.6,0-9.9,0C82.6,55.8,82.6,57,83.4,57L83.4,57z"/>
	</g>
</g>
<g>
	<g>
		<path class="st0" d="M82.7,62.4c2.7-0.1,5.3-0.6,7.9-0.7c2.8-0.1,5.7,0,8.5,0c2.6,0,5.2-0.4,7.9-0.6c2.7-0.2,5.5-0.1,8.3-0.1
			c5.6,0,11.3,0.1,16.9,0.1c5.5,0,11-0.6,16.5-0.9c5.4-0.3,10.8,0.1,16.2,0.1c1.2,0,2.5,0.1,3.7,0.1c1.3-0.1,2.5-0.6,3.7-0.7
			c2.7-0.4,5.5-0.3,8.2-0.5c5.3-0.5,10.6-1.7,15.8-2.7c5.4-1.1,10.8-1.9,16.3-2.1c6.1-0.2,12-1.9,18-2.5c3.2-0.3,6.4-0.4,9.5-0.8
			c3.1-0.4,6.1-1.1,9.2-1.3c0.8-0.1,0.8-1.3,0-1.2c-2.6,0.2-5.1,0.7-7.7,1.1c-2.9,0.4-5.9,0.6-8.8,0.8c-5.4,0.4-10.7,1.7-16.2,2.4
			c-2.8,0.4-5.5,0.3-8.3,0.6c-2.6,0.2-5.1,0.6-7.7,1c-5.3,0.9-10.5,2.1-15.8,3c-2.8,0.4-5.6,0.7-8.4,0.8c-1.3,0.1-2.7,0.1-4,0.2
			c-1.2,0.1-2.4,0.7-3.7,0.8c-1.2,0.1-2.4-0.1-3.7-0.1c-1.4,0-2.8,0-4.3-0.1c-2.7-0.1-5.4-0.2-8.1-0.2c-5.5,0-11.1,0.8-16.6,0.9
			c-5.6,0.2-11.1,0.1-16.7,0c-3.1,0-6.2,0-9.3,0c-3,0-5.9,0.5-8.8,0.6c-3.1,0.2-6.3,0-9.4,0c-3.1,0-6.1,0.6-9.1,0.7
			C81.9,61.1,81.9,62.4,82.7,62.4L82.7,62.4z"/>
	</g>
</g>
<g>
	<g>
		<path class="st0" d="M54.7,78.4c0,6.9,0,13.8,0,20.7c0,0.8,1.2,0.8,1.2,0c0-6.9,0-13.8,0-20.7C56,77.6,54.7,77.6,54.7,78.4
			L54.7,78.4z"/>
	</g>
</g>
<g>
	<g>
		<path class="st0" d="M61.4,97c0.8,0,0.8-1.2,0-1.2C60.6,95.8,60.6,97,61.4,97L61.4,97z"/>
	</g>
</g>
<g>
	<g>
		<path class="st0" d="M82.5,77.3c-1.1-1-2.9-1-4.3-0.7c-0.8,0.1-1.6,0.4-2.2,0.8c-0.6,0.3-1,0.7-0.8,1.4c0.3,2.1,2.5,3.3,4.3,4.2
			c2.2,1.1,4.5,1.9,6.5,3.2c0.6,0.4,1.4,0.9,1.6,1.7c0.3,1-0.8,1.9-1.6,2.4c-1.6,1-3.6,1.5-5.5,1.9c-2,0.4-4.5,0.9-6-0.9
			c-0.5-0.6-1.4,0.3-0.9,0.9c2.2,2.6,6,1.6,8.8,0.9c2.3-0.6,5.7-1.7,6.3-4.3c0.4-1.7-1.1-2.9-2.4-3.7c-1.8-1.1-3.9-1.9-5.8-2.8
			c-1.5-0.7-4.1-1.9-4.2-3.8c-0.1,0.1-0.1,0.3-0.2,0.4c0.7-0.6,1.8-0.9,2.7-1c0.9-0.1,2.1-0.2,2.8,0.4
			C82.2,78.7,83.1,77.8,82.5,77.3L82.5,77.3z"/>
	</g>
</g>
<g>
	<g>
		<path class="st0" d="M90.7,84.4c0,1.6,0,3.1,0,4.7c0,0.8,1.2,0.8,1.2,0c0-1.6,0-3.1,0-4.7C92,83.6,90.7,83.6,90.7,84.4L90.7,84.4z
			"/>
	</g>
</g>
<g>
	<g>
		<path class="st0" d="M90.7,77.7c0.8,0,0.8-1.2,0-1.2C89.9,76.5,89.9,77.7,90.7,77.7L90.7,77.7z"/>
	</g>
</g>
<g>
	<g>
		<path class="st0" d="M97.4,74.6c0.8,5,0.6,10.1,0.6,15.2c0,0.8,1.2,0.8,1.2,0c0-5.2,0.2-10.4-0.7-15.5
			C98.5,73.5,97.3,73.8,97.4,74.6L97.4,74.6z"/>
	</g>
</g>
<g>
	<g>
		<path class="st0" d="M94.7,85c1,0,2,0.1,3,0c0.7-0.1,1.5-0.2,2.2-0.3c1.3-0.1,2.9-0.2,3.9-1.2c0.6-0.6-0.3-1.4-0.9-0.9
			c-0.4,0.4-1,0.5-1.5,0.6c-0.6,0.1-1.2,0.2-1.9,0.2c-0.7,0.1-1.4,0.2-2.1,0.3c-0.9,0.1-1.9,0-2.8,0C93.9,83.8,93.9,85,94.7,85
			L94.7,85z"/>
	</g>
</g>
<g>
	<g>
		<path class="st0" d="M105.4,75.7c-0.2,1.3,0.3,2.4,0.7,3.6c0.5,1.4,0.6,2.7,0.6,4.2c0,1.4-0.1,2.9,0,4.3c0.1,1.3,0.7,2.6,0.7,3.9
			c0,0.8,1.3,0.8,1.2,0c0-1.3-0.7-2.5-0.7-3.9c-0.1-1.4,0.1-2.9,0-4.3c0-1.3-0.1-2.7-0.5-4c-0.4-1.3-1-2.4-0.8-3.8
			C106.8,74.9,105.5,75,105.4,75.7L105.4,75.7z"/>
	</g>
</g>
<g>
	<g>
		<path class="st0" d="M103.5,82.3c1.2-0.5,2.3-0.5,3.6-0.6c0.6-0.1,1.2-0.2,1.8-0.4c0.5-0.2,1.1-0.4,1.6-0.3c0.3,0,0.7-0.1,0.8-0.4
			c0.1-0.3-0.1-0.7-0.4-0.8c-1.3-0.2-2.5,0.5-3.8,0.7c-1.3,0.1-2.6,0.2-3.9,0.7c-0.3,0.1-0.5,0.4-0.4,0.8
			C102.8,82.2,103.2,82.5,103.5,82.3L103.5,82.3z"/>
	</g>
</g>
<g>
	<g>
		<path class="st0" d="M112.3,82.2c0.8,0.9,0.5,2.4,0.7,3.5c0.2,1.4,1.3,2.6,1.1,4.1c0,0.3,0.3,0.6,0.6,0.6c0.4,0,0.6-0.3,0.6-0.6
			c0.2-1.6-1-2.9-1.2-4.5c-0.1-1.4,0-2.9-1-4C112.6,80.7,111.7,81.6,112.3,82.2L112.3,82.2z"/>
	</g>
</g>
<g>
	<g>
		<path class="st0" d="M112.7,75.7c0.8,0,0.8-1.2,0-1.2C111.9,74.5,111.9,75.7,112.7,75.7L112.7,75.7z"/>
	</g>
</g>
<g>
	<g>
		<path class="st0" d="M116.1,83.1c0,1.4-0.5,3.2,0.7,4.3c0.4,0.3,0.9,0.2,1-0.3c0.6-1.9,0.6-4,1.6-5.7c0.4-0.7,1.1-1.3,1.9-1
			c0.4,0.1,0.6,0.6,0.8,0.9c0.2,0.5,0.4,1.1,0.6,1.6c0.3,0.8,0.7,1.5,1,2.3c0.3,0.7,0.6,1.5,0.5,2.3c0,0.3,0.1,0.7,0.4,0.8
			c0.3,0.1,0.7-0.1,0.8-0.4c0.2-1.7-0.6-3.3-1.2-4.8c-0.5-1.2-0.7-2.8-1.8-3.6c-1-0.7-2.5-0.4-3.3,0.5c-0.8,0.8-1.2,2-1.5,3.1
			c-0.3,1.2-0.4,2.5-0.8,3.7c0.3-0.1,0.7-0.2,1-0.3c-0.4-0.4-0.4-1-0.4-1.5c0-0.6,0.1-1.2,0.1-1.9C117.3,82.3,116.1,82.3,116.1,83.1
			L116.1,83.1z"/>
	</g>
</g>
<g>
	<g>
		<path class="st0" d="M137.8,82c-1.6-1.4-4.2-1.5-6.2-1.5c-2,0-3.9,0.7-4.6,2.7c-0.7,1.8-0.3,4.8,1.4,5.9c1.8,1.3,3.4-0.4,4.8-1.4
			c1.5-1.2,4.4-2.8,4.2-5.1c-0.1-0.8-1.3-0.8-1.2,0c0,1.3-0.3,2.5-0.6,3.8c-0.3,1.1-0.6,2.2-0.8,3.4c-0.6,2.2-1.2,4.8-2.4,6.7
			c-0.5,0.9-1.3,1.6-2.2,2.1c-0.8,0.4-2.6,1.2-3.3,0.3c-0.8-1.2,1.2-3.2,1.8-4.1c0.5-0.7-0.6-1.3-1.1-0.6c-0.9,1.4-2.9,3.4-1.9,5.2
			c1.2,2.3,4.6,0.8,6.1-0.3c2.1-1.7,2.9-4.7,3.7-7.2c0.5-1.5,0.8-3.1,1.2-4.6c0.4-1.5,0.9-3,0.8-4.6c-0.4,0-0.8,0-1.2,0
			c0.1,1-0.8,1.7-1.4,2.3c-0.8,0.7-1.6,1.3-2.4,1.9c-0.7,0.6-1.4,1.5-2.4,1.5c-1,0.1-1.5-1-1.7-1.9c-0.6-2.1,0.1-4.3,2.5-4.7
			c1-0.1,2.1,0,3.1,0.1c1.1,0.1,2.4,0.3,3.2,1C137.5,83.4,138.4,82.5,137.8,82L137.8,82z"/>
	</g>
</g>
<g>
	<g>
		<path class="st0" d="M53.1,114.2c0.8-0.7,1.2-1.9,2.1-2.4c0.9-0.6,2.5-0.1,3.3,0.4c2,1.3,1.9,4,2.3,6.1c0.2,1.1,0.6,2.3,0.5,3.4
			c-0.1,1.3-0.9,2.3-1.8,3.1c-1.8,1.8-4,3.3-6.3,4.4c-0.6,0.3-0.3,1.2,0.3,1.2c2.6-0.2,5.2-0.1,7.8,0c0.8,0,0.8-1.2,0-1.2
			c-2.6,0-5.2-0.1-7.8,0c0.1,0.4,0.2,0.8,0.3,1.2c2.1-1.1,4.2-2.4,5.9-4c1.6-1.4,2.9-3.2,2.8-5.4c-0.1-1.1-0.4-2.1-0.5-3.1
			c-0.2-1.1-0.3-2.1-0.5-3.2c-0.5-2-1.8-3.5-3.8-4.1c-1-0.3-2.2-0.4-3.1,0.2c-1,0.6-1.5,1.8-2.3,2.6
			C51.7,113.8,52.5,114.7,53.1,114.2L53.1,114.2z"/>
	</g>
</g>
<g>
	<g>
		<path class="st0" d="M71.4,129c0.8,0,0.8-1.2,0-1.2C70.6,127.8,70.6,129,71.4,129L71.4,129z"/>
	</g>
</g>
<g>
	<g>
		<path class="st0" d="M82.1,107.7c0,1.6-0.3,3.3-0.6,4.9c-0.2,1.8-0.2,3.6-0.1,5.4c0.1,3.7,0,7.4,0,11.1c0,0.8,1.2,0.8,1.2,0
			c0-3.7,0.1-7.4,0-11.1c0-1.8-0.1-3.5,0.1-5.3c0.2-1.7,0.5-3.3,0.6-5C83.3,106.9,82.1,106.9,82.1,107.7L82.1,107.7z"/>
	</g>
</g>
<g>
	<g>
		<path class="st0" d="M82,121c1.5,0,3,0.1,4.5,0c1.2-0.1,2.4-0.5,3.7-0.7c0.3-0.1,0.5-0.5,0.4-0.8c-0.1-0.4-0.4-0.5-0.8-0.4
			c-1.2,0.2-2.3,0.6-3.5,0.6c-1.5,0-2.9,0-4.4,0C81.2,119.8,81.2,121,82,121L82,121z"/>
	</g>
</g>
<g>
	<g>
		<path class="st0" d="M91.4,108.4c0,7.6,0,15.1,0,22.7c0,0.8,1.2,0.8,1.2,0c0-7.6,0-15.1,0-22.7C92.7,107.6,91.4,107.6,91.4,108.4
			L91.4,108.4z"/>
	</g>
</g>
<g>
	<g>
		<path class="st0" d="M97.4,121.1c0,0.9,0.1,1.8,0.1,2.7c-0.1,0.9-0.6,1.6-0.7,2.4c0,0.3,0.1,0.7,0.4,0.8c0.3,0.1,0.7-0.1,0.8-0.4
			c0.1-0.5,0.3-0.9,0.4-1.3c0.2-0.5,0.3-0.9,0.3-1.4c0.1-0.9-0.1-1.9-0.1-2.8C98.7,120.3,97.4,120.3,97.4,121.1L97.4,121.1z"/>
	</g>
</g>
<g>
	<g>
		<path class="st0" d="M97.4,113c0.8,0,0.8-1.2,0-1.2C96.6,111.8,96.6,113,97.4,113L97.4,113z"/>
	</g>
</g>
<g>
	<g>
		<path class="st0" d="M110.5,119.3c-2.5-2.9-8.9,0-7.6,3.9c1.5,4.6,7.4,1.1,8.5-2c-0.4-0.1-0.8-0.2-1.2-0.3c-0.5,2.9-1.3,5.7-2,8.5
			c-0.7,2.7-0.6,5.6-1.4,8.3c-0.6,1.8-1.3,4.5-3.8,3.3c-1.3-0.6-2.3-1.8-2.3-3.3c0-1.3,0.6-2.5,1.2-3.6c0.4-0.7-0.7-1.3-1.1-0.6
			c-1.4,2.4-2.2,5.3,0.1,7.5c1.7,1.7,4.5,2.2,5.9,0c1.6-2.4,1.7-5.6,2.1-8.4c0.4-3.9,1.9-7.6,2.5-11.4c0.1-0.8-0.9-1.1-1.2-0.3
			c-0.7,1.9-5,5.2-6.1,2c-0.9-2.7,3.9-4.6,5.5-2.7C110.1,120.8,111,119.9,110.5,119.3L110.5,119.3z"/>
	</g>
</g>
<g>
	<g>
		<path class="st0" d="M114.7,107.7c0,2,0.1,4,0.1,6.1c-0.1,1.8-0.4,3.6-0.6,5.4c-0.2,1.8-0.2,3.7-0.1,5.5c0.1,1.9,0.8,3.6,0.7,5.5
			c0.4,0,0.8,0,1.2,0c0-1.6-0.2-3.2,0-4.8c0.2-1.2,0.9-1.6,1.8-2.3c0.8-0.7,2.2-2.4,2.9-0.5c0.3,1,0.1,2.1,0.1,3.1
			c0,0.8,1.2,0.8,1.2,0c0.1-1.3,0.3-2.9-0.4-4.1c-0.8-1.3-2.2-1.4-3.3-0.5c-0.7,0.5-1.3,1.1-2,1.7c-0.5,0.4-0.9,0.7-1.2,1.3
			c-0.9,1.8-0.4,4.3-0.3,6.2c0,0.8,1.2,0.8,1.2,0c0.2-1.9-0.6-3.6-0.7-5.5c-0.1-1.8-0.1-3.7,0.1-5.5c0.2-1.8,0.5-3.6,0.6-5.4
			c0.1-2,0-4-0.1-6.1C116,106.9,114.7,106.9,114.7,107.7L114.7,107.7z"/>
	</g>
</g>
<g>
	<g>
		<path class="st0" d="M132.1,109.1c0,1.6,0.2,3.1,0.5,4.6c0.3,1.7,0.3,3.3,0.3,5c-0.2,3.5-0.1,7-0.1,10.4c0,0.8,1.2,0.8,1.2,0
			c0-3.5-0.1-7,0.1-10.4c0.1-1.6,0-3.1-0.2-4.6c-0.2-1.6-0.5-3.3-0.5-4.9C133.3,108.3,132.1,108.3,132.1,109.1L132.1,109.1z"/>
	</g>
</g>
<g>
	<g>
		<path class="st0" d="M131.9,110.3c0.5,0.1,1.1,0.1,1.6-0.1c0.5-0.2,0.9-0.4,1.4-0.5c1-0.2,2.2,0,3.2,0c0.8,0,0.8-1.2,0-1.2
			c-1.1,0-2.2-0.2-3.3-0.1c-0.5,0.1-0.9,0.3-1.4,0.5c-0.4,0.2-0.7,0.3-1.1,0.3c-0.3-0.1-0.7,0.1-0.8,0.4
			C131.3,109.9,131.5,110.3,131.9,110.3L131.9,110.3z"/>
	</g>
</g>
<g>
	<g>
		<path class="st0" d="M132,119.7c2,0,3.9,0.3,5.8,0.6c0.3,0.1,0.7-0.1,0.8-0.4c0.1-0.3-0.1-0.7-0.4-0.8c-2-0.3-4.1-0.7-6.2-0.7
			C131.2,118.5,131.2,119.7,132,119.7L132,119.7z"/>
	</g>
</g>
<g>
	<g>
		<path class="st0" d="M140.7,119.7c0,2,0.6,4,0.7,6c0,0.8,1.3,0.8,1.2,0c0-2-0.7-4-0.7-6C142,118.9,140.8,118.9,140.7,119.7
			L140.7,119.7z"/>
	</g>
</g>
<g>
	<g>
		<path class="st0" d="M140.7,113.7c0.8,0,0.8-1.2,0-1.2C139.9,112.5,139.9,113.7,140.7,113.7L140.7,113.7z"/>
	</g>
</g>
<g>
	<g>
		<path class="st0" d="M143.5,118.7c0.3,0.4,0.4,0.9,0.6,1.4c0.2,0.6,0.3,1.3,0.5,1.9c0.3,1.1,0.6,2.5,1.7,3.3
			c1,0.7,2.3,0.2,3.1-0.6c1-1,1.7-2.4,2.2-3.7c0.5-1.3,1-2.6,1.1-4c0-0.3-0.3-0.6-0.6-0.6c-0.4,0-0.6,0.3-0.6,0.6c0,0,0,0.2,0,0
			c0,0,0,0.1,0,0.1c0,0.1,0,0.2-0.1,0.3c-0.1,0.3-0.1,0.5-0.2,0.8c-0.2,0.6-0.4,1.2-0.6,1.8c-0.4,1.1-1,2.3-1.7,3.3
			c-0.3,0.4-0.6,0.7-1.1,0.9c0,0-0.1,0-0.2,0.1c0,0-0.2,0,0,0c0,0-0.1,0-0.1,0c-0.1,0-0.1,0-0.2,0c-0.1,0-0.1,0-0.2-0.1
			c0,0-0.1-0.1,0,0c0,0-0.1-0.1-0.1-0.1c-0.1-0.1-0.1-0.1-0.2-0.2c-0.1-0.2-0.3-0.4-0.3-0.6c-0.2-0.5-0.4-1.1-0.5-1.7
			c-0.3-1.2-0.4-2.6-1.2-3.5c-0.2-0.3-0.5-0.4-0.9-0.2C143.5,118,143.3,118.5,143.5,118.7L143.5,118.7z"/>
	</g>
</g>
<g>
	<g>
		<path class="st0" d="M157.7,119.6c0.7-0.5,1.4-1.2,1.2-2.2c-0.1-0.7-0.7-1.2-1.4-1.5c-1.4-0.6-3.4-0.3-4.3,1.1
			c-0.9,1.3-0.3,3.1,0.3,4.5c0.6,1.4,1.6,2.5,3,3.2c1.1,0.5,2.3,1,3.5,1c1.2,0,2.2-0.7,3.4-0.7c0.8,0,0.8-1.3,0-1.2
			c-0.8,0-1.5,0.3-2.3,0.5c-0.9,0.3-1.7,0.2-2.5-0.1c-1.2-0.4-2.5-0.9-3.3-2c-0.7-0.9-1.1-2.1-1.2-3.2c-0.2-1.2,0.5-2,1.7-2.2
			c0.6-0.1,1.3,0,1.7,0.4c0.5,0.4,0,0.9-0.4,1.2C156.4,119,157,120.1,157.7,119.6L157.7,119.6z"/>
	</g>
</g>
<g>
	<g>
		<path class="st0" d="M156.9,118.6c-0.4,0.4-0.7,0.9-1.1,1.2c-0.1,0.1-0.2,0.2-0.3,0.3c-0.1,0.1,0.1-0.1,0,0c0,0-0.1,0-0.1,0.1
			c-0.1,0-0.1,0.1-0.2,0.1c0,0-0.1,0-0.1,0c0,0-0.1,0,0,0c-0.1,0-0.1,0-0.2,0.1c0,0-0.1,0-0.1,0c0,0-0.1,0,0,0c0.1,0,0,0,0,0
			c0,0-0.1,0-0.1,0c-0.3,0-0.6,0.3-0.6,0.6c0,0.3,0.3,0.6,0.6,0.6c1.4,0,2.2-1.3,3.1-2.2c0.2-0.2,0.2-0.7,0-0.9
			C157.6,118.4,157.2,118.4,156.9,118.6L156.9,118.6z"/>
	</g>
</g>
<g>
	<g>
		<path class="st0" d="M53.8,145.5c0.7-0.7,1.9-1,2.8-1.2c1.2-0.2,2.5-0.4,3.6,0c3.1,0.9-0.7,4.2-1.9,5.3c-0.3,0.3-0.2,0.8,0.1,1
			c0.7,0.4,1.4,0.3,2.2,0.5c0.9,0.2,1.6,1.1,2.1,1.8c0.9,1.4,0.8,3.6,0.4,5.2c-0.4,1.6-1.7,2.3-3.2,2.9c-1.8,0.7-3.7,1.2-5.6,1.6
			c-0.8,0.1-0.5,1.3,0.3,1.2c2.3-0.4,4.6-1.1,6.7-2.1c1.5-0.7,2.5-1.8,2.9-3.5c0.4-1.8,0.5-4-0.4-5.7c-0.4-0.8-1.2-1.6-1.9-2.2
			c-0.9-0.7-2-0.3-3-0.9c0,0.3,0.1,0.7,0.1,1c1.2-1.1,2.6-2.2,3.2-3.7c0.6-1.4,0.1-2.8-1.2-3.4c-1.4-0.7-3.1-0.5-4.5-0.3
			c-1.3,0.2-2.9,0.7-3.8,1.6C52.4,145.2,53.2,146.1,53.8,145.5L53.8,145.5z"/>
	</g>
</g>
<g>
	<g>
		<path class="st0" d="M70.7,161.7c0.8,0,0.8-1.2,0-1.2C69.9,160.5,69.9,161.7,70.7,161.7L70.7,161.7z"/>
	</g>
</g>
<g>
	<g>
		<path class="st0" d="M85.4,142.9c-0.2,1.3,0.2,2.3,0.6,3.5c0.4,1.6,0.2,3.3,0.1,4.9c-0.1,3.3,0,6.6,0,9.8c0,0.8,1.2,0.8,1.2,0
			c0-3.2-0.1-6.3,0-9.5c0-1.5,0.2-3,0-4.6c-0.1-1.3-0.9-2.5-0.7-3.8C86.7,142.5,85.5,142.1,85.4,142.9L85.4,142.9z"/>
	</g>
</g>
<g>
	<g>
		<path class="st0" d="M85.4,144.4c4.7,0,9.3,0,14,0c0.8,0,0.8-1.2,0-1.2c-4.7,0-9.3,0-14,0C84.6,143.1,84.6,144.4,85.4,144.4
			L85.4,144.4z"/>
	</g>
</g>
<g>
	<g>
		<path class="st0" d="M86.7,154.4c1.1,0,2.2,0.1,3.3-0.1c0.8-0.2,1.7-0.7,2.6-0.6c0.3,0.1,0.7-0.1,0.8-0.4c0.1-0.3-0.1-0.7-0.4-0.8
			c-0.6-0.1-1.1,0-1.6,0.1c-0.4,0.1-0.9,0.3-1.3,0.4c-1,0.3-2.2,0.1-3.2,0.1C85.9,153.1,85.9,154.4,86.7,154.4L86.7,154.4z"/>
	</g>
</g>
<g>
	<g>
		<path class="st0" d="M96,157c0.7,0.1,1.5,0,2.2-0.2c0.8-0.2,1.7-0.4,2.5-0.9c0.7-0.4,1.2-1.1,1-2c-0.2-0.9-1.1-1.4-2-1.4
			c-1,0-2,0.4-3,0.8c-0.8,0.4-1.6,0.8-2.1,1.5c-0.8,1.1-0.6,2.8-0.1,4c0.4,1,1.3,1.3,2.2,1.5c0.5,0.1,1,0.1,1.6,0.2
			c0.6,0.1,1.3,0.3,1.9,0.4c1.2,0.2,2.7,0.3,3.6-0.8c0.5-0.6-0.4-1.5-0.9-0.9c-0.5,0.6-1.4,0.6-2.2,0.5c-0.9-0.1-1.8-0.4-2.8-0.6
			c-0.6-0.1-1.6-0.1-2-0.4c-0.6-0.4-0.7-1.7-0.6-2.5c0-0.3,0.1-0.5,0.2-0.7c0,0,0.1-0.2,0-0.1c0,0,0,0,0.1-0.1
			c0-0.1,0.1-0.1,0.2-0.1c0.2-0.2,0.5-0.4,0.8-0.5c0.7-0.4,1.5-0.7,2.3-0.9c0.3-0.1,0.7-0.1,1-0.1c0.3,0,0.4,0.1,0.5,0.3
			c0.1,0.1,0.1,0.1,0.1,0.3c0-0.1,0,0,0,0.1c0-0.1,0,0,0,0.1c0,0-0.1,0.1-0.1,0.1c-0.1,0.1-0.2,0.2-0.3,0.2
			c-0.6,0.4-1.4,0.6-2.1,0.8c-0.6,0.1-1.3,0.2-1.9,0.1c-0.3,0-0.6,0.3-0.6,0.6C95.4,156.8,95.7,157,96,157L96,157z"/>
	</g>
</g>
<g>
	<g>
		<path class="st0" d="M108.1,144.4c0,2.7,0.6,5.4,0.7,8.1c0.1,2.9,0,5.7,0,8.6c0,0.8,1.3,0.8,1.2,0c0-2.9,0.1-5.7,0-8.6
			c-0.1-2.7-0.6-5.4-0.7-8.1C109.3,143.6,108.1,143.6,108.1,144.4L108.1,144.4z"/>
	</g>
</g>
<g>
	<g>
		<path class="st0" d="M105.4,153.7c1.2,0.2,2.3-0.3,3.5-0.6c1.3-0.3,2.6-0.1,3.9-0.1c0.8,0,0.8-1.2,0-1.2c-1.3,0-2.7-0.2-4,0.1
			c-1.1,0.2-2.2,0.7-3.4,0.6c-0.3,0-0.6,0.3-0.6,0.6C104.7,153.4,105,153.7,105.4,153.7L105.4,153.7z"/>
	</g>
</g>
<g>
	<g>
		<path class="st0" d="M120.5,152.6c-1.6-1.5-3.5,0.1-4.6,1.5c-1.1,1.5-1.7,3.6-0.8,5.3c0.8,1.5,2.3,2.3,3.9,2.7
			c1.5,0.4,3.1,0.5,4.6,0.2c0.7-0.2,1.4-0.5,1.9-1.1c0.6-0.7,0.6-1.5,0.5-2.4c-0.2-0.8-1.4-0.5-1.2,0.3c0.2,1-0.3,1.6-1.3,1.8
			c-1.1,0.3-2.4,0.2-3.6,0c-1.1-0.2-2.2-0.5-3-1.3c-1.2-1.1-1.3-2.8-0.5-4.2c0.4-0.8,2-3.2,3.2-2.1
			C120.2,154.1,121.1,153.2,120.5,152.6L120.5,152.6z"/>
	</g>
</g>
<g>
	<g>
		<path class="st0" d="M126.1,143.7c0.3,2.7,0.9,5.4,1.3,8.1c0.5,2.7,0.7,5.5,0.7,8.3c0.4,0,0.8,0,1.2,0c0-1.6,0.1-3.9,1-5.3
			c0.7-1,2.5-2.9,3.8-2.3c1.3,0.5,1.3,2.5,1.7,3.7c0.3,0.9,0.6,1.7,0.7,2.6c0.2,1,0.2,2,0.2,3c0,0.8,1.3,0.8,1.2,0
			c0-1.2,0-2.4-0.3-3.6c-0.2-1-0.6-2-0.9-3c-0.4-1.7-0.8-3.7-2.8-4c-1.7-0.3-3.5,1.4-4.5,2.6c-1.3,1.7-1.5,4.3-1.5,6.3
			c0,0.8,1.3,0.8,1.2,0c0-2.7-0.2-5.3-0.6-7.9c-0.5-2.8-1.1-5.6-1.4-8.4C127.2,143,126,142.9,126.1,143.7L126.1,143.7z"/>
	</g>
</g>
<g>
	<g>
		<path class="st0" d="M67.4,87c2.5,0,5-0.4,7.4-0.6c2.5-0.2,5,0.2,7.4-0.2c1.1-0.1,2.1-0.4,3.2-0.5c1.3-0.1,2.6-0.1,3.9-0.1
			c2.4-0.1,4.9-0.5,7.3-0.6c2.5-0.1,5-0.3,7.5-0.6c2.4-0.2,4.8-0.1,7.3,0c2.5,0.1,5,0.1,7.6,0c2.4-0.1,4.8-0.7,7.2-0.9
			c2.7-0.2,5.3,0,8,0.1c2.8,0.1,5.7,0,8.6,0c0.8,0,0.8-1.2,0-1.2c-2.6,0-5.1,0-7.7,0c-2.4,0-4.7-0.2-7.1-0.2c-2.4,0-4.7,0.6-7.1,0.8
			c-2.4,0.2-4.9,0.2-7.3,0.2c-2.5-0.1-5-0.2-7.5-0.1c-2.4,0.1-4.8,0.5-7.2,0.6c-2.5,0.1-5,0.3-7.6,0.5c-2.3,0.2-4.7,0.1-7,0.4
			c-1.4,0.2-2.8,0.5-4.3,0.5c-1.4,0-2.8-0.1-4.2,0c-2.8,0.1-5.6,0.6-8.4,0.6C66.6,85.8,66.6,87,67.4,87L67.4,87z"/>
	</g>
</g>
<g>
	<g>
		<path class="st0" d="M359.4,33c1.1,0,2.1-0.2,3.2-0.4c1.5-0.3,2.9-0.3,4.5-0.3c2.7,0.1,5.5,0.1,8.2,0.1c2.6,0,5.1-0.7,7.7-0.7
			c2.7,0,5.3,0,8,0c2.5,0,4.8-0.6,7.2-0.8c2.7-0.2,5.5-0.4,8.3-0.5c1.3,0,2.6,0.1,3.8-0.1c1.3-0.1,2.5-0.5,3.8-0.7
			c1.3-0.1,2.5,0,3.8,0c1.3-0.1,2.5-0.3,3.7-0.6c2.8-0.5,5.7-1.1,8.5-1.3c3.1-0.2,6.2,0,9.3,0c0.8,0,0.8-1.2,0-1.2
			c-2.7,0-5.5-0.1-8.2,0c-2.4,0.1-4.9,0.5-7.3,0.9c-2.6,0.5-5.1,1.1-7.8,1c-2.6-0.1-5,0.7-7.6,0.7c-2.7,0-5.4,0.1-8,0.3
			c-1.3,0.1-2.6,0.2-3.9,0.4c-1.2,0.2-2.4,0.5-3.7,0.6c-2.6,0.2-5.3,0-7.9,0c-1.3,0-2.6-0.1-3.8,0.1c-1.4,0.1-2.7,0.5-4.1,0.6
			c-2.9,0.2-6,0-8.9,0c-1.5,0-3-0.1-4.5,0.1c-1.5,0.2-2.9,0.6-4.4,0.6C358.6,31.8,358.6,33,359.4,33L359.4,33z"/>
	</g>
</g>
<g>
	<g>
		<path class="st0" d="M367.4,43.7c0.8,0,0.8-1.2,0-1.2C366.6,42.5,366.6,43.7,367.4,43.7L367.4,43.7z"/>
	</g>
</g>
<g>
	<g>
		<path class="st0" d="M382.7,36.5c-1.7,0-3.4-0.2-4.8,0.9c-1.2,0.9-1.8,2.4-1.9,3.9c-0.1,1.5,0.5,2.7,1.6,3.7c1,1,2.2,1.5,3.6,1.1
			c1.5-0.5,2.8-1.6,3.9-2.6c0.6-0.5-0.3-1.4-0.9-0.9c-0.8,0.7-1.7,1.4-2.7,1.9c-0.4,0.2-1,0.5-1.5,0.5c-0.5,0-0.9-0.3-1.3-0.6
			c-0.8-0.6-1.6-1.6-1.6-2.7c-0.1-1.2,0.4-2.4,1.2-3.3c1.2-1.2,2.8-0.9,4.3-0.9C383.5,37.7,383.5,36.4,382.7,36.5L382.7,36.5z"/>
	</g>
</g>
<g>
	<g>
		<path class="st0" d="M390,39.1c-1.5-0.1-2.7,1.3-3.1,2.6c-0.1,0.4-0.3,0.9,0,1.2c0.1,0.2,0.3,0.3,0.5,0.4c0.4,0.2,0.8,0.3,1.3,0.3
			c0.9,0,1.9-0.2,2.7-0.7c0.8-0.4,1.5-1,1.8-1.9c0.4-1.1-0.5-2.1-1.4-2.6c-0.3-0.2-0.7-0.1-0.9,0.2c-0.2,0.3-0.1,0.7,0.2,0.9
			c0.2,0.1,0.3,0.2,0.5,0.3c0.1,0.1-0.1-0.1,0,0c0,0,0.1,0,0.1,0.1c0.1,0.1,0.1,0.1,0.2,0.2c0.1,0.1-0.1-0.1,0,0
			c0,0.1,0.1,0.1,0.1,0.2c0,0,0,0.1,0,0.1c-0.1-0.1,0-0.1,0,0c0,0.1,0,0.1,0,0.2c0,0.1,0,0,0-0.1c0,0,0,0.1,0,0.1c0,0.1,0,0.1,0,0.2
			c0,0.1,0-0.2,0-0.1c0,0,0,0.1,0,0.1c0,0.1-0.1,0.1-0.1,0.2c0,0,0.1-0.2,0-0.1c0,0,0,0.1,0,0.1c0,0.1-0.1,0.1-0.1,0.1
			c0,0,0,0,0,0.1c0,0.1-0.1,0,0,0c-0.1,0-0.1,0.1-0.1,0.2c-0.1,0.1-0.2,0.2-0.3,0.2c0,0-0.1,0-0.1,0.1c-0.1,0.1,0,0.1,0,0
			c0,0.1-0.1,0.1-0.2,0.1c-0.2,0.2-0.5,0.3-0.8,0.4c-0.1,0.1,0.1,0,0,0c0,0-0.1,0-0.1,0c-0.1,0-0.1,0.1-0.2,0.1
			c-0.1,0.1-0.3,0.1-0.5,0.1c-0.1,0-0.3,0.1-0.4,0.1c-0.1,0,0.2,0,0,0c0,0-0.1,0-0.1,0c-0.1,0-0.2,0-0.2,0c-0.1,0-0.3,0-0.4,0
			c-0.1,0,0.2,0,0,0c0,0-0.1,0-0.1,0c-0.1,0-0.1,0-0.2-0.1c0,0,0,0-0.1,0c0,0,0,0-0.1,0c-0.1,0,0,0,0.1,0c0,0-0.1-0.1-0.2-0.1
			c0,0,0,0-0.1,0c-0.1-0.1,0.1,0.1,0,0c0,0-0.1-0.1-0.1-0.1c0.1,0.1,0.1,0.3,0.2,0.4c0,0,0-0.1,0-0.1c0-0.1,0,0.1,0,0
			c0-0.1,0-0.1,0-0.2c0-0.1,0.1-0.2,0.1-0.2c0-0.1,0,0,0,0c0,0,0-0.1,0.1-0.1c0.1-0.1,0.2-0.3,0.2-0.4c0,0,0.2-0.2,0.1-0.1
			c0.1-0.1,0.1-0.1,0.2-0.2c0.1-0.1,0.2-0.2,0.4-0.3c0,0,0.1,0,0,0c0,0,0.1-0.1,0.1-0.1c0.1,0,0.1-0.1,0.2-0.1c0,0,0.1,0,0.1-0.1
			c0,0,0.1-0.1,0,0c0.1,0,0.1-0.1,0.2-0.1c0.1,0,0.2,0,0.1,0c0.1,0,0.2,0,0.2,0c0.3,0,0.6-0.3,0.6-0.6
			C390.6,39.4,390.4,39.1,390,39.1L390,39.1z"/>
	</g>
</g>
<g>
	<g>
		<path class="st0" d="M399.5,38.5c-1.2-0.2-2.4,0.5-3.3,1.4c-0.4,0.4-0.8,0.9-1.1,1.5c-0.2,0.5-0.5,1.1-0.4,1.6
			c0,0.3,0.2,0.5,0.5,0.6c0.9,0.2,1.7,0.2,2.6,0c0.7-0.2,1.5-0.5,2.2-0.5c0.3,0,0.6-0.3,0.6-0.6c0-0.3-0.3-0.7-0.6-0.6
			c-0.8,0.1-1.6,0.3-2.4,0.5c-0.7,0.2-1.4,0.3-2.1,0.1c0.2,0.2,0.3,0.4,0.5,0.6c0-0.1,0-0.2,0-0.3c0-0.2,0,0.1,0,0c0,0,0-0.1,0-0.1
			c0-0.1,0.1-0.2,0.1-0.3c0,0,0-0.1,0-0.1c0,0.1,0,0.1,0,0c0,0,0-0.1,0.1-0.1c0.1-0.2,0.2-0.4,0.4-0.6c0,0,0-0.1,0.1-0.1
			c0,0.1,0,0,0,0c0,0,0.1-0.1,0.1-0.1c0.1-0.1,0.2-0.2,0.3-0.3c0.1-0.1,0.2-0.2,0.3-0.3c0,0,0.1-0.1,0.2-0.1c0,0,0.2-0.1,0.1-0.1
			c0,0,0.1-0.1,0.1-0.1c0.1,0,0.1-0.1,0.2-0.1c0.1-0.1,0.2-0.1,0.3-0.2c0.1,0,0.1-0.1,0.2-0.1c0.1-0.1-0.1,0,0.1,0
			c0.1,0,0.2-0.1,0.3-0.1c0.1,0,0.1,0,0.2,0c-0.2,0,0,0,0,0c0.1,0,0.1,0,0.2,0c0.2,0-0.1,0,0,0c0.3,0.1,0.7-0.1,0.8-0.4
			C400.1,38.9,399.9,38.5,399.5,38.5L399.5,38.5z"/>
	</g>
</g>
<g>
	<g>
		<path class="st0" d="M405.6,38.6c-0.5,0.6-1,1.3-1,2.1c0,0.6,0.3,1.2,0.8,1.6c1,0.8,2.5,1.1,3.8,1c1.2-0.1,2.8-0.6,2.8-2.1
			c0-1.3-1.2-2.4-2.2-2.9C408.5,37.6,406.7,37.4,405.6,38.6c-0.2,0.3-0.3,0.6,0,0.9c0.2,0.2,0.7,0.3,0.9,0c0.1-0.1,0.2-0.2,0.3-0.3
			c-0.1,0.1,0,0,0,0c0.1,0,0.1-0.1,0.2-0.1c0,0,0,0,0.1,0c-0.1,0.1-0.1,0,0,0c0.1,0,0.1,0,0.2-0.1c0.1,0,0.1,0,0.2,0
			c0,0,0.1,0,0.1,0c-0.2,0-0.1,0,0,0c0.1,0,0.3,0,0.4,0c0,0,0.2,0,0.1,0c-0.1,0,0,0,0,0c0,0,0.1,0,0.1,0c0.1,0,0.2,0.1,0.4,0.1
			c0.1,0,0.1,0,0.2,0.1c0,0,0.1,0,0.1,0c0.1,0-0.1-0.1,0,0c0.3,0.1,0.5,0.3,0.7,0.4c0.1,0,0.1,0.1,0.2,0.1c0,0,0.1,0.1,0,0
			c0,0,0,0,0.1,0.1c0.1,0.1,0.2,0.2,0.3,0.3c0.1,0.1,0.2,0.2,0.3,0.3c0,0,0,0,0,0.1c0.1,0.1-0.1-0.1,0,0c0,0.1,0.1,0.1,0.1,0.2
			c0.1,0.1,0.1,0.2,0.2,0.3c0,0,0,0.1,0,0.1c0,0-0.1-0.2,0-0.1c0,0.1,0,0.1,0.1,0.2c0,0,0,0.1,0,0.1c0,0.1,0-0.2,0,0c0,0,0,0,0,0.1
			c0,0,0,0.1,0,0.1c0,0.1,0-0.1,0-0.1c0,0,0,0.1,0,0.1c0,0,0,0.1,0,0.1c-0.1,0,0.1-0.1,0-0.1c0,0,0,0,0,0.1c0,0,0,0,0,0.1
			c0,0.1,0-0.1,0-0.1c0,0-0.1,0.1-0.1,0.1c-0.1,0.1,0.1-0.1,0,0c0,0-0.1,0.1-0.1,0.1c-0.1,0-0.1,0.1-0.2,0.1c0,0-0.1,0,0.1,0
			c0,0-0.1,0-0.1,0c-0.2,0.1-0.5,0.1-0.8,0.2c0,0-0.1,0-0.1,0c0.2,0,0.1,0,0,0c-0.1,0-0.1,0-0.2,0c-0.1,0-0.3,0-0.4,0
			c-0.3,0-0.6,0-0.9-0.1c0.2,0,0,0-0.1,0c-0.1,0-0.1,0-0.2,0c-0.1,0-0.3-0.1-0.4-0.1c-0.1,0-0.3-0.1-0.4-0.1c0,0-0.1,0-0.1,0
			c0.2,0.1,0.1,0,0,0c-0.1,0-0.1-0.1-0.2-0.1c-0.1-0.1-0.2-0.2-0.3-0.2c0.2,0.1,0,0,0,0c-0.1,0-0.1-0.1-0.1-0.1c0,0,0,0,0-0.1
			c-0.1-0.1,0.1,0.1,0,0c0-0.1-0.1-0.1-0.1-0.2c-0.1-0.1,0,0.1,0,0c0-0.1,0-0.1,0-0.2c0-0.1,0,0.1,0,0.1c0,0,0-0.1,0-0.1
			c0,0,0-0.1,0-0.1c0-0.1,0-0.1,0,0c0-0.1,0.1-0.3,0.1-0.4c-0.1,0.2,0,0,0.1-0.1c0-0.1,0.1-0.2,0.1-0.2c0,0,0-0.1,0.1-0.1
			c0,0,0.1-0.2,0-0.1c0.1-0.1,0.2-0.2,0.2-0.3c0.2-0.3,0.2-0.6,0-0.9C406.2,38.4,405.8,38.4,405.6,38.6L405.6,38.6z"/>
	</g>
</g>
<g>
	<g>
		<path class="st0" d="M369.4,57c0.8,0,0.8-1.2,0-1.2C368.6,55.8,368.6,57,369.4,57L369.4,57z"/>
	</g>
</g>
<g>
	<g>
		<path class="st0" d="M380.1,51.7c0,3.6,0,7.1,0,10.7c0,0.8,1.2,0.8,1.2,0c0-3.6,0-7.1,0-10.7C381.3,50.9,380.1,50.9,380.1,51.7
			L380.1,51.7z"/>
	</g>
</g>
<g>
	<g>
		<path class="st0" d="M379.4,52.4c2.2,0,4.4,0,6.7,0c0.8,0,0.8-1.2,0-1.2c-2.2,0-4.4,0-6.7,0C378.6,51.1,378.6,52.4,379.4,52.4
			L379.4,52.4z"/>
	</g>
</g>
<g>
	<g>
		<path class="st0" d="M380,57c1.8,0,3.6,0,5.3,0c0.8,0,0.8-1.2,0-1.2c-1.8,0-3.6,0-5.3,0C379.2,55.8,379.2,57,380,57L380,57z"/>
	</g>
</g>
<g>
	<g>
		<path class="st0" d="M387.4,57.1c0,0.4,0,0.8,0,1.1c0,0.8,1.2,0.8,1.2,0c0-0.7-0.2-1.3-0.4-1.9c0-0.1-0.1-0.2-0.1-0.4
			c0-0.1,0-0.1,0-0.2c0,0,0-0.1,0-0.1c0-0.1,0,0,0,0c0-0.1,0-0.1,0-0.2c0,0,0-0.1,0-0.1c0,0,0,0.1,0,0c0-0.2,0.1-0.3,0.1-0.4
			c0.2-0.3,0.4-0.6,0.7-0.9c0.2-0.2,0.4-0.3,0.7-0.4c0.1,0,0.1,0,0.2,0c-0.1,0,0.1,0,0.1,0c0.2,0,0.3,0,0.5,0c0.1,0,0,0,0.1,0
			c0.1,0,0.2,0,0.2,0c0.2,0,0.3,0.1,0.5,0.1c0.7,0.2,1.4,0.4,2.2,0.5c0.3,0,0.6-0.3,0.6-0.6c0-0.4-0.3-0.6-0.6-0.6
			c0.1,0-0.1,0-0.2,0c-0.1,0-0.2,0-0.2-0.1c-0.2,0-0.3-0.1-0.5-0.1c-0.3-0.1-0.7-0.2-1-0.3c-0.7-0.2-1.4-0.3-2.1-0.1
			c-0.8,0.2-1.5,0.8-2,1.5c-0.5,0.7-0.7,1.4-0.5,2.2c0.1,0.3,0.2,0.6,0.3,0.9c0.1,0.4,0.2,0.7,0.2,1.1c0.4,0,0.8,0,1.2,0
			c0-0.4,0-0.8,0-1.1C388.7,56.3,387.4,56.3,387.4,57.1L387.4,57.1z"/>
	</g>
</g>
<g>
	<g>
		<path class="st0" d="M396.7,53.1c-0.9,0-1.9,0.1-2.8,0.3c-0.9,0.2-1.9,0.6-2.5,1.4c-0.7,0.9-0.3,2,0.3,2.9c0.4,0.6,1,1.1,1.7,1.3
			c0.6,0.2,1.2,0,1.8-0.3c1.2-0.7,1.9-1.9,2.9-2.9c-0.3,0-0.6,0-0.9,0c0.2,0.2,0.3,0.4,0.3,0.7c0,0.3,0.3,0.6,0.6,0.6
			c0.4,0,0.6-0.3,0.6-0.6c0-0.6-0.2-1.2-0.7-1.6c-0.3-0.2-0.6-0.3-0.9,0c-0.8,0.8-1.4,1.7-2.2,2.4c-0.2,0.1-0.3,0.2-0.5,0.4
			c-0.1,0-0.1,0.1-0.2,0.1c0,0,0.1,0,0,0c-0.1,0-0.1,0-0.2,0.1c0,0-0.3,0-0.1,0c0,0-0.3,0-0.2,0c-0.1,0-0.1,0-0.2,0
			c0,0-0.2-0.1-0.1,0c-0.3-0.1-0.4-0.3-0.6-0.5c-0.2-0.2-0.3-0.4-0.4-0.6c0-0.1-0.1-0.1-0.1-0.2c0,0-0.1-0.2,0-0.1
			c0-0.1-0.1-0.2-0.1-0.3c0,0,0-0.2,0,0c0,0,0-0.1,0-0.1c0-0.1,0-0.3,0-0.1c0-0.1,0-0.2,0.1-0.2c-0.1,0.2,0,0,0.1-0.1
			c0.1-0.1-0.1,0.1,0,0c0,0,0,0,0.1-0.1c0.1-0.1,0.1-0.1,0.2-0.2c-0.1,0.1,0.1,0,0.1-0.1c0.1-0.1,0.2-0.1,0.3-0.2
			c0,0,0.3-0.1,0.1-0.1c0.1,0,0.2-0.1,0.3-0.1c0.2-0.1,0.4-0.1,0.6-0.2c0.5-0.1,0.8-0.2,1.3-0.2c0.4,0,0.9-0.1,1.3-0.1
			C397.5,54.4,397.5,53.1,396.7,53.1L396.7,53.1z"/>
	</g>
</g>
<g>
	<g>
		<path class="st0" d="M399.4,53.7c0,1.5-0.4,3.1,0.2,4.5c0.2,0.6,1,0.6,1.2,0c0.3-0.6,0.4-1.3,0.5-2c0.1-0.4,0.2-0.8,0.3-1.2
			c0.1-0.4,0.2-0.6,0.3-0.9c0-0.1,0.1-0.1,0.1-0.2c0.1-0.1-0.1,0,0-0.1c0,0,0,0,0.1-0.1c0.1-0.1-0.1,0,0,0c0,0,0,0,0.1,0
			c0.1,0-0.1,0,0,0c0,0,0.2,0,0.1,0c0.1,0,0.1,0,0.2,0c0,0,0.2,0,0.2,0c0,0,0.1,0,0.2,0c0.6,0.2,1.2,0.5,1.7,1
			c0.3,0.3,0.5,0.5,0.7,0.8c0,0.1,0.1,0.1,0.1,0.2c0,0,0,0.1,0,0.1c0-0.1,0,0,0,0c0,0.1,0,0.1,0.1,0.2c0,0,0,0.1,0,0
			c0,0,0,0.1,0,0.1c0,0.8,1.2,0.8,1.2,0c0-0.8-0.5-1.5-1.1-2.1c-0.6-0.6-1.4-1.1-2.2-1.5c-0.7-0.3-1.6-0.3-2.2,0.2
			c-0.6,0.5-0.8,1.5-1,2.2c-0.2,0.9-0.3,1.8-0.7,2.6c0.4,0,0.8,0,1.2,0c-0.5-1.3-0.1-2.8-0.1-4.2C400.7,52.9,399.4,52.9,399.4,53.7
			L399.4,53.7z"/>
	</g>
</g>
<g>
	<g>
		<path class="st0" d="M408.1,49.1c0,3.4,0.7,6.8,0.7,10.2c0,0.8,1.2,0.8,1.2,0c0-1.6-0.4-3.4,0.2-4.9c0.3-0.7,0.8-1.4,1.5-1.7
			c0.7-0.3,1.3-0.1,1.7,0.5c0.2,0.3,0,0,0.1,0c0,0-0.3,0.2-0.4,0.2c-0.4,0.2-0.9,0.3-1.3,0.6c-1.1,0.7-1.1,2.1-0.5,3.1
			c0.7,1.1,2.1,2.1,3.5,1.9c0.8-0.1,0.8-1.3,0-1.2c-1,0.1-2.4-0.8-2.6-1.8c-0.3-1.1,1.2-1.2,1.9-1.5c1.4-0.8,0.5-2.3-0.6-2.9
			c-1.6-0.9-3.4,0.6-4.1,1.9c-1,1.8-0.5,3.9-0.5,5.8c0.4,0,0.8,0,1.2,0c0-3.4-0.6-6.8-0.7-10.2C409.3,48.3,408.1,48.3,408.1,49.1
			L408.1,49.1z"/>
	</g>
</g>
<g>
	<g>
		<path class="st0" d="M416.1,54.4c0,0.9,0,1.8,0,2.7c0,0.3,0.3,0.6,0.6,0.6c0.3,0,0.6-0.3,0.6-0.6c0-0.9,0-1.8,0-2.7
			c0-0.3-0.3-0.6-0.6-0.6C416.4,53.8,416.1,54.1,416.1,54.4L416.1,54.4z"/>
	</g>
</g>
<g>
	<g>
		<path class="st0" d="M417.4,49.7c0.8,0,0.8-1.2,0-1.2C416.6,48.5,416.6,49.7,417.4,49.7L417.4,49.7z"/>
	</g>
</g>
<g>
	<g>
		<path class="st0" d="M419.2,56.3c1,0.1,2,0,2.9-0.3c0.9-0.2,1.9-0.6,2.7-1.1c0.7-0.5,1.4-1.5,1.2-2.4c-0.1-0.8-0.9-1.2-1.6-1.4
			c-0.7-0.2-1.6-0.2-2.3-0.1c-1,0.1-1.8,0.5-2.6,1.1c-0.8,0.7-1.4,1.7-1.5,2.8c-0.1,1,0.4,2.1,1.4,2.6c1,0.5,2.2,0.3,3.2,0.1
			c1-0.2,1.9-0.5,2.9-0.7c0.3-0.1,0.5-0.5,0.4-0.8c-0.1-0.4-0.4-0.5-0.8-0.4c-1.5,0.3-3,0.9-4.5,0.8c-0.6,0-1.1-0.3-1.3-0.9
			c-0.3-0.7,0.1-1.5,0.6-2.1c0.5-0.6,1.2-1.1,1.9-1.3c0.1,0,0.1,0,0.2,0c0,0,0.2,0,0.1,0c0.2,0,0.3,0,0.5,0c0.3,0,0.6,0,1,0
			c0.2,0,0.1,0,0.4,0.1c0.2,0,0.3,0.1,0.5,0.1c0,0,0.1,0,0.1,0c0.1,0-0.1,0,0,0c0.1,0,0.1,0.1,0.2,0.1c0,0,0.2,0.1,0.1,0
			c0,0,0.2,0.2,0.1,0.1c-0.1-0.1,0,0.1,0.1,0.1c-0.1-0.1,0,0,0,0c0,0.1,0-0.1,0,0c0,0,0,0,0,0.1c0,0.1,0,0,0,0c0,0.1,0,0.1,0,0.2
			c0,0.1-0.1,0.2-0.2,0.3c-0.1,0.2-0.2,0.3-0.3,0.4c-0.2,0.2-0.6,0.4-0.9,0.6c-0.4,0.2-0.9,0.3-1.3,0.5c-0.4,0.1-1,0.2-1.4,0.3
			c-0.2,0-0.4,0-0.6,0c-0.1,0-0.2,0-0.3,0c0,0-0.3,0-0.2,0c-0.3,0-0.7,0.1-0.8,0.4C418.7,55.9,418.9,56.3,419.2,56.3L419.2,56.3z"/>
	</g>
</g>
<g>
	<g>
		<path class="st0" d="M369.4,72.4c0.8,0,0.8-1.2,0-1.2C368.6,71.1,368.6,72.4,369.4,72.4L369.4,72.4z"/>
	</g>
</g>
<g>
	<g>
		<path class="st0" d="M383.8,68c-1-1.1-3.1-1.2-4.5-1c-1.8,0.2-2.9,1.6-3.5,3.2c-0.6,1.7-0.6,3.7,0.2,5.4c0.9,1.7,2.6,2.8,4.3,3.6
			c0.8,0.4,1.8,0.6,2.7,0.3c1-0.3,1.7-1.2,2.2-2.1c0.4-0.7-0.6-1.3-1.1-0.6c-0.4,0.6-0.8,1.2-1.5,1.5c-0.5,0.2-1.1,0.1-1.7-0.1
			c-1.4-0.5-2.9-1.4-3.7-2.7c-0.8-1.3-0.9-2.8-0.5-4.2c0.3-1.2,1-2.7,2.3-3c0.7-0.1,1.4-0.1,2.1,0c0.6,0.1,1.3,0.2,1.7,0.6
			C383.5,69.4,384.4,68.6,383.8,68L383.8,68z"/>
	</g>
</g>
<g>
	<g>
		<path class="st0" d="M386.1,68.4c0,1.7-0.3,3.3-0.1,5c0.2,1.5,0.7,3,0.8,4.5c0,0.8,1.3,0.8,1.2,0c0-1.2,0-2.4,0.4-3.5
			c0.3-1,1.1-2,2.1-2.4c0.8-0.3,1.4,0.3,1.7,1c0.4,0.8,0.7,1.7,0.5,2.6c-0.1,0.8,1.1,1.1,1.2,0.3c0.3-1.7-0.3-4.1-2-5
			c-2.1-1.1-4.1,1.3-4.7,3.1c-0.5,1.2-0.5,2.6-0.5,3.9c0.4,0,0.8,0,1.2,0c0-1.6-0.5-3-0.8-4.6c-0.2-1.6,0.1-3.3,0.1-5
			C387.3,67.6,386.1,67.6,386.1,68.4L386.1,68.4z"/>
	</g>
</g>
<g>
	<g>
		<path class="st0" d="M401.2,72.1c-1-1.3-2.8-1.8-4.3-1.9c-1.5-0.1-3.2,0.4-3.5,2c-0.3,1.4,0.4,3,1.6,3.7c0.8,0.5,1.8,0.9,2.7,1.1
			c0.9,0.2,2,0.3,2.9,0c1.6-0.5,3.5-2.5,2.3-4.1c-0.2-0.3-0.5-0.4-0.8-0.3c-0.3,0.1-0.5,0.4-0.4,0.7c0.3,1,0.4,2,0.3,3
			c0,0.8,1.2,0.8,1.2,0c0-1.1,0-2.3-0.4-3.3c-0.4,0.2-0.8,0.3-1.1,0.5c0.7,0.9-0.6,1.9-1.4,2.2c-0.7,0.2-1.5,0.2-2.2,0.1
			c-0.8-0.1-1.5-0.4-2.2-0.7c-0.9-0.5-1.6-1.3-1.5-2.3c0-0.4,0.2-0.7,0.5-1c0.4-0.3,1-0.4,1.5-0.4c0.7,0,1.4,0.2,2.1,0.4
			c0.5,0.2,1.2,0.5,1.5,0.9c0.2,0.3,0.5,0.4,0.9,0.2C401.3,72.8,401.4,72.4,401.2,72.1L401.2,72.1z"/>
	</g>
</g>
<g>
	<g>
		<path class="st0" d="M404.7,71.7c0,1.2,0,2.5,0,3.7c0.4,0,0.8,0,1.2,0c0-0.6-0.1-1.2,0-1.7c0,0.1,0,0,0-0.1c0-0.1,0-0.1,0-0.2
			c0,0,0.1-0.2,0-0.1c0-0.1,0.1-0.1,0.1-0.2c0,0,0,0,0-0.1c0,0,0,0,0,0c0-0.1,0.1-0.1,0.2-0.2c0.1-0.1,0.2-0.1,0.3-0.2
			c1.4-0.8,3.2-0.5,4.7-0.5c0.8,0,0.8-1.3,0-1.2c-1.8,0-3.9-0.4-5.5,0.7c-0.6,0.4-1,0.9-1.1,1.6c-0.1,0.7,0,1.3,0,2
			c0,0.8,1.3,0.8,1.2,0c0-1.2,0-2.5,0-3.7C406,70.9,404.7,70.9,404.7,71.7L404.7,71.7z"/>
	</g>
</g>
<g>
	<g>
		<path class="st0" d="M414.1,66.4c0,3.3,0.7,6.7,0.7,10c0,0.8,1.3,0.8,1.2,0c0-3.3-0.7-6.7-0.7-10
			C415.3,65.6,414.1,65.6,414.1,66.4L414.1,66.4z"/>
	</g>
</g>
<g>
	<g>
		<path class="st0" d="M418.7,72.4c0,0.7,0.1,1.4,0.1,2c0,0.2,0,0.3,0,0.5c0-0.1,0,0,0,0c0,0,0,0.1,0,0.1c0,0.1,0,0.2-0.1,0.2
			c0,0,0,0.1,0,0.1c0,0.1,0.1-0.1,0,0c0,0.1-0.1,0.1-0.1,0.2c0,0,0,0.1-0.1,0.1c0.1-0.1,0,0,0,0c-0.1,0.1-0.1,0.1-0.2,0.2
			c-0.3,0.2-0.2,0.7,0,0.9c0.3,0.3,0.6,0.2,0.9,0c1.3-1.1,0.8-3,0.8-4.4c0-0.3-0.3-0.6-0.6-0.6C419,71.8,418.7,72.1,418.7,72.4
			L418.7,72.4z"/>
	</g>
</g>
<g>
	<g>
		<path class="st0" d="M419.4,68.4c0.8,0,0.8-1.2,0-1.2C418.6,67.1,418.6,68.4,419.4,68.4L419.4,68.4z"/>
	</g>
</g>
<g>
	<g>
		<path class="st0" d="M422.5,74.9C422.5,74.9,422.6,74.7,422.5,74.9c0,0,0.2-0.1,0.2-0.1c0.1,0,0.2-0.1,0.2-0.1
			c0.2-0.1,0.3-0.1,0.5-0.2c0.4-0.2,0.9-0.3,1.3-0.4c0.9-0.3,1.8-0.5,2.6-1.2c0.6-0.5,1-1.5,1-2.3c-0.1-0.8-0.7-1.2-1.4-1.2
			c-0.7,0-1.4,0.3-2,0.5c-0.5,0.2-0.9,0.4-1.4,0.7c-0.9,0.5-1.9,1.3-2.3,2.3c-0.5,1.1-0.2,2.3,0.8,3c0.9,0.6,2.1,0.7,3.1,0.7
			c1,0,2-0.2,3.1-0.2c0.8,0,0.8-1.3,0-1.2c-1.6,0-3.3,0.4-4.8,0c-0.1,0-0.2,0-0.3-0.1c0,0-0.1,0-0.1,0c0.1,0,0,0-0.1,0
			C422.7,74.9,422.6,74.9,422.5,74.9C422.5,74.8,422.4,74.8,422.5,74.9c0.1,0,0-0.1-0.1-0.1c-0.1-0.1-0.3-0.3-0.3-0.5
			c-0.1-0.2-0.1-0.3-0.1-0.4c0.1-0.8,0.9-1.5,1.6-1.9c0.4-0.3,0.9-0.5,1.3-0.7c0.1-0.1,0.3-0.1,0.4-0.2c0.1,0-0.1,0,0,0
			c0,0,0.1,0,0.1,0c0.1,0,0.1-0.1,0.2-0.1c0.3-0.1,0.5-0.2,0.8-0.2c0,0,0.2,0,0.1,0c-0.1,0,0.1,0,0.1,0c0.1,0,0.1,0,0.2,0
			c0.2,0,0,0,0,0c0,0,0.2,0.1,0.1,0c-0.1,0,0,0,0,0c0.1,0,0,0,0,0c0,0-0.1-0.1,0,0c0.1,0.1-0.1-0.1,0-0.1c0.1,0.1,0-0.1,0,0
			c0.1,0.1,0-0.1,0,0c0,0.1,0,0.1,0,0.2c0,0.1,0-0.1,0,0c0,0,0,0.1,0,0.1c0,0.1,0,0.2-0.1,0.3c-0.1,0.2-0.1,0.3-0.2,0.4
			c0,0-0.1,0.1,0,0.1c0-0.1,0,0,0,0.1c-0.1,0.1-0.1,0.1-0.2,0.2c-0.1,0.1-0.1,0.1-0.2,0.1c-0.1,0.1-0.2,0.1-0.3,0.2
			c-0.2,0.1-0.3,0.1-0.5,0.2c-0.4,0.2-0.9,0.3-1.3,0.4c-0.9,0.2-1.8,0.5-2.5,1.1c-0.3,0.2-0.2,0.7,0,0.9
			C421.8,75.1,422.2,75.1,422.5,74.9L422.5,74.9z"/>
	</g>
</g>
<g>
	<g>
		<path class="st0" d="M360.7,16.4c3.1,0,6.2,0,9.3,0c0.8,0,0.8-1.2,0-1.2c-3.1,0-6.2,0-9.3,0C359.9,15.1,359.9,16.4,360.7,16.4
			L360.7,16.4z"/>
	</g>
</g>
<g>
	<g>
		<path class="st0" d="M364.1,15.9c0.1,1,0.6,1.9,0.7,2.9c0.1,1.2,0,2.4,0,3.6c0,0.8,1.2,0.8,1.2,0c0-1.2,0.1-2.5,0-3.8
			c-0.1-1.1-0.5-2-0.7-3.1c0-0.3-0.5-0.5-0.8-0.4C364.2,15.2,364,15.6,364.1,15.9L364.1,15.9z"/>
	</g>
</g>
<g>
	<g>
		<path class="st0" d="M368.1,19.1c0,0.9-0.1,1.8,0.2,2.7c0.1,0.4,0.7,0.6,1,0.3c0.4-0.5,0.6-1.1,0.6-1.7c0-0.1,0-0.3,0-0.4
			c0-0.1,0-0.1,0-0.2c0,0.1,0,0,0-0.1c0-0.1,0-0.1,0-0.2c0,0,0.1-0.2,0,0c0-0.1,0.1-0.1,0.1-0.2c0,0,0,0,0,0c0,0,0-0.1,0.1-0.1
			c0,0,0.1-0.1,0,0c0.1,0,0.1-0.1,0.2-0.1c0.1-0.1-0.1,0,0,0c0,0,0.1,0,0.1,0c0.1,0,0.1,0,0.2,0c0.1,0-0.1,0,0.1,0
			c0.1,0,0.3,0,0.4,0c0.5,0,1,0.1,1.5,0.1c0.3,0,0.6-0.3,0.6-0.6c0-0.3-0.3-0.6-0.6-0.6c-1.1,0-2.3-0.3-3.3,0.4
			c-0.5,0.4-0.7,1-0.7,1.6c0,0.1,0,0.3,0,0.4c0,0.1,0,0.1,0,0.2c0,0.2,0-0.1,0,0.1c0,0.1-0.1,0.3-0.1,0.4c0,0.1,0,0.1,0,0
			c0,0,0,0.1-0.1,0.1c0,0-0.1,0.2-0.1,0.1c0.3,0.1,0.7,0.2,1,0.3c0-0.1-0.1-0.2-0.1-0.3c0,0,0-0.1,0-0.1c0,0,0-0.1,0-0.1
			c0-0.2,0-0.4,0-0.6c0-0.4,0-0.8,0-1.3c0-0.3-0.3-0.6-0.6-0.6C368.4,18.5,368.1,18.7,368.1,19.1L368.1,19.1z"/>
	</g>
</g>
<g>
	<g>
		<path class="st0" d="M374,20.4c1.4,0,2.8,0.2,4.2,0.2c0.3,0,0.7,0,1-0.1c0.3,0,0.7-0.1,1-0.2c0.4-0.2,0.5-0.9,0.4-1.3
			c-0.1-1.7-2.2-2-3.6-2c-1.3,0-3.3,0.3-3.8,1.7c-0.3,0.7-0.2,1.6,0.3,2.2c0.5,0.7,1.3,1.1,2.1,1.4c0.9,0.3,1.9,0.5,2.9,0.5
			c0.8,0,1.7-0.1,2.4-0.5c0.7-0.4,0-1.5-0.6-1.1c-0.1,0.1-0.2,0.1-0.3,0.1c-0.1,0,0.1,0,0,0c-0.1,0-0.1,0-0.2,0.1
			c-0.1,0-0.2,0.1-0.3,0.1c-0.1,0-0.1,0-0.2,0c0.1,0-0.1,0-0.1,0c-0.3,0-0.6,0-0.9,0c-0.2,0-0.3,0-0.5,0c-0.1,0-0.2,0-0.2,0
			c-0.1,0,0,0,0,0c-0.1,0-0.1,0-0.2,0c-0.3,0-0.6-0.1-0.9-0.2c-0.1,0-0.3-0.1-0.4-0.1c-0.1,0-0.1-0.1-0.2-0.1c0,0-0.1,0,0,0
			c0,0-0.1,0-0.1-0.1c-0.3-0.1-0.5-0.3-0.7-0.4c0,0,0,0-0.1,0c0,0,0.1,0.1,0,0c0,0-0.1-0.1-0.1-0.1c0,0-0.1-0.1-0.1-0.1
			c0,0-0.1-0.2-0.1-0.1c0,0.1-0.1-0.1-0.1-0.1c0,0-0.1-0.1-0.1-0.2c-0.1-0.1,0,0,0-0.1c0-0.1,0-0.1-0.1-0.2c0-0.1,0,0.1,0-0.1
			c0-0.1,0-0.1,0-0.2c0,0,0-0.1,0-0.1c0-0.1,0,0.1,0,0c0-0.1,0-0.1,0.1-0.2c0-0.1,0.1-0.2,0.1-0.2c0,0,0.1-0.1,0-0.1
			c-0.1,0.1,0,0,0.1-0.1c0,0,0.1-0.1,0.1-0.1c-0.1,0.1,0,0,0,0c0.1-0.1,0.2-0.1,0.3-0.2c0,0,0.1,0,0.1,0c0,0-0.1,0,0,0
			c0.1,0,0.1,0,0.2-0.1c0.1,0,0.3-0.1,0.4-0.1c0.1,0,0.2-0.1,0.4-0.1c0.1,0,0.1,0,0.2,0c0,0,0.1,0,0.1,0c0.1,0-0.1,0,0,0
			c0.5-0.1,1.2-0.1,1.7,0c0,0,0.1,0,0.2,0c0.1,0,0.1,0,0.2,0c0.1,0,0.3,0.1,0.4,0.1c0,0,0,0,0.1,0c0.1,0-0.1,0,0,0
			c0.1,0,0.1,0.1,0.2,0.1c0.1,0,0.1,0.1,0.2,0.1c0.1,0.1,0-0.1,0,0c0,0,0.1,0.1,0.1,0.1c0.1,0.1,0-0.1,0,0c0,0,0.1,0.2,0,0.1
			c0-0.1,0,0.1,0,0.1c0,0.1,0-0.1,0,0c0,0,0,0.2,0,0.1c0-0.1,0,0.1,0,0.1c0,0.1,0,0.2-0.1,0.2c0.1-0.1,0.3-0.3,0.4-0.4
			c-1.9,0.5-3.9,0.1-5.8,0.1C373.2,19.1,373.2,20.4,374,20.4L374,20.4z"/>
	</g>
</g>
<g>
	<g>
		<path class="st0" d="M386.9,16.5c-0.9-0.1-1.9,0.1-2.8,0.3c-1,0.3-2,0.7-2.7,1.5c-0.3,0.4-0.6,0.8-0.6,1.3c0,0.5,0.2,1,0.6,1.4
			c0.4,0.5,1,0.8,1.6,0.9c0.6,0,1.2-0.2,1.7-0.5c1.1-0.7,2.1-1.9,2.6-3.2c-0.4,0-0.8,0-1.2,0c0.2,0.8,0.3,1.6,0.4,2.4
			c0.2,0.8,0.4,1.7,1,2.3c0.6,0.5,1.5-0.3,0.9-0.9c-0.2-0.2-0.3-0.4-0.4-0.7c-0.1-0.4-0.2-0.8-0.3-1.2c-0.1-0.8-0.2-1.5-0.4-2.3
			c-0.2-0.6-1-0.6-1.2,0c0,0,0,0.1-0.1,0.1c0.1-0.1,0,0,0,0c0,0.1-0.1,0.2-0.1,0.3c-0.1,0.2-0.3,0.4-0.4,0.7c-0.3,0.3-0.6,0.8-1,1.1
			c-0.3,0.3-0.7,0.5-1.2,0.6c-0.3,0.1-0.6,0-0.8-0.2c-0.1-0.1-0.2-0.2-0.3-0.3c0.1,0.1-0.1-0.1-0.1-0.1c0,0,0-0.1-0.1-0.1
			c0.1,0.1,0,0,0,0c0,0,0-0.1,0-0.1c0-0.1,0,0.1,0,0c0,0,0-0.1,0-0.1c0-0.1,0,0.2,0,0c0,0,0.1-0.2,0-0.2c0,0.1,0.1-0.1,0.1-0.1
			c0,0,0.1-0.1,0,0c0,0,0.1-0.1,0.1-0.1c0.1-0.1,0.1-0.1,0.2-0.2c0,0,0.1,0,0.1-0.1c-0.1,0.1,0,0,0,0c0.2-0.1,0.4-0.2,0.6-0.3
			c0.1,0,0.2-0.1,0.3-0.1c0.1,0,0.1,0,0.2-0.1c0.2-0.1-0.1,0,0,0c0.2-0.1,0.4-0.2,0.6-0.2c0.5-0.1,0.9-0.3,1.4-0.3c0.2,0-0.1,0,0,0
			c0.1,0,0.1,0,0.2,0c0.1,0,0.2,0,0.3,0c0.1,0,0.2,0,0.2,0c0,0,0.1,0,0.1,0c0.2,0-0.1,0,0,0c0.3,0.1,0.7-0.1,0.8-0.4
			C387.4,16.9,387.2,16.5,386.9,16.5L386.9,16.5z"/>
	</g>
</g>
<g>
	<g>
		<path class="st0" d="M389.4,13.7c0,2.9,0.6,5.8,0.7,8.7c0,0.8,1.3,0.8,1.2,0c0-2.9-0.6-5.8-0.7-8.7
			C390.6,12.9,389.4,12.9,389.4,13.7L389.4,13.7z"/>
	</g>
</g>
<g>
	<g>
		<path class="st0" d="M388,16.4c1.3,0,2.7,0,4,0c0.3,0,0.6-0.3,0.6-0.6c0-0.3-0.3-0.6-0.6-0.6c-1.3,0-2.7,0-4,0
			c-0.3,0-0.6,0.3-0.6,0.6C387.4,16.1,387.7,16.4,388,16.4L388,16.4z"/>
	</g>
</g>
<g>
	<g>
		<path class="st0" d="M395.5,15.8c-0.4-0.1-0.9-0.1-1.2,0.2c-0.4,0.2-0.8,0.7-0.7,1.2c0.1,0.6,0.6,1.2,1,1.5c0.9,0.8,2.1,1.3,3.2,2
			c0.2,0.1,0.4,0.3,0.6,0.5c0,0,0.1,0.1,0,0c0-0.1,0,0,0,0.1c0,0.1,0.1,0.1,0.1,0.2c0.1,0.1,0,0,0,0c0,0,0,0.1,0,0.1
			c0,0.1,0,0.1,0,0.2c0-0.2,0-0.3,0.1-0.5c0,0,0,0.1,0,0.1c-0.1,0.1,0.1-0.1,0,0c0,0-0.1,0.1-0.1,0.1c0,0-0.1,0.1-0.1,0.1
			c0.1-0.1-0.1,0-0.1,0c0,0-0.1,0-0.1,0.1c-0.1,0.1-0.2,0.1-0.3,0.2c-0.1,0-0.1,0.1-0.2,0.1c0,0-0.1,0-0.1,0c0,0,0.1,0,0,0
			c-0.1,0.1-0.3,0.1-0.4,0.1c-0.3,0.1-0.5,0.2-0.8,0.2c-0.6,0.2-1,0.2-1.7,0.2c-0.3,0-0.5,0-0.8,0c0.1,0,0,0-0.1,0
			c-0.1,0-0.1,0-0.2,0c-0.1,0-0.1,0-0.2,0c0,0-0.2-0.1-0.1,0c0.1,0-0.1,0-0.1,0c0,0-0.1-0.1-0.1-0.1c-0.1,0,0.1,0,0.1,0
			c0,0,0-0.1-0.1-0.1c-0.1-0.1,0,0.1,0,0c0,0-0.1-0.2,0-0.1c0,0.1,0-0.1,0-0.1c0-0.1,0,0.1,0,0.1c0,0,0-0.1,0-0.1c0,0,0-0.2,0-0.1
			c0.1-0.3-0.1-0.7-0.4-0.8c-0.3-0.1-0.7,0.1-0.8,0.4c-0.4,2.7,3.4,2.3,5,1.9c0.9-0.2,2-0.6,2.6-1.4c0.4-0.5,0-1.3-0.4-1.7
			c-0.4-0.5-0.9-0.8-1.4-1.1c-0.6-0.4-1.3-0.7-1.9-1.1c-0.3-0.2-0.5-0.3-0.7-0.6c-0.2-0.2-0.3-0.5-0.4-0.7c0,0.2,0,0.3-0.1,0.5
			c0.1-0.3,0.2-0.4,0.4-0.3c0.3,0,0.7-0.1,0.8-0.4C396,16.3,395.9,15.9,395.5,15.8L395.5,15.8z"/>
	</g>
</g>
<g>
	<g>
		<path class="st0" d="M394.6,16.9c0,0,0-0.1,0-0.1c0,0,0,0.2,0,0c0,0,0,0,0-0.1c0-0.1,0-0.2,0-0.3c0,0,0-0.1,0-0.1c0,0,0,0.1,0,0
			c0-0.1,0-0.1,0.1-0.2c0,0,0,0,0,0c0,0-0.1,0.1,0,0.1c0,0,0-0.1,0-0.1c0,0,0-0.1,0.1-0.1c0-0.1-0.1,0.1,0,0c0,0,0.1-0.1,0.1-0.1
			c0,0-0.1,0.1,0,0c0,0,0.1,0,0.1-0.1c0,0,0.1,0,0.2-0.1c0,0-0.1,0.1,0,0c0,0,0.1,0,0.1,0c0.1,0,0.3-0.1,0.4-0.1c0,0,0,0,0,0
			c0.1,0-0.1,0-0.1,0c0,0,0.1,0,0.1,0c0.1,0,0.2,0,0.2,0c0.2,0,0.3,0,0.5,0c0.3,0,0.7,0,1,0c0.3,0,0.6-0.3,0.6-0.6
			c0-0.3-0.3-0.6-0.6-0.6c-1.3,0-3.3-0.2-3.9,1.3c-0.2,0.5-0.1,1-0.1,1.5c0.1,0.3,0.5,0.5,0.8,0.4C394.5,17.6,394.7,17.3,394.6,16.9
			L394.6,16.9z"/>
	</g>
</g>
<g>
	<g>
		<path class="st0" d="M94.7,81c1.6,0,3.1,0,4.7,0c0.8,0,0.8-1.2,0-1.2c-1.6,0-3.1,0-4.7,0C93.9,79.8,93.9,81,94.7,81L94.7,81z"/>
	</g>
</g>
<g>
	<g>
		<path class="st0" d="M408.8,12.9c-0.2,1.6,0.3,3,0.6,4.5c0.1,0.8,0.1,1.6,0.1,2.4c0,0.8,0,1.7,0,2.5c0,0.8,1.2,0.8,1.2,0
			c0-1.6,0.1-3.2-0.1-4.8c-0.2-1.4-0.8-2.9-0.6-4.4c0-0.3-0.1-0.7-0.4-0.8C409.2,12.4,408.8,12.6,408.8,12.9L408.8,12.9z"/>
	</g>
</g>
<g>
	<g>
		<path class="st0" d="M408.7,14.4c1.3,0,2.7,0,4,0c0.3,0,0.6-0.3,0.6-0.6c0-0.3-0.3-0.6-0.6-0.6c-1.3,0-2.7,0-4,0
			c-0.3,0-0.6,0.3-0.6,0.6C408.1,14.1,408.3,14.4,408.7,14.4L408.7,14.4z"/>
	</g>
</g>
<g>
	<g>
		<path class="st0" d="M409.4,18.4c0.4,0,0.9,0,1.3,0c0.2,0,0.3-0.1,0.4-0.2c0.1-0.1,0.2-0.3,0.2-0.4c0-0.3-0.3-0.6-0.6-0.6
			c-0.4,0-0.9,0-1.3,0c-0.2,0-0.3,0.1-0.4,0.2c-0.1,0.1-0.2,0.3-0.2,0.4C408.8,18.1,409,18.4,409.4,18.4L409.4,18.4z"/>
	</g>
</g>
<g>
	<g>
		<path class="st0" d="M414.9,17.3c-0.4,0.5-0.9,1.1-1,1.7c-0.1,0.6,0,1.2,0.4,1.6c0.7,0.9,2,1.1,3,0.9c1.3-0.2,2.4-1,3-2.2
			c0.3-0.7,0.4-1.4,0.2-2.1c-0.2-0.7-0.6-1.2-1.2-1.6c-0.6-0.4-1.3-0.6-2-0.4c-0.8,0.2-1.5,0.8-1.9,1.5c-0.2,0.3-0.1,0.7,0.2,0.9
			c0.3,0.2,0.7,0.1,0.9-0.2c0-0.1,0.1-0.1,0.1-0.2c0,0,0.1-0.1,0.1-0.1c0,0,0.1-0.1,0,0c0,0.1,0,0,0,0c0,0,0-0.1,0.1-0.1
			c0.1-0.1,0.1-0.1,0.2-0.2c0.1-0.1-0.1,0,0.1,0c0.1,0,0.1-0.1,0.2-0.1c0.1,0,0.1-0.1,0.2-0.1c-0.1,0.1,0,0,0.1,0c0.1,0,0.1,0,0.2,0
			c0,0,0.1,0,0.1,0c0,0-0.2,0,0,0c0.1,0,0.3,0,0.4,0c0,0-0.2,0,0,0c0,0,0.1,0,0.1,0c0.1,0,0.1,0,0.2,0c0.1,0,0.1,0,0.2,0.1
			c-0.2,0,0,0,0.1,0c0.1,0.1,0.2,0.1,0.3,0.2c0.1,0.1,0,0,0,0c0,0,0.1,0,0.1,0.1c0,0,0.1,0.1,0.1,0.1c0,0,0.1,0.1,0.1,0.1
			c0.1,0.1-0.1-0.1,0,0c0,0,0,0,0,0.1c0.1,0.1,0.1,0.2,0.2,0.3c0,0.1,0-0.1,0,0c0,0,0,0.1,0,0.1c0,0.1,0,0.1,0.1,0.2
			c0,0.1,0,0.1,0,0.2c0,0,0,0.1,0,0c0,0,0,0.1,0,0.1c0,0.1,0,0.3,0,0.4c0-0.1,0,0,0,0.1c0,0.1,0,0.2-0.1,0.2c0,0.1,0,0.1-0.1,0.2
			c0-0.1,0,0.1,0,0.1c-0.1,0.1-0.1,0.3-0.2,0.4c0,0,0,0.1-0.1,0.1c0.1-0.1,0,0,0,0c0,0-0.1,0.1-0.1,0.1c-0.1,0.1-0.2,0.2-0.3,0.3
			c0,0,0,0-0.1,0.1c0.1-0.1,0,0,0,0c0,0-0.1,0.1-0.1,0.1c-0.1,0.1-0.2,0.1-0.3,0.2c0,0-0.2,0.1-0.1,0c0.1,0-0.1,0-0.1,0
			c-0.1,0-0.2,0.1-0.3,0.1c-0.1,0-0.2,0.1-0.3,0.1c0.1,0,0,0,0,0c-0.1,0-0.1,0-0.2,0c-0.1,0-0.2,0-0.3,0c-0.1,0-0.1,0-0.2,0
			c-0.2,0,0.1,0-0.1,0c-0.1,0-0.2,0-0.3-0.1c-0.1,0-0.2-0.1-0.3-0.1c0.1,0,0.1,0.1,0.1,0c0,0-0.1,0-0.1,0c0,0-0.1,0-0.1-0.1
			c0,0-0.1,0-0.1-0.1c0,0-0.1,0-0.1,0c0,0,0.1,0.1,0,0c-0.1-0.1-0.1-0.1-0.2-0.2c-0.1-0.1,0,0,0,0.1c0,0,0-0.1-0.1-0.1
			c0,0,0-0.1-0.1-0.1c0-0.1,0,0.2,0,0c0,0,0-0.1,0-0.1c0-0.2,0,0.1,0,0c0-0.1,0-0.1,0-0.2c0,0,0,0,0-0.1c0-0.1,0,0.1,0,0
			c0-0.1,0-0.1,0-0.2c0-0.1,0-0.1,0.1-0.2c0-0.1-0.1,0.1,0,0c0,0,0-0.1,0-0.1c0.1-0.1,0.2-0.3,0.2-0.4c0,0,0-0.1,0.1-0.1
			c-0.1,0.1,0,0,0,0c0.1-0.1,0.1-0.1,0.2-0.2c0.2-0.2,0.2-0.6,0-0.9C415.6,17.1,415.2,17.1,414.9,17.3L414.9,17.3z"/>
	</g>
</g>
<g>
	<g>
		<path class="st0" d="M420.7,17.1c0,1.1,0,2.1,0,3.2c0,0.8,1.2,0.8,1.2,0c0-0.5,0-1,0-1.5c0-0.2,0-0.5,0-0.7c0-0.1,0-0.2,0-0.4
			c0-0.1,0-0.1,0-0.2c0-0.1,0,0,0-0.1c0-0.2,0.1-0.4,0.1-0.6c0-0.1,0.1-0.2,0.1-0.3c0-0.1,0,0,0,0c0,0,0,0,0-0.1c0,0,0-0.1,0.1-0.1
			c0,0,0.1-0.1,0.1-0.1c0,0,0.1-0.1,0-0.1c-0.1,0.1,0,0,0-0.1c0,0,0.1-0.1,0.1-0.1c0,0,0.1-0.1,0.1-0.1c-0.1,0.1,0,0,0.1,0
			c0,0,0.1,0,0.1-0.1c0,0,0.2-0.1,0.1-0.1c-0.1,0,0.1,0,0.1,0c0.1,0,0.1,0,0.2,0c0.1,0,0.1,0,0.2,0c-0.1,0,0.1,0,0.1,0
			c0.4,0,0.7,0,1.1,0c0.3,0,0.6-0.3,0.6-0.6c0-0.4-0.3-0.6-0.6-0.6c-1.2-0.2-2.5,0-3.2,1c-0.6,0.8-0.7,1.9-0.7,2.9
			c0,0.6,0,1.2,0,1.8c0.4,0,0.8,0,1.2,0c0-1.1,0-2.1,0-3.2C422,16.3,420.7,16.3,420.7,17.1L420.7,17.1z"/>
	</g>
</g>
<g>
	<g>
		<path class="st0" d="M407.4,18.4c1.3,0,2.7,0,4,0c0.3,0,0.6-0.3,0.6-0.6c0-0.3-0.3-0.6-0.6-0.6c-1.3,0-2.7,0-4,0
			c-0.3,0-0.6,0.3-0.6,0.6C406.8,18.1,407,18.4,407.4,18.4L407.4,18.4z"/>
	</g>
</g>
</svg>
