<svg xmlns="http://www.w3.org/2000/svg" xmlns:xlink="http://www.w3.org/1999/xlink" width="171.998" height="171.999" viewBox="0 0 171.998 171.999">
  <defs>
    <filter id="Rectangle_366" x="42.287" y="26.632" width="87.421" height="118.733" filterUnits="userSpaceOnUse">
      <feOffset input="SourceAlpha"/>
      <feGaussianBlur stdDeviation="3" result="blur"/>
      <feFlood flood-opacity="0.161"/>
      <feComposite operator="in" in2="blur"/>
      <feComposite in="SourceGraphic"/>
    </filter>
    <filter id="Subtraction_26" x="0" y="0" width="171.998" height="171.999" filterUnits="userSpaceOnUse">
      <feOffset input="SourceAlpha"/>
      <feGaussianBlur stdDeviation="3" result="blur-2"/>
      <feFlood flood-opacity="0.161"/>
      <feComposite operator="in" in2="blur-2"/>
      <feComposite in="SourceGraphic"/>
    </filter>
  </defs>
  <g transform="matrix(1, 0, 0, 1, 0, 0)" filter="url(#Subtraction_26)">
    <path id="Subtraction_26-2" data-name="Subtraction 26" d="M17891-1134.5a76.018,76.018,0,0,1-29.777-6.012,76.363,76.363,0,0,1-12.994-7.053,76.907,76.907,0,0,1-11.322-9.342,77.083,77.083,0,0,1-9.342-11.322,76.421,76.421,0,0,1-7.053-12.995A76.023,76.023,0,0,1,17814.5-1211a76.028,76.028,0,0,1,6.012-29.778,76.422,76.422,0,0,1,7.053-12.995,77.029,77.029,0,0,1,9.342-11.321,76.982,76.982,0,0,1,11.322-9.341,76.394,76.394,0,0,1,12.994-7.053A76.031,76.031,0,0,1,17891-1287.5a76.021,76.021,0,0,1,29.775,6.011,76.458,76.458,0,0,1,12.994,7.053,76.986,76.986,0,0,1,11.32,9.341,76.782,76.782,0,0,1,9.342,11.321,76.15,76.15,0,0,1,7.053,12.995A75.985,75.985,0,0,1,17967.5-1211a75.979,75.979,0,0,1-6.014,29.776,76.144,76.144,0,0,1-7.053,12.995,76.836,76.836,0,0,1-9.342,11.322,76.959,76.959,0,0,1-11.32,9.342,76.477,76.477,0,0,1-12.994,7.053A76.015,76.015,0,0,1,17891-1134.5Zm1.055-27.556h0a1.969,1.969,0,0,0,.252.31,3.063,3.063,0,0,0,2.043.609h.141l2.674-.059,2.709-.054.283,0c.75,0,1.51-.032,2.256-.1a3.882,3.882,0,0,0,2.354-1.006,2.467,2.467,0,0,0,.768-1.858h5.947a.432.432,0,0,0,.258-.077,2.753,2.753,0,0,0,.859,1.989,3.653,3.653,0,0,0,2.67.868,12.806,12.806,0,0,0,1.354-.088c1.834-.175,3.646-.385,5.385-.627,1.879-.253,2.91-.923,3.148-2.047a4.868,4.868,0,0,0-.279-2.28c-.021-.077-.043-.15-.064-.223l-.723-2.656-1.437-5.294c-.449-1.663-.842-2.988-1.236-4.171a17.886,17.886,0,0,0-4.207-7.377c-.244-.229-.473-.436-.7-.631a5.894,5.894,0,0,0-1.268-3.481,8.859,8.859,0,0,0-1.691-1.348,20.04,20.04,0,0,1-1.631-1.213,29.535,29.535,0,0,1-5.48-6.335c-.895-1.3-1.748-2.672-2.615-4.076a.469.469,0,0,0-.4-.221l-2.125-7.039-.078-.27-.141-.486a15.687,15.687,0,0,0-2.035-4.916,5.487,5.487,0,0,0-2.07-1.808.542.542,0,0,0,.023-.144,8.269,8.269,0,0,0-2.24-6.241c0-.006,0-.011,0-.017l.006-.014,0-.01a.176.176,0,0,1,.01-.032,20.547,20.547,0,0,0-.021-10.033,19.294,19.294,0,0,0-.809-2.462,2.6,2.6,0,0,0,2.307-2.2,6.923,6.923,0,0,0-.715-3.4l-.029-.075c-.115-.3-.225-.59-.318-.871a21.467,21.467,0,0,1-.754-6.926c0-.715,0-1.454-.021-2.173a17.75,17.75,0,0,0-.662-4.532,5.536,5.536,0,0,0-2.164-3.206,2.93,2.93,0,0,0-1.551-.514h-.217a2.913,2.913,0,0,0-1.682.609,6.22,6.22,0,0,0-1.881,3.112,46.266,46.266,0,0,0-1.912,9.708l-.018.167c-.008.079-.016.158-.02.234l-.02,0h-.006a.448.448,0,0,0-.109-.016c-.7-.043-1.4-.065-2.105-.065a34.643,34.643,0,0,0-7.021.723,12.837,12.837,0,0,1-2.441-5.609l-.014-.05c-.217-.838-.439-1.7-.729-2.512a8.7,8.7,0,0,0-2.33-3.774,5.275,5.275,0,0,0-3.537-1.5c-.076,0-.156,0-.238.006a4.594,4.594,0,0,0-3.449,1.993,8.066,8.066,0,0,0-1.33,4.248,35.428,35.428,0,0,0,.129,3.8l0,.026c.025.393.057.853.082,1.295l.342,5.33.166,2.638c.008.121.012.246.016.367v.008a6.15,6.15,0,0,0,.27,1.9,2.769,2.769,0,0,0,1.5,1.5c.139.065.27.122.385.172a2.02,2.02,0,0,1,1.129.834.515.515,0,0,1,.037.568.444.444,0,0,0-.057.343.486.486,0,0,0,.236.293,30.927,30.927,0,0,0,3.311,17.131.551.551,0,0,0-.342.352.609.609,0,0,0,.057.536,8.956,8.956,0,0,0-.455,2.683.6.6,0,0,0-.189.108,12.06,12.06,0,0,0-3.732,6.051,31.467,31.467,0,0,0-1.064,7.4c-.1,2.007-.146,4.047-.2,6.02l0,.215c-.025,1.026-.053,2.122-.086,3.189l-.3,10.033-.3,9.993-.031,1.024a.452.452,0,0,0-.436-.4.521.521,0,0,0-.143.021,6.813,6.813,0,0,0-2.957,1.781,4.911,4.911,0,0,0-1.557,3v.374a2.113,2.113,0,0,0,.514,1.2,2.532,2.532,0,0,0,1.611.681c.475.062,1.084.074,1.674.085l.432.009,2.178.095,5.027.207h.021a.405.405,0,0,0,.406-.291.519.519,0,0,0-.166-.571,63.6,63.6,0,0,0,4.1-7.972,26.4,26.4,0,0,0,1.7-6.962l.023.2c.16,1.377.328,2.8.584,4.184a11.643,11.643,0,0,0,2.031,4.969,24.533,24.533,0,0,0,1.768,2.083c.578.62,1.146,1.222,1.764,1.781a7,7,0,0,0,4.32,2.088,48.264,48.264,0,0,0,6.98,1.29.491.491,0,0,0,.3-.1Zm2.209-.019c-.141,0-.268,0-.383-.008h-.021a1.456,1.456,0,0,1-.812-.248,1.72,1.72,0,0,1-.437-1.348c0-.469.094-1.476.172-2.2l.514-5.614a.462.462,0,0,0-.186-.374,96.7,96.7,0,0,0-.973-14.515c-.2-1.409-.439-2.83-.705-4.225a.474.474,0,0,0-.455-.343.489.489,0,0,0-.131.019.493.493,0,0,0-.32.586,94.456,94.456,0,0,1,1.609,14.831c.041,1.526.055,2.9.037,4.194a.442.442,0,0,0,.131.32l-.451,4.969a23.375,23.375,0,0,0-.189,2.39,3.74,3.74,0,0,0,.066.735,46.577,46.577,0,0,1-5.986-1.069.481.481,0,0,0-.416-.234c-.113.01-.23.015-.35.015l-.115,0c-.488-.131-.982-.273-1.506-.433a.478.478,0,0,0-.139-.022.387.387,0,0,0-.1.013,7.746,7.746,0,0,1-1.732-1.15,20.555,20.555,0,0,1-1.689-1.646c-.572-.612-1.176-1.27-1.705-1.934a10.332,10.332,0,0,1-1.33-2.182,12.54,12.54,0,0,1-.74-2.444c-.273-1.294-.43-2.635-.58-3.931l-.006-.039c-.051-.452-.109-.964-.172-1.454l-.852-6.543a.493.493,0,0,0-.473-.474.475.475,0,0,0-.254.068.474.474,0,0,0-.3.442,34.4,34.4,0,0,1-.187,9.181,29.071,29.071,0,0,1-3.02,8.324c-.766,1.5-1.609,2.952-2.426,4.36a.439.439,0,0,0-.053.334l-7.477-.316c-.1,0-.211-.006-.332-.008-.8-.014-1.893-.032-2.061-.974a2.907,2.907,0,0,1,.99-2.445l.018-.022a5.862,5.862,0,0,1,2.809-1.781.429.429,0,0,0,.32-.325.439.439,0,0,0,.115.32.482.482,0,0,0,.346.136.462.462,0,0,0,.486-.457l.289-9.88.283-9.88.053-1.818q.026-.867.049-1.733l0-.063c.059-2,.119-4.058.182-6.093a37.346,37.346,0,0,1,.775-7.264,12.17,12.17,0,0,1,3.146-6.124l.668-.609a.515.515,0,0,0,.131-.28.437.437,0,0,0,.342-.442l-.021-.018c0-.188.014-.391.035-.658a34.725,34.725,0,0,0,11.139,1.93l.361,0a35.767,35.767,0,0,0,5.059-.358,1.992,1.992,0,0,0,.627.676,2.255,2.255,0,0,0,1.318.4,2.575,2.575,0,0,0,1.148-.269,2.006,2.006,0,0,0,.906-.87,2.2,2.2,0,0,0,.23-.807c.514-.134,1.016-.28,1.537-.446a34.637,34.637,0,0,0,5.875-2.485.534.534,0,0,0,.189-.153,7.36,7.36,0,0,1,2.26,3.436c.27.732.5,1.488.719,2.219l.023.082.063.2c.047.157.094.315.143.471l1.1,3.661,1.23,4.076a.452.452,0,0,0,.451.335.584.584,0,0,0,.131-.015,63.882,63.882,0,0,0,4.482,6.543,27,27,0,0,0,2.828,3.035,19.192,19.192,0,0,0,1.627,1.348c.207.148.422.294.631.435l.025.018.008,0c.338.228.686.464,1.01.715a3.791,3.791,0,0,1,1.324,1.745,9.516,9.516,0,0,1,.42,2.259.493.493,0,0,0,.473.473.453.453,0,0,0,.154-.027,15.613,15.613,0,0,1,3.811,5.961,64.215,64.215,0,0,1,2.025,6.607l0,.013.084.306c.133.5.27,1.009.408,1.51l1.35,4.933c.021.081.047.162.072.248l.027.094a3.063,3.063,0,0,1,.18,1.858,1.152,1.152,0,0,1-.912.84c-.051.016-.1.031-.148.048a9.055,9.055,0,0,1-1.893.361l-2.525.307-2.48.284a6.53,6.53,0,0,1-.795.049,6.439,6.439,0,0,1-1.068-.089,2.107,2.107,0,0,1-1.4-.852,2.184,2.184,0,0,1-.248-1.538,4.675,4.675,0,0,1,2.373-2.863l.893-.528a.452.452,0,0,0,.166-.631l.012-.007.012-.007.072-.095a.467.467,0,0,0,.059-.216.47.47,0,0,0,.207-.392,22.423,22.423,0,0,0-2.178-7.242.4.4,0,0,0-.363-.245.53.53,0,0,0-.434.249.472.472,0,0,0-.02.469,21.1,21.1,0,0,1,2.016,6.543.337.337,0,0,0-.045.036l-.072.095a.449.449,0,0,0-.059.248v.189a.5.5,0,0,0,.063.239,7.8,7.8,0,0,0-3.229,2.85,4.156,4.156,0,0,0-.4,1.154.435.435,0,0,0-.322-.131h-6.746a18.5,18.5,0,0,1-3.535-7.206l-.131-13.672c-.014-1.31-.027-2.591-.035-3.869a.446.446,0,0,0-.477-.453.446.446,0,0,0-.477.453l.137,13.767.035,3.869a.478.478,0,0,0,.059.234,19.532,19.532,0,0,0,3.941,7.769.452.452,0,0,0,.324.135,1.5,1.5,0,0,1-.568,1.19,3.2,3.2,0,0,1-1.727.663c-.461.044-1.1.055-1.725.065l-.588.011-2.484.059-2.445.059c-.127,0-.256,0-.385,0h-.02C17894.514-1162.077,17894.391-1162.075,17894.266-1162.075Zm-6.66-50.814h-.4a.131.131,0,0,0-.062-.018c-.014,0-.021,0-.021.009s0,0,.006.006l-.205-.051-.051-.023h.033a.553.553,0,0,0,.156-.024,1.048,1.048,0,0,0,.316.045l.355-.041a1.291,1.291,0,0,0,.455-.226l-.049.05-.02.019-.008.009,0,0c-.006,0-.006,0-.006,0s0,.007,0,.009l-.176.095-.055.036h.055l-.113.041-.207.054Zm-7.355-.769a34.557,34.557,0,0,1-5.162-.389,33.785,33.785,0,0,1-6.047-1.5.655.655,0,0,0-.1-.017,5.228,5.228,0,0,1,.17-.6,39.181,39.181,0,0,0,10.307,1.38h.051a40.61,40.61,0,0,0,5.957-.455,2.847,2.847,0,0,0-.289.645,2.563,2.563,0,0,0-.1.6A34.445,34.445,0,0,1,17880.25-1213.658Zm9.119-1.224h0a2.56,2.56,0,0,0-.727-.982c.547-.126,1.119-.274,1.75-.455a39.3,39.3,0,0,0,5.668-2.11l-.006.135c0,.023,0,.045,0,.068s0,.045,0,.068a.478.478,0,0,0,.031.18.571.571,0,0,0-.053.122.5.5,0,0,0,.045.356,33.659,33.659,0,0,1-6.7,2.62Zm-9.982-1.026a38.64,38.64,0,0,1-4.654-.282,37.3,37.3,0,0,1-5.2-1.019.967.967,0,0,0,.055-.1l.018-.035a.492.492,0,0,0-.172-.645.474.474,0,0,0-.17-.059,30.007,30.007,0,0,1-3.09-16.594.465.465,0,0,0-.186-.37,1.72,1.72,0,0,0-.424-1.56,3.386,3.386,0,0,0-1.33-.872l-.072-.033c-.088-.04-.178-.081-.266-.123a2.368,2.368,0,0,1-.758-.492,1.657,1.657,0,0,1-.359-.834,10.151,10.151,0,0,1-.15-1.577l-.006-.162c-.01-.19-.018-.387-.033-.575-.088-1.454-.186-2.951-.262-4.093l-.021-.346c-.125-1.93-.256-3.925-.363-5.879a11.038,11.038,0,0,1,.475-4.59,4.454,4.454,0,0,1,2.391-2.557,2.962,2.962,0,0,1,1.072-.185,4.483,4.483,0,0,1,2.471.807,7.258,7.258,0,0,1,2.395,3.224,27.584,27.584,0,0,1,.951,3.105l.008.036a16,16,0,0,0,1.994,5.129,9.165,9.165,0,0,0,.686.852.531.531,0,0,0,.1.086.453.453,0,0,0,.4.233.54.54,0,0,0,.111-.012,33.548,33.548,0,0,1,7.063-.752c.7,0,1.412.022,2.113.067h.086a.476.476,0,0,0,.465.361.473.473,0,0,0,.473-.473l-.035.018a48.425,48.425,0,0,1,1.533-9.14l.066-.238a10.488,10.488,0,0,1,1.24-3.157,2.221,2.221,0,0,1,1.822-1.2,2.191,2.191,0,0,1,.627.1,4.093,4.093,0,0,1,2.16,2.3,13.925,13.925,0,0,1,.8,3.946c.072,1.084.076,2.193.08,3.172v.005a30.94,30.94,0,0,0,.355,5.472,11.994,11.994,0,0,0,.568,2.047c.088.24.188.481.281.715l.014.035,0,.007c.164.4.332.812.459,1.232a2.791,2.791,0,0,1,.1,1.786,1.876,1.876,0,0,1-.854,1.118.962.962,0,0,1-.461.119.937.937,0,0,1-.107-.006.49.49,0,0,0-.121-.015.493.493,0,0,0-.469.34.165.165,0,0,1-.01.041.47.47,0,0,0-.311.582h-.018a19.747,19.747,0,0,1,1.42,9.542,18.224,18.224,0,0,1-.473,2.692.022.022,0,0,1-.006.009.494.494,0,0,0-.2.357.414.414,0,0,0,.15.333v.023a7.374,7.374,0,0,1,2.209,4.423l-.049,0a.642.642,0,0,0-.285.07,38.085,38.085,0,0,1-10.254,3.129A39.2,39.2,0,0,1,17879.387-1215.908Z" transform="translate(-17805 1297)" fill="#fff" stroke="#b064e8" stroke-width="1"/>
  </g>
</svg>
