<svg xmlns="http://www.w3.org/2000/svg" xmlns:xlink="http://www.w3.org/1999/xlink" width="171.998" height="172.003" viewBox="0 0 171.998 172.003">
  <defs>
    <filter id="Rectangle_325" x="12.84" y="38.577" width="146.315" height="94.849" filterUnits="userSpaceOnUse">
      <feOffset input="SourceAlpha"/>
      <feGaussianBlur stdDeviation="3" result="blur"/>
      <feFlood flood-opacity="0.161"/>
      <feComposite operator="in" in2="blur"/>
      <feComposite in="SourceGraphic"/>
    </filter>
    <filter id="Subtraction_21" x="0" y="0" width="171.998" height="172.003" filterUnits="userSpaceOnUse">
      <feOffset input="SourceAlpha"/>
      <feGaussianBlur stdDeviation="3" result="blur-2"/>
      <feFlood flood-opacity="0.161"/>
      <feComposite operator="in" in2="blur-2"/>
      <feComposite in="SourceGraphic"/>
    </filter>
  </defs>
  <g transform="matrix(1, 0, 0, 1, 0, 0)" filter="url(#Subtraction_21)">
    <path id="Subtraction_21-2" data-name="Subtraction 21" d="M17891-152.5a76.016,76.016,0,0,1-29.777-6.012,76.385,76.385,0,0,1-12.994-7.054,76.919,76.919,0,0,1-11.322-9.342,77.054,77.054,0,0,1-9.342-11.322,76.421,76.421,0,0,1-7.053-13A76.034,76.034,0,0,1,17814.5-229a76.022,76.022,0,0,1,6.012-29.776,76.42,76.42,0,0,1,7.053-12.995,77.064,77.064,0,0,1,9.342-11.322,76.916,76.916,0,0,1,11.322-9.342,76.4,76.4,0,0,1,12.994-7.053A76.017,76.017,0,0,1,17891-305.5a76.015,76.015,0,0,1,29.775,6.012,76.465,76.465,0,0,1,12.994,7.053,76.961,76.961,0,0,1,11.32,9.342,76.8,76.8,0,0,1,9.342,11.322,76.147,76.147,0,0,1,7.053,12.995A75.979,75.979,0,0,1,17967.5-229a75.99,75.99,0,0,1-6.014,29.779,76.153,76.153,0,0,1-7.053,13,76.816,76.816,0,0,1-9.342,11.322,76.971,76.971,0,0,1-11.32,9.342,76.451,76.451,0,0,1-12.994,7.054A76.014,76.014,0,0,1,17891-152.5Zm-46.834-62.368a.738.738,0,0,0-.672.438,95.484,95.484,0,0,0-5.434,12.91.741.741,0,0,0,.189.8l.18,1.245a.877.877,0,0,0,.4.519.881.881,0,0,0,.365.108.938.938,0,0,0,.23.027h.369v.086l.342,6.827a.866.866,0,0,0,.9.821.842.842,0,0,0,.609-.241.766.766,0,0,0,.193-.58l-.342-6.827a.393.393,0,0,0,0-.048.124.124,0,0,0,0-.027l0-.015,1.967-.009a.845.845,0,0,0,0,.356,21.836,21.836,0,0,1,.369,6.2.72.72,0,0,0,.178.564.836.836,0,0,0,.615.244.876.876,0,0,0,.916-.808,23.5,23.5,0,0,0-.41-6.561l71.193-.266,11.178-.045a.81.81,0,0,0,0,.216l.625,5.461a.9.9,0,0,0,.938.808.816.816,0,0,0,.607-.244.711.711,0,0,0,.16-.564l-.627-5.461a.65.65,0,0,0-.049-.221l1.813-.009v.059l.145,5.461a.837.837,0,0,0,.877.832.869.869,0,0,0,.621-.245.793.793,0,0,0,.211-.587l-.145-5.461a.342.342,0,0,0,0-.063l3.666-.014a.851.851,0,0,0,.459.135.868.868,0,0,0,.469-.14l.9,0a.808.808,0,0,0,.832-.852.808.808,0,0,0-.832-.852h-.51a.875.875,0,0,0-.311-.631.791.791,0,0,0-.119-.564,123.222,123.222,0,0,1-6.609-12.107.94.94,0,0,0-.17-.772.8.8,0,0,0-.643-.288l-41.291-.144a.8.8,0,0,0-.7.374,90.476,90.476,0,0,0-.662-10.579.869.869,0,0,0-.217-.487.828.828,0,0,0-.748-.541c-.369-.021-.744-.031-1.113-.031-.277,0-.559.006-.836.017a8.665,8.665,0,0,1,.875-3.769,8.655,8.655,0,0,1,2.426-3.008,3.323,3.323,0,0,0,2.744,1.4,3.229,3.229,0,0,0,2.559-1.217,4.631,4.631,0,0,0,.992.112,3.307,3.307,0,0,0,2.5-1.064,2.661,2.661,0,0,0,.676-2.214,2.46,2.46,0,0,0-.213-.708,3.024,3.024,0,0,0,1.5-2.48,3.024,3.024,0,0,0-1.475-2.656,3.125,3.125,0,0,0,.289-1.222,3.122,3.122,0,0,0-1.146-2.494,3.889,3.889,0,0,0-2.557-.9,6.689,6.689,0,0,0-3.111.886.873.873,0,0,0-.361-.212,3.175,3.175,0,0,0-1.234-.256,3.258,3.258,0,0,0-3.143,3.029,2.721,2.721,0,0,0-2.391,1.52,2.708,2.708,0,0,0,1.141,3.193,2.961,2.961,0,0,0,.027,2.692,3.066,3.066,0,0,0,1.922,1.443,10.344,10.344,0,0,0-3.693,8.076c-.547.07-1.107.169-1.67.293a.758.758,0,0,0-.508.334.85.85,0,0,0-.078.654.787.787,0,0,0-.014.207l.41,10.006a.791.791,0,0,0-.549-.194l-35.461.171a.826.826,0,0,0-.51.158Zm84.672-15.066a4.478,4.478,0,0,1,3.182,1,16.368,16.368,0,0,1,2.875,3.984l.063.106c.23.4.447.772.676,1.14a43.285,43.285,0,0,1,3.043,5.686c.477,1.148.848,2.344,1.205,3.5l0,.015.006.014c.234.757.477,1.539.746,2.3,1,2.749,2.691,5.17,7.68,8.049a.813.813,0,0,0,.428.126.891.891,0,0,0,.811-.677.792.792,0,0,0-.387-.928,21.65,21.65,0,0,1-4.607-3.242,11.656,11.656,0,0,1-2.643-4.92,45.915,45.915,0,0,0-4.266-9.9c-.92-1.521-1.916-3.07-2.959-4.6-1.082-1.593-1.748-2.348-3.07-2.9a6.511,6.511,0,0,0-2.529-.44,16.568,16.568,0,0,0-1.881.128l-3.039.343-1.51.171a4.8,4.8,0,0,1-.518.024c-.35,0-.955-.034-1.082-.259a.237.237,0,0,1,.029-.253,28.36,28.36,0,0,0,6.006-2.047c.639-.318,2.676-1.5,2.021-3.355a2.736,2.736,0,0,0-2.779-1.7,5.015,5.015,0,0,0-.721.053,24.31,24.31,0,0,0-2.844.642l-.014,0a16.735,16.735,0,0,1-4.168.748c-1.24,0-3.633-.333-4.744-1.583.037,0,.074,0,.1,0a2.158,2.158,0,0,0,1.039-.268.367.367,0,0,0,.2-.434.455.455,0,0,0-.422-.355.429.429,0,0,0-.2.053,1.389,1.389,0,0,1-.633.154,1.373,1.373,0,0,1-.193-.014.419.419,0,0,0-.32.144,2.143,2.143,0,0,1-.135-.771c0-2.012,2.555-2.232,4.244-2.377.354-.03.654-.056.9-.094a8.311,8.311,0,0,0,4.609-2.647c.248-.281.5-.6.748-.913,1.082-1.369,2.428-3.069,4.389-3.069h.039a.807.807,0,0,0,.824-.7,9.105,9.105,0,0,1,3.795-.822,9.133,9.133,0,0,1,5.383,1.742,96.68,96.68,0,0,0,15.191,12.1.836.836,0,0,0,.445.138.88.88,0,0,0,.811-.779l0-.248a.85.85,0,0,0-.4-.591v.027a93.732,93.732,0,0,1-14.4-11.4.793.793,0,0,0-.248-.289l-.117-.09-.117-.09c-.035-.036-.072-.072-.109-.108l-.057-.054-.055-.054a.819.819,0,0,0-.424-.23,10.931,10.931,0,0,0-5.934-1.745,10.976,10.976,0,0,0-5.047,1.236.768.768,0,0,0-.293.253c-2.041.294-3.3,1.805-4.52,3.267-1.107,1.327-2.25,2.7-3.977,3.19a13.072,13.072,0,0,1-2.121.368,7.774,7.774,0,0,0-3.451.971,3.474,3.474,0,0,0-1.736,3.58,4.477,4.477,0,0,0,2.652,3.247,10.318,10.318,0,0,0,4.4.892,12.264,12.264,0,0,0,1.564-.1c.246-.038.525-.08.8-.131a9.413,9.413,0,0,0-3,3.415,5.116,5.116,0,0,0-.02,4.449.341.341,0,0,0,.316.21.506.506,0,0,0,.455-.322l.92-2.2a2.168,2.168,0,0,0,.924.69,3.9,3.9,0,0,0,1.381.19,23.537,23.537,0,0,0,2.865-.259c.355-.047.725-.095,1.049-.13.2-.021.416-.049.627-.076A17.537,17.537,0,0,1,17928.84-229.932Zm-75.965-8.089a6.3,6.3,0,0,0-2.412.415,7.1,7.1,0,0,0-3.156,2.958c-.4.594-1.8,2.682-2.959,4.608a43.492,43.492,0,0,0-4.207,9.668,12.569,12.569,0,0,1-2.561,4.974,18.922,18.922,0,0,1-4.566,3.292l-.209.122a.771.771,0,0,0-.379.907.9.9,0,0,0,.82.689.819.819,0,0,0,.41-.117c3.563-2.066,6.217-4.191,7.59-7.846.318-.839.582-1.708.838-2.548l.014-.039.008-.026c.311-1.02.633-2.074,1.049-3.077a41.278,41.278,0,0,1,3.188-6c.221-.351.432-.706.656-1.083l.078-.128,0-.005a20.506,20.506,0,0,1,2.73-3.874,4.614,4.614,0,0,1,3.479-1.1c.777,0,1.563.076,2.322.149l.17.016c.594.057,1.166.153,1.723.245h.008a13.9,13.9,0,0,0,2.24.256,4.15,4.15,0,0,0,1.576-.277,2.262,2.262,0,0,0,.869-.631l.92,2.2a.539.539,0,0,0,.467.315.319.319,0,0,0,.3-.2,5.085,5.085,0,0,0-.053-4.507,9.734,9.734,0,0,0-3.109-3.452c.381.068.709.123,1,.167a11.915,11.915,0,0,0,1.639.11,10.073,10.073,0,0,0,4.359-.9,4.472,4.472,0,0,0,2.617-3.248,3.472,3.472,0,0,0-1.562-3.472,7.4,7.4,0,0,0-3.586-1.069,13.275,13.275,0,0,1-2.154-.379c-1.729-.494-2.869-1.862-3.971-3.186l-.006-.007-.006-.005c-1.27-1.525-2.586-3.1-4.793-3.3a12.215,12.215,0,0,1-2.291-8.437.721.721,0,0,0-.164-.566.826.826,0,0,0-.611-.24,1.036,1.036,0,0,0-.816.377l-.834,1.141c-.113-.386-.24-.777-.387-1.195a.86.86,0,0,0-.809-.6h-.062a1.228,1.228,0,0,0-.186.023.964.964,0,0,0-.17-.016.752.752,0,0,0-.766.62,27.048,27.048,0,0,1-1.934,4.96l-.012.022-.014.032a36.341,36.341,0,0,0-1.736,4.171l-.062,0a.775.775,0,0,0-.564.26,94.612,94.612,0,0,1-15.1,12.058.84.84,0,0,0-.35.97.853.853,0,0,0,.771.647.783.783,0,0,0,.432-.139,96.843,96.843,0,0,0,14.33-11.269,7.289,7.289,0,0,0,1.285,5.01.854.854,0,0,0,.719.39.95.95,0,0,0,.828-.477.718.718,0,0,0-.072-.765,6.363,6.363,0,0,1-.982-4.9,20.1,20.1,0,0,1,1.844-5.07c-.334,1.807-.727,3.917-1.113,6.105l-.029.153a2.785,2.785,0,0,0,.313,2.58,1.687,1.687,0,0,0,1.264.544,2.7,2.7,0,0,0,1.152-.291c1.994-1.022,2.354-3.636,2.445-5.8.006-.184.01-.362.014-.541a5.79,5.79,0,0,1,1.754.46c.18.282.342.515.51.735a1.016,1.016,0,0,0,.145.158.784.784,0,0,0,.793.582l-.027.027c1.934,0,3.2,1.571,4.324,2.958l.072.087c.219.269.424.522.637.765a7.4,7.4,0,0,0,4.748,2.818c.232.035.518.063.818.093,1.715.171,4.3.43,4.326,2.378a1.954,1.954,0,0,1-.145.789.412.412,0,0,0-.279-.1,1.378,1.378,0,0,1-.193.014,1.344,1.344,0,0,1-.631-.158.429.429,0,0,0-.2-.053.451.451,0,0,0-.424.355.37.37,0,0,0,.2.438,2.173,2.173,0,0,0,1.02.266c-1.117,1.122-3.4,1.529-4.658,1.529a17.278,17.278,0,0,1-4.242-.76l-.01,0a26.489,26.489,0,0,0-2.773-.635,4.567,4.567,0,0,0-.658-.048,2.749,2.749,0,0,0-2.836,1.7c-.48,1.446.639,2.639,1.848,3.274a24.44,24.44,0,0,0,6.205,2.128.276.276,0,0,1,.039.287c-.113.2-.578.243-.947.243a4.562,4.562,0,0,1-.66-.043l-1.512-.171-2.787-.316A19.845,19.845,0,0,0,17852.875-238.021Zm84.563-.184v0c-.07.5-.166,1.01-.3,1.566a.834.834,0,0,0,.16.719.985.985,0,0,0,.746.349.73.73,0,0,0,.746-.613l0-.032a17.458,17.458,0,0,0-.285-9.3c-.969-2.992-2.514-4.657-4.721-5.091a4.49,4.49,0,0,0-.84-.074,3.838,3.838,0,0,0-3.1,1.24,1.813,1.813,0,0,0-.041,1.792,16.762,16.762,0,0,0,1.924,3.057c.363.493.688.938.98,1.38l3.3,4.947a.821.821,0,0,0,.7.389.99.99,0,0,0,.729-.333Zm-12.609-7.259a.442.442,0,0,0-.1.012.433.433,0,0,0-.271.2,1.669,1.669,0,0,0-.281.756.707.707,0,0,0,.313.692,1.211,1.211,0,0,0,.6.158,1.241,1.241,0,0,0,.311-.041l1.227-.144a.443.443,0,0,0,.389-.332.435.435,0,0,0-.127-.457.463.463,0,0,0-.113-.342.391.391,0,0,0-.293-.118l.059.027-.006,0h-.119a2.824,2.824,0,0,1-1.354-.345A.412.412,0,0,0,17924.828-245.464Zm-69.418-5.877a.384.384,0,0,0-.307.136.469.469,0,0,0-.088.382.478.478,0,0,0-.02.454.433.433,0,0,0,.359.249l1.137.144c.055,0,.107.011.16.017h.012a2.745,2.745,0,0,0,.3.023.754.754,0,0,0,.492-.153,1.332,1.332,0,0,0,.031-1.452.425.425,0,0,0-.27-.2.418.418,0,0,0-.1-.011.456.456,0,0,0-.232.065,2.836,2.836,0,0,1-1.354.345l-.125,0ZM17840-200.522h0l-.113-.77a.644.644,0,0,0-.066-.162,93.433,93.433,0,0,1,5.027-11.864l35.309-.171a.812.812,0,0,0,.6-.243l.186,4.586a.815.815,0,0,0-.059.621.733.733,0,0,0,.406.411h-.027a6.962,6.962,0,0,0,3.018.691,6.97,6.97,0,0,0,3.553-.975.783.783,0,0,0,.4-.751.935.935,0,0,0-.545-.787c.068-1.289.109-2.677.121-4.126a.783.783,0,0,0,.7.374l40.525.14h.014a121.882,121.882,0,0,0,6.7,12.315.955.955,0,0,0,.207.243c0,.013,0,.025,0,.036v.018a.446.446,0,0,1,0,.049v.005l-74.674.275Zm44.295-8.6a5.166,5.166,0,0,1-1.656-.272l-.623-15.286a17.053,17.053,0,0,1,3.066-.275l.213,0,.225,0a90.486,90.486,0,0,1,.434,15.53v.027A5.186,5.186,0,0,1,17884.293-209.124Zm34.156-20.135,0,0c-.691-3.222,2.686-5.684,4.76-6.865a.423.423,0,0,0,.1-.081c.025,0,.047-.011.07-.017l.057-.015c.227-.057.461-.125.688-.19l.045-.013a11.409,11.409,0,0,1,1.373-.338c.051-.009.109-.018.172-.027a10.56,10.56,0,0,1-4.062,3.436c-.424.113-.877.223-1.426.347a.725.725,0,0,0-.617.658,1.732,1.732,0,0,0-.275,1.29.44.44,0,0,0-.217.239l-.662,1.575Zm-28.227-4.463a1.589,1.589,0,0,1-1.508-1.192.763.763,0,0,0,.309-.9.883.883,0,0,0-.809-.658.839.839,0,0,0-.416.117l-.025.027a1.437,1.437,0,0,1-.744.2,1.341,1.341,0,0,1-1.25-.742,1.223,1.223,0,0,1-.008-.984,1.626,1.626,0,0,1,.893-.892.623.623,0,0,0,.3-.742.924.924,0,0,0-.826-.809.828.828,0,0,0-.326.072,2.856,2.856,0,0,0-.324.171,1.158,1.158,0,0,1-.707-.583.806.806,0,0,1-.023-.671,1,1,0,0,1,.879-.522,1,1,0,0,1,.434.1.862.862,0,0,0,.4.106.882.882,0,0,0,.75-.468.815.815,0,0,0,.021-.824l-.008-.05,0-.045,0,.027a1.39,1.39,0,0,1,.289-1.165,1.642,1.642,0,0,1,1.248-.54,1.853,1.853,0,0,1,.709.141l.02.007.021.007a.806.806,0,0,0,.7.468.783.783,0,0,0,.432-.139,5.136,5.136,0,0,1,2.654-1,2.671,2.671,0,0,1,.674.085,2.141,2.141,0,0,1,1.473,1.283,1.058,1.058,0,0,1-.2,1.044h-.039a.649.649,0,0,0-.477.19.82.82,0,0,0-.205.591.8.8,0,0,0,.063.762.85.85,0,0,0,.7.381.853.853,0,0,0,.453-.133,1.289,1.289,0,0,1,.787,1.285,1.435,1.435,0,0,1-.984,1.326.81.81,0,0,0-.264-.045.809.809,0,0,0-.576.253.941.941,0,0,0-.352,1.038.725.725,0,0,0,.73.532h.055a.805.805,0,0,1,.193.694,1.28,1.28,0,0,1-.621.87,1.776,1.776,0,0,1-.9.216,3.052,3.052,0,0,1-.8-.113.913.913,0,0,0-.59-.235h-.031c-.064-.031-.119-.062-.182-.1a.6.6,0,0,0-.3-.081,1.028,1.028,0,0,0-.844.6.7.7,0,0,0,.047.76A1.577,1.577,0,0,1,17890.223-233.722Zm.059-6.36a.837.837,0,0,0-.43.118l-.6.4a.9.9,0,0,0-.4.51.845.845,0,0,0,.3.906.869.869,0,0,0,.523.18.859.859,0,0,0,.428-.117l.6-.4a.891.891,0,0,0,.4-.514.859.859,0,0,0-.3-.906A.856.856,0,0,0,17890.281-240.082Zm34.219,5.839v0a11.36,11.36,0,0,0,2.088-2.337.376.376,0,0,0,.076-.262c.436.036.7.158.8.361s.014.5-.248.87C17926.768-234.942,17925.457-234.538,17924.5-234.243Zm-61.006-1.333v0l-.662-1.571a.424.424,0,0,0-.176-.216,1.709,1.709,0,0,0-.293-1.411.747.747,0,0,0-.613-.645c-.6-.136-1.059-.248-1.488-.361a10.621,10.621,0,0,1-4.008-3.445c.061.014.119.031.18.05a13.409,13.409,0,0,1,1.361.344l.1.028c.129.037.258.074.389.11l.23.064.014,0a.4.4,0,0,0,.186.216l.027-.027a13.041,13.041,0,0,1,3.547,2.8,4.662,4.662,0,0,1,1.211,4.056Zm74.033-3.459v0a.073.073,0,0,1-.01-.015l-.012-.02-.023-.038-4.066-6.115c-.105-.157-.268-.366-.467-.624-.641-.822-1.516-1.946-1.385-2.532.074-.324.514-.51,1.211-.51a4.179,4.179,0,0,1,1.75.365c1.623.914,2.289,2.986,2.729,4.893a16.052,16.052,0,0,1,.275,4.6Zm-80.061-1.606c-.926-.274-2.324-.689-2.711-1.369l.059-1.082a2.288,2.288,0,0,1,.531-.162.374.374,0,0,0,.064.3,11.467,11.467,0,0,0,2.057,2.31Zm-10.1-12.389a.3.3,0,0,1-.248-.107c-.172-.218-.045-.733.031-1.04v-.006l.014-.052c.014-.059.027-.111.035-.149l.535-2.926.828-4.568c.117.671.2,1.308.254,1.894a13.5,13.5,0,0,1-.4,5.772l-.047.121-.006.011c-.125.319-.334.852-.6.95A1.063,1.063,0,0,1,17847.363-253.031Zm4.33-5.291h0a6.685,6.685,0,0,0-1.107-.189,25.523,25.523,0,0,0-.508-4.518,1.01,1.01,0,0,0,.162-.171h-.031l.035-.045a13.5,13.5,0,0,0,1.449,4.922Z" transform="translate(-17805 315)" fill="#fff" stroke="#78c6f7" stroke-width="1"/>
  </g>
</svg>
