<svg xmlns="http://www.w3.org/2000/svg" xmlns:xlink="http://www.w3.org/1999/xlink" width="172" height="172" viewBox="0 0 172 172">
  <defs>
    <filter id="Subtraction_32" x="0" y="0" width="172" height="172" filterUnits="userSpaceOnUse">
      <feOffset input="SourceAlpha"/>
      <feGaussianBlur stdDeviation="3" result="blur"/>
      <feFlood flood-opacity="0.161"/>
      <feComposite operator="in" in2="blur"/>
      <feComposite in="SourceGraphic"/>
    </filter>
  </defs>
  <g transform="matrix(1, 0, 0, 1, 0, 0)" filter="url(#Subtraction_32)">
    <path id="Subtraction_32-2" data-name="Subtraction 32" d="M76.5,153a76.143,76.143,0,0,1-42.772-13.065A76.724,76.724,0,0,1,6.012,106.277a76.4,76.4,0,0,1,7.053-72.549A76.724,76.724,0,0,1,46.723,6.012a76.4,76.4,0,0,1,72.549,7.053,76.724,76.724,0,0,1,27.716,33.658,76.4,76.4,0,0,1-7.053,72.549,76.724,76.724,0,0,1-33.658,27.716A76.02,76.02,0,0,1,76.5,153Zm6.948-16.357v0c.017.314.034.59.053.843a3.489,3.489,0,0,0,.524,1.831,3.284,3.284,0,0,0,1.463,1.071,9.972,9.972,0,0,0,3.929.684c1.076,0,2.168-.1,3.223-.2l.338-.032a22.442,22.442,0,0,1,2.614-.153c.4,0,.809.011,1.21.033.17.013.336.025.5.025a1.278,1.278,0,0,0,1.213-.585,2.235,2.235,0,0,0,.138-1.516,5.6,5.6,0,0,0-1.426-2.4l-.1-.121a7.91,7.91,0,0,1-.787-1.062,2.042,2.042,0,0,1-.289-.682,8.1,8.1,0,0,1,3.022-.765h.056a7.838,7.838,0,0,1,3.021.841l.281.123.008,0a10.361,10.361,0,0,0,3.787,1.1,2.32,2.32,0,0,0,2.117-1.1,2.416,2.416,0,0,0-.32-2.955.721.721,0,0,0-.265-.164,5.334,5.334,0,0,0-3.125-2.479,8.835,8.835,0,0,0-2.861-.4c-.262,0-.54.007-.849.02a13.044,13.044,0,0,0,.552-4.3c.009-.5.018-1.025.047-1.532.151-2.683,1.526-5.064,2.739-7.165a.637.637,0,0,0,.047-.595,5.714,5.714,0,0,0-.339-3.652q-.053-.169-.106-.336a26.564,26.564,0,0,1-.77-3.808,7.539,7.539,0,0,1,.783.257c.039.018.076.033.113.045a.148.148,0,0,1-.025-.006l-.013,0,.009,0a.664.664,0,0,1,.11.042c.083.038.194.09.309.148a.7.7,0,0,0,1.01-.851c.014-1.529-1.137-2.623-2.266-3.491q-.214-.165-.428-.327c-.47-.357-.957-.727-1.41-1.128-.426-.379-.836-.778-1.22-1.187a.584.584,0,0,0-.2-.571,4.327,4.327,0,0,1-.406-.353l-.185-.2L99.2,99.5c-.023-.026-.046-.054-.05-.06a4.455,4.455,0,0,1-.269-.413c-.038-.065-.075-.134-.11-.2l-.018-.035a.849.849,0,0,1-.038-.077.356.356,0,0,0-.016-.033.526.526,0,0,1-.022-.049,5.416,5.416,0,0,1-.192-.611,3.615,3.615,0,0,0,1.5.324,3.658,3.658,0,0,0,.684-.065,1.087,1.087,0,0,0,.634-.8.62.62,0,0,0-.224-.465,14.817,14.817,0,0,1-4.762-8.882,6.253,6.253,0,0,0,2.036.34l.192,0a.7.7,0,0,0,.491-1.2.713.713,0,0,0-.162-.262c-2.3-1.82-2.254-4.93-2.008-7.959l.018-.217c.064-.775.129-1.576.145-2.367.008-.389-.005-.786-.018-1.17-.016-.471-.032-.958-.01-1.435a9.837,9.837,0,0,1,.524-2.4,12.314,12.314,0,0,0,.491-2.47,20.984,20.984,0,0,0-.3-4.993l3.151.286a.688.688,0,0,0,.662-.915.655.655,0,0,0-.489-.62,9.161,9.161,0,0,1-4.6-3.188,8.937,8.937,0,0,1-1.354-2.508c-.225-.661-.4-1.35-.565-2.015-.088-.352-.179-.715-.277-1.069a8.886,8.886,0,0,0-.669-1.836l1.485.208a.765.765,0,0,0,.538-.07.711.711,0,0,0,.322-.42.757.757,0,0,0-.34-.815,10.667,10.667,0,0,1-3.519-7.771,2.663,2.663,0,0,0,1.555-1.59,12.224,12.224,0,0,0,.6-2.309c.052-.273.106-.556.165-.827.066-.3.134-.593.2-.891.189-.822.385-1.672.529-2.514a5.6,5.6,0,0,0-.354-3.274,13.461,13.461,0,0,0-1.635-2.612l0,0-.271-.368-2.21-3.025A9.042,9.042,0,0,0,87.9,18.128a13.8,13.8,0,0,0-3.316-2.082c-.272-.137-.553-.278-.828-.421-.667-.348-1.32-.772-1.952-1.182a21.776,21.776,0,0,0-2.295-1.358,14.605,14.605,0,0,0-5.715-1.158l-.051,0a.586.586,0,0,0-.514.266,3.412,3.412,0,0,1-1.324.219c-.3,0-.608-.021-.9-.042-.191-.013-.371-.026-.552-.033-.122-.006-.245-.008-.366-.008a7.9,7.9,0,0,0-2.951.569,33.893,33.893,0,0,0-3.209,1.567L60.6,16.207l-3.824,2.008a.6.6,0,0,0-.343.644,6.628,6.628,0,0,0-2.087,3.409c-.166.538-.29,1.094-.41,1.632-.082.37-.168.753-.266,1.127a11.028,11.028,0,0,1-.958,2.386c-.166.3-.341.608-.511.9a12.224,12.224,0,0,0-1.662,3.862,5.338,5.338,0,0,0,.115,2.621,6.018,6.018,0,0,0,1.4,2.108,5.561,5.561,0,0,1,1.3,2.212,5.052,5.052,0,0,1,.061,2.624.71.71,0,0,0,.185.676.7.7,0,0,0,.676.185,13.933,13.933,0,0,0,2.4-.983c.16,2.493-1.122,4.917-2.252,7.056l-.244.462c-.217.413-.433.831-.641,1.236-.475.92-.965,1.871-1.48,2.786a6.426,6.426,0,0,1-2.633,2.694,15.4,15.4,0,0,1-3.817,1.234h-.033a.706.706,0,0,0-.607.347.7.7,0,0,0,.251.959H45.22a9.625,9.625,0,0,0,2.967.99,10.7,10.7,0,0,0,.177,4.719c.064.342.129.695.186,1.041a14.417,14.417,0,0,1-.8,6.665.691.691,0,0,0-.019.913.769.769,0,0,0,.6.275.727.727,0,0,0,.341-.082l.837-.137-.144,3.559c-.018.42-.042.852-.066,1.27-.057.987-.115,2.006-.088,3a4.163,4.163,0,0,0,.524,1.965,7.226,7.226,0,0,1,.807,1.576,7.615,7.615,0,0,1,.228,1.864,18.512,18.512,0,0,1-.017,2.032c-.078.937-.561,2.54-1.881,2.607a.772.772,0,0,0-.375,1.489l-.006-.02,1.418.48c.067.018.131.038.194.06v.528a15.456,15.456,0,0,1-.4,2.932.694.694,0,0,0-.011.328l-.571.449c-.839.66-1.706,1.342-2.541,2.028a2.065,2.065,0,0,0-.905,1.9,1.555,1.555,0,0,0,.584.94,5.523,5.523,0,0,0-1.055,2.462.751.751,0,0,0,.07.541.689.689,0,0,0,.426.32,2.493,2.493,0,0,0,.5.051l.121,0a14.021,14.021,0,0,0,.952,5.763,21.03,21.03,0,0,1,.951,3.907c.351,3.254-.38,6.65-2.3,10.686-.947,1.988-1.712,3.795-1.476,5.771a.7.7,0,0,0-.147.425.712.712,0,0,0,.7.7c.57.036,1.148.055,1.719.055a27.017,27.017,0,0,0,4.76-.424,11.4,11.4,0,0,1-1.013,1.813,13.474,13.474,0,0,1-2.116,2.327,3.581,3.581,0,0,0-1.511,2.8.712.712,0,0,0,.7.7l7.5.048a8.645,8.645,0,0,0,3.363-.443,8.258,8.258,0,0,0,2.523-1.629,21.007,21.007,0,0,0,2.243-2.523.716.716,0,0,0,.186-.617,6.7,6.7,0,0,0,1.033.445c.476.161.972.279,1.451.393.274.065.556.133.83.207a8.242,8.242,0,0,1,1.963.8c.323.183.646.381.959.573a11.446,11.446,0,0,0,2.819,1.39,6.212,6.212,0,0,0,1.658.209,16.214,16.214,0,0,0,3.17-.426l.134-.027,5.685-1.155a.694.694,0,0,0,.383-.267Zm6.037,3.052h0a10.015,10.015,0,0,1-2.718-.333,3.992,3.992,0,0,1-1.343-.575,1.587,1.587,0,0,1-.518-1.23c-.108-1.385-.13-2.748-.137-3.9a69.777,69.777,0,0,1,.42-8.039.722.722,0,0,0,.174-.2c1.687-2.779,1.733-6.016,1.776-9.146.019-1.334.038-2.713.186-4.029a12.044,12.044,0,0,1,.863-3.453.723.723,0,0,0-.252-.958.706.706,0,0,0-.959.249,17.893,17.893,0,0,0-1.214,6.666c-.015.527-.02,1.066-.025,1.587a28.5,28.5,0,0,1-.35,5.035,9.961,9.961,0,0,1-.961,2.843.712.712,0,0,0-.555.683,69.007,69.007,0,0,0-.5,8.41c0,.9.014,1.711.042,2.475a.7.7,0,0,0-.531-.244.706.706,0,0,0-.186.025l-4.752.95c-.262.053-.532.113-.793.17a14.242,14.242,0,0,1-3.014.443,5.881,5.881,0,0,1-.8-.053,7.947,7.947,0,0,1-3.007-1.333c-.153-.1-.306-.19-.458-.282a12.231,12.231,0,0,0-1.738-.911A14.859,14.859,0,0,0,66,133.932c-1.268-.295-2.668-.7-3.218-1.8.037-2.848,0-5.749-.1-8.623a.7.7,0,0,0,.089-.57l-1.506-7.906q-.115-.606-.234-1.212c-.169-.868-.345-1.766-.495-2.653a8.872,8.872,0,0,1,0-3.694.655.655,0,0,0-.11-.586.779.779,0,0,0-.606-.287.632.632,0,0,0-.635.5l-.011,0a10.222,10.222,0,0,0-.05,4.045c.151.986.343,1.966.529,2.914q.105.536.208,1.073.675,3.53,1.345,7.058l.091.478a.722.722,0,0,0-.038.269c.109,2.92.149,5.89.12,8.826a.7.7,0,0,0-.052.506v0l-.006,0c.014.038.03.08.051.133a.648.648,0,0,0,.282.56,4.012,4.012,0,0,0,.863.978.716.716,0,0,0-.34.184h-.006l-.048.061a11.605,11.605,0,0,1-3.949,3.685,6.586,6.586,0,0,1-2.814.451H55.25l-3.644-.025-3.235-.02a4.131,4.131,0,0,1,1.129-1.268c.115-.1.221-.19.32-.28a12.726,12.726,0,0,0,2.105-2.554,12.9,12.9,0,0,0,1.946-6.4.692.692,0,0,0-.064-.325c.586-6.822-.062-13.765-.689-20.48-.084-.9-.171-1.837-.255-2.761l-.614-6.8a.719.719,0,0,0-.7-.7c-.034,0-.062,0-.087.006a.709.709,0,0,0-.154-.758.745.745,0,0,0-.118-.091,17.617,17.617,0,0,0,.322-3.055,1.683,1.683,0,0,0-.168-.9,1.439,1.439,0,0,0-.714-.54,3.862,3.862,0,0,0,1.138-1.56,10.1,10.1,0,0,0,.381-4.294,7.229,7.229,0,0,0-.37-2.089,5.911,5.911,0,0,0-.526-1.01,7.17,7.17,0,0,1-.447-.814,3.942,3.942,0,0,1-.185-1.8c0-.083.008-.163.011-.241l.1-2.349.216-5.326a.628.628,0,0,0-.165-.474.7.7,0,0,0-.509-.2.749.749,0,0,0-.557.234l-.087-.038a.744.744,0,0,0-.289-.016A14.653,14.653,0,0,0,50,65.443c-.072-.545-.177-1.095-.278-1.627s-.21-1.106-.283-1.662a5.333,5.333,0,0,1,.3-2.988.7.7,0,0,0-.41-1.025.738.738,0,0,0-.28-.063c-.131-.01-.274-.023-.437-.041l-.123-.02-.187-.031c-.1-.018-.211-.04-.33-.067.587-.188,1.181-.41,1.768-.662a7.4,7.4,0,0,0,3.151-2.764A35.231,35.231,0,0,0,54.6,51.379c.184-.364.374-.74.566-1.109a42.1,42.1,0,0,0,2.089-4.325,10.341,10.341,0,0,0,.729-5.144.431.431,0,0,0-.026-.1,4.111,4.111,0,0,0,1.018-1.552,7.851,7.851,0,0,0,.239-3.124c-.011-.206-.023-.418-.031-.623-.052-1.393-.121-2.766-.205-4.079a.712.712,0,0,0-.744-.675.687.687,0,0,0-.5.2.618.618,0,0,0-.155.475v-.012c.081,1.28.145,2.537.193,3.734.022.583.045,1.186.059,1.783a6.014,6.014,0,0,1-.1,1.587c-.337,1.38-1.662,2.044-2.778,2.469a6.512,6.512,0,0,0-.838-3.542,8.129,8.129,0,0,0-1.1-1.422c-.15-.167-.3-.339-.452-.515a3.133,3.133,0,0,1-.746-2,8.49,8.49,0,0,1,1.534-4.294l.132-.231A17.134,17.134,0,0,0,54.672,26.5a20.092,20.092,0,0,0,.7-2.613c.409-1.766.9-3.418,2.369-4.227a.617.617,0,0,0,.346-.562l6.052-3.169.582-.313c.841-.454,1.711-.923,2.6-1.3a6.891,6.891,0,0,1,2.795-.588c.11,0,.221,0,.331.008l.337.016c.344.017.7.035,1.046.035a4.925,4.925,0,0,0,2.234-.444,13.14,13.14,0,0,1,4.369.779,15.846,15.846,0,0,1,2.536,1.456c.442.292.9.593,1.363.863.5.29,1.032.555,1.547.811a17.291,17.291,0,0,1,2.467,1.4,7.557,7.557,0,0,1,2.91,7.03.779.779,0,0,0-.016.089.706.706,0,0,0,.05.595v-.008c.363.5.74,1,1.105,1.486.843,1.123,1.715,2.284,2.485,3.476a5.009,5.009,0,0,1,.933,2.374,8.578,8.578,0,0,1-.342,2.412c-.047.2-.095.4-.138.59l-.672,3.083c-.024.109-.046.225-.07.347a2.593,2.593,0,0,1-.772,1.716,1.336,1.336,0,0,1-.782.214,4.42,4.42,0,0,1-1.242-.242,6.928,6.928,0,0,1-2.038-.9,1.641,1.641,0,0,1-.6-.732,3,3,0,0,1-.058-1.334c.01-.095.02-.188.027-.278l.3-3.6a.7.7,0,0,0-1.4,0l-.28,3.533a3.774,3.774,0,0,0,.653,3.044A5.431,5.431,0,0,0,88.642,42.9a7.793,7.793,0,0,0,2.028.538A12.044,12.044,0,0,0,93.336,50.7l-.8-.112a.71.71,0,0,0-.851.107.736.736,0,0,0-.129.186.718.718,0,0,0-.074.17.747.747,0,0,0,.38.833,10.049,10.049,0,0,1,1.38,3.67,18.867,18.867,0,0,0,.556,2.031,10.639,10.639,0,0,0,3.726,4.954l.034.025.034.025-.795-.073a.7.7,0,0,0-.7.7.711.711,0,0,0,.15.423,23.614,23.614,0,0,1,.385,5.029,10.879,10.879,0,0,1-.482,2.483,11.129,11.129,0,0,0-.546,2.507,15.65,15.65,0,0,0,0,1.6c.012.352.024.715.02,1.072-.01.793-.075,1.6-.137,2.371l-.023.284a17.476,17.476,0,0,0,.1,4.945,7.825,7.825,0,0,0,1.2,2.886c-.124-.042-.232-.084-.33-.127-.039-.018-.086-.041-.1-.049l-.146-.07c-.141-.073-.264-.141-.375-.211a.7.7,0,0,0-1.025.806,16.214,16.214,0,0,0,3.8,9.3l-.057-.05a2.582,2.582,0,0,1-.261-.264.705.705,0,0,0-.827-.12.719.719,0,0,0-.415.633l-.028,0a5.1,5.1,0,0,0,.31,2.319.731.731,0,0,0-.447-.145.684.684,0,0,0-.72.677h.017a70.414,70.414,0,0,1-1.686,11.821c-.151.752-.307,1.529-.456,2.292A47.742,47.742,0,0,0,92.9,127.2a22.78,22.78,0,0,0,1.706,6.916,5.1,5.1,0,0,0,1.478,2.9,12.516,12.516,0,0,1,.814,1.07,2.5,2.5,0,0,1,.4.894.54.54,0,0,1,.007.16.862.862,0,0,0,.01.218l-.072,0c-.029,0-.056,0-.074,0-.525-.04-1.058-.06-1.584-.06-.656,0-1.319.031-1.971.093-.376.032-.761.07-1.134.107C91.494,139.594,90.48,139.695,89.485,139.695Zm16.658-5.441-.154,0a5.609,5.609,0,0,1-1.357-.3c-.6-.195-1.2-.45-1.771-.7a9.71,9.71,0,0,0-3.8-1.051l-.134,0a9.347,9.347,0,0,0-3.275.825,25.81,25.81,0,0,1-1.367-11.912,83.478,83.478,0,0,1,1.541-9.509c.273-1.352.556-2.75.8-4.131a53.32,53.32,0,0,0,.913-7.96v-.01a5.132,5.132,0,0,0,.7,1.021.712.712,0,0,0,.2.472l0,.009a21.61,21.61,0,0,0,3.569,3.257,9.093,9.093,0,0,1,1.4,1.225,2.021,2.021,0,0,1,.334.454,8.436,8.436,0,0,0-1.2-.274.72.72,0,0,0-.25-.053.835.835,0,0,0-.1.007l-.176-.018a.709.709,0,0,0-.7.7.72.72,0,0,0,.331.588,32.431,32.431,0,0,0,.708,3.984c.084.312.186.625.284.927.114.353.233.717.324,1.082a2.562,2.562,0,0,1-.025,1.763.721.721,0,0,0-.063.543,18.162,18.162,0,0,0-2.706,6.906,20.539,20.539,0,0,0-.089,2.227c0,.592,0,1.2-.049,1.8a6.089,6.089,0,0,1-.7,2.645,1.206,1.206,0,0,0-.3,1.427.706.706,0,0,0,.993,0c.042-.052.082-.1.122-.159.4-.026.936-.055,1.478-.055,1.658,0,3.977.235,4.969,2.271a.709.709,0,0,0,.394.312c.013.014.026.028.04.041a1.008,1.008,0,0,1,.02,1.368A1.169,1.169,0,0,1,106.143,134.254Zm-59.429-3.211c-.3,0-.6-.005-.9-.016a8.675,8.675,0,0,1,1.209-4.6l.1-.22a28.382,28.382,0,0,0,1.962-5.178,18.144,18.144,0,0,0,.586-5.469,21.859,21.859,0,0,0-1.172-5.43c-.52-1.67-1.167-3.749-.606-5.724a.632.632,0,0,0-.139-.629.7.7,0,0,0-.933-.228l0-.013,0-.013-.005.009a.1.1,0,0,1,.011-.032.085.085,0,0,1-.006.022.213.213,0,0,0,.023-.058l.013-.029.019-.041.093-.182c.063-.118.127-.228.2-.337.031-.048.065-.094.1-.139s.065-.088.095-.133l.028-.031.056-.07.043-.049c.031-.035.062-.071.095-.105.1-.1.19-.2.28-.281a.712.712,0,0,0,0-.992l-.015-.014-.015-.014a.7.7,0,0,0-.782-.484l-.017-.03c0,.014.009.024.012.031h0l0,0,0-.008a.45.45,0,0,1-.018-.058c0-.025,0-.038.008-.038v.02a1.113,1.113,0,0,1,.065-.123.88.88,0,0,1,.159-.2,2.983,2.983,0,0,1,.281-.247c.18-.151.369-.3.551-.443l.177-.14L50.857,97.3a.79.79,0,0,0-.008.1h-.008c.384,4.132.749,8.194,1.087,12.071.338,3.811.669,7.869.695,11.888a64.846,64.846,0,0,1-.28,6.767.71.71,0,0,0,.08.322,11.583,11.583,0,0,1-.393,2.061l-.055,0a.725.725,0,0,0-.178.022A25.706,25.706,0,0,1,46.713,131.043Z" transform="translate(9.5 9.5)" fill="#fff" stroke="#b064e8" stroke-width="1"/>
  </g>
</svg>
