<svg xmlns="http://www.w3.org/2000/svg" xmlns:xlink="http://www.w3.org/1999/xlink" width="172.002" height="172.003" viewBox="0 0 172.002 172.003">
  <defs>
    <filter id="Rectangle_333" x="50.311" y="51.187" width="70.992" height="70.498" filterUnits="userSpaceOnUse">
      <feOffset input="SourceAlpha"/>
      <feGaussianBlur stdDeviation="3" result="blur"/>
      <feFlood flood-opacity="0.161"/>
      <feComposite operator="in" in2="blur"/>
      <feComposite in="SourceGraphic"/>
    </filter>
    <filter id="Subtraction_23" x="0" y="0" width="172.002" height="172.003" filterUnits="userSpaceOnUse">
      <feOffset input="SourceAlpha"/>
      <feGaussianBlur stdDeviation="3" result="blur-2"/>
      <feFlood flood-opacity="0.161"/>
      <feComposite operator="in" in2="blur-2"/>
      <feComposite in="SourceGraphic"/>
    </filter>
  </defs>
  <g transform="matrix(1, 0, 0, 1, 0, 0)" filter="url(#Subtraction_23)">
    <path id="Subtraction_23-2" data-name="Subtraction 23" d="M18390-643.5a76.015,76.015,0,0,1-29.777-6.012,76.542,76.542,0,0,1-12.994-7.054,77.022,77.022,0,0,1-11.322-9.342,77.057,77.057,0,0,1-9.342-11.322,76.458,76.458,0,0,1-7.053-12.995A75.982,75.982,0,0,1,18313.5-720a75.989,75.989,0,0,1,6.014-29.779,76.457,76.457,0,0,1,7.053-12.995,77.054,77.054,0,0,1,9.342-11.322,77.01,77.01,0,0,1,11.322-9.341,76.548,76.548,0,0,1,12.994-7.053A76.022,76.022,0,0,1,18390-796.5a76.022,76.022,0,0,1,29.777,6.012,76.382,76.382,0,0,1,12.994,7.053,76.9,76.9,0,0,1,11.322,9.341,77.061,77.061,0,0,1,9.342,11.322,76.415,76.415,0,0,1,7.053,12.995A76.032,76.032,0,0,1,18466.5-720a76.025,76.025,0,0,1-6.012,29.777,76.411,76.411,0,0,1-7.053,12.995,77.064,77.064,0,0,1-9.342,11.322,76.916,76.916,0,0,1-11.322,9.342,76.393,76.393,0,0,1-12.994,7.054A76.015,76.015,0,0,1,18390-643.5Zm-8.881-67.821h0l.494,16.572a.766.766,0,0,0,.057.658.578.578,0,0,0,.449.274h.283l14.9-.3a.668.668,0,0,0,.385-.13.618.618,0,0,0,.352-.579l-.111-16.693h17.023a.942.942,0,0,0,.2-.028.62.62,0,0,0,.639-.607v-.051l-.352-15.085a.648.648,0,0,0-.52-.63.633.633,0,0,0-.439-.158h-16.346l-.236-16.587a.641.641,0,0,0-.682-.652.771.771,0,0,0-.287.055h-14.91a.7.7,0,0,0-.227.032.627.627,0,0,0-.561.649l-.213,16.559-16.457.079a.635.635,0,0,0-.459.181.621.621,0,0,0-.3.556l.213,15.085a.633.633,0,0,0,.232.505.617.617,0,0,0,.588.366Zm1.844,16.128h0l-.484-16.4a.771.771,0,0,0,.041-.766.611.611,0,0,0-.57-.333l-16.568.079-.2-13.968,16.578-.079a.618.618,0,0,0,.512-.24.755.755,0,0,0,.113-.641l.209-16.36h13.959l.236,16.341a.681.681,0,0,0,.064.3.631.631,0,0,0,.645.542h16.6l.324,13.829h-17.383a.621.621,0,0,0-.6.387.751.751,0,0,0,.137.8l.1,16.235-13.709.273Z" transform="translate(-18304 806)" fill="#fff" stroke="#93ff9b" stroke-width="1"/>
  </g>
</svg>
