<svg xmlns="http://www.w3.org/2000/svg" xmlns:xlink="http://www.w3.org/1999/xlink" width="172.002" height="172.003" viewBox="0 0 172.002 172.003">
  <defs>
    <filter id="Rectangle_369" x="31.502" y="22.23" width="102.88" height="135.542" filterUnits="userSpaceOnUse">
      <feOffset input="SourceAlpha"/>
      <feGaussianBlur stdDeviation="3" result="blur"/>
      <feFlood flood-opacity="0.161"/>
      <feComposite operator="in" in2="blur"/>
      <feComposite in="SourceGraphic"/>
    </filter>
    <filter id="Subtraction_27" x="0" y="0" width="172.002" height="172.003" filterUnits="userSpaceOnUse">
      <feOffset input="SourceAlpha"/>
      <feGaussianBlur stdDeviation="3" result="blur-2"/>
      <feFlood flood-opacity="0.161"/>
      <feComposite operator="in" in2="blur-2"/>
      <feComposite in="SourceGraphic"/>
    </filter>
  </defs>
  <g transform="matrix(1, 0, 0, 1, 0, 0)" filter="url(#Subtraction_27)">
    <path id="Subtraction_27-2" data-name="Subtraction 27" d="M18390-1134.5a76.016,76.016,0,0,1-29.777-6.012,76.546,76.546,0,0,1-12.994-7.054,77.033,77.033,0,0,1-11.322-9.342,77.086,77.086,0,0,1-9.342-11.322,76.465,76.465,0,0,1-7.053-12.995A75.981,75.981,0,0,1,18313.5-1211a75.988,75.988,0,0,1,6.014-29.779,76.476,76.476,0,0,1,7.053-12.995,77.064,77.064,0,0,1,9.342-11.322,77.108,77.108,0,0,1,11.322-9.341,76.526,76.526,0,0,1,12.994-7.053A76.022,76.022,0,0,1,18390-1287.5a76.022,76.022,0,0,1,29.777,6.012,76.378,76.378,0,0,1,12.994,7.053,76.9,76.9,0,0,1,11.322,9.341,77.058,77.058,0,0,1,9.342,11.322,76.415,76.415,0,0,1,7.053,12.995A76.032,76.032,0,0,1,18466.5-1211a76.025,76.025,0,0,1-6.012,29.777,76.41,76.41,0,0,1-7.053,12.995,77.047,77.047,0,0,1-9.342,11.322,76.9,76.9,0,0,1-11.322,9.342,76.4,76.4,0,0,1-12.994,7.054A76.016,76.016,0,0,1,18390-1134.5Zm-21.5-92.843c2.525,0,4.773,1.649,6.826,3.43.807.7,1.633,1.508,2.43,2.29a41.451,41.451,0,0,0,4.035,3.624c1.6,1.213,3.047,2.3,4.574,3.337.809.542,1.637,1.041,2.461,1.483.412.221.836.413,1.246.6l.016.007c.422.191.857.388,1.273.614.783.412,1.527.9,2.248,1.375.6.394,1.219.8,1.863,1.165a10.194,10.194,0,0,0,2.191.936c.229.058.418.1.6.134-.008.008-.018.015-.025.023l-.006.006c-.006.005-.014.011-.02.017l.023.023a5.733,5.733,0,0,0-1.363,4.125,21.569,21.569,0,0,0,.834,5.061c.254.934.541,1.877.771,2.634l.086.28c.182.6.369,1.223.543,1.841a12.766,12.766,0,0,1,.408,1.951,16.452,16.452,0,0,1-.078,3.861c-.172,1.319-.439,2.661-.654,3.74-.229,1.184-.428,2.414-.621,3.6l-.012.083-.016.094-.025.167c-.393,2.44-.8,4.964-1.439,7.392-.18.684-.387,1.372-.584,2.038l-.021.066c-.135.453-.266.9-.391,1.335-.117.411-.229.809-.334,1.181-.2.7-.389,1.393-.6,2.091a28.054,28.054,0,0,1-2.461,6.321,8.023,8.023,0,0,1-4.148,3.332c-.613.255-1.223.485-1.814.708a29.96,29.96,0,0,0-3.145,1.322,14.9,14.9,0,0,0-1.908,1.159,4.307,4.307,0,0,0-1.586,1.77,1.448,1.448,0,0,0,.025,1.243,3.924,3.924,0,0,0,2.557,1.441c.518.111,1.037.187,1.539.26l.43.064a26.692,26.692,0,0,0,3.129.343c.254.022.514.032.8.032a10.06,10.06,0,0,0,2.438-.3,4.6,4.6,0,0,0,2.3-1.52,14.645,14.645,0,0,0,1.479-2.34c.508-.9,1.076-1.767,1.627-2.607l.045-.067.1-.149c.355-.54.688-1.079,1-1.585a10.266,10.266,0,0,1,.773-1.284,1.318,1.318,0,0,1,.342-.343l.1-.042.3-.1c.07-.022.15-.041.238-.062a1.38,1.38,0,0,0,.639-.263,2.066,2.066,0,0,0,.525-1.057,4.011,4.011,0,0,0-.039-.955,6.718,6.718,0,0,1,.547-3.008,29.418,29.418,0,0,1,1.441-3.049c.486-.946.932-1.926,1.385-2.929.617-1.388,1.311-2.773,1.982-4.112l.014-.024a48.381,48.381,0,0,0,3.611-8.506,20.48,20.48,0,0,0,.564-2.674c.416.392.832.815,1.2,1.188l0,0a17.374,17.374,0,0,0,3.438,2.928,8.981,8.981,0,0,0,1.705.751,14.514,14.514,0,0,0,2.012.426c1.5.264,2.988.585,4.412.955,1.609.406,3.156.88,4.982,1.465a.549.549,0,0,0,.166.028.47.47,0,0,0,.451-.426.5.5,0,0,0-.357-.576,69.693,69.693,0,0,0-8.736-2.3c-.236-.046-.475-.089-.717-.132a10.548,10.548,0,0,1-2.98-.841,10.875,10.875,0,0,1-2.582-1.933c-.314-.3-.627-.617-.93-.922l-.082-.084-.014-.013c-.588-.594-1.2-1.208-1.844-1.765a.521.521,0,0,0-.354-.136.526.526,0,0,0-.355.136.506.506,0,0,0-.1.144.534.534,0,0,0-.25.427c-.453,4.018-2.326,7.767-3.979,11.075-.973,1.934-1.8,3.67-2.523,5.307-.324.727-.686,1.436-1.037,2.12l-.029.057-.006.013a30.531,30.531,0,0,0-1.408,3.009,8.238,8.238,0,0,0-.652,3.008,3.928,3.928,0,0,0,.043.5,4.01,4.01,0,0,1,.041.5v.1a.87.87,0,0,1-.043.185,2.15,2.15,0,0,1-.172.306l-.332.1a3.558,3.558,0,0,0-.775.287,3.8,3.8,0,0,0-1.189,1.516c-.061.11-.117.212-.172.309-.422.764-.906,1.5-1.377,2.211l-.016.024c-.482.733-.982,1.491-1.412,2.279-.068.122-.137.248-.2.366a6.4,6.4,0,0,1-2.26,2.785,4.95,4.95,0,0,1-2.029.528c-.336.022-.676.033-1.01.033-.5,0-1.012-.025-1.512-.075a34.882,34.882,0,0,1-3.656-.51,7.052,7.052,0,0,1-1.627-.463,2.258,2.258,0,0,1-.529-.348.4.4,0,0,1-.143-.181v-.065c-.006-.022-.01-.031-.014-.031l-.006,0,0,0a.287.287,0,0,1,0-.055.807.807,0,0,1,.148-.468,2.44,2.44,0,0,1,.486-.57,8.1,8.1,0,0,1,1.441-1.057,20.012,20.012,0,0,1,3.152-1.543c.387-.152.785-.3,1.193-.451a23.641,23.641,0,0,0,2.811-1.176,8.365,8.365,0,0,0,3.211-2.906,22.27,22.27,0,0,0,2.072-4.718c.508-1.49.959-3.122,1.4-4.7l.109-.4c.143-.524.295-1.067.426-1.528l.023-.089c.34-1.21.691-2.461.971-3.708.42-1.877.762-4.038,1.035-5.775.213-1.329.459-2.658.7-3.944l0-.02c.113-.6.229-1.219.338-1.83a21.244,21.244,0,0,0,.426-5.872,18.575,18.575,0,0,0-.75-3.355c-.094-.321-.193-.65-.289-.968l-.084-.28c-.23-.762-.492-1.626-.725-2.469a22.758,22.758,0,0,1-.775-3.8,7.8,7.8,0,0,1,.283-3.337,3.66,3.66,0,0,1,.715-1.135.5.5,0,0,0,.037-.649,10.105,10.105,0,0,0,1.121.079c.273.01.553.015.857.015.748,0,1.506-.03,2.238-.059h.012c.625-.025,1.271-.05,1.912-.057.193,0,.387,0,.578,0a12.926,12.926,0,0,1,4.236.55,7.083,7.083,0,0,1,1.02.426.5.5,0,0,0,.242.064.551.551,0,0,0,.51-.424.435.435,0,0,0-.242-.511,11.455,11.455,0,0,0-4.777-1.1c-.342-.017-.7-.026-1.107-.026-.73,0-1.488.028-2.221.056h-.01c-.594.022-1.207.045-1.807.053-.174,0-.4,0-.627,0a9.1,9.1,0,0,1-4.008-.676,20.863,20.863,0,0,1-2.783-1.641c-.461-.3-.877-.578-1.3-.838a22.444,22.444,0,0,0-2.357-1.2,24.23,24.23,0,0,1-2.541-1.362c-1.467-.9-2.869-1.943-4.225-2.954l-.025-.019-.2-.145-.23-.172c-.187-.144-.373-.282-.553-.415l-.047-.035c-.4-.295-.77-.573-1.148-.912-.633-.568-1.066-.963-1.543-1.423-.414-.392-.83-.8-1.234-1.19l-.109-.108-.014-.013c-.641-.624-1.3-1.269-1.975-1.883a17.615,17.615,0,0,0-5.7-3.823.461.461,0,0,0-.223-.116,23.959,23.959,0,0,0-5.209-.591,28.386,28.386,0,0,1-4.4-.405c-.566-.111-1.121-.273-1.656-.43l-.025-.007-.455-.133c-.549-.158-1-.254-1.471-.355l-.01,0-.062-.013-.344-.074q-.4-.085-.8-.167l-.02,0c-1.049-.218-2.133-.444-3.168-.765a8.455,8.455,0,0,1-3.008-1.548,14.324,14.324,0,0,1-2.439-2.762,8.692,8.692,0,0,1-1.482-3.128,4.145,4.145,0,0,1-.084-.774,3.616,3.616,0,0,1,.045-.792,2.293,2.293,0,0,1,.076-.343,1.313,1.313,0,0,1,.084-.245l.162-.264.041-.042.121-.12.1-.083h.041l.266-.162.119-.06h.043l.324-.1a5.065,5.065,0,0,1,1.26-.185c.473-.022.953-.033,1.424-.033.709,0,1.426.025,2.131.075a25.426,25.426,0,0,1,8.375,2.317c.879.379,1.768.791,2.627,1.189l.061.028c.453.209.922.426,1.377.632.574.262,1.17.525,1.83.818.789.349,1.682.745,2.521,1.133,2.533,1.217,5.207,2.657,8.412,4.533l2.076,1.219.393.238.2.122.055.033c.49.3,1,.606,1.506.89a22.061,22.061,0,0,0,3.967,1.531l.422.133a19.2,19.2,0,0,1,4.148,1.71c.3.18.6.362.863.524l.01.006a14.515,14.515,0,0,0,2.826,1.464,5.816,5.816,0,0,0,1.914.326h.115a.459.459,0,0,0,.338-.144.41.41,0,0,0,.094.042.507.507,0,0,0,.141.02.5.5,0,0,0,.484-.368,1.963,1.963,0,0,1,.307-.769,6.216,6.216,0,0,1,.568-.816c.488-.588,1.01-1.111,1.516-1.616l.029-.029.611-.63c.1-.1.221-.207.334-.306l.033-.029c.113-.1.234-.206.346-.314.293-.3.959-1.354.385-1.933a1.966,1.966,0,0,0-1.057-.542c.8-.574,1.561-1.218,2.3-1.841l.006-.006a20.04,20.04,0,0,1,4.422-3.1,25.905,25.905,0,0,1,4.635-1.645,21.643,21.643,0,0,1,4.939-.589l.9-.021c.707-.018,1.438-.036,2.156-.036a24.964,24.964,0,0,1,3,.155h.041a.581.581,0,0,0,.1.144,38.317,38.317,0,0,1,2.988,2.642,10.25,10.25,0,0,1,2.281,3.133.527.527,0,0,0,.5.36.513.513,0,0,0,.129-.017.5.5,0,0,0,.367-.464v-.046a.491.491,0,0,0-.012-.089.183.183,0,0,0-.008-.031l-.018.023c-1-2.5-3.258-4.366-5.252-6.011l0,0-.115-.094v-.034a.262.262,0,0,0,0-.04c0-.155,0-.332,0-.519v-.036c.008-.582.018-1.3-.027-1.925a5.384,5.384,0,0,0-.631-2.4.5.5,0,0,0,0-.714v.065c-.172-.135-.363-.258-.547-.377a3.917,3.917,0,0,1-.895-.7,1.061,1.061,0,0,1-.143-.246.563.563,0,0,1,0-.3c0-.019.008-.031.01-.039l0-.008,0-.007.014-.029.078-.144.041-.06.145-.162a2.334,2.334,0,0,0,.689-1.789,7.141,7.141,0,0,0-.588-2.558c-.268-.636-.594-1.265-.912-1.874l-.01-.022-.2-.38c-.189-.375-.381-.8-.549-1.172-.219-.481-.416-.914-.629-1.331a26.328,26.328,0,0,0-1.361-2.54,11.645,11.645,0,0,0-1.627-1.932l-.037-.035-.264-.26a16.315,16.315,0,0,0-3.4-2.791,18.892,18.892,0,0,0-4.449-1.71c-.906-.246-1.834-.433-2.732-.615l-.01,0h-.006c-.586-.119-1.191-.241-1.783-.378l-.279-.065-.1-.022a10.419,10.419,0,0,0-2.309-.364,2.951,2.951,0,0,0-1.809.534,5.234,5.234,0,0,0-.771.75,6.162,6.162,0,0,1-.674.673,2.624,2.624,0,0,1-1.654.431c-.092,0-.187,0-.3,0a14.949,14.949,0,0,1-3.242-.65h0c-.572-.16-1.164-.324-1.75-.447a22.8,22.8,0,0,0-2.91-.4c-.508-.048-1.021-.073-1.527-.073-.418,0-.84.017-1.254.05a3.122,3.122,0,0,0-1.709.649,2.5,2.5,0,0,0-.775,1.26,7.911,7.911,0,0,0,.055,3.218l.006.036.125.774v.264l.008.065a4.716,4.716,0,0,1,.035.5c.018.487,0,.987-.018,1.47v.051c-.018.424-.037.9-.025,1.367a6.211,6.211,0,0,0,.469,2.257,8,8,0,0,0,1.117,1.789,12.939,12.939,0,0,0,3.35,3.253,8.036,8.036,0,0,0,2.18.871,13.066,13.066,0,0,0,1.473.288c.182.028.393.061.6.1a5.282,5.282,0,0,1,3.518,1.668,9.592,9.592,0,0,1,1.484,3.884c.141.73.248,1.53.363,2.425l.025.2c.08.6.16,1.216.258,1.8a14.711,14.711,0,0,0,.469,1.97.072.072,0,0,1,.008.018.078.078,0,0,1,.008.019.079.079,0,0,0,.008.018,3.717,3.717,0,0,0-.607-.052,3.281,3.281,0,0,0-2.033.71,3.258,3.258,0,0,0-1.363,2.479,2.806,2.806,0,0,0,1.887,2.276,3.688,3.688,0,0,0,1.311.269,1.641,1.641,0,0,0,1.516-.779c.025-.042.049-.083.066-.12a.318.318,0,0,0,.074.018l.736.163a2.439,2.439,0,0,1,.75.269v.028s-.01.007-.018.032l-.066.1a3.305,3.305,0,0,1-.605.649c-.373.317-.711.661-1.039.993-.055.055-.109.111-.162.166a20.955,20.955,0,0,0-1.422,1.567,5,5,0,0,0-.992,1.641.509.509,0,0,0-.148-.019l-.061-.079-.127,0a7.242,7.242,0,0,1-3.691-1.323l-.168-.1-.221-.139c-.428-.268-.91-.572-1.4-.837a16.022,16.022,0,0,0-2.154-.955c-.7-.258-1.428-.483-2.131-.7l-.008,0c-.793-.245-1.611-.5-2.395-.8a21.991,21.991,0,0,1-3.5-1.873l-.1-.059c-.221-.135-.447-.274-.67-.408-2.5-1.486-5.479-3.214-8.555-4.755-1.383-.683-2.848-1.337-4.139-1.914l-.352-.157c-.82-.366-1.572-.712-2.273-1.036l-.27-.124c-.557-.256-1.084-.5-1.646-.75a30.722,30.722,0,0,0-8.514-2.744,28.789,28.789,0,0,0-3.465-.212c-.223,0-.445,0-.66.008a6.916,6.916,0,0,0-2.887.445,2.867,2.867,0,0,0-1.549,2.34,6.8,6.8,0,0,0,.715,3.453,14.55,14.55,0,0,0,2.232,3.291,10,10,0,0,0,2.727,2.3,18.877,18.877,0,0,0,5.346,1.649h.006c.807.163,1.639.332,2.451.547.318.081.65.179.918.259l.021.006c.387.115.787.233,1.193.323a20,20,0,0,0,2.5.324c.68.05,1.373.077,2.043.1h.008c.807.031,1.639.064,2.459.137a.5.5,0,0,0,.408.2v.042C18368.23-1227.337,18368.365-1227.341,18368.5-1227.341Zm29.086-2.261h-.57l-.324-.079-.287-.083-.162-.06-.061-.042-.264-.139-.145-.083-.061-.042h-.018l-.223-.223-.064-.079a.426.426,0,0,1-.061-.107l-.061-.1a.2.2,0,0,1-.02-.046l-.008-.018s0,0,0,.013a.087.087,0,0,1,.006.033,1.934,1.934,0,0,1-.076-.264.126.126,0,0,1-.016-.068.187.187,0,0,1,.012.05l0-.125a1.516,1.516,0,0,1,.02-.283l0-.019.041-.144.043-.12c.018-.044.037-.09.037-.094s-.008.008-.02.029a2.806,2.806,0,0,1,.287-.505l.043-.06h-.023l.084-.1.223-.227.119-.1.061-.065.287-.181.283-.144h.084l.139-.06.324-.083h.658c.01.38.047.757.09,1.175a10.017,10.017,0,0,1,.068,1.875v.1l-.043.144a.292.292,0,0,1-.012.06l0,.006-.051.087a.157.157,0,0,0-.037.051.082.082,0,0,1-.043.042s0-.007.025-.023l-.121.06h-.043l-.119.042Zm1.5-1.131,0,0c-.008-.213-.021-.4-.041-.573-.016-.148-.031-.3-.047-.46-.051-.495-.115-1.111-.115-1.676a.469.469,0,0,0-.023-.171,9.421,9.421,0,0,0,3.064-3.106l.006-.009c.354-.49.719-1,1.111-1.459.029.125.057.251.084.377l0,.016a8.584,8.584,0,0,0,.313,1.164,2.647,2.647,0,0,0,1.139,1.576c-.564.384-1.1.782-1.588,1.186-.385.314-.756.633-1.168.988l-.021.02a26.4,26.4,0,0,1-2.713,2.13Zm-.125-4.106h0a24.123,24.123,0,0,1-.68-3.755l0-.026a21.282,21.282,0,0,0-.855-4.332,5.877,5.877,0,0,0-2.42-3.355,9.985,9.985,0,0,0-3.287-.979c-.271-.048-.516-.091-.758-.138a7.906,7.906,0,0,1-2.072-.63,7.761,7.761,0,0,1-1.752-1.177,14.515,14.515,0,0,1-1.586-1.71,10.786,10.786,0,0,1-1.158-1.687,6.982,6.982,0,0,1-.508-3.586l0-.093c.012-.334.021-.679.018-1.015a13.644,13.644,0,0,0-.178-1.891l-.01-.052c-.086-.547-.139-.909-.178-1.431a6.563,6.563,0,0,1-.02-.769c0-.057,0-.114.01-.177l0-.037c0-.043.006-.087.006-.134v-.1l.041-.181c.023-.105.047-.208.078-.306l.043-.1.064-.144.078-.12.043-.06.24-.246.061-.042.092-.056a.517.517,0,0,0,.135.422v.042l.061.1.121.2.186.366a1.438,1.438,0,0,0,.791.691,1.913,1.913,0,0,0,.611.1,1.888,1.888,0,0,0,.549-.081l.527-.139.283-.065h.162a.508.508,0,0,0,.51-.505.51.51,0,0,0-.51-.51,4.358,4.358,0,0,0-1.057.227l-.264.06h-.145a.483.483,0,0,0-.051.006.693.693,0,0,1-.1.01c-.029,0-.045-.005-.051-.016h-.023l-.121-.042h-.021l-.08-.042-.061-.06h0c-.027-.025-.037-.038-.037-.04h0a.131.131,0,0,1,.027.027l-.033-.07-.084-.162a3.837,3.837,0,0,0-.467-.788,2.736,2.736,0,0,1,.389-.023c.271-.011.549-.016.822-.016.668,0,1.348.032,2.023.095a21.225,21.225,0,0,1,2.8.468c.453.1.908.233,1.348.358l.027.008.029.009c.332.095.674.193,1.016.279a11.479,11.479,0,0,0,2.48.343,3.423,3.423,0,0,0,2.172-.57,5.494,5.494,0,0,0,.787-.764l0-.006a5.334,5.334,0,0,1,.633-.629,2.031,2.031,0,0,1,1.346-.414c.141,0,.293.008.467.025a19.708,19.708,0,0,1,2.191.431l2.2.445a25.481,25.481,0,0,1,5.412,1.65.451.451,0,0,0,.135.463l.023.06.121.144c-.018-.018-.021-.019-.021-.019a.365.365,0,0,0,.063.079l.078.144.043.121a2.727,2.727,0,0,1,.139.774,6.451,6.451,0,0,1-.162,1.807,7.3,7.3,0,0,1-.242.895,3.107,3.107,0,0,1-.264.649,8.655,8.655,0,0,1-1.26,1.65c-.289.317-.6.641-.877.927a17.105,17.105,0,0,0-2.232,2.651,12.394,12.394,0,0,0-1.475,3.638l0,.005-.049.175a10.791,10.791,0,0,0-.529,4.185,2.842,2.842,0,0,0,.65,1.608,3.232,3.232,0,0,0,1,.686l-.092-.007-.094-.007h-.086a3.3,3.3,0,0,0-1.42.326,8.856,8.856,0,0,0-3.211,3.008c-.105.143-.211.287-.32.439l-.027.036,0,0a10.7,10.7,0,0,1-2.213,2.473Zm-14.09-22.878a.512.512,0,0,0-.439.253.53.53,0,0,0,.18.691,6.036,6.036,0,0,1,1.65,1.562c.115.174.225.372.311.531a6.055,6.055,0,0,0,.379.628,4.906,4.906,0,0,0,.955,1.02,8.243,8.243,0,0,0,2.541,1.321,28.619,28.619,0,0,0,2.846.667,8.9,8.9,0,0,1,3.006,1.1.5.5,0,0,0,.256.079.512.512,0,0,0,.469-.39.477.477,0,0,0-.213-.56,11.362,11.362,0,0,0-3.937-1.334l-.016,0c-.539-.112-1.1-.227-1.637-.373a7.75,7.75,0,0,1-2.5-1.159,3.915,3.915,0,0,1-.857-.811,5.464,5.464,0,0,1-.459-.746l-.02-.032c-.074-.134-.15-.272-.23-.4a7.64,7.64,0,0,0-2.035-1.97A.5.5,0,0,0,18384.869-1257.717Zm17.018-5.7a1.718,1.718,0,0,0-.689.4,1.988,1.988,0,0,0-.469.774.889.889,0,0,0,.389.973,1.455,1.455,0,0,0,.691.2h.01c.059,0,.117.009.18.009a2.817,2.817,0,0,0,.482-.046l.18-.042.205-.083h-.023l.1-.042a1.166,1.166,0,0,0,.756-.691,1.212,1.212,0,0,0-.145-.964,1.2,1.2,0,0,0-.811-.538l-.432-.042h-.027a.885.885,0,0,0-.385.089Zm7.318,26.231,0,0a1.538,1.538,0,0,0,.063-.462,6.4,6.4,0,0,0-.328-2.072c-.012-.045-.029-.09-.047-.139.129,0,.266.006.418.006.3,0,.613-.01.93-.03a15.016,15.016,0,0,0,2.906-.366,14.112,14.112,0,0,0,2.521-.936,15,15,0,0,1,1.422-.63,7.653,7.653,0,0,1,1.545-.343,10.508,10.508,0,0,1,1.057-.053,10.926,10.926,0,0,1,2.238.234.471.471,0,0,0,.139.019,4.623,4.623,0,0,1,.385,1.812c.031.466.02.992.012,1.5,0,.058,0,.117,0,.175s0,.115,0,.173a24.551,24.551,0,0,0-3.035-.161c-.68,0-1.369.016-2.035.032h-.006l-.332.008-.416.008h-.062c-.7.012-1.428.025-2.145.093a22.042,22.042,0,0,0-2.562.385,25.261,25.261,0,0,0-2.658.746Zm.289-4.435a8.121,8.121,0,0,1-1.977-.213l-.365-.1-.182-.06h-.125l-.324-.162-.139-.083-.084-.06-.223-.222-.041-.06-.1-.185-.043-.1-.061-.181a2.272,2.272,0,0,1-.078-.408,6.88,6.88,0,0,1,.063-1.807,15.262,15.262,0,0,1,.467-2.072,12.782,12.782,0,0,1,1.422-3.578,18.067,18.067,0,0,1,2.014-2.371c.348-.368.662-.7.953-1.026a10.251,10.251,0,0,0,1.338-1.724,6.076,6.076,0,0,0,.592-1.567,6.461,6.461,0,0,0,.119-3.351,9.575,9.575,0,0,1,1.426,1.135c.191.185.393.374.582.552a12.734,12.734,0,0,1,2.672,3.1c.434.81.889,1.675,1.3,2.563.127.271.244.529.357.778l.023.055.008.015c.238.524.463,1.019.729,1.529a18.868,18.868,0,0,1,1.057,2.257,6.44,6.44,0,0,1,.328,1.2,2.636,2.636,0,0,1,0,1.02,1.052,1.052,0,0,1-.328.505,2.722,2.722,0,0,0-.463.593,1.637,1.637,0,0,0,.236,1.835l0,.008,0,.01a.022.022,0,0,1,0,.011.052.052,0,0,0,0,.017l-.027.028-.037.042-.227.12h-.061l-.2.06a8.873,8.873,0,0,1-1.465.264l-1.506.162a11.846,11.846,0,0,0-1.992.51,25.044,25.044,0,0,1-2.721.732l-.533.079h-.2l-.756.083C18410.391-1241.647,18409.926-1241.624,18409.494-1241.624Z" transform="translate(-18304 1297)" fill="#fff" stroke="#b064e8" stroke-width="1"/>
  </g>
</svg>
