<svg xmlns="http://www.w3.org/2000/svg" xmlns:xlink="http://www.w3.org/1999/xlink" width="172" height="172" viewBox="0 0 172 172">
  <defs>
    <filter id="Exclusion_7" x="0" y="0" width="172" height="172" filterUnits="userSpaceOnUse">
      <feOffset input="SourceAlpha"/>
      <feGaussianBlur stdDeviation="3" result="blur"/>
      <feFlood flood-opacity="0.161"/>
      <feComposite operator="in" in2="blur"/>
      <feComposite in="SourceGraphic"/>
    </filter>
  </defs>
  <g transform="matrix(1, 0, 0, 1, 0, 0)" filter="url(#Exclusion_7)">
    <path id="Exclusion_7-2" data-name="Exclusion 7" d="M76.5,153a76.143,76.143,0,0,1-42.772-13.065A76.724,76.724,0,0,1,6.012,106.277a76.4,76.4,0,0,1,7.053-72.549A76.724,76.724,0,0,1,46.723,6.012a76.4,76.4,0,0,1,72.549,7.053,76.724,76.724,0,0,1,27.716,33.658,76.4,76.4,0,0,1-7.053,72.549,76.724,76.724,0,0,1-33.658,27.716A76.02,76.02,0,0,1,76.5,153ZM61.631,27.942a5.183,5.183,0,0,0-1.657.268,7.351,7.351,0,0,0-4.094,3.969,21.687,21.687,0,0,0-1.525,6.359v.008q-.033.241-.065.48c-.378,2.717-.625,5.123-.755,7.355a50.956,50.956,0,0,0,.15,8.307.461.461,0,0,0,.105.282,1.755,1.755,0,0,0-.434,1.159,20.608,20.608,0,0,0,.1,3.705,24.675,24.675,0,0,0,1.947,7.247,23.612,23.612,0,0,0,2.02,3.659l0,.007,0,.007a12.026,12.026,0,0,1,.428,5.5.466.466,0,0,0,.194.5c-1.421,4.481-2.778,8.871-3.752,13.328a52.858,52.858,0,0,0-1.376,14.256,17.724,17.724,0,0,0,1.556,7.3A5.048,5.048,0,0,0,55.2,112.9a.468.468,0,0,0,.061.189,24.205,24.205,0,0,0,8.019,8.344,23.882,23.882,0,0,0,19.243,2.7.439.439,0,0,0,.191-.106c3.359-.58,6.55-2.672,9.756-6.4a31.348,31.348,0,0,0,6.641-11.953,24.33,24.33,0,0,0,.919-7.659.464.464,0,0,0,.054-.2,38.3,38.3,0,0,0-1.373-12.233A61.615,61.615,0,0,0,94.3,74.642c-.955-1.91-1.98-3.82-2.971-5.668l-.114-.213a.461.461,0,0,0-.052-.079A3.127,3.127,0,0,0,92.473,67.3a4.312,4.312,0,0,0,.36-2.535,7.832,7.832,0,0,0-.89-2.609A5.747,5.747,0,0,0,90.3,60.227a4,4,0,0,0-2.328-.772,3.189,3.189,0,0,0-1.98.658,2.622,2.622,0,0,0-.973-.182,3.328,3.328,0,0,0-2.319,1,4.933,4.933,0,0,0-1.262,3.559,12.063,12.063,0,0,0,.248,2.162,8.96,8.96,0,0,0,.5,1.784,4.372,4.372,0,0,0,1.023,1.557,4.3,4.3,0,0,0,1.633.937,5.714,5.714,0,0,0,1.787.263,12.223,12.223,0,0,0,2.243-.254,86.246,86.246,0,0,1,4.694,8.885,50.789,50.789,0,0,1,3.269,9.591,35.051,35.051,0,0,1,.868,9.37,29.687,29.687,0,0,1-1.679,8.579,23.443,23.443,0,0,1-4.289,7.456,20.458,20.458,0,0,1-6.975,5.225A21.461,21.461,0,0,1,76.2,122c-.162,0-.327.006-.489.006a19.978,19.978,0,0,1-7.923-1.628,21.313,21.313,0,0,1-6.831-4.753,20.985,20.985,0,0,1-4.485-6.916c-.247-.631-.466-1.287-.653-1.951a.414.414,0,0,0-.415-.318.513.513,0,0,0-.13.017,26.653,26.653,0,0,1-.013-6.995A94.421,94.421,0,0,1,58,84.947c.714-2.664,1.559-5.338,2.511-7.948a.444.444,0,0,0-.026-.309,8.764,8.764,0,0,1,3.4-4.893c1.269-.091,3.218-.713,5.3-3.165.624-.733,1.205-1.524,1.768-2.288q.226-.307.452-.612l2.342-3.158.249-.334,0,0c.125-.167.254-.339.378-.51a1.856,1.856,0,0,0,.386-.872,1.079,1.079,0,0,0-.186-.714l5.216-9.164a.432.432,0,0,0,.059-.273A25.222,25.222,0,0,0,81.943,46.6a27.444,27.444,0,0,0,1.59-4.617,11.25,11.25,0,0,0,.126-4.454,6.691,6.691,0,0,0-2.079-3.862,5.583,5.583,0,0,0-3.636-1.48,4.5,4.5,0,0,0-.5.028,1.607,1.607,0,0,0-1.03-1.12,24.045,24.045,0,0,0-3.275-1.218.485.485,0,0,0-.128-.018.4.4,0,0,0-.263.1,1.927,1.927,0,0,0-1.459,1.168,1.887,1.887,0,0,0,.387,1.964,2.554,2.554,0,0,0,1.991.644l.209,0a13.691,13.691,0,0,0,2.676-.319.479.479,0,0,0,.069-.02.871.871,0,0,0,.568-.3.434.434,0,0,0,.164.031l0-.006a4.506,4.506,0,0,1,3.352.985,5.909,5.909,0,0,1,2,3.243c.723,2.933-.365,5.953-1.442,8.554a24.476,24.476,0,0,1-2.3,4.5.451.451,0,0,0-.056.3L73.831,59.62a.452.452,0,0,0-.148-.025.441.441,0,0,0-.3.122v-.007a24.884,24.884,0,0,0-3.239,3.854c-.32.438-.651.891-.986,1.329a11.507,11.507,0,0,1-4.778,4.056,5.546,5.546,0,0,1-3.112.31.727.727,0,0,0-.07-.022v-.007a5.973,5.973,0,0,1-3.872-3.587,17.646,17.646,0,0,1-1.118-5.775q-.027-.332-.054-.661a23.98,23.98,0,0,0-.585-3.937.4.4,0,0,0-.408-.321h-.035a.892.892,0,0,0-.543-.257,60.092,60.092,0,0,1,.4-14.137c.159-1.263.315-2.383.478-3.424a21.243,21.243,0,0,1,.721-3.244,7.665,7.665,0,0,1,3.227-4.429,4.655,4.655,0,0,1,2.268-.6,3.69,3.69,0,0,1,2.59.985.44.44,0,0,0,.2.26c.25.152.5.311.746.465.563.354,1.144.719,1.737,1.038a3.634,3.634,0,0,0,1.693.486,2.193,2.193,0,0,0,.938-.2,1.645,1.645,0,0,0,.861-2.07c-.311-.709-1.069-1.077-2.253-1.094-.468-.007-.933-.008-1.285-.008h-.992c-.405,0-.746,0-1.094,0a.415.415,0,0,0-.324.139A4.772,4.772,0,0,0,61.631,27.942Zm14.3,96.209h0A23.177,23.177,0,0,1,69.7,123.3a23.04,23.04,0,0,1-13.465-10.344.461.461,0,0,0-.125-.376c-.053-.057-.1-.105-.135-.153l-.017-.02c-.011-.013-.022-.026-.032-.04s-.044-.06-.047-.062l-.026-.035c-.05-.069-.1-.14-.151-.214a4.58,4.58,0,0,1-.332-.6.456.456,0,0,0-.057-.178,15.312,15.312,0,0,1-1.442-6.294,43.549,43.549,0,0,1,.088-7.027,73.643,73.643,0,0,1,2.807-13.874c.715-2.51,1.484-4.954,2.343-7.66a.4.4,0,0,0-.017-.319.448.448,0,0,0-.272-.212,13.05,13.05,0,0,0-.593-5.612.438.438,0,0,0-.189-.243,23.445,23.445,0,0,1-3.8-12.06,18.341,18.341,0,0,1,.02-1.844,1.239,1.239,0,0,1,.05-.349.436.436,0,0,1,.031-.074.377.377,0,0,1,.053-.068l.024-.028h.007s.006,0,.014,0l.065,0a.457.457,0,0,0,.3.329,30.85,30.85,0,0,1,.511,3.972c.26,3.052.529,6.207,2.8,8.525a6.02,6.02,0,0,0,2.521,1.579.478.478,0,0,0,.14.061,5.776,5.776,0,0,0,1.474.189,7.956,7.956,0,0,0,4.814-1.835A21.083,21.083,0,0,0,70.871,64.1c.2-.278.41-.562.615-.838A19.858,19.858,0,0,1,73.7,60.665a.463.463,0,0,0,.129-.024l.021-.011.015,0c0,.006,0,.014,0,.022a.1.1,0,0,0,.013.05.106.106,0,0,1,.013.046.99.99,0,0,1-.271.521l-.025.032c-.221.3-.448.605-.667.9l-.369.495L70.525,65.42c-.159.213-.32.434-.475.647a14.779,14.779,0,0,1-3.637,3.9,5.344,5.344,0,0,1-3.036.942h-.041a.4.4,0,0,0-.308.127.467.467,0,0,0-.111.359,9.712,9.712,0,0,0-3.384,5.392.464.464,0,0,0,.01.247,97.574,97.574,0,0,0-3.95,14.295c-.479,2.468-.869,4.984-1.16,7.476a28.847,28.847,0,0,0-.068,7.712,12.9,12.9,0,0,0,3.037,6.749.4.4,0,0,0,.3.144.422.422,0,0,0,.23-.072c.312.455.643.9.983,1.322a22.353,22.353,0,0,0,6.511,5.548,20.9,20.9,0,0,0,8.442,2.611c.634.055,1.279.082,1.916.082a22.286,22.286,0,0,0,7.068-1.149,21.553,21.553,0,0,0,7.854-4.6,23.032,23.032,0,0,0,5.215-7.228,29.188,29.188,0,0,0,2.455-8.679,33.646,33.646,0,0,0-.162-9.321,45.916,45.916,0,0,0-2.78-9.98,74.959,74.959,0,0,0-4.612-9.458c-.335-.587-.694-1.2-1.067-1.831a.455.455,0,0,0,.093-.373.532.532,0,0,0-.058-.273L89.2,68.653a.4.4,0,0,0-.042-.06.447.447,0,0,0-.188-.241A7.124,7.124,0,0,1,86.417,65.4a7.042,7.042,0,0,1-.577-1.883A3.44,3.44,0,0,1,86,61.455a2.142,2.142,0,0,1,1.981-1.1,2.852,2.852,0,0,1,1.251.289,6.124,6.124,0,0,1,2.743,4.636,5.754,5.754,0,0,0-.608-1.759,13.164,13.164,0,0,0-1.248-2.036,2.087,2.087,0,0,0-1.58-.918,1.413,1.413,0,0,0-.239.02A1.74,1.74,0,0,0,87,61.2a2.6,2.6,0,0,0-.628,1.952,5.811,5.811,0,0,0,.721,2.071,5.966,5.966,0,0,0,1.066,1.532,2.854,2.854,0,0,0,1.934.827,1.964,1.964,0,0,0,1.187-.379,1.738,1.738,0,0,0,.533-.611,2.279,2.279,0,0,1-1.252,1.395.465.465,0,0,0-.315.555.453.453,0,0,0,.19.256.427.427,0,0,0,0,.421c1.807,3.366,3.676,6.846,5.225,10.462A42.836,42.836,0,0,1,98.9,90.934a37.593,37.593,0,0,1,.3,6.416.4.4,0,0,0-.094.3l0,.005a25.053,25.053,0,0,1-3.048,13.211,33.172,33.172,0,0,1-3.665,5.471,25.219,25.219,0,0,1-4.325,4.275,12.4,12.4,0,0,1-5.993,2.605.47.47,0,0,0-.369.2A23.167,23.167,0,0,1,75.93,124.152ZM86.661,70.3a5.211,5.211,0,0,1-1.026-.1,3.374,3.374,0,0,1-2.427-1.695,6.072,6.072,0,0,1-.54-1.528,13.372,13.372,0,0,1-.294-1.724,4.913,4.913,0,0,1,.615-3.262,2.482,2.482,0,0,1,2.019-1.159,2.081,2.081,0,0,1,.306.023,2.85,2.85,0,0,0-.236.485,1.4,1.4,0,0,0-.626.208c-.028.017-.055.035-.081.054a.421.421,0,0,0-.276.137c-1.4,1.457-.677,3.532-.3,4.357a4.915,4.915,0,0,0,1.273,1.834,2.464,2.464,0,0,0,1.5.56,1.782,1.782,0,0,0,.662-.124.463.463,0,0,0,.181-.105,8.183,8.183,0,0,0,.984.787c.007.02.015.039.024.058l.4.924A11.173,11.173,0,0,1,86.661,70.3Zm3.431-3.62A1.878,1.878,0,0,1,89,66.3a3.768,3.768,0,0,1-.9-1.1,7.768,7.768,0,0,1-.69-1.453,2.006,2.006,0,0,1,.009-1.606,1.2,1.2,0,0,1,.684-.614.359.359,0,0,0,.069.006.461.461,0,0,0,.148-.026c.021-.007.041-.013.062-.018l.044,0a.435.435,0,0,0,.138-.022,1.271,1.271,0,0,1,.88.6,15.907,15.907,0,0,1,.9,1.431,6.811,6.811,0,0,1,.687,1.548,1.392,1.392,0,0,1-.1,1.248A1.038,1.038,0,0,1,90.092,66.679ZM73.674,32.835c-.132,0-.254,0-.373-.009h-.03a1.565,1.565,0,0,1-.765-.2.974.974,0,0,1,.507-1.793.488.488,0,0,0,.14-.025,22.569,22.569,0,0,1,2.245.825c.077.032.156.061.239.093a2.532,2.532,0,0,1,.748.375c.1.084.2.213.181.323-.011.055-.037.062-.063.062a.317.317,0,0,1-.04,0h-.007a.454.454,0,0,0-.254.08,12.239,12.239,0,0,1-1.894.255C74.061,32.83,73.86,32.835,73.674,32.835ZM68.635,31.2a2.89,2.89,0,0,1-1.33-.433c-.566-.317-1.126-.666-1.668-1l-.234-.146h2.484c.187,0,.433,0,.677.021a1.561,1.561,0,0,1,.835.265.611.611,0,0,1,.255.557.8.8,0,0,1-.457.616A1.266,1.266,0,0,1,68.635,31.2Z" transform="translate(9.5 9.5)" fill="#fff" stroke="#93ff9b" stroke-width="1"/>
  </g>
</svg>
