<svg xmlns="http://www.w3.org/2000/svg" xmlns:xlink="http://www.w3.org/1999/xlink" width="172.002" height="171.998" viewBox="0 0 172.002 171.998">
  <defs>
    <filter id="Rectangle_309" x="20.504" y="12.697" width="246.133" height="141.972" filterUnits="userSpaceOnUse">
      <feOffset input="SourceAlpha"/>
      <feGaussianBlur stdDeviation="3" result="blur"/>
      <feFlood flood-opacity="0.161"/>
      <feComposite operator="in" in2="blur"/>
      <feComposite in="SourceGraphic"/>
    </filter>
    <filter id="Subtraction_19" x="0" y="0" width="172.002" height="171.998" filterUnits="userSpaceOnUse">
      <feOffset input="SourceAlpha"/>
      <feGaussianBlur stdDeviation="3" result="blur-2"/>
      <feFlood flood-opacity="0.161"/>
      <feComposite operator="in" in2="blur-2"/>
      <feComposite in="SourceGraphic"/>
    </filter>
  </defs>
  <g transform="matrix(1, 0, 0, 1, 0, 0)" filter="url(#Subtraction_19)">
    <path id="Subtraction_19-2" data-name="Subtraction 19" d="M17891-643.5a76.034,76.034,0,0,1-29.779-6.011,76.538,76.538,0,0,1-12.994-7.053,76.907,76.907,0,0,1-11.322-9.341,76.811,76.811,0,0,1-9.342-11.321,76.132,76.132,0,0,1-7.053-12.995A75.985,75.985,0,0,1,17814.5-720a75.979,75.979,0,0,1,6.014-29.776,76.143,76.143,0,0,1,7.053-12.995,76.817,76.817,0,0,1,9.342-11.322,76.932,76.932,0,0,1,11.322-9.341,76.545,76.545,0,0,1,12.994-7.053A76.042,76.042,0,0,1,17891-796.5a76.072,76.072,0,0,1,28.795,5.605,76.308,76.308,0,0,1,12.662,6.593,76.944,76.944,0,0,1,11.139,8.752c-4.973,1.678-9.84,3.553-15.23,5.654a8.735,8.735,0,0,0-3.092-.56,13.386,13.386,0,0,0-8.553,3.7,54.885,54.885,0,0,0-4.3,4.356c-1.332,1.434-2.674,2.773-4.1,4.093a65.126,65.126,0,0,1-8.957,6.913,63.9,63.9,0,0,1-18.26,8.073,1.187,1.187,0,0,0-.639-.19,14.361,14.361,0,0,0-5.73,1.647,19.673,19.673,0,0,0-4.967,3.833,35.313,35.313,0,0,0-5.9,8.907,1.283,1.283,0,0,0-.5.666l-.654,1.664-.006.013a.049.049,0,0,1-.008.014,1.036,1.036,0,0,0-.09.24l-8.137,20.725a1.28,1.28,0,0,0-.73-.229,1.293,1.293,0,0,0-.361.052l-9.475,3.635a1.259,1.259,0,0,0-.125.049l-.014.005-.02.009h-.062a1.326,1.326,0,0,0-1.262.913l-7.289,17.266a1.477,1.477,0,0,0-.082.19,1.229,1.229,0,0,0-.055.354,1.287,1.287,0,0,0,.926,1.237l.008,0a1.46,1.46,0,0,0,.2.03c3.271.554,6.682,1.042,10.137,1.451a206.53,206.53,0,0,0,24.619,1.478c3.98,0,8.014-.117,11.988-.349a1.315,1.315,0,0,0,.689-.236,1.345,1.345,0,0,0,.236.027,1.279,1.279,0,0,0,1.277-1.278l-1.482-17.561a1.219,1.219,0,0,0-.012-.123l-.006-.047,0-.034a1.292,1.292,0,0,0,.121-.975,1.353,1.353,0,0,0-.561-.766,12.084,12.084,0,0,0-2.326-1.242,53.582,53.582,0,0,0,11.795-10.576,23.909,23.909,0,0,0,4.1,4.7,1.281,1.281,0,0,0,.9.361,1.365,1.365,0,0,0,1.07-.521,1.205,1.205,0,0,0,.182-1.073c-.859-2.773,1.684-4.346,4.143-5.867l.186-.115.336-.209c1.943-1.222,4.055-2.776,4.973-5.036a1,1,0,0,0,.1-.025l.012,0,.031-.008.035-.015a11.9,11.9,0,0,1,2.652-.892,1.355,1.355,0,0,0,.578.13,1.344,1.344,0,0,0,.32-.039c.182-.034.365-.062.52-.086a2.611,2.611,0,0,1,.912.39c.678.47.768,1.055.871,2.049.049.466.084.941.117,1.4l.01.109.01.13c.035.47.072.956.121,1.434a58.487,58.487,0,0,1,.057,10.81,24.145,24.145,0,0,1-3.285,10.232,19.524,19.524,0,0,1-2.969,3.74,30.138,30.138,0,0,1-4.047,3.123c-3.926,2.685-5.578,5.631-4.916,8.758a1.338,1.338,0,0,0,1.23.92l7.732.612,3.736.308a4.048,4.048,0,0,0,.422.022,4,4,0,0,0,1.326-.226,4.55,4.55,0,0,0-.316,4.864c1.525,2.574,4.656,3.05,7.172,3.432a23.233,23.233,0,0,0,3.432.274,11.311,11.311,0,0,0,4.654-.836c2.357-1.069,3.758-3.355,4.715-5.227.059-.127.119-.253.178-.379l.082-.172.006-.014c.414-.882.8-1.715,1.271-2.559a35.139,35.139,0,0,1,1.994-3.123,9.262,9.262,0,0,0,1.643-3.79,17.542,17.542,0,0,0,.125-2.146,17.4,17.4,0,0,1,.125-2.1c.352-2.361,1.773-4.306,3.15-6.187l.006-.008.074-.1a29.654,29.654,0,0,0,3.789-6.4,47.037,47.037,0,0,0,1.668-5.551l0-.011a30.657,30.657,0,0,1,3.037-8.368,13.483,13.483,0,0,1,1.643-2.089l.012-.013a8.822,8.822,0,0,0,2.492-4.194,8.4,8.4,0,0,0-.965-5.521h.006a.1.1,0,0,0,.033-.008c3.02-.4,6.07-.922,9.064-1.537,1.213-.245,2.457-.513,3.7-.8a77.622,77.622,0,0,1,.643,9.967,76.029,76.029,0,0,1-6.012,29.778,76.361,76.361,0,0,1-7.055,12.995,76.881,76.881,0,0,1-9.34,11.321,77.008,77.008,0,0,1-11.322,9.341,76.457,76.457,0,0,1-12.994,7.053A76.008,76.008,0,0,1,17891-643.5Zm33.408-27.955c-.4,0-.834-.02-1.287-.059a32.264,32.264,0,0,1-3.84-.617,5.23,5.23,0,0,1-3.277-1.587,1.809,1.809,0,0,1-.418-1.551c.338-1.486,2.707-2.666,3.486-3.054a15.365,15.365,0,0,0,3.482-2.2,14.482,14.482,0,0,0,2.461-2.919,67.894,67.894,0,0,0,3.943-7.371c1.268-2.545,2.541-5.285,3.785-8.141,1.385-3.2,2.49-5.876,3.377-8.2.119-.308.244-.626.365-.932l.078-.2a27.9,27.9,0,0,0,2.117-7.168,7.04,7.04,0,0,0-2.914-6.654,13.741,13.741,0,0,0-6.4-2.1,63.65,63.65,0,0,0-7.371-.43,63.966,63.966,0,0,0-7.652.461,7.605,7.605,0,0,0,1.555-4.488,1.191,1.191,0,0,0-1.238-1.249,1.48,1.48,0,0,0-.643.148,27.454,27.454,0,0,0-1.346-3.658,29.051,29.051,0,0,0-14.355-14.61,67.442,67.442,0,0,0,11.59-8.586c1.381-1.276,2.65-2.545,3.994-3.994.234-.252.473-.511.7-.761l.193-.21c1.008-1.1,2.049-2.243,3.2-3.281,1.389-1.248,4.172-3.341,7.211-3.341a5.922,5.922,0,0,1,2.436.512,1.278,1.278,0,0,0,.9.374,1.278,1.278,0,0,0,.359-.052l1.861-.716.018-.007c4.838-1.862,9.84-3.788,14.875-5.432a76.578,76.578,0,0,1,13.471,18.7,75.971,75.971,0,0,1,7.357,22.346c-4.3.987-8.689,1.79-13.053,2.389h-.055a.9.9,0,0,0-.559.322l-.059-.088c-.047-.072-.1-.151-.15-.234a1.2,1.2,0,0,0-1.039-.6,1.434,1.434,0,0,0-1.227.708,1.105,1.105,0,0,0,.063,1.165,16.141,16.141,0,0,1,1.846,3.432,4.43,4.43,0,0,1,0,3.431,10.791,10.791,0,0,1-1.574,2.09c-.2.23-.422.476-.629.725a19.85,19.85,0,0,0-3.432,6.5c-.473,1.417-.854,2.883-1.221,4.3l-.033.121c-.205.8-.439,1.713-.689,2.59a22.994,22.994,0,0,1-2.92,6.555c-.4.591-.84,1.185-1.262,1.758l-.037.049a28.959,28.959,0,0,0-2.7,4.131,11.587,11.587,0,0,0-1.18,3.481,16.772,16.772,0,0,0-.125,2.113,15.26,15.26,0,0,1-.125,2.034,8.331,8.331,0,0,1-1.643,3.382,26.255,26.255,0,0,0-1.9,3.073c-.273.521-.516,1.043-.783,1.622a13.842,13.842,0,0,1-2.488,4.058A6.627,6.627,0,0,1,17924.41-671.457Zm-8.146-8.133,0,0a12.86,12.86,0,0,0,.408-1.42l0-.022a10.7,10.7,0,0,1,.656-2.054,24.656,24.656,0,0,1,2.1-3.425l.027-.041c.314-.457.641-.93.943-1.4a38.3,38.3,0,0,0,4.611-10.648c.863-3.06,1.5-6.243,2.121-9.321l.012-.061a89.486,89.486,0,0,1,3.342-13.147,1.205,1.205,0,0,0,.047-.222,12.261,12.261,0,0,1,2.564.734,5.541,5.541,0,0,1,2.42,1.843,4.538,4.538,0,0,1,.809,2.917,13.723,13.723,0,0,1-.92,3.839l-.189.525c-.422,1.174-.9,2.5-1.4,3.776-2.205,5.636-4.684,11.218-7.371,16.591-.236.463-.475.941-.705,1.4l-.061.121a36.551,36.551,0,0,1-3.229,5.642,9.415,9.415,0,0,1-2.66,2.511c-.557.337-1.141.62-1.707.895l-.023.011a18.711,18.711,0,0,0-1.8.951Zm-3.674-.191a8.319,8.319,0,0,1-1.119-.1c-.246-.034-.479-.067-.687-.08l-3.227-.254-5.473-.426c.008-1.251.686-2.415,2.2-3.776a24.908,24.908,0,0,1,2.635-1.979l.008-.005.012-.008a28.262,28.262,0,0,0,2.309-1.694,22.458,22.458,0,0,0,6.146-8.4,31.384,31.384,0,0,0,2.3-11.523c.055-2.044-.055-4.156-.152-6.021l0-.022a55.234,55.234,0,0,0-.512-5.938,4.427,4.427,0,0,0-.566-1.668l.109-.012h.012l.092-.01c1.869-.165,3.789-.249,5.707-.249,1.18,0,2.377.032,3.559.1l.227.016c.586.04,1.193.082,1.813.138a77.978,77.978,0,0,0-3.115,12.085l-.131.671c-1.387,6.916-2.818,14.065-6.83,20.067a31.539,31.539,0,0,0-2.924,4.81,14.619,14.619,0,0,0-.814,2.616,2.819,2.819,0,0,0-.047.3,1.319,1.319,0,0,1-.721,1.233A2.043,2.043,0,0,1,17912.59-679.781Zm-41.8-2.121a204.854,204.854,0,0,1-32.715-2.637l6.441-15.254c2.832.41,5.363.715,7.738.934,4.869.457,9.822.688,14.721.688,4.668,0,9.4-.21,14.055-.625v.041l1.4,16.514c-3.32.189-6.615.3-9.8.331C17872.025-681.9,17871.406-681.9,17870.793-681.9Zm-3.842-18.786c-3.873,0-7.787-.146-11.633-.434a1.4,1.4,0,0,0,.217-.4l10.289-26.214a.083.083,0,0,0,.008-.014h0l0-.008a39.511,39.511,0,0,1,5.316-8.327,15.615,15.615,0,0,1,7.131-4.687,1.128,1.128,0,0,0,.789.314,1.365,1.365,0,0,0,.271-.028,65.674,65.674,0,0,0,10.59-3.368,1.34,1.34,0,0,0,.521.295,21.157,21.157,0,0,1,6.2,1.845,20.749,20.749,0,0,1,8.521,7.564,20.732,20.732,0,0,1,3.25,10.917,1.264,1.264,0,0,0-.762-.254,1.339,1.339,0,0,0-1.283,1.278c-.164,2.344-2.158,3.543-4.27,4.813-.518.312-1.053.633-1.568.976a10.275,10.275,0,0,0-4.084,4.778c-1.346-1.439-3.074-3.655-2.572-6.265a11.878,11.878,0,0,1,1.24-2.975l.008-.013.035-.07c.262-.494.529-1.006.768-1.547a6.765,6.765,0,0,0,.463-5.222l-.055-.1a1.33,1.33,0,0,0-1.264-.91,1.34,1.34,0,0,0-.324.04,1.269,1.269,0,0,0-.762.614,1.262,1.262,0,0,0-.107.972c.645,1.583,0,3.033-.92,4.764a11.141,11.141,0,0,0-1.742,5.168,7.871,7.871,0,0,0,.25,2.067,51.718,51.718,0,0,1-14.482,12.529h.049a1.183,1.183,0,0,0-.484,1.618c-1.311.075-2.475.131-3.559.172C17870.988-700.727,17868.955-700.688,17866.951-700.688Zm-13.787-.606h0c-1.344-.12-2.582-.246-3.787-.385l4.111-1.6-.408,1.043a1.276,1.276,0,0,0,.084.941Z" transform="translate(-17805 806)" fill="#fff" stroke="#93ff9b" stroke-width="1"/>
  </g>
</svg>
