<svg xmlns="http://www.w3.org/2000/svg" xmlns:xlink="http://www.w3.org/1999/xlink" width="172" height="172" viewBox="0 0 172 172">
  <defs>
    <filter id="Rectangle_556" x="28.5" y="23.5" width="114.414" height="124.055" filterUnits="userSpaceOnUse">
      <feOffset input="SourceAlpha"/>
      <feGaussianBlur stdDeviation="3" result="blur"/>
      <feFlood flood-opacity="0.161"/>
      <feComposite operator="in" in2="blur"/>
      <feComposite in="SourceGraphic"/>
    </filter>
    <filter id="Subtraction_28" x="0" y="0" width="172" height="172" filterUnits="userSpaceOnUse">
      <feOffset input="SourceAlpha"/>
      <feGaussianBlur stdDeviation="3" result="blur-2"/>
      <feFlood flood-opacity="0.161"/>
      <feComposite operator="in" in2="blur-2"/>
      <feComposite in="SourceGraphic"/>
    </filter>
  </defs>
  <g transform="matrix(1, 0, 0, 1, 0, 0)" filter="url(#Subtraction_28)">
    <path id="Subtraction_28-2" data-name="Subtraction 28" d="M76.5,153a76.143,76.143,0,0,1-42.772-13.065A76.724,76.724,0,0,1,6.012,106.277a76.4,76.4,0,0,1,7.053-72.549A76.724,76.724,0,0,1,46.723,6.012a76.4,76.4,0,0,1,72.549,7.053,76.724,76.724,0,0,1,27.716,33.658,76.4,76.4,0,0,1-7.053,72.549,76.724,76.724,0,0,1-33.658,27.716A76.02,76.02,0,0,1,76.5,153ZM69.991,97.994A1.583,1.583,0,0,1,70.16,98a5.157,5.157,0,0,1,1.608.508,9.162,9.162,0,0,1,2.83,2.016.5.5,0,0,0,.194.13,56.028,56.028,0,0,1,2.819,13.981,56.491,56.491,0,0,1,.04,7.289c-.039.581-.087,1.19-.142,1.812a13.348,13.348,0,0,0-.1,1.548,2.556,2.556,0,0,0,1.425,2.463,9.173,9.173,0,0,0,1.874.53,17.025,17.025,0,0,0,1.95.274H85.18a16.741,16.741,0,0,0,1.777-.234.52.52,0,0,0,.369-.553.5.5,0,0,0,.1-.3,34.446,34.446,0,0,0-.86-8.77v-.006c-.114-.614-.232-1.249-.34-1.874a34.026,34.026,0,0,1-.571-5.334c-.015-1.41.04-2.852.093-4.246v-.006c.017-.456.035-.927.05-1.388l.128-3.685a2.288,2.288,0,0,0,.808.265,22.573,22.573,0,0,0,2.668.265c.139.006.279.009.418.009a10.162,10.162,0,0,0,2.25-.253,23.484,23.484,0,0,0,2.3-.733,10.457,10.457,0,0,1,2.067-.573l-.255,10.754c-.005.21-.014.425-.023.633a12.6,12.6,0,0,0,.023,1.974,4.21,4.21,0,0,0,.305,1.222,5.516,5.516,0,0,0,.652,1.018,3.418,3.418,0,0,1,.55.957,4.307,4.307,0,0,1,.184,1.1c.017.33.016.664.015.987a12.882,12.882,0,0,0,.046,1.374,9.67,9.67,0,0,0,2,4.989.516.516,0,0,0,.147.1,2.537,2.537,0,0,0,2.028.691c.241,0,.483-.011.716-.021.173-.008.333-.015.489-.018.289-.005.609-.008.948-.01h.005c.987-.008,2.1-.016,3.1-.091a6.3,6.3,0,0,0,3.482-1.039,1.675,1.675,0,0,0,.774-1.568,2.411,2.411,0,0,0-1.059-1.466,9.891,9.891,0,0,0-3.746-1.853.6.6,0,0,0-.067-.013,8.94,8.94,0,0,1-1.745-2.8,10.934,10.934,0,0,1-.291-3.466q0-.162.006-.322a42.7,42.7,0,0,1,.876-7.737,43.742,43.742,0,0,1,1.14-4.316.445.445,0,0,0-.049-.412,21.353,21.353,0,0,0,.63-5.326,20.211,20.211,0,0,1,.722-5.624,7.078,7.078,0,0,1,1.384-2.5.617.617,0,0,0,.057-.076.468.468,0,0,0,.127-.473,30.282,30.282,0,0,1-.855-8.613v-.013a22.608,22.608,0,0,0-.1-4.405c-.054-.316-.126-.638-.195-.949-.087-.39-.176-.793-.233-1.189a6.637,6.637,0,0,1,.04-1.935,15.622,15.622,0,0,1,1.349-3.972,5.114,5.114,0,0,1,.5,2.607.508.508,0,0,0,.14.352.56.56,0,0,0,.51.346.46.46,0,0,0,.408-.25,7.05,7.05,0,0,0,.68-3.258q.006-.122.012-.243l.162-3.585h.048a6.763,6.763,0,0,1,2.844.632.529.529,0,0,0,.692-.183.507.507,0,0,0-.071-.6c-.381-1.224-.791-2.45-1.219-3.645a59.254,59.254,0,0,1,5.667,5.266.459.459,0,0,0,.334.153.539.539,0,0,0,.455-.286.469.469,0,0,0,0-.487c0-.017-.006-.034-.011-.052a15.289,15.289,0,0,0-1.09-2.694,20.983,20.983,0,0,1-.865-1.969,16.057,16.057,0,0,1-.711-2.769,18.116,18.116,0,0,0,3.358,4.216.508.508,0,0,0,.345.143.516.516,0,0,0,.264-.075.5.5,0,0,0,.407.21.561.561,0,0,0,.487-.281.437.437,0,0,0-.037-.465,27.644,27.644,0,0,1-2.585-5.519,26.386,26.386,0,0,0-2.75-5.761l-.126-.176a4.516,4.516,0,0,1-.77-1.392,6.848,6.848,0,0,1-.185-1.135,28.36,28.36,0,0,1,6.538,4.983.484.484,0,0,0,.345.153.523.523,0,0,0,.386-.183.5.5,0,0,0,.132-.389.4.4,0,0,0,.013-.047v-.191a.538.538,0,0,0-.061-.157,14.824,14.824,0,0,0-3.726-4.847c-.293-.227-.6-.442-.9-.649a12.021,12.021,0,0,1-1.544-1.2,7.768,7.768,0,0,1-1.609-2.2,7.589,7.589,0,0,1-.682-2.123,6.024,6.024,0,0,1,2.271,1.716l.264.28a10.985,10.985,0,0,0,2.342,2.06.522.522,0,0,0,.185.066.54.54,0,0,0,.2.037.549.549,0,0,0,.443-.211.425.425,0,0,0,.049-.4,8.908,8.908,0,0,0-2.273-3.237,15.733,15.733,0,0,1-1.514-1.751,11.454,11.454,0,0,1-1.33-3.111,13.149,13.149,0,0,0-1.4-3.3,6,6,0,0,0-.745-.925l.623.152a.509.509,0,0,0,.495-.206.529.529,0,0,0,.218-.568c-.165-1.194-1.294-1.879-2.26-2.342l-2.813-1.307a19.471,19.471,0,0,1,3.624-.341c.509,0,1.024.02,1.531.061h.02a.506.506,0,0,0,.353-.143.509.509,0,0,0-.353-.877l-.053,0-.053,0a.528.528,0,0,0-.341-.3,11.908,11.908,0,0,0-4.01-.814h-.824a14.427,14.427,0,0,0-5.978,1.547,17.356,17.356,0,0,0-4.194,2.993,18.146,18.146,0,0,0-3.3,4.174,9.069,9.069,0,0,0-1.324,5.134,26.084,26.084,0,0,0-10.627,2.465,9.932,9.932,0,0,0-4.4-5.014,33.178,33.178,0,0,0-3.1-1.731A22.462,22.462,0,0,0,73.3,31.542a10.8,10.8,0,0,0-4.521-.346l-.049.016a5.442,5.442,0,0,0-2.761,1.47c-.744.666-1.574,1.576-2.377,2.457l-.008.009c-.222.243-.451.494-.67.731l.021.021a.527.527,0,0,0,0,.713.51.51,0,0,0,.713,0l.141-.154c-.361.428-.725.883-1.078,1.355a.435.435,0,0,0-.019.461.55.55,0,0,0,.468.312l1.131-.046A6.1,6.1,0,0,0,62.768,42.6a.509.509,0,0,0,.876.366,4.5,4.5,0,0,1,.9-.562,7.178,7.178,0,0,0-.761,3.149,10.953,10.953,0,0,0,.083,1.163,9.307,9.307,0,0,1,.079,1.423,7.971,7.971,0,0,1-.295,1.667c-.053.206-.107.418-.153.634a9.989,9.989,0,0,0-.221,1.581,5.649,5.649,0,0,0-1.612-.481,8.238,8.238,0,0,0-.866-.046c-.213,0-.428.008-.641.025l-.148.016c.027-.07.049-.134.067-.2l.2-.529a.511.511,0,0,0-.159-.531.459.459,0,0,0-.452-.3h-.018a5.816,5.816,0,0,0-4.54,2.166,10.457,10.457,0,0,0-1.856-4.1.509.509,0,0,0-.937.387,7.837,7.837,0,0,1,.041,3.36,2.481,2.481,0,0,1-.086.323,2.163,2.163,0,0,0-.093.37l-.086-.022-.427-.122L49.879,51.8a.506.506,0,0,0-.142-.02.51.51,0,0,0-.51.509,8.9,8.9,0,0,1,.013,1.293c-.309-.028-.627-.042-.945-.042a10.528,10.528,0,0,0-3.629.643.553.553,0,0,0-.358.536.464.464,0,0,0,.358.441,5.271,5.271,0,0,1,2.292,1.319,25.35,25.35,0,0,0-3.025.29.511.511,0,0,0-.346.632.534.534,0,0,0-.174.325.506.506,0,0,0,.256.509l.749.366-5.88,1.141c-1.584.316-3.172.8-4.053,2.158a.432.432,0,0,0-.036.459.578.578,0,0,0,.494.286.492.492,0,0,0,.167-.028.568.568,0,0,0,.048.057,4.641,4.641,0,0,0,1.3.943,21.761,21.761,0,0,0-3.7,2.132.526.526,0,0,0-.183.692,1.1,1.1,0,0,0,.631.305h2.532a8.248,8.248,0,0,1-1.391,2.382c-.664.865-1.322,1.77-1.955,2.688a25.966,25.966,0,0,0-3.054,6.007,17.489,17.489,0,0,0-.835,3.767.51.51,0,0,0,.509.509.492.492,0,0,0,.064-.006.529.529,0,0,0,.567.047l1.44-.8,0,.011,0,.011a20.155,20.155,0,0,1-.753,9.224,19.519,19.519,0,0,1-.977,2.443.626.626,0,0,0,.042.572.439.439,0,0,0,.379.2H29.8A17.58,17.58,0,0,0,35.636,92.3a9.735,9.735,0,0,1-1.435,5.13c-.163.3-.343.606-.517.9a15.183,15.183,0,0,0-.807,1.482,2.526,2.526,0,0,0,0,2.525.324.324,0,0,0,.02.029,5.33,5.33,0,0,0-1.4,2.578,13,13,0,0,0-.122,1.771l-.061,1.873-.01.305c-.076,2.3-.155,4.683-.214,7.025a7.362,7.362,0,0,0,.512,3.487.506.506,0,0,0,.139.28,6.661,6.661,0,0,0,4.276,1.14l.292,0a15.578,15.578,0,0,0,4.534-.674.474.474,0,0,0,.322-.277.574.574,0,0,0-.032-.484,2.759,2.759,0,0,0-1.166-2.191c-.193-.157-.377-.292-.555-.422a3.95,3.95,0,0,1-1.034-.957.438.438,0,0,0-.019-.474c-1.791-2.884-1.132-6.647,2.016-11.5a13.346,13.346,0,0,1,1.913-2.382,14.2,14.2,0,0,1,2.226-1.671l.34-.223a16.548,16.548,0,0,0,2.463-1.914,17.981,17.981,0,0,0,1.955-2.239,35.821,35.821,0,0,0,2.85-4.644c-.154,3.578.05,7.25,2.587,9.877a6.676,6.676,0,0,0,2.444,1.608l.006,0,.007,0L60,109.344l1.466,3.666q.142.355.282.712l0,.009c.344.871.7,1.77,1.1,2.618a8.094,8.094,0,0,0,2.1,2.912.53.53,0,0,0,.6.077,23.662,23.662,0,0,0,4.026.347c.546,0,1.1-.019,1.644-.058l.184-.013c1.456-.1,3.45-.233,4.173-1.7a.515.515,0,0,0-.136-.634,2.882,2.882,0,0,0-1.432-2.237,6.81,6.81,0,0,0-2.334-.728c-.274-.053-.557-.107-.821-.168a5.441,5.441,0,0,1-3.889-3.91,12.552,12.552,0,0,1-.55-3.3,17,17,0,0,1,.1-3.014,9.72,9.72,0,0,1,2.26-5.355A1.561,1.561,0,0,1,69.991,97.994ZM83.95,127.571a15.315,15.315,0,0,1-4.221-.593,1.72,1.72,0,0,1-1.059-.632,2.245,2.245,0,0,1-.244-1.181c0-.355.036-.726.07-1.084.011-.115.022-.229.032-.342.043-.5.1-1.216.142-1.812a57.1,57.1,0,0,0-.936-14.07,56.637,56.637,0,0,0-2.057-7.737.531.531,0,0,0-.391-.35A9.979,9.979,0,0,0,72.644,97.8a6.123,6.123,0,0,0-2.658-.834,2.709,2.709,0,0,0-.661.08A4.337,4.337,0,0,0,67,99.265a10.849,10.849,0,0,0-1.2,2.973,16.77,16.77,0,0,0-.224,6.617,7.867,7.867,0,0,0,3.2,5.518,5.539,5.539,0,0,0,1.71.733c.316.081.642.138.957.193s.642.112.958.194c.549.142,2.1.806,2.016,1.955a.507.507,0,0,0,.085.281,2.329,2.329,0,0,1-1.184.615,12.908,12.908,0,0,1-2.382.306c-.424.024-.855.037-1.28.037a22.608,22.608,0,0,1-4.136-.383.52.52,0,0,0-.128-.016h-.021a11.79,11.79,0,0,1-2.508-4.5c-.1-.27-.209-.548-.316-.818L59.653,105.8,58,101.729a.529.529,0,0,0-.409-.354.514.514,0,0,0-.182-.094A6.316,6.316,0,0,1,54.2,98.206a12.974,12.974,0,0,1-1.12-5.213c-.022-1.208.05-2.407.122-3.42a.445.445,0,0,0-.111-.342.5.5,0,0,0-.367-.146.6.6,0,0,0-.072,0,.571.571,0,0,0-.419-.2.436.436,0,0,0-.4.259,47.535,47.535,0,0,1-3.1,5.294,15.728,15.728,0,0,1-4.255,4.154l-.407.264a16.633,16.633,0,0,0-2.341,1.712,13.556,13.556,0,0,0-2.056,2.484,20.875,20.875,0,0,0-2.871,5.864,9.246,9.246,0,0,0,.511,6.671.53.53,0,0,0,.018.456,4.456,4.456,0,0,0,1.526,1.578l.2.152a3.7,3.7,0,0,1,.774.753,1.607,1.607,0,0,1,.244.468.962.962,0,0,1,.036.328,14.667,14.667,0,0,1-3.825.508H36.09a11.788,11.788,0,0,1-1.95-.163,3.707,3.707,0,0,1-1.627-.648,5.816,5.816,0,0,1-.45-2.834c.009-.434.026-.934.044-1.462.023-.667.046-1.354.057-2l.122-3.543c.013-.379.023-.762.031-1.132.018-.75.036-1.526.091-2.288a3.734,3.734,0,0,1,.407-1.589,7.488,7.488,0,0,1,1.018-1.344,2.564,2.564,0,0,0-.081-1c-.431-.587-.119-1.338.244-2,.114-.207.263-.464.42-.737.3-.519.639-1.108.9-1.625a9.134,9.134,0,0,0,1.3-5.274.528.528,0,0,0-.158-.358.457.457,0,0,0,.007-.479.545.545,0,0,0-.466-.3.5.5,0,0,0-.237.062l-.021-.021a16.268,16.268,0,0,1-5.125,1.58,21.018,21.018,0,0,0,1.7-8.768,21.4,21.4,0,0,0-.265-2.83.711.711,0,0,1-.326-.692.528.528,0,0,0-.692-.183l-1.452.8c.645-4.322,3.155-8.091,5.524-11.208a8.489,8.489,0,0,0,1.731-3.279.529.529,0,0,0-.023-.327.511.511,0,0,0-.507-.467H34.632a20.744,20.744,0,0,1,3.356-1.65.531.531,0,0,0,.346-.631.41.41,0,0,0-.016-.047.511.511,0,0,0-.35-.36h-.021l-.61-.163-.163-.061h-.061l-.305-.143-.53-.346H36.3l-.061-.041-.122-.1-.244-.223a.468.468,0,0,0-.078-.063,6.44,6.44,0,0,1,3.161-1.206l.073-.014,5.864-1.14a.511.511,0,0,0,.209-.15.552.552,0,0,0,.178.029.457.457,0,0,0,.429-.254.535.535,0,0,0,.1-.012.508.508,0,0,0,.122-.936l-1.13-.552a23.712,23.712,0,0,1,2.937-.184l.311,0h.015a.509.509,0,0,0,.433-.773,6.393,6.393,0,0,0-2.151-1.971,9.914,9.914,0,0,1,3.372-.127.41.41,0,0,0,.055,0c.254,0,.411-.257.454-.512a8.973,8.973,0,0,0,.07-1.161l1.436.427a1.844,1.844,0,0,0,.554.1.822.822,0,0,0,.566-.2,1.66,1.66,0,0,0,.408-.876,9.013,9.013,0,0,0,.267-1.88,9.431,9.431,0,0,1,.751,3.082.529.529,0,0,0,.366.489.507.507,0,0,0,.137.019.513.513,0,0,0,.434-.243,4.864,4.864,0,0,1,3.881-2.84c-.2.518-.348,1.087.15,1.4a.946.946,0,0,0,.519.122c.1,0,.2-.007.3-.015l.078-.006h.814a4.621,4.621,0,0,1,2.365.6c.005.039.012.076.018.114a.512.512,0,0,0,.489.367h.018a11.514,11.514,0,0,1-.1,3.706c-.022.119-.048.24-.072.357a3.97,3.97,0,0,0-.111,1.638,1.673,1.673,0,0,0,1.14,1.263.548.548,0,0,0,.153.023.475.475,0,0,0,.454-.375.517.517,0,0,0,.1.01.512.512,0,0,0,.21-.045h.021l1.526-1.008c-.328,2.39-.657,4.743-.977,6.994a.507.507,0,0,0,.184.54.514.514,0,0,0,.308.1.508.508,0,0,0,.262-.073,7.628,7.628,0,0,0,2.012-1.366c-.021.219-.039.443-.056.659v.015l-.009.115a7.428,7.428,0,0,1-.541,2.655.509.509,0,0,0,.436.774h.04a4.008,4.008,0,0,0,2.437-.831l.019,1.218a.509.509,0,0,0,.774.447l.631-.265.671-.2a5.947,5.947,0,0,1,1.385-.183.509.509,0,0,0,0-1.019,7.885,7.885,0,0,0-2.455.472l-.024-1.6a.484.484,0,0,0-.187-.667.509.509,0,0,0-.835.379,2.946,2.946,0,0,1-1.677,1.144,12.525,12.525,0,0,0,.349-2.324,11.5,11.5,0,0,1,.4-2.5c.031-.052.06-.1.089-.157a.462.462,0,0,0,.007-.477.578.578,0,0,0-.484-.281.433.433,0,0,0-.224.06.538.538,0,0,0-.276.312l-.021-.021c-.026.072-.054.152-.084.245a6.792,6.792,0,0,1-2.005,2.029c.31-2.2.637-4.548.969-6.977a.533.533,0,0,0-.346-.632.494.494,0,0,0-.118-.014.594.594,0,0,0-.421.173h-.023a.517.517,0,0,0-.211.046L65.11,59.3a.5.5,0,0,0-.19.271c-.479-.16-.437-.493-.4-.788.008-.061.015-.119.018-.175a8.071,8.071,0,0,1,.148-.854c.065-.321.139-.685.178-.98a12.771,12.771,0,0,0-.1-3.828.51.51,0,0,0-.487-.366H64.27l-.016-.011-.006,0-.022-.015a8.058,8.058,0,0,1,.348-2.5,13.48,13.48,0,0,0,.311-1.5,8.761,8.761,0,0,0-.036-1.892c-.016-.174-.033-.353-.046-.531A6.138,6.138,0,0,1,64.987,44a5.932,5.932,0,0,1,1.039-2.1.528.528,0,0,0,0-.713.506.506,0,0,0-.356-.145.516.516,0,0,1-.19.007.523.523,0,0,0-.127.016l.021-.02a5.546,5.546,0,0,0-1.5.534,5.035,5.035,0,0,1,1.946-3.1.542.542,0,0,0,.109-.092.509.509,0,0,0-.292-.926l-1.4.058A29.077,29.077,0,0,1,66.616,34.9a.469.469,0,0,0,.14-.449.569.569,0,0,0-.1-.476.461.461,0,0,0-.362-.191l.09-.087.126-.119a3.836,3.836,0,0,1,2.726-1.39c.06,0,.123,0,.185,0h.037a.438.438,0,0,0,.28-.091c.147-.008.3-.012.443-.012A14.32,14.32,0,0,1,76.268,33.8a20.589,20.589,0,0,1,5.5,3.461,7.159,7.159,0,0,1,1.874,2.81.494.494,0,0,0,.49.347h.037a.516.516,0,0,0,.063.184.529.529,0,0,0,.692.184,25.205,25.205,0,0,1,10.561-2.424.507.507,0,0,0,.5.122.531.531,0,0,0,.346-.631l-.02-.021a7.655,7.655,0,0,1,.916-4.744,16.512,16.512,0,0,1,2.973-3.971,14.918,14.918,0,0,1,8.613-4.5,11.669,11.669,0,0,1,3.227.015,20.322,20.322,0,0,0-3.512.617.474.474,0,0,0-.352.571.511.511,0,0,0,.25.407H108.4l3.849,1.792a4.243,4.243,0,0,1,1.709,1.145l-2.442-.6a.51.51,0,0,0-.53.1.51.51,0,0,0,.122.831.506.506,0,0,0,.366.472h.021a3.5,3.5,0,0,1,2.331,1.764,12.351,12.351,0,0,1,1.17,2.818l.036.117a12.338,12.338,0,0,0,1.308,3.161,9.518,9.518,0,0,0,.618.845,4.464,4.464,0,0,0-1.637-.784.525.525,0,0,0-.1-.014.539.539,0,0,0-.456-.23.5.5,0,0,0-.367.146.444.444,0,0,0-.111.342h.02a8.888,8.888,0,0,0,2.2,5.375,12.457,12.457,0,0,0,2.4,1.975,10.2,10.2,0,0,1,2.24,2.076c.081.11.165.226.257.356a29.286,29.286,0,0,0-5.206-3.41.505.505,0,0,0-.683.192.489.489,0,0,0-.051.467,9.8,9.8,0,0,0,.143,1.683,4.413,4.413,0,0,0,.692,1.588,23.944,23.944,0,0,1,1.629,2.708c.568,1.148,1.029,2.359,1.474,3.53.306.8.622,1.633.969,2.436.149.361.306.713.466,1.048a17.411,17.411,0,0,1-2.767-4.387.511.511,0,0,0-.3-.231.535.535,0,0,0-.409-.176.516.516,0,0,0-.371.146.458.458,0,0,0-.122.343l.02.021a16.943,16.943,0,0,0,.916,5.152,22.478,22.478,0,0,0,1.039,2.4c.05.094.1.187.144.283a60.888,60.888,0,0,0-5.539-4.783.509.509,0,0,0-.692.184.528.528,0,0,0,.03.543c.526,1.419,1.033,2.874,1.507,4.324a7.7,7.7,0,0,0-2.21-.324c-.175,0-.353.006-.528.018a.531.531,0,0,0-.509.509l-.183,3.89c-.005.132-.009.266-.013.4-.005.186-.011.378-.02.57a6.1,6.1,0,0,0-.741-1.5.529.529,0,0,0-.692-.183,1.967,1.967,0,0,1-.489.468l-.021-.061-.106.238a20.982,20.982,0,0,0-1.421,3.835,8.55,8.55,0,0,0-.223,2.138,12.156,12.156,0,0,0,.346,2.178,17.075,17.075,0,0,1,.265,4.419,38.1,38.1,0,0,0,.04,4.479,30.628,30.628,0,0,0,.776,4.77c-2,2.424-2.123,5.558-2.242,8.59-.03.754-.06,1.534-.121,2.278a13.141,13.141,0,0,1-.692,3.421.508.508,0,0,0,.063.423,44.412,44.412,0,0,0-1.55,7.4c-.162,1.338-.265,2.7-.305,4.052l-.005.166a14,14,0,0,0,.249,3.947,9.811,9.811,0,0,0,2.2,3.624.5.5,0,0,0,.355.145.513.513,0,0,0,.067,0,8.95,8.95,0,0,1,2.775,1.244l.1.069a3.7,3.7,0,0,1,1,.867c.261.382.108.626-.2.876a5.322,5.322,0,0,1-2.83.855c-.685.058-1.567.064-2.419.071-.333,0-.677,0-1,.01l-2.056.041c-.335,0-.9,0-1.1-.306a.281.281,0,0,0-.159-.106.534.534,0,0,0-.045-.057,8.469,8.469,0,0,1-1.689-4.092,12.7,12.7,0,0,1-.058-1.519,6.016,6.016,0,0,0-.532-3.063c-.127-.221-.276-.428-.42-.629a3.581,3.581,0,0,1-.7-1.345,8.1,8.1,0,0,1-.078-1.95c.006-.163.013-.33.017-.493L97.3,106.9l.141-6.123a.521.521,0,0,0,.062-.229.51.51,0,0,0-.509-.509v.021a12.814,12.814,0,0,0-3.221.8,17.43,17.43,0,0,1-2.339.684,10.961,10.961,0,0,1-3.074.061c-.48-.04-.977-.081-1.445-.163a1.6,1.6,0,0,1-.428-.121l-.139-.1a.01.01,0,0,0,0-.013c0-.008,0-.013,0-.013s0,.008,0,.023a.527.527,0,0,0-.372-.485l.047-1.347a.458.458,0,0,0-.123-.342.517.517,0,0,0-.372-.146.5.5,0,0,0-.525.489v-.02l-.2,5.7c-.017.533-.038,1.076-.058,1.6v.006c-.051,1.345-.1,2.735-.1,4.093a33.69,33.69,0,0,0,.468,5.457c.143.886.308,1.776.468,2.637s.326,1.752.468,2.637a27.227,27.227,0,0,1,.4,5.394l-.076-.059a.53.53,0,0,0-.713,0,.509.509,0,0,0-.054.647A15.358,15.358,0,0,1,83.95,127.571Z" transform="translate(9.5 9.5)" fill="#fff" stroke="#b064e8" stroke-width="1"/>
  </g>
</svg>
