<svg xmlns="http://www.w3.org/2000/svg" xmlns:xlink="http://www.w3.org/1999/xlink" width="172" height="172" viewBox="0 0 172 172">
  <defs>
    <filter id="Rectangle_417" x="24.705" y="28.78" width="122.588" height="114.44" filterUnits="userSpaceOnUse">
      <feOffset input="SourceAlpha"/>
      <feGaussianBlur stdDeviation="3" result="blur"/>
      <feFlood flood-opacity="0.161"/>
      <feComposite operator="in" in2="blur"/>
      <feComposite in="SourceGraphic"/>
    </filter>
    <filter id="Exclusion_3" x="0" y="0" width="172" height="172" filterUnits="userSpaceOnUse">
      <feOffset input="SourceAlpha"/>
      <feGaussianBlur stdDeviation="3" result="blur-2"/>
      <feFlood flood-opacity="0.161"/>
      <feComposite operator="in" in2="blur-2"/>
      <feComposite in="SourceGraphic"/>
    </filter>
  </defs>
  <g transform="matrix(1, 0, 0, 1, 0, 0)" filter="url(#Exclusion_3)">
    <path id="Exclusion_3-2" data-name="Exclusion 3" d="M76.5,153a76.143,76.143,0,0,1-42.772-13.065A76.724,76.724,0,0,1,6.012,106.277a76.4,76.4,0,0,1,7.053-72.549A76.724,76.724,0,0,1,46.723,6.012a76.4,76.4,0,0,1,72.549,7.053,76.724,76.724,0,0,1,27.716,33.658,76.4,76.4,0,0,1-7.053,72.549,76.724,76.724,0,0,1-33.658,27.716A76.02,76.02,0,0,1,76.5,153Zm15.619-28.8h0v.016h.127l4.2-.149c.352-.012.713-.019,1.062-.026.945-.019,1.923-.038,2.867-.15a3.554,3.554,0,0,0,2.788-1.273,2.9,2.9,0,0,0-.088-3.162,7.8,7.8,0,0,0-2.458-2.1l-.285-.185a6.053,6.053,0,0,1-1.339-1.12,6.479,6.479,0,0,1-.9-1.449,21.33,21.33,0,0,1-.95-2.569c-.1-.3-.2-.617-.3-.921-.464-1.366-.95-2.807-1.362-4.083-.888-2.686-1.788-5.807-1.228-8.847a11.176,11.176,0,0,0,7.2-3,40.12,40.12,0,0,0,1.139,7.43,26.06,26.06,0,0,0,1.113,3.062q.147.356.292.714a18.135,18.135,0,0,1,.966,3.908,19.053,19.053,0,0,0,.9,3.643,15.256,15.256,0,0,0,1.646,3.2,14.557,14.557,0,0,0,2.371,2.722,5.96,5.96,0,0,0,1.559,1.054,5.574,5.574,0,0,0,1.866.417c.215.013.443.019.7.019.363,0,.732-.013,1.089-.025l.455-.015,2.459-.067,4.851-.11a.533.533,0,0,0,.324-.113.547.547,0,0,0,.489-.545,5.063,5.063,0,0,0-3.908-4.478c-.2-.043-.407-.077-.607-.11a6.215,6.215,0,0,1-1.215-.285,3.121,3.121,0,0,1-1.032-.659,6,6,0,0,1-1.382-2.282,22.476,22.476,0,0,1-.834-3.139c-.275-1.289-.519-2.619-.725-3.951a64.271,64.271,0,0,1-.68-7.947,65.406,65.406,0,0,1,.355-8.588,6.546,6.546,0,0,0,1.621-3.9,12.685,12.685,0,0,1,.659-2.787c.082-.21.169-.42.254-.624a9.507,9.507,0,0,0,.69-2.12,16.05,16.05,0,0,0,.131-3.029,19.967,19.967,0,0,1,.11-2.92c.1-.792.245-1.594.387-2.369a28.177,28.177,0,0,0,.49-3.492,13.582,13.582,0,0,0-.263-3.293c-.061-.336-.131-.675-.2-1a18.524,18.524,0,0,1-.372-2.289.553.553,0,0,0-.056-.225,15.107,15.107,0,0,1,2.043-1.848A9.589,9.589,0,0,0,122.038,56c1.041-2.143.825-4.885.635-7.3-.015-.188-.029-.372-.043-.555l-.169-2.05.148.865c.1.618.245,1.237.856,1.427a.906.906,0,0,0,.268.041,1.827,1.827,0,0,0,1.29-.9A5.314,5.314,0,0,0,125.642,46a5.985,5.985,0,0,1,.544-1.417,11.243,11.243,0,0,1,.686-.977,7.1,7.1,0,0,0,1.2-2.029,9.652,9.652,0,0,0-.176-4.369.526.526,0,0,0-.032-.1.544.544,0,0,0-.385-.6,32.042,32.042,0,0,1-6.015-2.633c-.7-.4-1.4-.825-2.07-1.235-1.061-.646-2.158-1.313-3.286-1.9a16.671,16.671,0,0,0-6.059-1.866c-.526-.053-1.076-.083-1.637-.088h-.446a37.234,37.234,0,0,0-4.458.374c-.367.048-.751.1-1.148.155a54.783,54.783,0,0,1-6.272.613.557.557,0,0,0-.238.05.646.646,0,0,0-.092.015v-.022a10.177,10.177,0,0,0-3.5,1.655c-.355.227-.72.46-1.084.672a9.723,9.723,0,0,1-2.151.923c-.251.076-.51.148-.76.218-.473.132-.962.268-1.435.441a5.564,5.564,0,0,0-1.954,1.119,3.808,3.808,0,0,0-1.141,2.3A6.86,6.86,0,0,0,84,39.975a8.572,8.572,0,0,0,1.076,2.569,6.955,6.955,0,0,0,.98,1.053A7.349,7.349,0,0,1,87.157,44.8a5.124,5.124,0,0,1,.9,2.7.549.549,0,0,0,1.032.285L90,46.282a28.65,28.65,0,0,0-.567,5.965,31.19,31.19,0,0,1-11.122,1.677c-1.012,0-2.095-.024-3.407-.075-.735-.031-1.482-.067-2.205-.1-1.8-.086-3.668-.175-5.5-.206-.284-.005-.573-.009-.859-.011-.415-.34-.836-.689-1.243-1.026-1.239-1.027-2.52-2.088-3.826-3.068A9.741,9.741,0,0,0,55.7,47.11c-.1,0-.211-.005-.315-.005a9.833,9.833,0,0,0-5.326,1.564,13.327,13.327,0,0,0-4.1,4.258,20.248,20.248,0,0,0-1.515,3.008c-.025.059-.052.123-.081.189-.326.761-.869,2.027-.078,2.592-2.952,2.419-5.734,4.865-7.327,8.194a12.083,12.083,0,0,0-.988,2.985.568.568,0,0,0,.1.49A48.306,48.306,0,0,1,34.627,79.6c-.423,1.634-.955,3.262-1.47,4.836-.446,1.366-.908,2.778-1.3,4.185a20.979,20.979,0,0,0-.856,5.356.529.529,0,0,0,.069.273c-1.963,1.525-3.278,3.971-4.02,7.476a43.73,43.73,0,0,0-.747,5.6c-.081,1.067-.107,2.159-.133,3.216-.023.946-.046,1.923-.109,2.886a26.112,26.112,0,0,1-1.339,6.476.556.556,0,0,0-.022.087v.18a.461.461,0,0,0,.154.265.569.569,0,0,0,.526.412c1.382.139,2.786.209,4.173.209.845,0,1.7-.026,2.544-.078l1.668-.131a7.808,7.808,0,0,0,1.537-.241,2.329,2.329,0,0,0,1.624-1.69,2.5,2.5,0,0,0-.464-2.155.484.484,0,0,0-.019-.3l.022-.022-.031-.093a29.218,29.218,0,0,1-1.615-6.316,11.223,11.223,0,0,1,.11-3.271,12.3,12.3,0,0,1,.966-2.876,41.855,41.855,0,0,1,3.073-5.158,14.228,14.228,0,0,1,3.556-4,10.332,10.332,0,0,1,1.589-.868.01.01,0,0,1,0,.006l-.006.007a3.554,3.554,0,0,0-.79,1.537,5.886,5.886,0,0,1-.2.987,1.517,1.517,0,0,1-.461.571c-.182.156-.372.3-.557.432a6.029,6.029,0,0,0-.825.688,5.668,5.668,0,0,0-1.01,1.493,8.1,8.1,0,0,0-.724,3.71,21.132,21.132,0,0,0,.746,4.368l1.1,4.434q.158.652.312,1.3c.236.988.48,2.01.741,3.024a4.043,4.043,0,0,0,1.823,2.788,4.734,4.734,0,0,0,2.088.33h2.785c1.742-.044,3.508-.132,5.247-.264a.569.569,0,0,0,.535-.445.541.541,0,0,0,.256-.323,2.6,2.6,0,0,0-.944-2.415A6.245,6.245,0,0,0,52.353,115c-.127-.054-.255-.109-.383-.166l-.031-.014a3.146,3.146,0,0,1-1.769-1.325A2.1,2.1,0,0,1,49.9,112.4c0-.1,0-.2-.013-.312l-.154-1.712-.329-3.885a.565.565,0,0,0-.225-.433,10.093,10.093,0,0,1,3.628-5.428c.709-.615,1.452-1.2,2.171-1.775.267-.212.57-.452.857-.684a23.932,23.932,0,0,0,2.832-2.744c.915-1.057,1.743-2.153,2.705-3.473a.582.582,0,0,0,.214.049,12.2,12.2,0,0,0,1.574.086c.315,0,.635-.007.944-.013h.037c.346-.008.658-.015.971-.015.2,0,.382,0,.556.008a17.8,17.8,0,0,1,3.557.483c.963.218,1.934.485,2.873.744,1.332.367,2.708.746,4.084.99a14.734,14.734,0,0,0,2.743.258c.445,0,.9-.021,1.34-.061a.588.588,0,0,0,.2-.043c2.712,3.262,3.427,7.637,3.883,11.48.051.426.1.85.15,1.3.424,3.742.905,7.983,2.792,11.52a13.2,13.2,0,0,0,3.195,3.974.57.57,0,0,0-.232.438.55.55,0,0,0,.549.549l.793-.079a.57.57,0,0,0,.138.434.483.483,0,0,0,.366.15h.021Zm.352-1.111h0a.547.547,0,0,0-.286-.535,11.186,11.186,0,0,1-3.8-4.162,19.631,19.631,0,0,1-1.926-5.364c-.406-1.9-.629-3.863-.845-5.762A45.457,45.457,0,0,0,84.3,99.661a16.391,16.391,0,0,0-3.162-6.146.548.548,0,0,0-.655-.085.554.554,0,0,0-.222-.047,12.166,12.166,0,0,1-1.307.069,25.64,25.64,0,0,1-6.744-1.227,28.958,28.958,0,0,0-6.042-1.213c-.258-.015-.535-.022-.845-.022-.371,0-.746.01-1.109.02s-.742.02-1.11.02a11.672,11.672,0,0,1-1.523-.085.542.542,0,0,0-.386.159.563.563,0,0,0-.23-.049.57.57,0,0,0-.481.263A32.923,32.923,0,0,1,55.2,97.29c-.461.387-.922.759-1.367,1.118a21.732,21.732,0,0,0-4.208,4.063,8.494,8.494,0,0,0-1.58,3.666.569.569,0,0,0,.288.645l.261,3.087.131,1.668A14.245,14.245,0,0,0,48.9,113.2a3.21,3.21,0,0,0,1.559,2.085,8.954,8.954,0,0,0,1.239.588,10.519,10.519,0,0,1,1.022.465c1.065.582,1.525,1.184,1.4,1.842-1.389.106-2.784.18-4.149.221l-.538.017c-.734.024-1.49.048-2.236.048-.571,0-1.078-.014-1.55-.043a1.9,1.9,0,0,1-1.361-.593,3.353,3.353,0,0,1-.615-1.251c-.266-.857-.476-1.761-.679-2.635-.1-.427-.2-.865-.308-1.295l-1.076-4.236c-.072-.3-.149-.6-.223-.893a23.825,23.825,0,0,1-.655-3.19,8.283,8.283,0,0,1,.264-3.622,4.916,4.916,0,0,1,1.887-2.524A3.12,3.12,0,0,0,44.2,96.7a4.88,4.88,0,0,0,.19-.769,2.653,2.653,0,0,1,.337-1.01,6.059,6.059,0,0,1,2.766-1.954.553.553,0,0,0,.245-.641,5.533,5.533,0,0,0,.458-.346.552.552,0,0,0,0-.769.571.571,0,0,0-.769,0,6.9,6.9,0,0,1-2.211,1.09l-.269.1a11.815,11.815,0,0,0-2.656,1.185,14.89,14.89,0,0,0-3.929,4.1,45.267,45.267,0,0,0-3.183,5.18,12.743,12.743,0,0,0-1.515,6.344,27.379,27.379,0,0,0,1.7,7.441.548.548,0,0,0,.1.637,1.324,1.324,0,0,1,.418,1.339,1.244,1.244,0,0,1-.352.658,1.839,1.839,0,0,1-.943.373,23.776,23.776,0,0,1-2.854.241c-.73.033-1.478.049-2.222.049-.246,0-.5,0-.742-.005-.85-.013-1.811-.063-2.856-.151a27.469,27.469,0,0,0,1.144-5.293c.146-1.318.176-2.666.2-3.969.014-.651.029-1.322.058-1.98a46.729,46.729,0,0,1,.615-5.641,18.653,18.653,0,0,1,1.229-4.325,8.544,8.544,0,0,1,2.964-3.754.54.54,0,0,0,.255-.467.611.611,0,0,0-.275-.5,30.135,30.135,0,0,1,1.987-8.755l.118-.353a57.656,57.656,0,0,0,2.371-9.087,51.5,51.5,0,0,0,.593-5.4.488.488,0,0,0-.1-.344,12.5,12.5,0,0,1,2.22-4.779,24.527,24.527,0,0,1,3.629-3.877c.858-.745,1.715-1.469,2.546-2.152a.55.55,0,0,0,0-.768.563.563,0,0,0-.2-.12.48.48,0,0,0-.278-.364l-.018-.009-.007,0a.312.312,0,0,1,0-.141,2.147,2.147,0,0,1,.132-.5l.091-.237c.123-.321.251-.653.391-.97a19.256,19.256,0,0,1,1.251-2.436,12.3,12.3,0,0,1,3.6-3.864,8.953,8.953,0,0,1,4.918-1.536,8.589,8.589,0,0,1,4.982,1.91c.938.686,1.858,1.45,2.634,2.107l1.674,1.357c-1.849.028-3.723.123-5.573.284a.672.672,0,0,0-.052-.061,4.737,4.737,0,0,0-2.85-1.355,2.613,2.613,0,0,0-.552.06,4.056,4.056,0,0,0-2.408,1.9l-.158.214c-1.091.181-2.177.384-3.229.6a.546.546,0,0,0-.438.382.549.549,0,0,0,.724.671,77.219,77.219,0,0,1,15.753-1.626h.13a.576.576,0,0,0,.518,0c1.856.018,3.746.108,5.574.2,2.046.1,4.161.2,6.239.2,1.258,0,2.4-.036,3.484-.111a27.485,27.485,0,0,0,8.32-1.756.575.575,0,0,0,.387-.473.554.554,0,0,0,.031-.207,27.444,27.444,0,0,1,.966-7.771.487.487,0,0,0-.071-.447.607.607,0,0,0-.48-.228.583.583,0,0,0-.116.012.6.6,0,0,0-.372-.132.522.522,0,0,0-.454.269L88.927,45.94a6.359,6.359,0,0,0-.409-1.048,7.127,7.127,0,0,0-1.647-2.041,5.714,5.714,0,0,1-.856-.9,5.245,5.245,0,0,1-.592-1.163,9.071,9.071,0,0,1-.615-2.459,3.015,3.015,0,0,1,.548-2.218,3.613,3.613,0,0,1,1.537-1.076,17.519,17.519,0,0,1,1.8-.583,12.577,12.577,0,0,0,2.5-.909c.406-.216.838-.494,1.3-.788a10.687,10.687,0,0,1,3.578-1.715.464.464,0,0,0,.062-.023,49.17,49.17,0,0,0,5.854-.569,45.941,45.941,0,0,1,6.227-.571c.326,0,.649.007.961.021a15.045,15.045,0,0,1,5.971,1.58c1.3.643,2.567,1.41,3.791,2.152.492.3,1,.6,1.5.9a34.187,34.187,0,0,0,6.4,2.911c0,.02.006.036.01.053l.035.153a7.441,7.441,0,0,1,.273,3.117,5.361,5.361,0,0,1-1.2,2.215c-.105.137-.213.278-.317.419a5.869,5.869,0,0,0-.747,1.339c-.1.256-.183.531-.262.8-.055.188-.113.382-.176.565a2.591,2.591,0,0,1-.572,1.054l-.064.064c-.013-.041-.027-.083-.046-.13a3.523,3.523,0,0,1-.087-.462l-.725-4.258a.548.548,0,0,0-.68-.374.395.395,0,0,1-.636.285.55.55,0,0,0-.549.549l.351,4.566q.025.31.051.622v.015c.095,1.14.192,2.319.211,3.468a9.154,9.154,0,0,1-.5,3.6,6.679,6.679,0,0,1-2.129,2.7c-.216.179-.45.363-.7.557a13.584,13.584,0,0,0-2.288,2.1.574.574,0,0,0-.041.717.49.49,0,0,0,0,.051l.044.022a21.759,21.759,0,0,0,.4,2.514,17.169,17.169,0,0,1,.431,3.149,22.841,22.841,0,0,1-.513,4.346c-.079.432-.162.879-.234,1.318a19.745,19.745,0,0,0-.285,2.9c-.01.438,0,.884.016,1.314.015.519.031,1.056.007,1.584a7.9,7.9,0,0,1-.615,2.7,13.789,13.789,0,0,0-.9,2.656c-.052.281-.095.576-.141.888A6.235,6.235,0,0,1,113,88.156a.568.568,0,0,0-.366.309,2.683,2.683,0,0,1-.251.155.473.473,0,0,0-.268.459.615.615,0,0,0,.368.524,65.415,65.415,0,0,0,.251,15.041c.157,1.18.365,2.472.636,3.951a29.816,29.816,0,0,0,.813,3.513c.707,2.432,1.874,3.968,3.469,4.566a6.463,6.463,0,0,0,1.179.272c.278.046.565.093.84.167a3.7,3.7,0,0,1,1.383.68,3.962,3.962,0,0,1,1.444,2.269l-8.029.189c-.152.008-.307.012-.461.012a8.835,8.835,0,0,1-1.318-.1,3.945,3.945,0,0,1-1.58-.68,10.954,10.954,0,0,1-2.326-2.393A14.957,14.957,0,0,1,106.1,110.7q-.052-.31-.1-.62a20.972,20.972,0,0,0-.709-3.243c-.2-.6-.441-1.172-.676-1.728-.257-.609-.522-1.239-.729-1.894a37.845,37.845,0,0,1-1.4-8.583.575.575,0,0,0-.549-.549.533.533,0,0,1-.54-.165.494.494,0,0,0-.36.165A10.078,10.078,0,0,1,93.841,97.1c-.127,0-.257,0-.384-.007h-.021a.479.479,0,0,0-.477.345.6.6,0,0,0,.2.657,16.927,16.927,0,0,0,.783,7.669c.3,1.038.661,2.094,1.01,3.115q.132.385.263.771.211.624.418,1.247l0,.011c.287.862.584,1.752.9,2.627a9.57,9.57,0,0,0,1.559,3.073,9.792,9.792,0,0,0,2.342,1.888c.157.1.314.2.468.307.985.657,1.646,1.307,1.668,2.348.018.818-.528,1.321-1.668,1.537a10.509,10.509,0,0,1-1.734.154l-2.283.087-4.41.163ZM54.622,54.339l0,0a2.558,2.558,0,0,1,1.209-.818,1.262,1.262,0,0,1,.328-.042,2.55,2.55,0,0,1,1.349.5c-.955.1-1.925.226-2.884.365Z" transform="translate(9.5 9.5)" fill="#fff" stroke="#b064e8" stroke-width="1"/>
  </g>
</svg>
