<svg xmlns="http://www.w3.org/2000/svg" xmlns:xlink="http://www.w3.org/1999/xlink" width="172" height="172" viewBox="0 0 172 172">
  <defs>
    <filter id="Subtraction_33" x="0" y="0" width="172" height="172" filterUnits="userSpaceOnUse">
      <feOffset input="SourceAlpha"/>
      <feGaussianBlur stdDeviation="3" result="blur"/>
      <feFlood flood-opacity="0.161"/>
      <feComposite operator="in" in2="blur"/>
      <feComposite in="SourceGraphic"/>
    </filter>
  </defs>
  <g transform="matrix(1, 0, 0, 1, 0, 0)" filter="url(#Subtraction_33)">
    <path id="Subtraction_33-2" data-name="Subtraction 33" d="M76.5,153a76.143,76.143,0,0,1-42.772-13.065A76.724,76.724,0,0,1,6.012,106.277a76.4,76.4,0,0,1,7.053-72.549A76.724,76.724,0,0,1,46.723,6.012a76.4,76.4,0,0,1,72.549,7.053,76.724,76.724,0,0,1,27.716,33.658,76.4,76.4,0,0,1-7.053,72.549,76.724,76.724,0,0,1-33.658,27.716A76.02,76.02,0,0,1,76.5,153Zm-3.666-15.194h0a5.122,5.122,0,0,0,4.443-.629.633.633,0,0,0,.3-.543.624.624,0,0,0,.184.172,1.563,1.563,0,0,0,.949.309,2.333,2.333,0,0,0,2-1.3,4.38,4.38,0,0,0,.338-2.042c-.007-.243-.018-.49-.027-.729-.02-.479-.04-.973-.04-1.462a62.352,62.352,0,0,1,.875-9.192c.027-.177.051-.354.076-.542a6.478,6.478,0,0,1,1.138-3.427l.04-.009a2.5,2.5,0,0,1,.42-.034,5.26,5.26,0,0,1,1.883.439c.4.158.795.34,1.177.516s.768.354,1.161.51a12.742,12.742,0,0,0,4.763.7q.279,0,.558,0a3.96,3.96,0,0,0-.717,1.525,9.846,9.846,0,0,0-.221,1.314c-.007.057-.014.115-.021.174a2.622,2.622,0,0,0,.038,1.24,1.243,1.243,0,0,0,.43.554,1.7,1.7,0,0,0,.213.127,1.255,1.255,0,0,1,.257.164,2.038,2.038,0,0,1,.268.48,1.573,1.573,0,0,0,.542.544A3.116,3.116,0,0,0,95.2,127c.532.046,1.052.088,1.566.088h.091a11.555,11.555,0,0,0,1.908-.248,4.653,4.653,0,0,1,.817-.089,2.052,2.052,0,0,1,.8.149.627.627,0,0,0,.765-.435.634.634,0,0,0-.037-.414,43.682,43.682,0,0,0,2.062-5.247,39.381,39.381,0,0,0,4.277-7.149,18.031,18.031,0,0,0,1.715-8.069A26.035,26.035,0,0,0,106.9,96.97l-.141-.349a82.329,82.329,0,0,0-3.421-7.7,35.866,35.866,0,0,0-2.56-4.081l-.09-.126c-.753-1.052-1.69-2.361-1.492-3.732a.64.64,0,0,0-.432-.763l-.031-.007a.673.673,0,0,0-.079-.162A19.249,19.249,0,0,1,96.605,76a22.74,22.74,0,0,1-1.053-4.517,8.951,8.951,0,0,0-1.389-4.04,20.5,20.5,0,0,0-2.554-2.889,14.047,14.047,0,0,1-2.629-3.23.669.669,0,0,0-.088-.13,14.382,14.382,0,0,0-2.9-6.1.577.577,0,0,0-.061-.054,5.527,5.527,0,0,0-.619-4.279,13.511,13.511,0,0,0-2.751-3.154,19.271,19.271,0,0,0,1.509-13.6,18.716,18.716,0,0,0-1.313-3.532c.108-.15.216-.311.319-.479a.638.638,0,0,0,.166-.271l.016-.05a7.079,7.079,0,0,0,.78-2.372,6.093,6.093,0,0,1,2.414,1.923l.1.13a5.822,5.822,0,0,0,1.3,1.36,2.34,2.34,0,0,0,2.045.336.629.629,0,0,0,.373-.913l-.018-.029a36.474,36.474,0,0,1-4.372-8.405q-.073-.231-.144-.464a9.749,9.749,0,0,0-1.483-3.3,6.518,6.518,0,0,0-3.739-1.987,46.923,46.923,0,0,0-5.746-1.019.628.628,0,0,0-.607.5.636.636,0,0,0-.836.037c-.015.011-.03.023-.043.034a1.254,1.254,0,0,1-.116.076,1.384,1.384,0,0,1-.129.072l-.063.03-.042.02-.059.022-.142.042-.144.032h-.445a.158.158,0,0,1-.075-.013,2.415,2.415,0,0,1-.285-.072l-.086-.032h-.006l-.076-.042a.631.631,0,0,0-.747.1l-.028.006a25.925,25.925,0,0,1-9.67,1.863c-.685,0-1.378-.028-2.061-.082a.627.627,0,0,0-.37.126,16.527,16.527,0,0,1-4.335.913.632.632,0,0,0-.606.495.647.647,0,0,0-.1.216c-.284,1.062-1.3,1.835-3.016,2.3-.342.091-.693.173-1.034.253a8.813,8.813,0,0,0-3.63,1.442,5.154,5.154,0,0,0-1.878,3.992,7.425,7.425,0,0,0,.963,3.149,13.941,13.941,0,0,1,.712,1.67A10.084,10.084,0,0,1,46,37.595a.636.636,0,0,0-.172.278.627.627,0,0,0,.432.763,2.608,2.608,0,0,0,.494.048c1.444,0,2.5-1.288,3.176-2.257A19.158,19.158,0,0,0,51.088,34.5a5.178,5.178,0,0,0,.436,1.15.656.656,0,0,0,.1.129A58.6,58.6,0,0,0,52.873,46.7l-1.022,3.35a.632.632,0,0,0,.039.431,7.854,7.854,0,0,1-1.02,1.254l-.119.128a7.551,7.551,0,0,0-1.627,2.3,6.439,6.439,0,0,0-.327,2.161,11.162,11.162,0,0,1-.095,1.27c-.1.717-.279,1.433-.447,2.125-.107.441-.218.9-.311,1.353a8.479,8.479,0,0,0-.037,3.947.562.562,0,0,0,.517.437,37.3,37.3,0,0,0-1.2,8.507,22.991,22.991,0,0,0,1.38,8.432,18.3,18.3,0,0,0,2.071,3.974,5.206,5.206,0,0,0-.654,1.81c-.161.819-.256,1.673-.349,2.5q-.027.242-.054.483a23.721,23.721,0,0,0-.079,6.365,26.682,26.682,0,0,0,.57,2.683,21.219,21.219,0,0,1,.649,3.389c.127,1.564.165,3.162.2,4.708.014.6.028,1.209.047,1.809l.249,7.436a.61.61,0,0,0,.124.36,24.508,24.508,0,0,1-3.267,7.9c-.434.681-.864,1.289-1.312,1.858-.2.259-.418.516-.626.765-.313.375-.636.762-.927,1.163a6.949,6.949,0,0,0-1.411,4.442,2.606,2.606,0,0,0,1.2,2.121,1.911,1.911,0,0,0,1.559.188.624.624,0,0,0,.2.194,3.773,3.773,0,0,0,3.991-.075,3.24,3.24,0,0,0,1.3.271A3.266,3.266,0,0,0,55.3,132.86c2.607-4.472,3.312-9.734,3.635-13.819.116-1.463.2-2.953.28-4.395a78.479,78.479,0,0,1,1.065-10.512c.313-1.612.716-3.325,1.268-5.392a16.99,16.99,0,0,0,5.6,9.671,15.581,15.581,0,0,0,3.456,2.251A10.116,10.116,0,0,1,68,112.08l0,0-.448.192a8.075,8.075,0,0,0-3.772,2.882,6.583,6.583,0,0,0-1.057,4.745,1.789,1.789,0,0,0,.7,1.129,3.113,3.113,0,0,0,1.321.439,10.924,10.924,0,0,0,2.9.087,26.2,26.2,0,0,0,6.3-1.694,76.746,76.746,0,0,0-4.427,11.691.741.741,0,0,0-.024.132,4.818,4.818,0,0,0-.965.849A2.041,2.041,0,0,0,68,133.89a1.747,1.747,0,0,0,.6,1.225,1.418,1.418,0,0,0,.638.33,1.345,1.345,0,0,0,.247.023,1.379,1.379,0,0,0,.143-.008.631.631,0,0,0-.022.383v.01a1.981,1.981,0,0,0,1.1,1.3,2.045,2.045,0,0,0,1.686.049.639.639,0,0,0,.453.626l-.007-.025Zm1.682-.979h-.447l-.091-.008-.083-.008-.226-.04a4.962,4.962,0,0,1-.5-.134.628.628,0,0,0-.324,0,.623.623,0,0,0-.081-.352.633.633,0,0,0-.543-.3.64.64,0,0,0-.307.079l-.04.023a1.253,1.253,0,0,1-.162.044c-.035,0-.072,0-.108,0l-.1,0a1.847,1.847,0,0,1-.23-.064c-.065-.033-.114-.059-.159-.086l-.056-.04-.043-.037a1.062,1.062,0,0,1-.087-.09l-.012-.014a1.254,1.254,0,0,1-.082-.149,1.21,1.21,0,0,1-.04-.134.808.808,0,0,1-.5-1.033.639.639,0,0,0-.753-.267h0a.237.237,0,0,0-.045.016l-.014.006-.006,0-.047-.027a.389.389,0,0,0-.058-.051l-.012-.015.007,0s0-.008-.041-.043a.037.037,0,0,1,.006.008.05.05,0,0,1-.011-.01l-.036-.068-.007-.014a.677.677,0,0,0-.049-.18.5.5,0,0,0,0-.052l.029-.108a.52.52,0,0,0,.034-.085l0-.005,0-.006c.038-.066.078-.132.119-.194l.013-.015c.021-.024.055-.064.059-.071a3.492,3.492,0,0,1,.328-.313l.092-.077.047-.037.048-.035.112-.082a.68.68,0,0,0,.285-.37.606.606,0,0,1,.309-.5,74.592,74.592,0,0,1,4.721-12.233.633.633,0,0,0,.055-.481.643.643,0,0,0,.081-.5,11.721,11.721,0,0,1,.626-4.811c.116-.4.237-.8.354-1.184.36-1.191.732-2.423,1.017-3.663a45.118,45.118,0,0,0,1.15-10.022,44.6,44.6,0,0,0-.363-5.714.638.638,0,0,0-.621-.621.629.629,0,0,0-.621.621,44.468,44.468,0,0,1,.131,10.154,43.287,43.287,0,0,1-.81,4.969c-.316,1.409-.738,2.81-1.146,4.164v0q-.111.369-.222.738a14.041,14.041,0,0,0-.732,5.368.623.623,0,0,0-.354-.11.636.636,0,0,0-.164.022,31.471,31.471,0,0,1-5.254,1.592,11.415,11.415,0,0,1-2.083.192c-.181,0-.365,0-.545-.013a7.907,7.907,0,0,1-1.257-.164l-.022,0c-.3-.064-.584-.124-.693-.433a3.726,3.726,0,0,1,.042-2,5.854,5.854,0,0,1,.847-1.967,7.035,7.035,0,0,1,3.284-2.42l.4-.171a8.451,8.451,0,0,0,3.578-2.313.643.643,0,0,0,0-.878.621.621,0,0,0-.439-.18.634.634,0,0,0-.09.006.615.615,0,0,0-.181-.162,15.06,15.06,0,0,1-5.573-4.439,15.888,15.888,0,0,1-3.014-6.468,14.508,14.508,0,0,1-.279-3.581c.028-.1.056-.2.083-.294a.566.566,0,0,0-.279-.676.621.621,0,0,0-1.015.48h-.007c-.008.106-.014.214-.021.318-.771,2.72-1.453,5.179-2,7.736a58.355,58.355,0,0,0-1.066,7.724c-.1,1.36-.175,2.748-.245,4.089a69.462,69.462,0,0,1-1.055,10.308,23.708,23.708,0,0,1-2.668,7.3.629.629,0,0,0-.257.693,1.716,1.716,0,0,1,.05.189.749.749,0,0,0,.026.131s0,0,0-.019a2.314,2.314,0,0,1,.016.3v.251l-.007.036c-.022.109-.043.211-.074.316-.015.055-.032.106-.052.157a.34.34,0,0,1-.036.1c-.054.108-.112.21-.17.3-.023.038-.048.073-.069.1l-.02.024c-.02.025-.044.055-.048.058a2.327,2.327,0,0,1-.248.248l-.031.027a.084.084,0,0,0-.027.012l-.006,0c-.023.013-.052.032-.082.052s-.061.041-.09.058c-.059.034-.1.057-.151.082-.069.029-.1.043-.1.044l.039-.015a2.158,2.158,0,0,1-.355.112c-.054.014-.1.025-.155.033h-.007l-.03,0c-.026,0-.057,0-.072,0-.057,0-.115,0-.172,0s-.116,0-.173,0l-.04,0c-.033,0-.079,0-.1,0s-.018,0-.018,0l-.025,0-.1-.02a2.984,2.984,0,0,1-.33-.1l-.041-.012-.012-.007-.011-.006c-.07-.032-.139-.068-.206-.107a.621.621,0,0,0-.716.064.757.757,0,0,0-.086.04l.015-.007a2.682,2.682,0,0,1-.356.226l-.092.049-.043.021a.2.2,0,0,0-.074.032l-.1.035a2.9,2.9,0,0,1-.405.109l-.1.02a1.128,1.128,0,0,0-.142.01c-.032,0-.061.007-.095.008-.069,0-.14.007-.21.007s-.14,0-.21-.007l-.058-.007a.13.13,0,0,0-.047-.005c-.077-.013-.138-.026-.206-.042s-.139-.037-.2-.058l-.124-.042a.215.215,0,0,1-.035-.011l-.059-.026-.094-.047c-.068-.034-.134-.072-.2-.108a.615.615,0,0,0-.177-.372.633.633,0,0,0-.877,0,.441.441,0,0,1-.295.1.963.963,0,0,1-.7-.346A2.18,2.18,0,0,1,45.1,133.2a7.158,7.158,0,0,1,1.822-3.727,27.08,27.08,0,0,0,4.451-7.319,24.948,24.948,0,0,0,1.359-4.664.641.641,0,0,0-.257-.681c-.038-1.148-.073-2.316-.108-3.445-.087-2.825-.176-5.745-.3-8.613a21.179,21.179,0,0,0-.34-3.165c-.112-.569-.261-1.137-.4-1.687-.108-.411-.218-.835-.313-1.255a19.081,19.081,0,0,1-.292-6.106c.091-1.043.22-2.16.385-3.319a4.941,4.941,0,0,1,.9-2.6.635.635,0,0,0,0-.879.622.622,0,0,0-.381-.177c-3.384-5.054-3.435-11.07-2.882-15.226a41.844,41.844,0,0,1,.976-4.869.575.575,0,0,0-.089-.507.692.692,0,0,0-.523-.264,9.3,9.3,0,0,1,.355-4.706c.15-.6.3-1.224.405-1.828a13.294,13.294,0,0,0,.174-1.769,5.95,5.95,0,0,1,.209-1.681,5.317,5.317,0,0,1,1.308-1.87l.133-.142a6.909,6.909,0,0,0,1.719-2.574.537.537,0,0,0-.107-.556l.182-.595a.563.563,0,0,0,.405.16.692.692,0,0,0,.55-.268,8.524,8.524,0,0,0,3.1,2.9.628.628,0,0,0,.3.079.665.665,0,0,0,.617-.515.542.542,0,0,0-.29-.638,7.372,7.372,0,0,1-3.752-5.349.624.624,0,0,0-.6-.456h-.033a57.244,57.244,0,0,1-.92-9.574.571.571,0,0,0-.4-.566c-.046-.116-.085-.23-.118-.34-.043-.135-.073-.267-.1-.378-.014-.075-.027-.147-.04-.221v-.084a4.39,4.39,0,0,1,0-.783,1.014,1.014,0,0,1,.012-.136c0-.019.005-.038.007-.057-.005.043-.007.05-.007.051s0-.006,0-.013a.683.683,0,0,1,.022-.122c.026-.139.057-.276.094-.408a.618.618,0,0,0-.258-.685.628.628,0,0,0-.361-.272.636.636,0,0,0-.765.435V31.71A17.5,17.5,0,0,1,49.1,35.436,7.334,7.334,0,0,1,47.94,36.9a2.5,2.5,0,0,1-.614.427,11.353,11.353,0,0,0-.047-4.518,11.6,11.6,0,0,0-.869-2.522c-.074-.157-.152-.313-.227-.465a7.873,7.873,0,0,1-.747-1.91,3.93,3.93,0,0,1,1.317-3.642,7.041,7.041,0,0,1,3.195-1.247c.415-.089.844-.181,1.242-.3,1.111-.318,3.062-1.123,3.649-2.947a17.77,17.77,0,0,0,4.406-.993c.652.048,1.315.072,1.969.072a26.8,26.8,0,0,0,9.95-1.907.64.64,0,0,0,.139-.06,2.92,2.92,0,0,0,2.9-.531.619.619,0,0,0,.17-.324.636.636,0,0,0,.4.15,44.984,44.984,0,0,1,4.832.838l.165.038a6.154,6.154,0,0,1,3.494,1.621,7.374,7.374,0,0,1,1.244,2.75c.059.2.12.4.183.6A25.086,25.086,0,0,0,86.511,26.3c.543,1.016,1.175,2.09,1.989,3.381a5.125,5.125,0,0,1-1.089-1.2c-.153-.208-.3-.4-.43-.554a7.214,7.214,0,0,0-3.046-1.987.621.621,0,0,0-1.066.433v-.011a5.922,5.922,0,0,1-.039.618L82.112,29.2a5.8,5.8,0,0,1-.509.764.625.625,0,0,0-.049.519.618.618,0,0,0,.049.452v-.007a17.986,17.986,0,0,1,1.2,12.688,17.335,17.335,0,0,1-1.346,3.434.611.611,0,0,0-.072.365.609.609,0,0,0-.173.434.554.554,0,0,0,.2.388c1.667,1.512,4.187,3.8,3.309,6.524a.536.536,0,0,0,.231.656.632.632,0,0,0,.167.556h-.006a12.817,12.817,0,0,1,2.734,6.4.641.641,0,0,0,.621.621.589.589,0,0,0,.1-.008,20.908,20.908,0,0,0,2.2,2.452,23.324,23.324,0,0,1,2.014,2.2,7.638,7.638,0,0,1,.954,1.57,8.7,8.7,0,0,1,.552,2.144,29.013,29.013,0,0,0,.994,4.609,20.505,20.505,0,0,0,2.3,4.721.61.61,0,0,0,.372.269,5.7,5.7,0,0,0,1.089,3.569c.324.507.674,1.005,1.013,1.487.447.637.91,1.3,1.317,1.979a58.126,58.126,0,0,1,3.727,7.835l.248.6.016.038a32.244,32.244,0,0,1,2.449,7.761,16.046,16.046,0,0,1-1.088,7.951,35.84,35.84,0,0,1-4.646,8.044.636.636,0,0,0-.073.2,41.317,41.317,0,0,1-2.009,5.106,3.355,3.355,0,0,0-.341-.017,7.9,7.9,0,0,0-1.427.177h-.006l-.321.059a9.95,9.95,0,0,1-2.822,0h-.024a.958.958,0,0,1-.659-.261,1.507,1.507,0,0,1-.147-.266,1.508,1.508,0,0,0-.153-.275,1.65,1.65,0,0,0-.477-.422c-.034-.021-.074-.04-.116-.061a.769.769,0,0,1-.187-.112v-.008a.236.236,0,0,1,0-.067c0-.028,0-.067,0-.111a1.481,1.481,0,0,1,.013-.209c.025-.329.058-.682.119-1.039a3.119,3.119,0,0,1,.971-2.012.641.641,0,0,0,.221-.85.623.623,0,0,0-.691-.286.572.572,0,0,0-.583-.469c-.3,0-.527.006-.741.006a12.052,12.052,0,0,1-4.77-.751c-.257-.11-.516-.227-.766-.34a8.906,8.906,0,0,0-3.6-1.049,4.623,4.623,0,0,0-.7.053.646.646,0,0,0-.157.067,4.122,4.122,0,0,1,.48-2.18c.094-.21.19-.419.286-.628.307-.67.625-1.363.879-2.071a20.337,20.337,0,0,0,1.161-5.806.552.552,0,0,0-.141-.421.615.615,0,0,0-.448-.178.624.624,0,0,0-.654.6H84.2a19.222,19.222,0,0,1-1.243,5.8c-.165.434-.369.864-.585,1.32-.652,1.376-1.326,2.8-.856,4.286a.632.632,0,0,0,.179.281,7.767,7.767,0,0,0-.844,2.636c-.246,1.5-.448,2.991-.614,4.251-.213,1.621-.351,3.042-.423,4.343-.075,1.382-.041,2.684-.005,4.063l.005.21a2.463,2.463,0,0,1-.374,1.739,1.1,1.1,0,0,1-.547.331.5.5,0,0,1-.5-.114.625.625,0,0,0-.85.22.636.636,0,0,0-.079.313.628.628,0,0,0-.813-.166,4.059,4.059,0,0,1-.435.268c-.067.036-.14.072-.229.114l-.052.025-.009,0-.083.032a4.465,4.465,0,0,1-.9.245c-.016,0-.1.01-.147.016l-.03,0c-.047,0-.094,0-.14.008S74.551,136.826,74.516,136.827Zm-15.7-57.094h.367l.159.04a1.05,1.05,0,0,1,.223.085,2.146,2.146,0,0,1,.927.882,5.313,5.313,0,0,1,.3,3.106q-.01.105-.02.208a.625.625,0,0,0,.621.621.632.632,0,0,0,.621-.621c.116-1.216.274-2.881-.556-4.117a3.164,3.164,0,0,0-2.49-1.466,2.2,2.2,0,0,0-.785.144.642.642,0,0,0-.432.765.624.624,0,0,0,.763.433v.01a3.111,3.111,0,0,1,.3-.09ZM72.6,77.789a7.7,7.7,0,0,0-1.835.222,3.554,3.554,0,0,0-2.111,1.506,3.415,3.415,0,0,0-.4,2.353,3.268,3.268,0,0,0,1.427,2.191.587.587,0,0,0,.321.1.647.647,0,0,0,.3-1.177,2.1,2.1,0,0,1-.871-1.818,1.977,1.977,0,0,1,1.132-1.759,4.031,4.031,0,0,1,1.872-.379c.265,0,.555.014.914.044.212.018.427.038.635.058.572.055,1.16.112,1.737.112a6.528,6.528,0,0,0,1.424-.143.542.542,0,0,0,.443-.615.648.648,0,0,0-.622-.6.7.7,0,0,0-.15.017,5.339,5.339,0,0,1-1.146.113,14.9,14.9,0,0,1-1.575-.112c-.172-.018-.342-.037-.511-.053A7.692,7.692,0,0,0,72.6,77.789ZM65.77,53.027a.543.543,0,0,0-.555.565.633.633,0,0,0,.6.678c.339.019.677.029,1,.029a17.9,17.9,0,0,0,7.768-1.785.621.621,0,0,0-.626-1.074,16.6,16.6,0,0,1-7.127,1.619c-.339,0-.682-.011-1.019-.032Z" transform="translate(9.5 9.5)" fill="#fff" stroke="#b064e8" stroke-width="1"/>
  </g>
</svg>
