<svg xmlns="http://www.w3.org/2000/svg" xmlns:xlink="http://www.w3.org/1999/xlink" width="172" height="172" viewBox="0 0 172 172">
  <defs>
    <filter id="Exclusion_6" x="0" y="0" width="172" height="172" filterUnits="userSpaceOnUse">
      <feOffset input="SourceAlpha"/>
      <feGaussianBlur stdDeviation="3" result="blur"/>
      <feFlood flood-opacity="0.161"/>
      <feComposite operator="in" in2="blur"/>
      <feComposite in="SourceGraphic"/>
    </filter>
  </defs>
  <g transform="matrix(1, 0, 0, 1, 0, 0)" filter="url(#Exclusion_6)">
    <path id="Exclusion_6-2" data-name="Exclusion 6" d="M76.5,153a76.143,76.143,0,0,1-42.772-13.065A76.724,76.724,0,0,1,6.012,106.277a76.4,76.4,0,0,1,7.053-72.549A76.724,76.724,0,0,1,46.723,6.012a76.4,76.4,0,0,1,72.549,7.053,76.724,76.724,0,0,1,27.716,33.658,76.4,76.4,0,0,1-7.053,72.549,76.724,76.724,0,0,1-33.658,27.716A76.02,76.02,0,0,1,76.5,153Zm-4.443-20.344v0c0,.312,0,.615.006.9a.527.527,0,0,0,.076.734l0,.008a8.166,8.166,0,0,0,3.952,1.733,48.972,48.972,0,0,0,5.051.751c1.536.154,3.1.232,4.646.232l.374,0a13.386,13.386,0,0,0,4.765-.726,2.265,2.265,0,0,0,1.6-1.724,4.7,4.7,0,0,0,.007-1.157,4.6,4.6,0,0,1,.01-1.163.625.625,0,0,0,.018-.182,8.032,8.032,0,0,1,3.353-1.148l.368-.065a13.787,13.787,0,0,0,3.591-.976,10.822,10.822,0,0,0,1.974-1.341,11.55,11.55,0,0,1,1.911-1.23,25.083,25.083,0,0,1,4.375-1.54l.245-.07a16.879,16.879,0,0,1,4.581-.836,7.867,7.867,0,0,1,1.1.076.623.623,0,0,0,.539-.12h.024a4.73,4.73,0,0,0,1.04-.115.612.612,0,0,0,.419-.753.573.573,0,0,0-.056-.136,9.767,9.767,0,0,0-3.657-3.424.581.581,0,0,0-.39-.378l-.017-.005c-.578-.184-1.233-.393-1.47-1.012a3.935,3.935,0,0,1-.189-1l-.054-.58,0-.043q-.038-.408-.075-.808l-.41-4.355a3.349,3.349,0,0,0,1.166.648.5.5,0,0,0,.146.022.68.68,0,0,0,.577-.377.493.493,0,0,0-.038-.533,9.289,9.289,0,0,1-1.52-2.969c.4.273.824.541,1.254.795a.572.572,0,0,0,.29.075.685.685,0,0,0,.5-.216.477.477,0,0,0,.122-.383,4.62,4.62,0,0,0-1.073-2.319c-.064-.084-.132-.171-.2-.259a6.137,6.137,0,0,1-.739-1.095,6.219,6.219,0,0,1,2.548.762.579.579,0,0,0,.284.074.665.665,0,0,0,.565-.337.535.535,0,0,0-.022-.565,8.009,8.009,0,0,0-3.207-2.9,12.157,12.157,0,0,0,1.545-1.079.493.493,0,0,0,.175-.494.693.693,0,0,0-.443-.518,5.21,5.21,0,0,0-1.628-.261c-.146,0-.294.006-.44.019-.087.008-.193.026-.3.045a3.893,3.893,0,0,1-.634.072.688.688,0,0,1-.617-.248c-.049-.072-.007-.111.052-.164l.014-.012a1.275,1.275,0,0,1,.557-.243l.132-.03a2.813,2.813,0,0,0,1.454-.631.591.591,0,0,0,.158-.589,2.2,2.2,0,0,0-1.974-1.344,16.374,16.374,0,0,0-2.694-.224q-.16,0-.321,0a.521.521,0,0,0-.429-.458,6.387,6.387,0,0,1-2.445-1.327c-.594-.468-1.193-.948-1.771-1.413l-.023-.019-.818-.656c-1.731-1.375-3.546-2.823-5.393-4.306l-.22-.174a7.273,7.273,0,0,1-2.07-2.153.586.586,0,0,0-.207-.228c-.007-.013-.014-.027-.023-.04a24.093,24.093,0,0,1-2.18-5.1c-.369-1.09-.751-2.216-1.225-3.28a13.739,13.739,0,0,0-1.051-1.937c-.291-.441-.623-.86-.945-1.267-.168-.212-.341-.431-.508-.651a7.758,7.758,0,0,1-1.537-4.1,22.5,22.5,0,0,1,.331-5.165.6.6,0,0,0,0-.314c.848-.856.693-2.2.43-3.4a4.051,4.051,0,0,1-.095-1.775,4.265,4.265,0,0,1,.69-1.492,12.843,12.843,0,0,1,2.356-2.386l.012-.01.295-.251,3.463-2.947,2-1.707q.235-.2.472-.4c.493-.412,1-.838,1.466-1.3a.575.575,0,0,0,.008-.817c-.112-1.885,1.053-3.427,2.179-4.917.282-.373.547-.725.794-1.082a8.573,8.573,0,0,0,1.494-3.3,19.843,19.843,0,0,0,.218-4,38.6,38.6,0,0,0-.308-4.094.622.622,0,0,0,.216-.456.609.609,0,0,0-.606-.6c-.506.054-1.021.1-1.519.153h-.008c-1.073.106-2.183.215-3.267.359a6.106,6.106,0,0,0-2.121.6,6.952,6.952,0,0,0-1.428,1.12l-.219.2a5.493,5.493,0,0,1-1.61,1.061c-.429.183-.882.328-1.321.469-.182.058-.37.119-.556.182a19.9,19.9,0,0,0-4.012,2.027,2.014,2.014,0,0,0-.785.727,1.768,1.768,0,0,0-.162.947c.01.154.033.3.054.443.017.113.033.219.041.315v.211a68.234,68.234,0,0,1-9.891-4.031,4.543,4.543,0,0,1,.425-.231,2.716,2.716,0,0,0,1.148-.968c.583-1,.1-2.2-.324-3.25-.07-.174-.137-.339-.2-.5L71.113,20.8l-.181-.486c-.228-.613-.464-1.245-.7-1.865a4.017,4.017,0,0,0-1.073-1.773.6.6,0,0,0-.964.146c-1.613,1.566-3.188,3.213-4.683,4.893a7.431,7.431,0,0,0-1.742,2.642,14.956,14.956,0,0,0-.317,1.562,14.75,14.75,0,0,1-.419,1.64c-.357,1.1-.77,2.187-1.228,3.237a.6.6,0,0,0-.112.087l-.007,0a11.058,11.058,0,0,0-2.63,5.032,6.779,6.779,0,0,0,.146,2.947c.06.226.123.451.184.668a14.326,14.326,0,0,1,.5,2.237,12.119,12.119,0,0,1-.032,3.046l-9.2,9.277c-.143.144-.293.291-.438.432a9.219,9.219,0,0,0-1.586,1.846,4.831,4.831,0,0,0-.485,2.959A18.437,18.437,0,0,0,47.484,64.7a19.012,19.012,0,0,0,3.356,5.349.611.611,0,0,0,.862,0,.625.625,0,0,0,.15-.257l.1-.379.005-.02q.239-.877.478-1.754l0,.032c.026.524.05,1.018.059,1.508a11.468,11.468,0,0,1-.177,2.492,9.592,9.592,0,0,1-.877,2.421c-.588,1.164-1.257,2.315-1.9,3.428l0,.005c-.26.447-.529.91-.788,1.367l-2.86,5.025c-.98,1.729-2.012,3.576-2.905,5.487a.622.622,0,0,0,0,.6l-.727,3.882c-.075.4-.147.8-.217,1.184-.182,1-.371,2.041-.594,3.053a9.161,9.161,0,0,1-1.487,3.632,12.949,12.949,0,0,1-1.623,1.67c-.371.338-.754.686-1.1,1.061a5.5,5.5,0,0,0-1.72,4.015.613.613,0,0,0,.614.591h.023a.6.6,0,0,0,.274-.075c.228-.1.455-.207.676-.324a9.5,9.5,0,0,0-.56,4.012.7.7,0,0,0,.62.625.475.475,0,0,0,.291-.1,11.753,11.753,0,0,0,.98-.833,61.562,61.562,0,0,0,1.24,15.854c.34,1.61.747,3.221,1.21,4.788a.568.568,0,0,0,.428.41.6.6,0,0,0,.4.677A27.219,27.219,0,0,0,53.368,135.4a.622.622,0,0,0,.606-.6.6.6,0,0,0-.056-.252c.048-.394.091-.807.128-1.229a80.434,80.434,0,0,0,8.374.439c2.188,0,4.4-.091,6.58-.272a7.041,7.041,0,0,0,3.056-.829Zm13.662,3.14A46.549,46.549,0,0,1,77,134.971a8.872,8.872,0,0,1-3.727-1.309A48.942,48.942,0,0,1,73.8,125.5a.627.627,0,0,0-.424-.743.611.611,0,0,0-.746.421,50.539,50.539,0,0,0-.549,6.118.614.614,0,0,0-.3.081,5.107,5.107,0,0,1-2.663.884c-1.235.117-2.476.169-3.632.209-.99.035-1.994.052-2.983.052-1.47,0-2.959-.039-4.426-.115-1.3-.067-2.626-.167-3.944-.3.062-1.159.067-2.338.016-3.5a.637.637,0,0,0-1.072-.41.54.54,0,0,0-.14.41,36.055,36.055,0,0,1-.194,5.645c-.74.063-1.487.094-2.224.094a26.36,26.36,0,0,1-8.443-1.386.611.611,0,0,0-.024-.252,60.3,60.3,0,0,1-2.491-17.065c0-1.661.065-3.322.194-4.937a.616.616,0,0,0-.446-.583.636.636,0,0,0-.683.278,9.593,9.593,0,0,1-.874.986,8.5,8.5,0,0,1,1.7-4.5.479.479,0,0,0,.053-.523.7.7,0,0,0-.608-.373.539.539,0,0,0-.4.169,8.319,8.319,0,0,1-1.665,1.3,5.029,5.029,0,0,1,1.311-2.163c.35-.371.73-.724,1.1-1.065a14.758,14.758,0,0,0,1.673-1.734,9.632,9.632,0,0,0,1.61-3.661c.248-1.021.438-2.075.621-3.1v-.006c.063-.352.129-.717.2-1.074l.945-5.027a.585.585,0,0,0,.017-.188c1.229-2.538,2.665-5.026,4.053-7.432.4-.687.806-1.4,1.206-2.1.275-.484.559-.975.833-1.449l0-.007c.653-1.13,1.329-2.3,1.946-3.472a12.446,12.446,0,0,0,1.021-2.46,10.835,10.835,0,0,0,.318-1.892l.022.039a4.558,4.558,0,0,0,.968,1.3,10.365,10.365,0,0,0,2.882,1.6.607.607,0,0,0,.322-1.17A10.891,10.891,0,0,1,56.6,71.8a6.438,6.438,0,0,1-1.123-.726,3.921,3.921,0,0,1-.773-1.084l-.8-1.421a.611.611,0,0,0-.216-.217c-.013-.287-.028-.576-.043-.856a21.1,21.1,0,0,1,.019-3.705.6.6,0,0,0-.3-.519.682.682,0,0,0-.5-.215.546.546,0,0,0-.552.429l-1.328,4.853a17.7,17.7,0,0,1-3.572-8.448,4.957,4.957,0,0,1,.118-2.637,5.854,5.854,0,0,1,1.406-1.741c.141-.136.275-.264.405-.4l4.463-4.5,4.6-4.623a.61.61,0,0,0,.553-.443,13.322,13.322,0,0,0-.31-6.053l-.054-.189a7.617,7.617,0,0,1-.43-2.535,6.472,6.472,0,0,1,.693-2.465,13.622,13.622,0,0,1,1.579-2.428.61.61,0,0,0,.327-.265l.038-.089c.417-.975.848-1.983,1.2-3a20.539,20.539,0,0,0,.772-3.1A4.247,4.247,0,0,1,63.257,24a7.758,7.758,0,0,1,.9-1.175c.712-.811,1.458-1.632,2.216-2.441s1.542-1.6,2.33-2.371a4.839,4.839,0,0,1,.39.851l.762,2.036,1.5,4.015,1.5,4.018c.1.281.212.566.317.841.144.376.291.761.426,1.144l.019.052a1.911,1.911,0,0,1,.144,1.354,1.485,1.485,0,0,1-.779.6c-.09.043-.175.084-.254.127a2,2,0,0,0-1.056,1.191.578.578,0,0,0,.374.708.689.689,0,0,0,.059.041v-.01a70.442,70.442,0,0,0,11.122,4.526.65.65,0,0,0,.173.025.579.579,0,0,0,.548-.443,1.293,1.293,0,0,0,.345-1.1c-.011-.124-.033-.275-.053-.409-.016-.109-.031-.211-.037-.282,0-.046,0-.094-.006-.139s-.007-.11-.006-.166c0-.01,0-.033.006-.054a.255.255,0,0,0,0-.045.137.137,0,0,0-.01.033c.007-.037,0-.047,0-.049h0s.01-.012.029-.04a1.571,1.571,0,0,1,.514-.363c.066-.035.127-.068.18-.1.368-.225.668-.4.945-.562a13.966,13.966,0,0,1,1.937-.94c.352-.134.719-.253,1.074-.369a9.216,9.216,0,0,0,2.708-1.221,11.1,11.1,0,0,0,.884-.766c.2-.189.414-.385.632-.566a3.758,3.758,0,0,1,1.75-.778,17.87,17.87,0,0,1,1.817-.232c.2-.019.4-.038.6-.059l1.953-.205c.147,1.162.238,2.341.27,3.506a20.28,20.28,0,0,1-.138,3.874,7.808,7.808,0,0,1-1.4,3.2c-.245.35-.508.7-.762,1.038a22.276,22.276,0,0,0-1.306,1.868,6.412,6.412,0,0,0-1.058,3.846.67.67,0,0,0,.012.105C94.153,48.777,93.4,49.4,92.672,50c-.326.268-.662.545-.988.822l-3.463,2.947-.427.36C86,55.632,83.972,57.339,83.981,59.8a6.226,6.226,0,0,0,.2,1.34,8.283,8.283,0,0,1,.18,1.006,1.578,1.578,0,0,1-.47,1.489.61.61,0,0,0-.123.68l0,.008h-.007a28.179,28.179,0,0,0-.412,4.809,9.239,9.239,0,0,0,1.2,4.606,22.373,22.373,0,0,0,1.487,2,11.815,11.815,0,0,1,1.223,1.937,28.281,28.281,0,0,1,1.481,3.774l.156.461A22.834,22.834,0,0,0,91,86.758a.623.623,0,0,0,.2.2.574.574,0,0,0,.026.056l0,.008v.007a7.609,7.609,0,0,0,2.041,2.226c1,.8,1.906,1.523,2.783,2.22q.985.785,1.967,1.573c1.182.947,2.4,1.926,3.617,2.883a8.04,8.04,0,0,0,2.97,1.674.543.543,0,0,0,.557.53h.026c.206-.008.415-.013.621-.013a15.328,15.328,0,0,1,1.987.13l.118.015h.006a3.991,3.991,0,0,1,.955.2,1.559,1.559,0,0,1-.206.033,3.669,3.669,0,0,0-.944.3,1.415,1.415,0,0,0-.772,1.811,1.853,1.853,0,0,0,1.757.976c.06,0,.12,0,.179-.007.352-.047.709-.08,1.063-.1a11.008,11.008,0,0,1-1.322.69.494.494,0,0,0-.3.51.671.671,0,0,0,.441.6,6.7,6.7,0,0,1,2.3,1.193,7.374,7.374,0,0,0-1.281-.112c-.12,0-.242,0-.361.009a.717.717,0,0,0-.489.243.467.467,0,0,0-.116.362,4.755,4.755,0,0,0,1.094,2.318l.121.156,0,.005.078.1c-.244-.176-.458-.336-.656-.489a.457.457,0,0,0-.282-.092.69.69,0,0,0-.5.234.484.484,0,0,0-.129.381,10.5,10.5,0,0,0,.659,2.578.6.6,0,0,0-.427.177.614.614,0,0,0-.078.1.607.607,0,0,0-.28.508l.583,6.2c.014.153.025.306.037.468a4.858,4.858,0,0,0,.511,2.218,2.89,2.89,0,0,0,1.517,1.139.609.609,0,0,0,.219.224l.009.014a9.1,9.1,0,0,1,1.136.63c.1.067.2.14.3.211.069.049.137.1.2.144a.335.335,0,0,1,.048.039l.044.034c.028.022.052.04.078.063l.035.029c.074.062.151.126.224.191a8.328,8.328,0,0,1,1.008,1.044l-.052,0-.061,0a2.808,2.808,0,0,1-.447-.076,4.36,4.36,0,0,1-.589-.186.611.611,0,0,0-.727.367,16.741,16.741,0,0,0-3.567.6,36.821,36.821,0,0,0-4.932,1.579,11.841,11.841,0,0,0-2.233,1.211c-.259.184-.514.384-.76.577a13.69,13.69,0,0,1-1.177.857,10.05,10.05,0,0,1-3.668,1.136l-.318.056a9.026,9.026,0,0,0-4.412,1.695.611.611,0,0,0-.1.718,6.741,6.741,0,0,0,0,1.226c.011.166.021.338.027.51a1.156,1.156,0,0,1-.726,1.242,11.347,11.347,0,0,1-4.308.693C86.132,135.795,85.924,135.8,85.719,135.8ZM77.75,64.656a.608.608,0,0,0-.161.022.606.606,0,0,0-.422.745,5.234,5.234,0,0,1-1.644,4.721,11.022,11.022,0,0,1-4.962,2.379.549.549,0,0,0-.424.628.608.608,0,0,0,.584.56.665.665,0,0,0,.163-.022,11.948,11.948,0,0,0,5.635-2.825A6.483,6.483,0,0,0,78.334,65.1.608.608,0,0,0,77.75,64.656Z" transform="translate(9.5 9.5)" fill="#fff" stroke="#b064e8" stroke-width="1"/>
  </g>
</svg>
