<svg xmlns="http://www.w3.org/2000/svg" xmlns:xlink="http://www.w3.org/1999/xlink" width="172.002" height="172.002" viewBox="0 0 172.002 172.002">
  <defs>
    <filter id="Rectangle_330" x="34.502" y="38.5" width="103.36" height="95.137" filterUnits="userSpaceOnUse">
      <feOffset input="SourceAlpha"/>
      <feGaussianBlur stdDeviation="3" result="blur"/>
      <feFlood flood-opacity="0.161"/>
      <feComposite operator="in" in2="blur"/>
      <feComposite in="SourceGraphic"/>
    </filter>
    <filter id="Subtraction_22" x="0" y="0" width="172.002" height="172.002" filterUnits="userSpaceOnUse">
      <feOffset input="SourceAlpha"/>
      <feGaussianBlur stdDeviation="3" result="blur-2"/>
      <feFlood flood-opacity="0.161"/>
      <feComposite operator="in" in2="blur-2"/>
      <feComposite in="SourceGraphic"/>
    </filter>
  </defs>
  <g transform="matrix(1, 0, 0, 1, 0, 0)" filter="url(#Subtraction_22)">
    <path id="Subtraction_22-2" data-name="Subtraction 22" d="M17392-152.5a76.017,76.017,0,0,1-29.777-6.012,76.456,76.456,0,0,1-12.994-7.054,76.918,76.918,0,0,1-11.322-9.342,76.817,76.817,0,0,1-9.342-11.322,76.141,76.141,0,0,1-7.053-12.995A75.983,75.983,0,0,1,17315.5-229a75.983,75.983,0,0,1,6.014-29.777,76.136,76.136,0,0,1,7.053-12.995,76.822,76.822,0,0,1,9.342-11.322,76.93,76.93,0,0,1,11.322-9.342,76.463,76.463,0,0,1,12.994-7.054A76.017,76.017,0,0,1,17392-305.5a76,76,0,0,1,29.775,6.012,76.463,76.463,0,0,1,13,7.054,76.983,76.983,0,0,1,11.32,9.342,76.816,76.816,0,0,1,9.342,11.322,76.143,76.143,0,0,1,7.053,12.995A75.983,75.983,0,0,1,17468.5-229a75.983,75.983,0,0,1-6.014,29.777,76.148,76.148,0,0,1-7.053,12.995,76.811,76.811,0,0,1-9.342,11.322,76.966,76.966,0,0,1-11.32,9.342,76.454,76.454,0,0,1-13,7.054A76,76,0,0,1,17392-152.5Zm-14.512-69.436a4.187,4.187,0,0,0-2.187.616,9.384,9.384,0,0,0-2.635,2.521,25.918,25.918,0,0,0-3.779,6.646,23.579,23.579,0,0,0-1.648,7.541,11.853,11.853,0,0,0,1.926,7.334,8.268,8.268,0,0,0,3.365,2.907,2.551,2.551,0,0,0,.053,1.223,4.912,4.912,0,0,0,1.535,2.245l.01.01.008.01a.078.078,0,0,0,.018.02h1.508a.959.959,0,0,0,.205-.421.976.976,0,0,0-.064-.623,3.684,3.684,0,0,0,.8-1.635c.006-.029.01-.062.014-.091v-.011l0-.008a9.418,9.418,0,0,0,5.174-2.091,12.824,12.824,0,0,0,3.967-5.616,17.49,17.49,0,0,0,1.07-6.856,18.533,18.533,0,0,0-1.773-7.252,18.551,18.551,0,0,0-4.482-5.97,1.018,1.018,0,0,0-.687-.265,1.012,1.012,0,0,0-.588.186.684.684,0,0,0-.062-.039A4.173,4.173,0,0,0,17377.488-221.934Zm17.012-1.9a4.294,4.294,0,0,0-2.479.782,6.206,6.206,0,0,0-2.279,3.029,14.3,14.3,0,0,0-.75,3.976,24.44,24.44,0,0,0,0,3.893,25.2,25.2,0,0,0,1.93,7.83,17.934,17.934,0,0,0,4.129,6.3,8.653,8.653,0,0,0,5.234,2.573,2.134,2.134,0,0,0,.119.263,4.049,4.049,0,0,0,1.533,1.416.98.98,0,0,0,.492.132.975.975,0,0,0,.494-.136,1.038,1.038,0,0,0,.707-.666,3.89,3.89,0,0,0,.254-1.776,9.2,9.2,0,0,0,3.678-3.5,16.464,16.464,0,0,0,1.969-7.633,17.062,17.062,0,0,0-1.494-7.554,13.9,13.9,0,0,0-4.734-5.615,12.235,12.235,0,0,0-6.934-2.255h-.057a.813.813,0,0,0-.631-.75l-.039-.153A4.311,4.311,0,0,0,17394.5-223.832Zm33.852,18.945h0a2.337,2.337,0,0,0,.93,1.117,3.535,3.535,0,0,0,1.064.473l.982.2a1.223,1.223,0,0,0,.219.022,1.08,1.08,0,0,0,.531-.14.992.992,0,0,0,.4-1.236.957.957,0,0,0,.025-.772,5.059,5.059,0,0,0-.641-1.587,7.871,7.871,0,0,0,1.43-1.916,9.148,9.148,0,0,0,1.061-3.621V-213.9a12.794,12.794,0,0,0-1.516-4.966,19.025,19.025,0,0,0-3.127-4.262,24.067,24.067,0,0,0-15.422-7.277.99.99,0,0,0-.936.671h-.107a6.185,6.185,0,0,0-5.254,3.263,7.538,7.538,0,0,0-.869,3.852,11.082,11.082,0,0,0,.869,4.056,23.452,23.452,0,0,0,4.6,6.848,26.921,26.921,0,0,0,6.295,5,14.33,14.33,0,0,0,6.984,2.154,9.306,9.306,0,0,0,1.123-.068,11.712,11.712,0,0,0,1.35-.254Zm-74.551-12.381h0c.012.01.023.019.033.029s.023.02.033.029l.066.059a9.938,9.938,0,0,0,6.816,2.5,16.4,16.4,0,0,0,8.334-2.5,37.351,37.351,0,0,0,6.488-5.388,21.959,21.959,0,0,0,4.924-6.493,9,9,0,0,0,.793-4.224,4.157,4.157,0,0,0-2.213-3.487,12.418,12.418,0,0,0-3.674-1.079c-.318-.059-.627-.117-.93-.179l-4.082-.894a.872.872,0,0,0-.742-.411,1.085,1.085,0,0,0-.293.042l-.039-.039-.014,0c-.1.033-.209.067-.314.1a1.063,1.063,0,0,0-.139-.009.932.932,0,0,0-.664.272,31.718,31.718,0,0,0-12.48,7.861,14.046,14.046,0,0,0-4.094,6.927,7.331,7.331,0,0,0-.125,2.087l-.033.024c-.039.03-.078.058-.115.09a3.59,3.59,0,0,0-1.18,1.89,7.032,7.032,0,0,0-.158,1.2v.706a6.744,6.744,0,0,0,.117,1,1.061,1.061,0,0,0,.273.71,1.1,1.1,0,0,0,.711.276h.033a3.749,3.749,0,0,0,2.666-1.1Zm44.787-49.721a19.336,19.336,0,0,0-4.242.462,20.807,20.807,0,0,0-10.012,5.484,20.772,20.772,0,0,0-5.607,9.939,21.748,21.748,0,0,0-.475,2.832.969.969,0,0,0,.121.478.835.835,0,0,0,.426,1.135c3.01,1.489,3.545,5.018,4.016,8.131l.01.076c.088.572.172,1.112.266,1.631a12.471,12.471,0,0,0,2.088,5.235,7.149,7.149,0,0,0,4.836,2.793,10.452,10.452,0,0,0,1.434.092,24.893,24.893,0,0,0,3.984-.434l.119-.02.447-.073c.631-.1,1.271-.2,1.838-.282,1.348-.2,2.619-.392,3.943-.66,4.6-.961,7.943-2.621,10.229-5.077a15.294,15.294,0,0,0,3.1-4.991,15.247,15.247,0,0,0,.992-5.79,28.452,28.452,0,0,0-2.635-11.53,16.085,16.085,0,0,0-7.48-7.909A17.658,17.658,0,0,0,17398.588-266.988Zm-22.533,71.435h0a2.187,2.187,0,0,0-.324-.307,1.976,1.976,0,0,0-1.113-.338,2,2,0,0,0-.912.219,6.113,6.113,0,0,1-1.75-1.061,8.472,8.472,0,0,1-2.682-5.75,18.552,18.552,0,0,1,.713-6.486,23.7,23.7,0,0,1,3.07-6.729,16.965,16.965,0,0,1,2.322-2.911,3.564,3.564,0,0,1,2.191-1.094,1.622,1.622,0,0,1,.682.147,1,1,0,0,0,.473.118,1.031,1.031,0,0,0,.605-.2,16.692,16.692,0,0,1,5.332,9.8,14.823,14.823,0,0,1-2.479,11.214,8.433,8.433,0,0,1-4.914,3.227A6.058,6.058,0,0,1,17376.055-195.553Zm24.371-1.793h0a5.867,5.867,0,0,1-2.854-1.109,13.5,13.5,0,0,1-3.977-4.8,23.013,23.013,0,0,1-2.281-6.572,21.9,21.9,0,0,1-.119-7.593,6.169,6.169,0,0,1,1.3-3.266,3.107,3.107,0,0,1,1.574-.986.978.978,0,0,0,.982.947,9.939,9.939,0,0,1,1.148-.067,11.2,11.2,0,0,1,9.162,5.064,13.971,13.971,0,0,1,2.076,6.1,16.925,16.925,0,0,1-.58,6.722,7.95,7.95,0,0,1-3.859,5.037l-.016.009,0,0a.353.353,0,0,1-.055.024,2.158,2.158,0,0,0-.6-.272,1.724,1.724,0,0,0-.43-.055,1.751,1.751,0,0,0-1.473.813Zm25.635-9.249a11.191,11.191,0,0,1-4.215-.874,21.7,21.7,0,0,1-5.969-3.8,25.771,25.771,0,0,1-4.613-5.368,16.444,16.444,0,0,1-1.795-3.594,7.07,7.07,0,0,1-.291-3.92c.441-1.8,2.041-3.669,3.953-3.669a3.121,3.121,0,0,1,.529.048,1.015,1.015,0,0,0,.252.032,1.014,1.014,0,0,0,.949-.645,21.847,21.847,0,0,1,11.666,4.98c2.08,1.76,6.8,6.427,5.709,11.727a6.57,6.57,0,0,1-2.338,3.9,1.9,1.9,0,0,0-.85.272,1.965,1.965,0,0,0-.5.5A6.84,6.84,0,0,1,17426.061-206.6Zm-65.229-10.025a8.45,8.45,0,0,1-4.5-1.234,7.059,7.059,0,0,1-.768-.544c.021-.031.039-.058.057-.088l0,0,.006-.005.006-.016.012-.027a2.927,2.927,0,0,0,.012-2.544,2.736,2.736,0,0,0-1.889-1.456,2.683,2.683,0,0,0-.316-.052v-.224c.086-2.178,1.6-4.6,2.994-6.138a29.4,29.4,0,0,1,12.723-8.207l3.842.85c1.488.3,2.725.561,3.975.9,1.348.368,1.854.653,2.2,1.613a4.534,4.534,0,0,1-.078,2.911,15.588,15.588,0,0,1-3.893,5.9,42.992,42.992,0,0,1-5.551,5.037C17367.984-218.7,17364.592-216.621,17360.832-216.621Zm30.646-14.007a5.478,5.478,0,0,1-4.021-1.313,8.052,8.052,0,0,1-2.205-4.134c-.256-1-.432-2.042-.6-3.051l-.012-.069c-.451-2.7-.92-5.5-2.885-7.66a6.712,6.712,0,0,0-1.553-1.267,1.172,1.172,0,0,0,.016-.125l0-.024a18.762,18.762,0,0,1,3.9-9.586,18.776,18.776,0,0,1,8.379-6.074,17.488,17.488,0,0,1,6.094-1.1,17.54,17.54,0,0,1,4.49.583,13.121,13.121,0,0,1,4.473,2.316,13.092,13.092,0,0,1,3.277,3.822,26.174,26.174,0,0,1,3.188,9.956,16.845,16.845,0,0,1-.238,6.1,12.856,12.856,0,0,1-2.119,4.524c-1.826,2.514-4.74,4.3-8.66,5.313a53.592,53.592,0,0,1-5.387,1.026c-.5.076-1.027.164-1.492.241a33.152,33.152,0,0,1-3.979.5C17391.9-230.633,17391.688-230.628,17391.479-230.628Z" transform="translate(-17306 315)" fill="#fff" stroke="#78c6f7" stroke-width="1"/>
  </g>
</svg>
