<svg xmlns="http://www.w3.org/2000/svg" xmlns:xlink="http://www.w3.org/1999/xlink" width="172" height="172" viewBox="0 0 172 172">
  <defs>
    <filter id="Rectangle_599" x="38.664" y="18.928" width="110.168" height="134.143" filterUnits="userSpaceOnUse">
      <feOffset input="SourceAlpha"/>
      <feGaussianBlur stdDeviation="3" result="blur"/>
      <feFlood flood-opacity="0.161"/>
      <feComposite operator="in" in2="blur"/>
      <feComposite in="SourceGraphic"/>
    </filter>
    <filter id="Subtraction_30" x="0" y="0" width="172" height="172" filterUnits="userSpaceOnUse">
      <feOffset input="SourceAlpha"/>
      <feGaussianBlur stdDeviation="3" result="blur-2"/>
      <feFlood flood-opacity="0.161"/>
      <feComposite operator="in" in2="blur-2"/>
      <feComposite in="SourceGraphic"/>
    </filter>
  </defs>
  <g transform="matrix(1, 0, 0, 1, 0, 0)" filter="url(#Subtraction_30)">
    <path id="Subtraction_30-2" data-name="Subtraction 30" d="M76.5,153a76.143,76.143,0,0,1-42.772-13.065A76.724,76.724,0,0,1,6.012,106.277a76.4,76.4,0,0,1,7.053-72.549A76.724,76.724,0,0,1,46.723,6.012a76.4,76.4,0,0,1,72.549,7.053,76.724,76.724,0,0,1,27.716,33.658,76.4,76.4,0,0,1-7.053,72.549,76.724,76.724,0,0,1-33.658,27.716A76.02,76.02,0,0,1,76.5,153ZM49,131.84v0a1.484,1.484,0,0,0,.466,1.866,2.086,2.086,0,0,0,1.183.334,5.987,5.987,0,0,0,.7-.055c.139-.016.283-.033.422-.043l.09-.006c.72-.051,1.808-.128,2.688-.229a10.185,10.185,0,0,0,2.306-.524,5.576,5.576,0,0,0,3.171-3.04,15.361,15.361,0,0,0,.989-4.21l.034-.245a14.1,14.1,0,0,1,.55-2.463,8.272,8.272,0,0,1,1.1-2.018,11.958,11.958,0,0,0,1.389-2.332,10.248,10.248,0,0,0,.577-2.831c.142-1.415.261-2.852.377-4.242.033-.4.066-.789.1-1.182a14.7,14.7,0,0,1,4.791,2.2,13.892,13.892,0,0,1,2.1,2.1l.917,1.179.472.629.162.23c-.078.033-.16.061-.24.088a2.259,2.259,0,0,0-.262.1l-.76.315-1.625.628c-.657.219-1.333.385-1.987.545-.442.108-.9.22-1.341.346a5.387,5.387,0,0,0-2.751,1.572,3.374,3.374,0,0,0-.787,2.883.654.654,0,0,0,.813.446,19.943,19.943,0,0,1,4.8-.885c.8-.08,1.626-.163,2.43-.294a17.5,17.5,0,0,0,6.5-2.521.692.692,0,0,0,.18.031h.026l6.315.839c.716.09,1.262.151,1.769.2-1.258.258-2.541.463-3.813.614-.254.029-.517.05-.772.07a4.621,4.621,0,0,0-3.132,1.031,16.67,16.67,0,0,0-1.232,1.494l-.629.786a5.352,5.352,0,0,0-.628.865,1.179,1.179,0,0,0,.628,1.73,6.5,6.5,0,0,0,1.939.393c.155.006.312.009.467.009a11.488,11.488,0,0,0,3.464-.534c.822-.23,1.636-.516,2.423-.793.467-.164.949-.334,1.429-.49,1.312-.429,2.725-.819,4.088-1.128,2.772-.639,5.56-1.08,8.656-1.549a.6.6,0,0,0,.358.213,128.021,128.021,0,0,0,25.288,3.459c.209.005.447.011.682.011a4.786,4.786,0,0,0,2.515-.535,2.571,2.571,0,0,0,1.285-2.245.68.68,0,0,0,.131-.376.656.656,0,0,0-.655-.655,56.151,56.151,0,0,1-25.1-2.463,55.083,55.083,0,0,1-5.88-2.353.63.63,0,0,0-.606-.612.706.706,0,0,0-.2.029.157.157,0,0,1-.038,0,.212.212,0,0,1-.154-.083.7.7,0,0,1-.149-.472,7.985,7.985,0,0,1,.521-1.246l.056-.118a10.484,10.484,0,0,0,.917-3.249,28.32,28.32,0,0,0-.158-6.787A66.4,66.4,0,0,0,95.268,92.7c-1.533-4.654-3.483-9.19-5.189-13.076-.88-2.012-1.835-4.166-2.856-6.289a27.744,27.744,0,0,0-3.538-5.739c-2.827-3.4-6.785-5.583-10.273-7.364l-1.222-.634L63.533,46.209a.665.665,0,0,0-.2-.209,31.906,31.906,0,0,0-.845-13.208.644.644,0,0,0-.236-.349,10.492,10.492,0,0,1,2.91-5.824c1.911.387,3.869.617,5.555.8a3.473,3.473,0,0,0,.45.039.9.9,0,0,0,.677-.249,1.1,1.1,0,0,0,.1-1.258,5.679,5.679,0,0,0-.6-.891l-.707-.943c-2.336-3.035-4.709-4.511-7.253-4.511-.071,0-.144,0-.216,0a5.2,5.2,0,0,0-3.8,1.693,7.162,7.162,0,0,0-2.032-.262,21.857,21.857,0,0,0-2.407.181l-.352.039a14.366,14.366,0,0,1-1.527.082c-.416,0-.836-.018-1.25-.055-.235-.02-.544-.044-.852-.044a3.981,3.981,0,0,0-1.11.137.708.708,0,0,0-.083-.094,10.831,10.831,0,0,0-2.07-1.625,3.962,3.962,0,0,0-1.846-.733h-.317a2.195,2.195,0,0,0-.353.052,4.192,4.192,0,0,0-1.953,1.278l-.169.164c-.522.5-1.235,1.179-1.835,1.834a9.345,9.345,0,0,0-2.437,4.586,7.687,7.687,0,0,0-.1.854v.385c.039.669.313,1.072.813,1.2a2.146,2.146,0,0,0,.519.066,2.859,2.859,0,0,0,1.482-.52c.123-.072.239-.14.357-.2a8.444,8.444,0,0,0,1.232-.812,2.18,2.18,0,0,0,.5-.419.141.141,0,0,0-.02.039.289.289,0,0,0,.056-.06l.011-.014.02-.027.011.01.026.026a2.486,2.486,0,0,0,.221.177,3.265,3.265,0,0,1,.33.269l.5.445a9.336,9.336,0,0,1,.917,1.048.671.671,0,0,0,.239.226,6.972,6.972,0,0,1,.206,1.976,20.226,20.226,0,0,0,.105,2.595A11.967,11.967,0,0,0,48.02,39a.753.753,0,0,0,.1.122,28.416,28.416,0,0,1,.329,6.239,34.608,34.608,0,0,0,.148,5.144,13.79,13.79,0,0,0,.787,3.249.671.671,0,0,0,.15.252l-1.854,5.487c-.177.523-.36,1.052-.537,1.563-.479,1.382-.974,2.811-1.376,4.228A17.533,17.533,0,0,0,44.979,71a20.4,20.4,0,0,0,1.127,5.608,46.757,46.757,0,0,0,2.621,6,.757.757,0,0,0,.08.124,49.1,49.1,0,0,1,1.912,15.651,136.126,136.126,0,0,1-1.73,16.8c-.074.479-.145.972-.214,1.448a31.733,31.733,0,0,1-1.715,7.512.656.656,0,0,0-.252.14l0-.008-.025.027.01-.01.01-.01a12.462,12.462,0,0,0-2.746,5c-.3,1.32-.213,2.211.262,2.725a1.642,1.642,0,0,0,1.134.452c.05,0,.1,0,.15-.007a12.016,12.016,0,0,0,3.385-.609Zm1.492.885c-.164,0-.26-.022-.294-.066-.076-.1.072-.486.157-.628a20.557,20.557,0,0,1,2.669-3.386l.162-.178c2.1-2.319,4.479-4.946,4.745-8.3a.655.655,0,0,0,.156-.3,174.98,174.98,0,0,0,3.826-20.362c.241-1.921.46-3.869.65-5.788a15.412,15.412,0,0,0-2.275-11.743.639.639,0,0,0-.537-.288.744.744,0,0,0-.642.37.535.535,0,0,0,.052.573h.027a14.1,14.1,0,0,1,2.142,10.621,13.85,13.85,0,0,1-4.939-3.681,44.5,44.5,0,0,1-3.729-5,.651.651,0,0,0-.547-.293.724.724,0,0,0-.63.359.555.555,0,0,0,.05.589H51.5a38.835,38.835,0,0,0,4.9,6.221c0,.022,0,.045,0,.068a32.387,32.387,0,0,1-.917,7.154c-.239,1-.547,2-.846,2.966a36.354,36.354,0,0,0-1.041,3.873,38.809,38.809,0,0,0-.5,5.852v.009c-.016.459-.033.934-.053,1.4a68.228,68.228,0,0,1-.76,7.311c-.334,2.191-.859,5.2-1.442,8.255a.682.682,0,0,0,.144.609c-.165.192-.3.356-.432.517-.155.181-.307.369-.466.577a.674.674,0,0,0-.293.078,10.825,10.825,0,0,1-2.962.917l-.76.079a2,2,0,0,0-.216.022,2.956,2.956,0,0,1-.363.033.421.421,0,0,1-.181-.029c-.13-.066-.117-.412-.109-.641,0-.047,0-.087,0-.119a9.466,9.466,0,0,1,2.406-5.055.652.652,0,0,0,.477-.317,31.391,31.391,0,0,0,1.9-7.771l.005-.034q.041-.264.083-.528c.508-3.225.9-6.054,1.205-8.648a75.944,75.944,0,0,0,.472-17.06A44.576,44.576,0,0,0,49.8,81.533a.625.625,0,0,0-.36-.4A27.03,27.03,0,0,1,46.316,71.6a15.781,15.781,0,0,1,.6-5.582c.343-1.219.762-2.449,1.166-3.639.214-.63.434-1.277.642-1.917l2.039-6.041a25.034,25.034,0,0,0,3.261.276,3.754,3.754,0,0,0-.163,1.519,2.388,2.388,0,0,0,1.231,1.835,1.756,1.756,0,0,0,2.123-.367,2.169,2.169,0,0,0,.445-2.018,3.124,3.124,0,0,0-.638-1.094,24.925,24.925,0,0,0,4.883-1,25.335,25.335,0,0,0,3.223-1.284.654.654,0,0,0,.307-.71l5.567,8.584a.557.557,0,0,0,.337.459h.009a.6.6,0,0,0,.22.1c3.493,1.771,7.452,3.779,10.409,6.893a22.11,22.11,0,0,1,3.7,5.5c1.017,2.035,2.022,4.3,2.909,6.289,1.73,3.911,3.706,8.473,5.267,13.128a65.258,65.258,0,0,1,3.2,13.575,28.635,28.635,0,0,1,.184,6.84,8.982,8.982,0,0,1-.917,2.987c-.535,1.017-.963,2.182-.078,3.118a1.438,1.438,0,0,0,.292.243.649.649,0,0,0,.258.281v.026a57.288,57.288,0,0,0,12.238,4.324,57.928,57.928,0,0,0,12.84,1.468h.023a56.269,56.269,0,0,0,6.478-.375,1.739,1.739,0,0,1-1.182.978,6.545,6.545,0,0,1-1.566.124c-.376,0-.758-.01-1.081-.02-2-.087-4.006-.22-5.975-.393-3.911-.348-7.852-.885-11.714-1.6-2.068-.374-4.152-.816-6.195-1.314a.682.682,0,0,0-.8-.416c-2.55.387-5.186.786-7.73,1.31a59.449,59.449,0,0,0-7.443,2.071,23.616,23.616,0,0,1-3.642,1.021,8.414,8.414,0,0,1-1.5.136c-.092,0-.186,0-.278,0l-.733-.079-.446-.1a2.569,2.569,0,0,0-.42-.14,1.048,1.048,0,0,1,.079-.122l.577-.734,1.231-1.519a2.146,2.146,0,0,1,1.284-.865c.454-.079.915-.114,1.36-.148.15-.011.3-.023.448-.036a47.8,47.8,0,0,0,8.8-1.808.612.612,0,0,0,.437-.423.7.7,0,0,0,.481-.7h-.027c-.078-2.1-1.739-3.6-3.354-4.8-1.006-.743-1.983-1.337-2.927-1.911-.552-.336-1.122-.682-1.685-1.051a15.12,15.12,0,0,1-3.905-3.3,11.821,11.821,0,0,1-1.834-5.792l-.013-.187a5.846,5.846,0,0,1,.38-3.272A1.823,1.823,0,0,1,80.528,98.8a1.755,1.755,0,0,1,.641.132.655.655,0,0,0,.812-.446.684.684,0,0,0-.446-.813,2.327,2.327,0,0,0-.857-.161,3.181,3.181,0,0,0-2.025.816,4.627,4.627,0,0,0-1.363,2.988,15.527,15.527,0,0,0,.184,3.459,12.121,12.121,0,0,0,.969,3.564c1.364,2.946,4.194,4.659,6.931,6.315.51.309,1.036.627,1.534.943a18.773,18.773,0,0,1,2.543,1.861,4.654,4.654,0,0,1,1.566,2.469h-.011a.667.667,0,0,0-.166.021,13.253,13.253,0,0,1-1.888.126,33.262,33.262,0,0,1-4.218-.361l-6.185-.813a.653.653,0,0,0-.214.036.518.518,0,0,0-.206-.043.612.612,0,0,0-.34.111,16.592,16.592,0,0,1-6.395,2.463c-.808.133-1.636.217-2.436.3a24.437,24.437,0,0,0-3.853.6,2.47,2.47,0,0,1,.6-1.026,4.426,4.426,0,0,1,2.018-1.1c.392-.114.8-.211,1.186-.3.415-.1.845-.2,1.252-.325a25,25,0,0,0,2.672-.969l1.284-.551c.517-.23.942-.467.917-1.048a1.272,1.272,0,0,0-.407-.9c-.057-.063-.115-.129-.169-.2l-.734-.969a16.246,16.246,0,0,0-3.642-3.643,17.208,17.208,0,0,0-4.385-1.89c1.778-2.2,1.923-5.167,2.064-8.04.035-.725.069-1.409.128-2.082a.652.652,0,0,0,.437.167c.9-.082,1.812-.124,2.71-.124.545,0,1.1.015,1.64.046a.641.641,0,0,0,.224-.04,4.928,4.928,0,0,1,.378,1.166.654.654,0,0,0,.783.4.652.652,0,0,0,.475-.736,6.209,6.209,0,0,0-2.018-3.415A6.394,6.394,0,0,0,68.885,95.2c.211-.546.458-1.125.753-1.77l.083-.182a18.183,18.183,0,0,0,1.83-5.426,12,12,0,0,0-.21-3.59l-.007-.041a10.873,10.873,0,0,1-.229-3.549.685.685,0,0,0-.446-.812.654.654,0,0,0-.813.445l.026.026a11.872,11.872,0,0,0,.174,3.806,17.339,17.339,0,0,1,.271,2.641,11.28,11.28,0,0,1-1.354,5.012l-.139.307-.17.373-.01.021a22.053,22.053,0,0,0-1.865,5.24,28.874,28.874,0,0,0-.293,3.452c-.048,1.035-.1,2.1-.231,3.126a7.773,7.773,0,0,1-2,4.805.616.616,0,0,0-.444.415.658.658,0,0,0,0,.859l-.42,4.718a19.843,19.843,0,0,1-.288,2.358,6.24,6.24,0,0,1-.891,2.149c-.176.282-.371.557-.559.822-.231.327-.47.664-.672,1.012a8.427,8.427,0,0,0-.865,2.149,20.693,20.693,0,0,0-.439,2.439c-.094.68-.191,1.383-.348,2.068a5.287,5.287,0,0,1-1.782,3.3,8.176,8.176,0,0,1-4.114,1.179c-.866.087-1.757.14-2.647.158l-.092,0C50.643,132.72,50.565,132.725,50.488,132.725Zm1.857-5.294v0a119.886,119.886,0,0,0,1.937-13.557c.054-.832.081-1.685.106-2.51a39.455,39.455,0,0,1,.339-4.749,33.1,33.1,0,0,1,1.208-4.736c.212-.686.431-1.4.626-2.1a33.957,33.957,0,0,0,1.12-7.2c.275.218.559.429.845.626a12.9,12.9,0,0,0,2.636,1.4c-.134,1.352-.281,2.681-.437,3.951-1.14.256-1.791,1.334-1.99,3.3a9.465,9.465,0,0,0,.5,5.188.659.659,0,0,0,.2.214c-.388,2.224-.827,4.471-1.3,6.678-.37,1.722-.779,3.479-1.214,5.223a.615.615,0,0,0-.28.516c-.052,3.141-2.305,5.6-4.293,7.767Zm7.575-23.093h0a16.124,16.124,0,0,1,.1-2.155,6.026,6.026,0,0,1,.315-1.572,1.821,1.821,0,0,1,.177-.377C60.332,101.606,60.131,102.987,59.92,104.338Zm8.1-6.077v0a13.9,13.9,0,0,1,.429-1.8.644.644,0,0,0,.221.039H68.7a5.059,5.059,0,0,1,1.546.341,5.273,5.273,0,0,1,1.389.864,4.927,4.927,0,0,1,.384.365c-.309-.01-.637-.016-.977-.016-.9,0-1.813.042-2.71.124a.672.672,0,0,0-.308.086ZM55.869,56.934a.229.229,0,0,1-.041-.007h.038a.117.117,0,0,0-.039-.008.035.035,0,0,0-.026.008H55.75l-.157-.079-.037-.036.037.026a.674.674,0,0,0-.053-.041l-.1-.105-.079-.078-.1-.158c-.009-.016-.02-.042-.03-.066l-.049-.17V56.14a.517.517,0,0,0-.025-.115v-.2a.985.985,0,0,1,.026-.263v-.157l.052-.262c.022-.077.045-.155.069-.232a.77.77,0,0,0,.088.049l.34.184.158.1h-.026l.1.078.236.263a.108.108,0,0,0,.035.053l-.021-.031a.119.119,0,0,1,.021.03l.017.026.105.184V55.9c-.009-.026-.011-.033-.012-.034l0,.008a.3.3,0,0,1,.01.052l.052.184v.445a.4.4,0,0,1-.025.077l-.027.027-.052.079-.053.078,0,0,0,0-.045.045h-.086a.009.009,0,0,0-.006,0l-.012,0-.157.053h-.067s.007,0,.007.006h0ZM54.319,53.4h0a23.487,23.487,0,0,1-3.8-.338c-.125-.351-.236-.716-.329-1.084a35.432,35.432,0,0,0,4.112.254,3.206,3.206,0,0,0,.019,1.166Zm2.145-.083h0c.007-.028.013-.056.019-.084a2.764,2.764,0,0,0,.053-.84c-.006-.075-.015-.15-.027-.223a16.683,16.683,0,0,0,5.53-1.008A5.512,5.512,0,0,0,64.154,49.6l1.055,1.626a.681.681,0,0,0-.733-.063,23.339,23.339,0,0,1-8.011,2.156Zm-2.074-2.375a33.594,33.594,0,0,1-4.471-.3,32.061,32.061,0,0,1-.2-5.454c.022-1.079.045-2.194,0-3.277A19.762,19.762,0,0,0,49.3,38.53a.568.568,0,0,0-.3-.4,10.676,10.676,0,0,1-1.562-4.5c-.058-.557-.064-1.122-.069-1.668a7.933,7.933,0,0,0-.56-3.494.654.654,0,0,0-.382-.3,11.15,11.15,0,0,0-1.269-1.3l-.1-.084A2.47,2.47,0,0,0,43.6,25.99a1.1,1.1,0,0,0-.538.145,6.581,6.581,0,0,0-.839.655,7.437,7.437,0,0,1-.865.577,6.9,6.9,0,0,1-.943.445,3.706,3.706,0,0,0-.445.137v-.012a1.014,1.014,0,0,0,.1-.062s-.029.013-.069.034l-.028.015a6.834,6.834,0,0,1,1.519-3.965,15.669,15.669,0,0,1,1.625-1.808,18.721,18.721,0,0,1,1.625-1.519,1.641,1.641,0,0,1,.917-.393,2.346,2.346,0,0,1,1.179.419,9.365,9.365,0,0,1,1.952,1.507.677.677,0,0,0,.148.551.619.619,0,0,0,.474.234.647.647,0,0,0,.362-.117v.027a2.13,2.13,0,0,1,1.194-.3c.237,0,.479.02.713.04l.267.021c.345.026.7.04,1.041.04a13.646,13.646,0,0,0,1.579-.092c.212-.024.431-.052.642-.078a17.086,17.086,0,0,1,2.114-.177,5.1,5.1,0,0,1,2.222.439.681.681,0,0,0,.891-.236.655.655,0,0,0,.054-.534,3.98,3.98,0,0,1,2.88-1.078,5.177,5.177,0,0,1,1.1.118,8.166,8.166,0,0,1,4.533,3.145c.379.46.735.926,1.048,1.336l.436.6-.264-.039-.016,0c-.138-.021-.268-.042-.392-.056l-1.468-.184c-1.055-.136-1.985-.287-2.844-.463a.7.7,0,0,0-.468-.192.623.623,0,0,0-.434.183l-.026-.026a11.722,11.722,0,0,0-3.721,7.808.652.652,0,0,0,.548.646,30.415,30.415,0,0,1,.553,12.561.655.655,0,0,0,.623.839l.85,1.309a.673.673,0,0,0-.214.212c-1.2,1.647-3.64,1.891-5.425,2.07A33.461,33.461,0,0,1,54.389,50.942Z" transform="translate(9.5 9.5)" fill="#fff" stroke="#b064e8" stroke-width="1"/>
  </g>
</svg>
