<?xml version="1.0" standalone="no"?>
<!DOCTYPE svg PUBLIC "-//W3C//DTD SVG 20010904//EN"
 "http://www.w3.org/TR/2001/REC-SVG-20010904/DTD/svg10.dtd">
<svg version="1.0" xmlns="http://www.w3.org/2000/svg"
 width="700.000000pt" height="700.000000pt" viewBox="0 0 700.000000 700.000000"
 preserveAspectRatio="xMidYMid meet">
<metadata>
Created by potrace 1.14, written by Peter Selinger 2001-2017
</metadata>
<g transform="translate(0.000000,700.000000) scale(0.100000,-0.100000)"
fill="#000000" stroke="none">
<path d="M3455 6101 c-36 -21 -135 -75 -230 -126 -38 -21 -83 -45 -100 -55
-33 -19 -169 -93 -225 -122 -19 -10 -42 -22 -50 -28 -8 -5 -60 -33 -115 -63
-55 -30 -131 -71 -170 -93 -38 -21 -95 -52 -127 -68 -31 -17 -179 -98 -330
-180 -335 -183 -551 -301 -643 -351 -38 -21 -90 -49 -115 -63 -134 -73 -595
-324 -654 -356 -38 -20 -74 -40 -80 -45 -6 -4 -56 -32 -111 -61 -125 -66 -205
-111 -205 -115 0 -3 137 -80 285 -160 22 -12 228 -124 457 -249 l417 -227 -2
-874 -2 -874 225 -122 c124 -68 304 -166 400 -219 96 -53 216 -118 265 -145
50 -26 128 -69 175 -95 47 -26 146 -80 220 -120 74 -40 155 -84 180 -97 25
-14 74 -41 110 -61 36 -19 79 -42 95 -52 17 -10 66 -37 110 -60 44 -24 119
-65 168 -92 95 -52 103 -54 132 -35 11 8 61 35 110 62 50 26 113 60 140 75 62
34 901 492 972 531 28 15 215 117 415 225 200 109 364 199 366 200 2 1 3 396
3 877 l1 874 36 21 c100 55 197 108 287 157 33 18 83 45 110 60 97 54 138 75
144 75 3 0 6 -447 5 -992 0 -546 1 -998 3 -1004 3 -8 89 -11 294 -11 l289 -1
0 1167 0 1166 -37 20 c-21 11 -92 50 -158 86 -66 36 -151 83 -190 104 -38 21
-92 50 -120 65 -27 15 -81 44 -120 65 -38 21 -90 49 -115 63 -25 13 -79 43
-120 65 -41 22 -109 59 -150 82 -41 23 -104 58 -140 77 -36 20 -85 47 -110 60
-25 14 -81 44 -125 68 -44 24 -111 60 -148 82 -38 21 -70 38 -72 38 -2 0 -34
17 -72 39 -37 21 -122 68 -188 103 -66 36 -221 120 -345 188 -124 67 -247 135
-275 150 -27 14 -81 44 -120 65 -38 21 -96 53 -128 71 -32 19 -60 34 -62 34
-2 0 -64 33 -137 74 -298 164 -275 155 -323 127z m323 -792 c152 -83 311 -170
352 -192 41 -23 93 -51 115 -63 22 -13 63 -35 90 -50 28 -14 73 -39 100 -54
28 -15 75 -41 105 -57 30 -17 105 -57 165 -91 105 -57 235 -128 410 -222 44
-24 110 -60 147 -82 36 -21 69 -38 71 -38 3 0 39 -19 80 -43 l76 -43 -62 -33
c-34 -18 -69 -37 -77 -42 -13 -8 -101 -56 -465 -254 -122 -66 -291 -158 -335
-183 -25 -13 -72 -39 -105 -57 -33 -18 -259 -141 -502 -274 l-442 -241 -58 31
c-32 17 -76 42 -98 54 -46 25 -23 13 -545 297 -217 119 -415 227 -440 240 -78
44 -733 400 -792 432 -31 17 -56 31 -55 32 3 2 216 119 277 151 30 17 181 99
335 183 154 84 309 168 345 188 36 19 91 50 123 68 32 19 60 34 62 34 2 0 88
46 192 103 103 57 226 124 273 149 47 26 150 83 230 127 80 44 146 80 148 81
1 0 127 -68 280 -151z m-1513 -2009 c47 -27 121 -68 225 -123 52 -27 100 -53
105 -57 6 -4 46 -26 90 -50 44 -24 148 -80 230 -125 452 -248 576 -315 585
-315 8 0 515 273 720 388 25 14 68 37 95 52 28 14 75 40 105 57 30 17 111 61
180 98 69 38 139 76 155 85 17 9 69 38 117 64 l86 47 0 -543 0 -543 -21 -11
c-12 -6 -62 -33 -112 -61 -49 -27 -126 -69 -170 -93 -166 -89 -611 -333 -640
-350 -16 -9 -64 -35 -105 -57 -41 -22 -150 -81 -243 -132 l-167 -91 -53 29
c-28 16 -77 42 -107 59 -30 16 -147 80 -260 142 -113 62 -239 130 -280 153
-41 22 -113 61 -160 87 -47 26 -116 64 -155 85 -38 20 -144 78 -235 128 -91
50 -175 95 -187 101 l-21 11 0 542 0 543 96 -51 c54 -29 111 -59 127 -69z"/>
</g>
</svg>
