<?xml version="1.0" encoding="utf-8"?>
<!-- Generator: Adobe Illustrator 25.0.1, SVG Export Plug-In . SVG Version: 6.00 Build 0)  -->
<svg version="1.1" id="Layer_1" xmlns="http://www.w3.org/2000/svg" xmlns:xlink="http://www.w3.org/1999/xlink" x="0px" y="0px"
	 viewBox="0 0 412.7 573.4" style="enable-background:new 0 0 412.7 573.4;" xml:space="preserve">
<style type="text/css">
	.st0{fill:#FFFFFF;}
</style>
<g>
	<g>
		<g>
			<path class="st0" d="M113.6,186.7c13.6-1,25.7,8.2,35.6,16.8c10.8,9.5,20.3,20.5,31.8,29.1c7.4,5.6,14.8,11.2,22.5,16.4
				c3.9,2.6,7.9,5.1,12.1,7.3c4.1,2.2,8.4,3.8,12.5,6c7,3.7,13.3,8.6,20.2,12.5c3.4,1.9,7,3.6,10.8,4.6c3.9,1.1,8,1.5,12.1,1.7
				c8.2,0.3,16.4-0.4,24.7-0.5c7.9-0.1,16.1,0.1,23.7,2.7c1.7,0.6,3.4,1.3,5,2.1c2.8,1.5,5.4-2.8,2.5-4.3
				c-7.2-3.8-15.4-5.1-23.5-5.4c-8.4-0.3-16.8,0.3-25.3,0.4c-7.8,0.1-15.6,0-22.8-3.3c-7.2-3.2-13.4-8.1-20.1-12.2
				c-3.7-2.3-7.6-4-11.6-5.9c-4.3-2-8.5-4.2-12.5-6.7c-8-4.9-15.5-10.6-23-16.2c-3-2.3-5.8-4.2-8.6-6.7c-2.6-2.2-5.1-4.6-7.6-7
				c-5.5-5.2-10.8-10.6-16.4-15.7c-10.4-9.4-22.6-19.5-37.1-20.8c-1.6-0.1-3.2-0.1-4.8,0c-1.3,0.1-2.5,1.1-2.5,2.5
				C111.1,185.4,112.3,186.8,113.6,186.7L113.6,186.7z"/>
		</g>
	</g>
	<g>
		<g>
			<path class="st0" d="M261.9,280.4c-5.2,5.4-6.7,13-6.7,20.3c0.1,8.4,1.9,16.8,4.1,24.9c2.1,7.8,4.7,15.6,6.9,23.4
				c0.9,3.2,1.7,6.3,2,9.6c0.7,6.3,0.4,12.7-0.4,19c-0.8,6.2-2,12.3-3.2,18.4c-1.2,6.2-2.2,12.4-3.2,18.6c-2,12.5-4,25-7.2,37.2
				c-1.5,5.7-3.3,11.3-4.9,16.9c-1.5,5.4-3,10.8-4.6,16.1c-3.1,10.6-6.5,21.5-12.1,31.1c-4.6,8-12,12.9-20.4,16.4
				c-8.2,3.3-16.6,6-24.4,10c-3.2,1.7-6.4,3.5-9.4,5.7c-3.1,2.3-6.4,5-7.8,8.7c-3.2,8.2,6.6,11.8,12.7,13.2c3.2,0.7,6.4,1.1,9.7,1.6
				c5.1,0.8,10.3,1.5,15.4,1.7c5.3,0.3,10.8,0.1,15.9-1.3c4.5-1.3,8.4-3.9,11.4-7.5c2.9-3.5,5.1-7.6,7.3-11.5
				c2.7-4.8,5.7-9.3,8.7-13.9c1.7-2.6,3.3-5.2,4.9-7.8c1.2-2.1,2.3-4.4,3.8-6.3c0.6-0.7,1.2-1.4,1.7-1.7c0.3-0.2-0.3,0.1,0.1,0
				c0.2-0.1,0.3-0.1,0.5-0.2c0.5-0.2,1-0.3,1.5-0.5c1.3-0.4,3.3-0.6,4.3-1.6c1.3-1.3,2.3-3.4,2.6-5.2c0.3-1.6-0.1-3.1-0.2-4.7
				c-0.5-5.1,0.9-10.1,2.7-14.8c1.9-5.2,4.5-10.1,7.1-15c2.4-4.7,4.6-9.5,6.8-14.4c9.2-20.7,21.4-40.2,27.6-62.2
				c1.5-5.4,2.6-10.9,3.2-16.5c0.1-1.3-1.3-2.5-2.5-2.5c-1.5,0-2.4,1.2-2.5,2.5c-2.2,19.4-11,37.3-19.6,54.5
				c-4.3,8.6-8.5,17.3-12.4,26.1c-3.8,8.7-8.8,16.7-12.2,25.6c-1.8,4.7-3.2,9.7-3.2,14.8c0,1.6,0.4,3.3,0.4,4.9c0,0.2,0,1,0,0.5
				c0,0.3-0.1,0.6-0.2,0.9c-0.2,0.6-0.9,1.6-1.4,2.3c0.3-0.3,0.6-0.6,0.9-0.9c0,0,0.6-0.1,0.3-0.1c-0.2,0-0.4,0.1-0.6,0.2
				c-0.6,0.2-1.2,0.3-1.7,0.5c-1.3,0.4-2.7,0.7-3.8,1.4c-3.2,1.8-5,6-6.7,9c-4.2,7.6-9.6,14.5-13.8,22.2c-3.1,5.6-6.2,12.2-12,15.5
				c-3,1.7-6.6,2.4-10,2.6c-4.1,0.3-8.3,0.2-12.4-0.2c-6-0.5-12.1-1.3-18-2.5c-2.7-0.5-5.6-1.2-8-2.3c-1.1-0.5-2-1.1-2.6-1.7
				c-0.4-0.4-0.3-0.3-0.7-0.9c-0.1-0.3,0,0,0,0.1c-0.1-0.1-0.1-0.3-0.1-0.4c-0.1-0.4-0.1,0.2-0.1-0.4c0-0.8,0.2-1.4,0.7-2.3
				c0.6-1.1,1.4-1.9,2.4-2.8c2.1-2,4.6-3.7,7.1-5.2c4.9-3,10.1-5.5,15.5-7.6c6.6-2.6,13.4-4.7,19.7-8c6.4-3.4,11.9-8.1,15.8-14.3
				c4.5-7.1,7.5-15.3,10.2-23.2c2.8-8.3,5.1-16.7,7.4-25.1c2.5-8.8,5.2-17.4,7.2-26.3c2.1-9.4,3.6-18.9,5.1-28.4
				c1.5-9.5,3.4-19,5.1-28.5c1.7-9.5,3.1-19.2,2.1-28.9c-0.6-5.6-2.1-11-3.7-16.5c-1.8-6.1-3.7-12.2-5.4-18.3
				c-1.7-6.1-3.1-12.3-3.8-18.7c-0.5-5.6-0.5-11.1,1.4-16.4c0.7-2,2-4.1,3.5-5.6C267.6,281.6,264.1,278,261.9,280.4L261.9,280.4z"/>
		</g>
	</g>
	<g>
		<g>
			<path class="st0" d="M314.9,388.9c8.6,7.5,15.7,17,25.6,22.8c2.6,1.5,5.5,2.8,8.4,3.7c3.2,1,6.5,1.6,9.9,2.1
				c7.3,1.3,14.5,2.9,21.7,4.7c8.3,2.1,16.4,4.6,24.5,7.2c3.1,1,4.4-3.8,1.3-4.8c-14.1-4.6-28.4-8.6-43-11.3
				c-6.2-1.2-12.5-1.9-18.2-4.8c-4.8-2.4-8.9-5.8-12.7-9.5c-4.7-4.5-9.1-9.4-14-13.7c-1-0.9-2.5-1-3.5,0
				C313.9,386.3,313.8,388,314.9,388.9L314.9,388.9z"/>
		</g>
	</g>
	<g>
		<g>
			<path class="st0" d="M412.5,165.5c-5.1-12.8-16.8-22.1-27.1-30.6c-1-0.9-2.5-1-3.5,0c-0.9,0.9-1,2.7,0,3.5
				c5.1,4.1,10.1,8.3,14.7,13c4.4,4.5,8.8,9.5,11.2,15.4c0.5,1.3,1.7,2.1,3.1,1.7C412,168.2,413,166.8,412.5,165.5L412.5,165.5z"/>
		</g>
	</g>
	<g>
		<g>
			<path class="st0" d="M378.5,113.4c1.9,3,2.4,6.7,2.6,10.2c0.2,3.8,0,7.7,0,11.5c0,3.2,5,3.2,5,0c0-4.1,0.2-8.1-0.1-12.2
				c-0.3-4.1-1-8.5-3.3-12.1C381.1,108.2,376.7,110.7,378.5,113.4L378.5,113.4z"/>
		</g>
	</g>
	<g>
		<g>
			<path class="st0" d="M382.9,107.9c-2.3-1.8-5.2-3.1-7.1-5.3c-0.2-0.3-0.5-0.8-0.7-1.2c-0.1-0.5-0.1-1,0-1.5
				c0.1-0.5,0-0.1,0.1-0.4c0.1-0.2,0.3-0.5,0.4-0.7c0.2-0.3-0.2,0.3,0,0c0.1-0.1,0.1-0.2,0.2-0.3c0.2-0.3,0.5-0.5,0.7-0.8
				c2.4-2.6,3.5-5.3,3.4-8.8c-0.2-4.4-1.4-8.6-3.1-12.6c-1.6-3.8-3.6-7.5-5.5-11.2c-2-4-3.7-8.2-5.8-12.3c-2.1-4.2-4.1-8.6-6.7-12.5
				c-2.3-3.5-5.1-6.6-8-9.5c-5.7-5.6-11.2-11.3-18.2-15.2c-6.8-3.9-14.3-6.4-21.9-8.4c-7.4-2-14.9-3.2-22.3-4.9
				c-6.9-1.6-15.8-4.2-22.1,0.4c-2.7,2-4.5,4.9-7.1,7c-2.6,2.2-6.3,2.2-9.6,2.1c-8.4-0.4-16.4-3.7-24.6-5.4c-4.7-1-9.5-1.6-14.3-2
				c-4.5-0.3-9.2-0.6-13.7-0.1c-3.1,0.3-6,1.2-8.4,3.2c-1.9,1.6-3.1,3.9-3.8,6.2c-1.4,5.2-0.5,10.8,0.3,16c0.2,1.3,0.4,2.5,0.6,3.8
				c0,0.2,0,0.3,0.1,0.5c0,0,0-0.4,0-0.1c0,0.3,0.1,0.5,0.1,0.8c0.1,0.9,0.2,1.8,0.2,2.8c0.2,4.7-0.3,9.5-0.2,14.2
				c0.1,3.8,0.8,7.6,2.3,11.1c1.4,3.2,3.3,6.1,5.5,8.8c4.7,6.1,9.8,11.9,16.5,16c3.3,2,6.8,3.5,10.5,4.4c3.3,0.9,6.8,1.3,10.2,1.9
				c6.4,1.2,13.2,2.7,17.3,8.2c4.1,5.6,6,12.4,7.3,19.1c1.4,7.2,2,14.6,3.2,21.8c0.6,3.3,1.3,6.5,2.3,9.7c1,3,5.8,1.7,4.8-1.3
				c-4.4-13.5-3.4-28.1-8.1-41.6c-2.2-6.4-5.8-13-11.9-16.5c-6.1-3.5-13.2-4.2-19.9-5.5c-3.5-0.6-7-1.5-10.2-3.1
				c-3.1-1.5-6-3.5-8.7-5.8c-2.9-2.5-5.4-5.4-7.8-8.4c-2.1-2.6-4.2-5.3-5.7-8.3c-3.8-7.2-2.3-15.3-2.4-23.1c0-3.1-0.5-6.2-0.9-9.3
				c-0.4-2.7-0.7-4.6-0.9-7.3c-0.1-1.3-0.2-2.5-0.1-3.8c0-0.6,0.1-1.1,0.1-1.7c0-0.2,0-0.3,0.1-0.5c0,0.1-0.1,0.5,0,0
				c0.1-0.3,0.1-0.6,0.2-0.9c0.1-0.5,0.2-1,0.4-1.5c0-0.1,0.3-0.7,0.2-0.5c-0.1,0.2,0.3-0.5,0.3-0.7c0.1-0.2,0.3-0.4,0.4-0.6
				c0.1-0.1,0.5-0.6,0.2-0.3c0.4-0.4,0.7-0.8,1.2-1.2c0.3-0.2-0.3,0.2,0,0c0.1-0.1,0.2-0.1,0.3-0.2c0.3-0.2,0.5-0.3,0.8-0.5
				c0.6-0.3,0.6-0.3,1.4-0.6c1.5-0.5,2.8-0.6,4.4-0.6c4.7-0.2,9.3,0,14,0.4c4.7,0.4,9.3,1.2,13.8,2.3c4,0.9,7.9,2.2,11.9,3.2
				c4,0.9,8.1,1.7,12.2,1.7c3.7,0,7.7-0.5,10.7-2.8c2.7-2,4.4-4.8,7-6.9c2.5-2.1,5.8-2.2,8.9-1.9c3.7,0.3,7.2,1.4,10.8,2.1
				c3.6,0.8,7.2,1.4,10.8,2.2c14.4,3.1,29.9,7.1,40.7,17.6c5.7,5.5,12.2,10.9,16,18c2.2,4.1,4.4,8.3,6.4,12.6
				c1.9,3.9,3.5,7.9,5.5,11.7c1.9,3.6,3.8,7.2,5.2,11.1c0.7,1.9,1.3,3.9,1.6,5.9c0.2,1.6,0.5,3.4,0,5c-0.3,1.1-0.8,1.6-1.6,2.5
				c-0.8,0.9-1.7,1.8-2.3,2.9c-1.7,3.2-0.9,6.8,1.5,9.4c1,1.1,2.3,2.1,3.6,2.9c0.6,0.4,1.3,0.8,1.9,1.3c0.3,0.2,0.6,0.4,0.8,0.6
				c0.1,0.1,0.8,0.6,0.6,0.4c1.1,0.8,2.5,1,3.5,0C383.8,110.6,384,108.7,382.9,107.9L382.9,107.9z"/>
		</g>
	</g>
	<g>
		<g>
			<path class="st0" d="M262.3,153.2c-4.9-1.4-10.1,0-14,3c-3.7,2.9-6.8,7.3-6.7,12.2c0.2,5.5,4.5,9.3,9.3,11.2
				c4.4,1.7,11.1,2.3,13.9-2.5c1.7-2.9,1.4-6.8,1.1-10c-0.2-3.5-0.8-7-0.8-10.5c0-3.2-5-3.2-5,0c0,5.4,1.3,10.7,0.8,16.1
				c0,0.3,0,0.1,0,0c0,0.2-0.1,0.3-0.1,0.5c0,0.2-0.1,0.5-0.2,0.7c0,0.2-0.2,0.6,0,0.2c-0.1,0.3-0.3,0.5-0.4,0.7
				c0.2-0.3,0-0.1-0.1,0.1c-0.2,0.2-0.4,0.3-0.1,0.1c-0.2,0.1-0.4,0.2-0.6,0.3c-0.2,0.1,0.1,0,0.1,0c-0.1,0-0.3,0.1-0.4,0.1
				c-0.2,0.1-0.4,0.1-0.6,0.2c-0.1,0-0.2,0-0.3,0.1c-0.4,0.1,0.4,0,0,0c-0.5,0-1,0.1-1.5,0c-0.3,0-0.5,0-0.8-0.1c-0.1,0-0.2,0-0.3,0
				c0,0,0.4,0.1,0.1,0c-0.6-0.1-1.1-0.2-1.6-0.4c-0.5-0.1-0.9-0.3-1.4-0.4c-0.3-0.1-0.5-0.2-0.8-0.3c0.4,0.2-0.2-0.1-0.3-0.2
				c-0.4-0.2-0.9-0.4-1.3-0.7c-0.2-0.1-0.5-0.3-0.7-0.4c-0.1-0.1-0.2-0.1-0.3-0.2c-0.4-0.2,0.2,0.2-0.1-0.1
				c-0.4-0.3-0.8-0.7-1.1-1.1c-0.2-0.2-0.3-0.3-0.4-0.5c0.3,0.4-0.2-0.3-0.2-0.4c-0.1-0.2-0.2-0.4-0.3-0.5c-0.1-0.2-0.2-0.6-0.1-0.1
				c-0.2-0.4-0.3-0.9-0.4-1.3c-0.1-0.2-0.1-0.6,0-0.1c0-0.2,0-0.4,0-0.6c0-0.5,0-0.9,0.1-1.4c-0.1,0.5,0,0.1,0-0.1
				c0.1-0.2,0.1-0.5,0.2-0.7c0.1-0.2,0.1-0.4,0.2-0.6c0.1-0.2,0.3-0.7,0.1-0.3c0.4-0.9,0.9-1.7,1.4-2.5c0.1-0.1,0.1-0.2,0.2-0.3
				c0,0-0.2,0.3-0.1,0.1c0.1-0.2,0.3-0.3,0.4-0.5c0.3-0.4,0.7-0.8,1.1-1.1c0.2-0.2,0.4-0.4,0.6-0.5c0.1-0.1,0.2-0.2,0.3-0.3
				c-0.2,0.2-0.1,0.1,0,0c0.5-0.3,0.9-0.6,1.4-0.9c0.5-0.3,0.9-0.5,1.4-0.7c0.1,0,0.2-0.1,0.3-0.1c-0.4,0.2,0,0,0.1,0
				c0.2-0.1,0.5-0.2,0.7-0.3c0.5-0.2,1.1-0.3,1.6-0.4c0.6-0.1-0.1,0,0.3-0.1c0.3,0,0.6-0.1,0.9-0.1c0.5,0,1.1,0,1.6,0.1
				c0,0,0.4,0.1,0.1,0c-0.3-0.1,0.3,0.1,0.3,0.1c0.3,0.1,0.6,0.1,0.9,0.2C264.1,158.9,265.4,154.1,262.3,153.2L262.3,153.2z"/>
		</g>
	</g>
	<g>
		<g>
			<path class="st0" d="M265.5,176.6c1.2,0.3,2.4,0.5,3.6,0.8c1.4,0.3,2.7,0.7,3.7,1.3c0.1,0.1,0.4,0.3,0,0c0,0,0.3,0.3,0.1,0
				c-0.3-0.3,0.2,0.3,0,0c-0.1-0.1-0.1-0.2-0.1-0.3c0,0.2,0,0.3,0,0.5c0-0.2,0.1-0.3-0.1,0.1c0,0-0.2,0.4,0,0.1
				c-0.1,0.2-0.2,0.3-0.3,0.5c-0.7,1.1-1.9,2.2-3,3.2c-2.1,1.8-4,3.8-5.9,5.7c-2.4,2.5-4.9,5-7,7.7c-2.2,2.7-4.6,5.9-5.2,9.4
				c-0.2,1.3,0.3,2.7,1.7,3.1c1.2,0.3,2.9-0.4,3.1-1.7c0.2-1.6,0.7-2.4,1.5-3.8c0.8-1.4,1.8-2.7,2.8-4c2.4-2.9,5-5.5,7.6-8.1
				c1-1,2-2.1,3-3.1c1.1-1.1,2.4-2.1,3.5-3.2c2.4-2.4,4.9-6.5,1.9-9.5c-2.4-2.4-6.4-2.7-9.6-3.4C263.7,171,262.3,175.8,265.5,176.6
				L265.5,176.6z"/>
		</g>
	</g>
	<g>
		<g>
			<path class="st0" d="M250.6,203.7c-6.9,0.2-13.1-3-18.8-6.5c-2.9-1.8-5.8-3.7-8.8-5.3c-3.4-1.9-7-3.4-10.6-4.7
				c-7.3-2.7-15-4.6-22.3-7.4c-7.5-2.9-14.2-7.4-21-11.5c-13.8-8.2-27.7-16.2-42.1-23.4c-7.3-3.6-14.7-6.9-22.1-10.2
				c-6.9-3-13.7-6.3-20.6-9.4c-13.4-6.1-27.2-11.5-41.9-13.5c-6.8-0.9-13.5-1-20.3-1c-4.8,0-9.8,0.2-14.2,2.2
				c-4.7,2.1-7,6.6-7.6,11.5c-0.7,6,0.9,11.7,3.5,17c2.8,5.9,6.7,11.3,11,16.2c3.9,4.4,8.2,8.5,13.4,11.3
				c11.8,6.4,25.6,7.4,38.4,10.8c3.5,0.9,6.9,2.1,10.5,2.9c4,0.8,8.1,1.3,12.2,1.6c8.1,0.6,16.3,0.5,24.4,1.4c3.8,0.4,7.6,1,11.4,2
				c3.1,0.8,4.4-4,1.3-4.8c-15.5-4.1-31.7-1.8-47.3-4.9c-3.6-0.7-7-1.8-10.5-2.8c-3.1-0.8-6.2-1.5-9.3-2.2
				c-6.6-1.4-13.2-2.6-19.6-4.6c-5.4-1.7-10.6-4.1-14.8-7.6c-4.6-3.9-8.6-8.6-12-13.6c-3.2-4.7-6.2-9.8-7.3-15.4
				c-0.3-1.3-0.3-2.3-0.4-3.8c0-1.3,0-2.8,0.2-3.9c0.1-0.6,0.2-1.2,0.4-1.7c0.2-0.6,0.3-0.8,0.4-1.2c0.2-0.4,0.5-0.9,0.8-1.3
				c0.3-0.4-0.1,0.1,0.2-0.2c0.2-0.2,0.4-0.4,0.6-0.6c0.2-0.2,0.3-0.3,0.5-0.4c0.3-0.3-0.2,0.1,0.2-0.1c0.4-0.3,0.9-0.6,1.3-0.8
				c0.2-0.1,0.4-0.2,0.6-0.3c0.4-0.2-0.2,0.1,0.2-0.1c0.5-0.2,1-0.4,1.6-0.5c2.3-0.6,3.8-0.8,6.2-0.9c5.8-0.3,11.7-0.2,17.5,0.2
				c14.3,1,28.1,5.7,41.2,11.4c6.7,2.9,13.4,6.1,20,9.1c7.1,3.2,14.3,6.3,21.4,9.6c14.2,6.8,27.9,14.4,41.4,22.3c3.4,2,6.8,4,10.2,6
				c3.5,2.1,7,4.3,10.6,6.3c6.8,3.7,14.3,5.9,21.6,8.2c7.1,2.2,14,4.6,20.4,8.4c5.9,3.5,11.6,7.5,18.2,9.8c3.2,1.1,6.6,1.7,10,1.6
				C253.8,208.6,253.8,203.6,250.6,203.7L250.6,203.7z"/>
		</g>
	</g>
	<g>
		<g>
			<path class="st0" d="M264.9,155.8c12.6-6.6,16.7-22.2,28.5-29.6c1.5-0.9,3.1-1.8,4.8-2.2c2.3-0.6,4.8-0.2,7.1,0.2
				c5.2,0.9,10.4,1,15.7,0.7c4.8-0.2,9.6-0.6,14.3-1.8c4.3-1.1,8.4-2.8,12.4-4.6c2.3-1.1,4.6-2.3,7-3.1c2.5-0.8,5-1.4,7.6-1.7
				c5.4-0.6,10.9-0.2,16.2,0.9c1.3,0.3,2.7-0.4,3.1-1.7c0.3-1.2-0.4-2.8-1.7-3.1c-9.8-2-20.1-2-29.5,2c-4.2,1.8-8.2,4-12.6,5.5
				c-4.2,1.4-8.5,2.2-12.8,2.5c-5.4,0.3-10.8,0.7-16.2,0c-2.5-0.3-5-0.9-7.5-1c-2.6-0.1-5,0.5-7.4,1.6c-6.7,3.1-11.5,9-15.8,14.8
				c-4.5,6.1-8.8,12.9-15.6,16.4C259.5,153,262,157.3,264.9,155.8L264.9,155.8z"/>
		</g>
	</g>
	<g>
		<g>
			<path class="st0" d="M267.9,174.8c12.7-8.2,22.5-20.2,36.4-26.6c7.3-3.4,14.9-6.2,22.8-8.1c8-2,16-2.8,24.3-2.9
				c9.9-0.2,19.9-0.7,29.8,0.5c1.3,0.2,2.5-1.3,2.5-2.5c0-1.5-1.2-2.3-2.5-2.5c-8.9-1.1-17.8-0.8-26.7-0.6
				c-4.3,0.1-8.6,0.1-12.9,0.5c-4.2,0.4-8.5,1-12.6,1.9c-8.1,1.7-16,4.5-23.7,7.8c-3.7,1.6-7.3,3.3-10.7,5.4
				c-3.3,2.1-6.3,4.4-9.3,6.8c-6.6,5.4-12.7,11.3-19.9,15.9C262.7,172.2,265.2,176.6,267.9,174.8L267.9,174.8z"/>
		</g>
	</g>
	<g>
		<g>
			<path class="st0" d="M285.2,131.8c0.8,3,1.2,6.1,2.2,9.1c1.1,3.3,2.9,7,6.5,8.1c1.3,0.4,2.8-0.5,3.1-1.7c0.3-1.4-0.4-2.7-1.7-3.1
				c-0.6-0.2,0.1,0.1,0,0c-0.1-0.1-0.3-0.1-0.4-0.2c-0.1,0-0.3-0.2-0.3-0.2c0.1-0.1,0.4,0.4,0.1,0c-0.2-0.2-0.6-0.5-0.7-0.8
				c0.1,0.3,0.2,0.3,0,0c-0.1-0.1-0.2-0.3-0.3-0.4c-0.2-0.3-0.4-0.6-0.5-0.9c-0.1-0.2-0.2-0.4-0.3-0.5c-0.1-0.1-0.3-0.7,0-0.1
				c-0.3-0.7-0.6-1.5-0.8-2.3c-0.9-2.8-1.3-5.6-2-8.4c-0.3-1.3-1.8-2.2-3.1-1.7C285.7,129.2,284.9,130.5,285.2,131.8L285.2,131.8z"
				/>
		</g>
	</g>
	<g>
		<g>
			<path class="st0" d="M308.9,125.4c0.1,0.1,0.3,0.4,0.4,0.4c-0.3-0.1-0.4-0.5-0.1-0.1c0.1,0.1,0.1,0.2,0.2,0.3
				c0.1,0.3,0.3,0.5,0.4,0.8c0.2,0.4-0.2-0.6,0-0.1c0,0.1,0.1,0.3,0.2,0.4c0.5,1.4,0.9,2.9,1.1,4.4c0,0.2,0.1,0.4,0.1,0.6
				c0,0.1,0,0.2,0,0.3c0,0.2,0,0.1,0-0.2c0.1,0.2,0.1,0.9,0.1,1.2c0.1,0.7,0.1,1.4,0.1,2.1c0,0.3,0,0.6,0,0.9c0,0.1,0,0.2,0,0.3
				c0,0.3,0,0.2,0-0.3c0,0.1,0,0.2-0.1,0.3c0,0.2-0.2,0.5-0.2,0.7c-0.1-0.3,0.3-0.6,0.1-0.3c-0.3,0.4,0.4-0.5,0.2-0.2
				c-0.9,1-1,2.6,0,3.5c1,0.9,2.6,1,3.5,0c1.1-1.2,1.4-2.8,1.4-4.4c0.1-1.8-0.1-3.6-0.4-5.4c-0.3-1.6-0.6-3.3-1.2-4.8
				c-0.5-1.4-1.1-3-2.3-3.9c-1-0.8-2.6-1.1-3.5,0C308,122.8,307.8,124.6,308.9,125.4L308.9,125.4z"/>
		</g>
	</g>
	<g>
		<g>
			<path class="st0" d="M292.6,134.7c0-0.1,0.1-0.8,0-0.2c0-0.1,0-0.3,0.1-0.4c0.1-0.4,0.2-0.8,0.3-1.1c0-0.2,0.1-0.3,0.1-0.5
				c0,0,0.3-0.8,0.1-0.3c0.2-0.4,0.4-0.8,0.6-1.1c0.2-0.4,0.5-0.6,1-0.9c-0.4,0.2,0,0,0.1,0c0.2,0,0.4-0.1,0.6-0.1
				c-0.5,0.1,1,0,0.6,0c-0.4-0.1,0.2,0.1,0.2,0.1c0.1,0,0.1,0,0.2,0.1c-0.3-0.2-0.4-0.2-0.3-0.1c0.3,0.2-0.5-0.4-0.1-0.1
				c0.3,0.3-0.1-0.2-0.2-0.2c0.3,0.4-0.2-0.6-0.1-0.1c0,0.1,0.1,0.5,0-0.3c0,0.1-0.1,0.5,0,0.1c0.1-0.5-0.1,0.2-0.1,0.2
				c0-0.1,0.3-0.5,0.1-0.2c-0.1,0.1-0.1,0.2-0.2,0.4c-0.1,0.2-0.4,0.4,0,0c-0.1,0.1-0.2,0.2-0.3,0.3c-0.1,0.1-0.3,0.3-0.4,0.4
				c0.4-0.3,0.1-0.1,0,0c-0.2,0.1-0.4,0.2-0.6,0.3c-0.1,0-0.7,0.3-0.2,0.1c-0.6,0.3-1.3,0.5-2,0.7c-0.2,0.1-0.5,0.1-0.7,0.2
				c-0.5,0.1,0.6,0,0.1,0c-0.1,0-0.3,0-0.4,0c-0.1,0-0.2,0-0.3,0c-0.3,0,0.7,0.1,0.3,0c-0.5-0.1,0.6,0.3,0.2,0.1
				c0.4,0.3,0.4,0.2,0.6,0.6c-0.1-0.2,0.3,0.7,0.2,0.4c-0.1-0.2,0-0.5,0,0.4c0-0.6-0.1,0.5,0,0.2c0-0.1,0-0.1,0-0.2
				c0.1-0.4,0,0.3-0.1,0.3c0,0,0.2-0.4,0.2-0.4c0-0.1,0.1-0.1,0.1-0.2c0.2-0.4-0.1,0.2-0.2,0.2c0,0,0.7-0.7,0.7-0.8
				c0.2-0.3-0.2,0.2-0.2,0.2c0,0,0.2-0.2,0.3-0.2c0.2-0.1,0.3-0.2,0.5-0.3c0.5-0.3-0.2,0.2-0.2,0.1c0,0,0.3-0.1,0.3-0.1
				c0.1,0,0.2,0,0.3-0.1c0.6-0.2-0.1,0.2-0.2,0c0,0,0.5,0,0.5,0c0.6,0-0.6-0.2,0.1,0c0.6,0.2-0.6-0.3,0.1,0.1c0.1,0,0.2,0.1,0.3,0.2
				c-0.3-0.3-0.4-0.3-0.2-0.1c0,0,0.1,0.1,0.1,0.1c0.1,0.1,0.2,0.2,0.3,0.3c-0.2-0.2-0.2-0.3,0,0c0.2,0.3,0.4,0.6,0.5,0.9
				c0.3-1.1,0.6-2.3,0.9-3.4c0.1,0-0.7,0.2-0.7,0.2c0.1,0-0.3,0-0.4,0c-0.1,0-0.6,0-0.3,0c-0.4,0-0.8-0.2-1.1-0.3
				c0.1,0-0.7-0.4-0.7-0.4c0,1.2,0,2.4,0,3.5c0.1-0.1,0.2-0.3,0.3-0.4c-0.2,0.1-0.2,0.1,0.1-0.1c0.3-0.1,0.3-0.2,0.1-0.1
				c0.2-0.1,0.3-0.1,0.5-0.1c0.3-0.1,0.3-0.1,0.1,0c0.2,0,0.4,0,0.5,0c0.2,0,0.4,0,0.6,0c-0.2,0-0.1,0,0.2,0c1,0.2,2,0,2.6-0.9
				c0.5-0.7,0.8-2,0.2-2.8c-0.3-0.4-0.6-0.9-0.7-1.2c-0.2,0.8-0.4,1.6-0.6,2.4c0.5-0.4-0.3,0.1,0.3-0.2c0.2-0.1,0.4-0.3,0.7-0.4
				c0.1,0,0.2-0.1,0.2-0.1c-0.2,0.1-0.2,0.1,0,0c0.2-0.1,0.5-0.1,0.7-0.2c0.3-0.1-0.3,0,0.2,0c0.1,0,0.8,0.1,0.2,0
				c0.1,0,0.1,0,0.2,0c0.3,0.1,0.3,0.1,0,0c0.1,0,0.1,0.1,0.2,0.1c-0.1-0.1-0.2-0.1-0.3-0.3c0.5-1.2,1-2.4,1.5-3.7
				c-0.5,0.2-1,0.2-1.4,0.1c-0.7-0.2-1.1-0.4-1.7-0.9c0.2,1.3,0.3,2.6,0.5,3.9c0.3-0.3,0.3-0.4,0.6-0.6c0.3-0.1,0.3-0.2,0.1-0.1
				c0.3-0.1,0.3-0.1,0.1,0c0.3,0,0.3,0,0.1,0c0.2,0,0.3,0.1,0.5,0.1c-0.1-0.1,0.5,0.4,0.7,0.5c0.2-1.5,0.4-3,0.6-4.6
				c-1.9,0.5-4.1,0.5-5.9-0.3c0,1.4,0,2.9,0,4.3c0.9-0.6,1.2-0.7,2-1c0.2,0,0.3-0.1,0.5-0.1c0,0,0.7-0.1,0.4-0.1c-0.4,0,0.4,0,0.4,0
				c0.2,0,0.5,0,0.7,0c0.2,0,0.4,0,0.6,0c0.4,0-0.6-0.1,0.2,0c0.4,0.1,0.8,0.2,1.1,0.3c0.2,0,0.3,0.1,0.4,0.2
				c0.7,0.3-0.2-0.1,0.2,0.1c0.4,0.2,0.8,0.4,1.2,0.6c0.1,0.1,0.3,0.2,0.4,0.3c0.6,0.4-0.3-0.3,0.3,0.2c0.3,0.2,0.5,0.5,0.8,0.7
				c0.3,0.3,0.5,0.5,0.7,0.8c0.5,0.6-0.2-0.4,0.2,0.3c0.1,0.2,0.3,0.4,0.4,0.6c0.2,0.3,0.4,0.6,0.5,1c0.2,0.4-0.2-0.5,0.1,0.2
				c0.1,0.2,0.1,0.3,0.2,0.5c0.1,0.4,0.2,0.8,0.3,1.2c0.2,0.7,0-0.3,0,0.2c0,0.3,0,0.6,0,0.9c0,0.3,0,0.7,0,1c0,0.2-0.1,0.6,0,0
				c0,0.1,0,0.2-0.1,0.4c-0.1,0.3-0.2,0.6-0.2,0.8c0.1-0.5,0.2-0.4,0.1-0.2c-0.1,0.1-0.2,0.3-0.3,0.4c-0.2,0.5,0.4-0.3-0.1,0.1
				c-0.1,0.1-0.2,0.2-0.3,0.3c0,0,0.5-0.3,0.2-0.2c0,0-0.5,0.3-0.6,0.3c0,0,0.6-0.2,0.2-0.1c-0.1,0-0.3,0.1-0.4,0.1
				c-0.2,0.1-0.4,0.1-0.7,0.2c-0.1,0-0.2,0-0.4,0.1c-0.3,0.1,0.7-0.1,0.2,0c-0.5,0-1,0.1-1.5,0.1c-1,0-2,0-3,0.2
				c-1.4,0.1-2.7,0.4-3.9,1c-1.4,0.8-2.3,2-2.9,3.5c-0.5,1.3,0.6,2.6,1.7,3.1c2.8,1.1,5.7-0.6,6.2-3.5c0.4-2.3,0.1-5.1-1.3-7
				c-1-1.3-2.7-1.7-3.9-0.5c-0.5,0.5,0.2,0-0.2,0.2c-0.2,0.1-0.3,0.2-0.5,0.3c-0.7,0.4-1.1,1-1.6,1.7c1.5,0.6,3,1.3,4.6,1.9
				c0.1-0.5,0.2-1,0.2-1.5c0-0.2,0-0.4,0-0.6c0-0.3,0-0.4,0-0.2c0.4-2-1.2-3.4-3.1-3.1c-0.8,0.1-1.5,0.2-2.2,0.6
				c-0.9,0.5-1.4,1.3-2,2.1c-0.8,1.2-0.1,2.7,0.9,3.4c1.1,0.8,2.2,1.1,3.6,1.2c1.4,0.1,2.4-1.2,2.5-2.5c0.1-1-0.1-2-0.4-3
				c-0.6-2-2.7-2.2-4.2-1.1c-1.3,1-2.3,2.6-1.8,4.3c0.5,1.7,2.1,2.5,3.7,2.9c1.3,0.3,2.7-0.4,3.1-1.7c0.1-0.3,0.1-0.3,0-0.1
				c0.1-0.2,0.1-0.3,0.2-0.5c0.1-0.2,0.3-0.5,0.4-0.7c0.4-0.9,0.6-1.6,0.7-2.6c-1.3,0.7-2.5,1.4-3.8,2.2c0.6,0.4,1.2,0.7,1.8,1
				c0.3,0.2,0.7,0.3,1,0.5c0.1,0.1,0.5,0.3,0.2,0.1c0.2,0.1,0.3,0.3,0.5,0.5c1.1,1.3,3.2,0.8,3.9-0.5c0.7-1.2,1.4-2.3,1.6-3.6
				c0.2-1.3-0.3-2.7-1.7-3.1c-1.2-0.3-2.9,0.4-3.1,1.7c-0.1,0.8-0.2,1.5,0.1,2.3c0.5,1.2,1.4,2,2.7,1.8c1.2-0.2,2.2-1.2,2.2-2.5
				c-0.1-1.2,0-2.3-0.3-3.4c-1.6,0.4-3.2,0.9-4.8,1.3c0.2,0.8,0.5,1.5,0.6,2.3c0.5,2,3.6,2.6,4.6,0.6c1-2.2,1.4-4.5,1.4-6.9
				c-1.3,0.7-2.5,1.4-3.8,2.2c0.4,0.3,0.9,1.1,1,1.6c0.3,0.9,0.3,1.5,0.2,2.7c-0.1,1.1,0.8,2.1,1.8,2.4c1,0.3,2.4-0.1,2.8-1.1
				c1.8-4.2,3.2-9,1.7-13.6c-0.4-1.3-1.7-2.1-3.1-1.7c-1.3,0.3-2.2,1.8-1.7,3.1c1.1,3.2,0.2,6.7-1.2,9.7c1.6,0.4,3.1,0.8,4.7,1.3
				c0.3-3.4-0.9-6.6-3.7-8.6c-1.6-1.2-3.8,0.4-3.8,2.2c0,1.5-0.1,3.1-0.7,4.4c1.5,0.2,3,0.4,4.6,0.6c-0.2-0.8-0.5-1.5-0.6-2.3
				c-0.3-1.3-1.8-2.1-3.1-1.7c-1.4,0.4-2,1.7-1.7,3.1c0.1,0.6,0,1.4,0.1,2.1c1.6-0.2,3.3-0.4,4.9-0.7c0,0.1-0.1,0.2-0.1,0.4
				c-1.6-0.4-3.2-0.9-4.8-1.3c0,0.3-0.1,0.6-0.2,0.9c0.1-0.3-0.1,0.1-0.1,0.2c-0.2,0.4-0.5,0.9-0.8,1.3c1.3-0.2,2.6-0.3,3.9-0.5
				c-1.2-1.5-3.1-1.7-4.5-2.8c-0.7-0.5-1.8-0.4-2.5,0c-0.8,0.5-1.1,1.3-1.2,2.2c0.1-0.4-0.2,0.4,0,0.1c-0.1,0.2-0.2,0.5-0.4,0.7
				c-0.3,0.6-0.6,1.1-0.7,1.7c1-0.6,2.1-1.2,3.1-1.7c-0.2,0-0.4-0.1-0.6-0.2c-0.3-0.1-0.3-0.1-0.1,0c-0.1,0-0.1-0.1-0.2-0.1
				c0.3,0.2,0.5,0.5,0.6,0.9c-0.2-0.7,0.2,1.6-0.3,1.3c0,0,0.8-0.7,0.8-0.7c-1.4-0.4-2.8-0.7-4.2-1.1c0.1,0.2,0.1,0.3,0.2,0.5
				c0,0.1,0.2,0.6,0.1,0.2c-0.1-0.4,0,0.1,0,0.2c0,0.2,0,0.5,0,0.7c0.8-0.8,1.7-1.7,2.5-2.5c-0.1,0-0.2,0-0.3,0c-0.3,0-0.3,0-0.1,0
				c0.2,0,0.2,0,0.1,0c-0.2,0-0.1,0,0.2,0.1c-0.3-0.2-0.6-0.4-0.9-0.6c0.3,1.1,0.6,2.3,0.9,3.4c-0.1,0.2,0.2-0.2,0.2-0.3
				c0.2-0.2,0.2-0.2-0.1,0.1c-0.3,0.1-0.4,0.2-0.2,0.1c0.4,0,0.9-0.2,1.3-0.3c-1-1-2.1-2.1-3.1-3.1c-0.2,0.8-0.2,1.8-0.3,2.3
				c-0.8,2.8,3.1,4.3,4.6,1.9c-0.1,0.2,0.3-0.3,0-0.1c-0.3,0.2,0.2-0.1,0.2-0.1c0.5-0.3,0.9-0.6,1.2-1c-1.3-0.2-2.6-0.3-3.9-0.5
				c0.2,0.3,0.4,0.6,0.5,0.9c-0.2-0.3-0.1-0.3,0,0c0,0.2,0.1,0.3,0.1,0.5c0,0.2,0.1,0.3,0.1,0.5c0,0.1,0,0.2,0.1,0.4
				c0-0.3-0.1-0.4,0-0.2c0,0.4,0,0.8,0,1.1c0,0.3-0.2,0.5,0,0c0,0.1-0.1,0.3-0.1,0.5c-0.1,0.6,0,0,0,0c-0.3,0.5,0.4-0.3,0,0
				c-0.3,0.3,0.5-0.3,0.1-0.1c0.6-0.3,0-0.1,0.6-0.2c-0.4,0-0.3,0,0,0.1c-0.3-0.1-0.5-0.1-0.7-0.2c0.6,1,1.2,2.1,1.7,3.1
				c-0.3,0.8,0.2-0.1,0.2-0.2c0-0.2-0.4,0.4-0.1,0.1c0.1-0.1,0.2-0.2,0.3-0.3c0.3-0.3-0.2,0.2-0.2,0.2c0,0,0.3-0.2,0.3-0.2
				c0.1,0,0.2-0.1,0.3-0.1c0.1-0.1-0.6,0.2-0.1,0c0.3-0.1,1-0.4,1.3-0.3c-0.4-0.1-0.5,0.1-0.1,0c0.1,0,0.2,0,0.4,0
				c0.3,0,0.6,0,0.9-0.1c2.4-0.1,5,0,7.2-1.3c2.9-1.6,3.6-5.1,3.3-8.1c-0.4-4.1-2.7-7.6-6.1-9.9c-3.9-2.6-8.9-2.8-12.8-0.2
				c-1.4,0.9-1.9,3.5,0,4.3c3.1,1.3,6.4,1.7,9.7,0.8c1-0.3,1.7-1.1,1.8-2.1c0.1-1.1-0.4-1.8-1.2-2.5c-2.5-2-6-1.5-8.1,0.9
				c-1.2,1.3-0.8,2.9,0.5,3.9c2,1.5,4.6,2,7,1.3c1.4-0.4,2.5-2.3,1.5-3.7c-2.7-3.5-7.2-2.5-10.2,0.1c-0.6,0.5-0.9,1.7-0.6,2.4
				c0.3,0.8,0.6,1.6,1.2,2.4c0.9-1.2,1.9-2.4,2.8-3.7c-2.5-0.5-5.5-0.3-7.3,1.9c-0.8,1-1.2,2.6,0,3.5c2.8,2.2,5.9,2.7,9.2,1.3
				c1.3-0.6,1.4-2.3,0.9-3.4c-1.4-3-4.6-4.8-7.8-3.5c-2.3,0.9-4.8,3.1-4.7,5.8c0.1,2,1.7,3.2,3.5,3.4c1.7,0.2,3.4-0.4,5-1.1
				c2.2-0.9,4-2.4,4.8-4.6c0.7-2,0-4.4-2-5.4c-2.6-1.3-6.1-0.5-8,1.5c-2,2-2.8,4.8-3,7.6c-0.1,1.3,1.2,2.5,2.5,2.5
				C291.6,137.2,292.5,136,292.6,134.7L292.6,134.7z"/>
		</g>
	</g>
	<g>
		<g>
			<path class="st0" d="M301.5,126.7c-3.3,1-4.8,4.4-6,7.3c-0.5,1.3-1.1,2.5-1.8,3.7c-0.3,0.5,0.4-0.3,0.1-0.1
				c-0.1,0.1-0.2,0.2-0.2,0.3c-0.3,0.3,0,0,0.2-0.1c-0.1,0.1-0.5,0.2,0,0.1c0.2-0.1,0.3-0.1,0.1-0.1c-0.2,0.1-0.1,0,0.4,0
				c-0.2,0-0.5-0.1,0.3,0.1c-0.1,0-0.2,0-0.3-0.1c0.8,0.3,0.3,0.1,0.1,0c-1-0.7-2.5-0.3-3.2,0.6c-0.8,1.1-0.6,2.3,0.2,3.3
				c5.8,6.9,16.1,4.4,21.7-1.3c2.3-2.3-1.3-5.8-3.5-3.5c-0.3,0.3-0.6,0.5-0.8,0.8c-0.1,0.1-0.3,0.3-0.4,0.4
				c-0.2,0.2,0.2-0.1-0.1,0.1c-0.6,0.5-1.3,0.9-2,1.3c-0.4,0.2-0.7,0.4-1.1,0.5c0.4-0.2-0.3,0.1-0.3,0.1c-0.1,0.1-0.3,0.1-0.5,0.2
				c-0.8,0.3-1.6,0.5-2.4,0.6c-0.4,0.1,0.6,0-0.1,0c-0.2,0-0.4,0-0.6,0c-0.4,0-0.8,0-1.2,0c-0.2,0-0.4,0-0.6,0c0.4,0,0.1,0-0.1,0
				c-0.4-0.1-0.7-0.2-1.1-0.3c-0.2-0.1-0.4-0.1-0.5-0.2c0.3,0.1,0,0-0.1-0.1c-0.3-0.2-0.7-0.4-1-0.6c-0.1-0.1-0.4-0.3-0.2-0.1
				c-0.2-0.1-0.3-0.3-0.5-0.4c-0.3-0.3-0.7-0.7-1-1c-1,1.3-2,2.6-3,3.9c1.7,1.1,3.7,0.9,5.2-0.5c1.1-1,1.7-2.3,2.3-3.6
				c0.7-1.5,1.2-3,2-4.4c0.2-0.3,0.4-0.7,0.6-1c0.1-0.1,0.2-0.3,0.3-0.4c-0.4,0.6,0,0.1,0.1-0.1c0.1-0.1,0.2-0.2,0.3-0.3
				c0.4-0.5-0.3,0.1,0,0c0.1-0.1,0.2-0.1,0.3-0.2c0.3-0.2-0.6,0.2,0,0c1.3-0.4,2.1-1.7,1.7-3.1C304.2,127.2,302.8,126.4,301.5,126.7
				L301.5,126.7z"/>
		</g>
	</g>
	<g>
		<g>
			<path class="st0" d="M326.9,19.9c0.2,0.2,0.4,0.4,0.6,0.7c-0.3-0.3,0.1,0.2,0.2,0.3c0.1,0.2,0.3,0.5,0.4,0.7
				c0.2,0.4,0.1,0.2,0,0.1c0.1,0.2,0.1,0.4,0.2,0.6c0.5,1.4,0.6,2.5,0.7,3.8c0.2,3.1-0.1,6-0.8,8.9c-0.3,1.5-0.7,3-1.2,4.4
				c-0.5,1.4-0.7,2-1.3,3.2c-1.6,3-4,5.6-6.2,8.1c-5.2,5.7-11.1,11-15.3,17.6c-3.6,5.6-5.7,12.4-7.5,18.8
				c-1.8,6.6-3.5,13.8-2.6,20.6c0.4,2.9,1.2,5.7,3.2,7.9c1.8,2,4.4,3.2,6.9,4.1c5.7,1.9,12,1.9,17.9,1.6c7-0.4,13.8-1.7,20.5-3.7
				c3.8-1.2,7.7-2.7,11.6-3.4c0.2,0,0.5-0.1,0.7-0.1c0.1,0,0.2,0,0.3,0c0.4-0.1-0.4,0.1-0.1,0c0.6-0.1,1.2-0.1,1.8-0.2
				c1.3-0.1,2.6-0.3,3.9-0.4c2.9-0.3,5.7-0.6,8.5-1.2c2.2-0.5,4.7-1.2,6.3-2.9c0.8-0.9,1.3-2,1.4-3.3c0.2-3.2-4.8-3.2-5,0
				c0,0.4,0.1-0.6,0-0.1c0,0.1,0.2-0.5,0,0c-0.1,0.3,0.1-0.1,0.1-0.2c0,0-0.2,0.2-0.2,0.2c0,0-0.1,0.1-0.2,0.2
				c-0.2,0.2,0.4-0.3,0-0.1c-0.4,0.2-0.7,0.4-1.1,0.6c0.5-0.2-0.1,0-0.3,0.1c-0.3,0.1-0.6,0.2-1,0.3c-2.5,0.7-4.9,1-7.2,1.3
				c-2.5,0.3-4.9,0.5-7.4,0.8c-3.4,0.4-6.5,1.5-9.8,2.5c-4.4,1.4-8.9,2.8-13.4,3.6c-0.9,0.2-1.7,0.3-2.6,0.4c-0.1,0-0.2,0-0.3,0
				c-0.4,0.1,0.4-0.1,0,0c-0.3,0-0.6,0.1-0.9,0.1c-1.2,0.1-2.5,0.3-3.7,0.4c-5.6,0.5-11.5,0.6-16.7-0.7c-0.6-0.1-1.2-0.3-1.8-0.5
				c-0.3-0.1-0.6-0.2-0.9-0.3c-0.1,0-0.2-0.1-0.4-0.1c-0.8-0.3,0.2,0.1-0.2-0.1c-0.6-0.2-1.1-0.5-1.6-0.8c-0.2-0.1-0.5-0.3-0.7-0.4
				c-0.4-0.3,0,0.1-0.4-0.3c-0.4-0.4-0.8-0.7-1.1-1.1c-0.2-0.3,0.2,0.3,0,0c-0.1-0.1-0.1-0.2-0.2-0.3c-0.2-0.3-0.3-0.6-0.5-0.9
				c-0.1-0.3,0,0,0,0.1c-0.1-0.2-0.1-0.3-0.2-0.5c-0.1-0.3-0.2-0.6-0.3-0.9c-0.2-0.7-0.3-1.3-0.4-2c-0.3-2.5-0.1-6,0.3-8.9
				c0.5-3.4,1.3-6.8,2.3-10.2c1.7-6,3.6-12.3,7-17.6c4-6.3,9.7-11.2,14.6-16.7c2.4-2.6,4.8-5.4,6.6-8.5c1.4-2.4,2.3-5.1,2.9-7.7
				c1.5-5.8,2.3-12.7-0.1-18.4c-0.5-1.2-1.2-2.3-2.2-3.2C328.1,14.1,324.6,17.7,326.9,19.9L326.9,19.9z"/>
		</g>
	</g>
	<g>
		<g>
			<path class="st0" d="M194.9,41.8c3.1,2.2,6,4.6,8.1,7.7c1.2,1.8,2.1,3.9,3.4,5.7c1.3,1.9,2.9,3.5,4.7,5c3.7,2.9,8,5.1,12.5,6.5
				c4.6,1.5,9.3,2.3,14,3.3c5.2,1.1,10.3,2.5,14.8,5.4c2.7,1.7,5.2-2.6,2.5-4.3c-8.3-5.3-18.2-5.9-27.5-8.4c-4.4-1.2-8.6-3-12.3-5.6
				c-1.6-1.1-3-2.5-4.2-4c-1.4-1.8-2.3-3.9-3.5-5.8c-2.6-4-6.1-6.9-10-9.7c-1.1-0.8-2.8-0.2-3.4,0.9C193.2,39.6,193.8,41,194.9,41.8
				L194.9,41.8z"/>
		</g>
	</g>
	<g>
		<g>
			<path class="st0" d="M193.9,12.4c0.4,0.5-0.2-0.3,0.1,0.2c0.1,0.2,0.2,0.3,0.3,0.5c0.2,0.3,0.4,0.7,0.6,1
				c0.3,0.6,0.5,1.2,0.9,1.8c0.9,1.6,2.2,2.8,3.9,3.4c1.9,0.7,3.8,0.5,5.7,0.1c0.9-0.2,1.7-0.5,2.6-0.7c0.5-0.1,0.9-0.2,1.4-0.3
				c0.1,0,0.7-0.1,0.4-0.1c-0.4,0,0.4,0,0.4,0c1.3,0,2.6-1.1,2.5-2.5c-0.1-1.3-1.1-2.5-2.5-2.5c-1.8,0.1-3.5,0.6-5.2,1.1
				c-0.4,0.1-0.9,0.2-1.3,0.3c-0.2,0-0.3,0.1-0.5,0.1c-0.1,0-0.2,0-0.3,0.1c0.3,0,0.3,0,0.2,0c-0.2,0-0.9,0.2-1,0
				c0.3,0.1,0.4,0.1,0.2,0c-0.1,0-0.2,0-0.3-0.1c-0.2-0.1-0.4-0.1-0.6-0.2c-0.5-0.1,0.4,0.2-0.1,0c-0.1-0.1-0.2-0.1-0.4-0.2
				c-0.5-0.3,0.1,0.1,0,0c-0.1-0.1-0.2-0.2-0.3-0.3c-0.4-0.4,0-0.1,0,0c0,0-0.2-0.3-0.2-0.4c-0.2-0.3-0.3-0.5-0.4-0.8
				c-0.7-1.4-1.4-2.7-2.4-3.9c-0.8-1-2.7-0.9-3.5,0C192.9,10,193,11.3,193.9,12.4L193.9,12.4z"/>
		</g>
	</g>
	<g>
		<g>
			<path class="st0" d="M281.3,17.4c0.3-0.5,0.4-1.1,0.6-1.6c-0.1,0.2-0.2,0.4-0.3,0.6c0-0.1,0.1-0.2,0.2-0.3
				c-0.1,0.2-0.3,0.3-0.4,0.5c0-0.1,0.1-0.1,0.2-0.2c-0.2,0.1-0.3,0.3-0.5,0.4c0.1,0,0.1-0.1,0.2-0.1c-0.2,0.1-0.4,0.2-0.6,0.3
				c0.1,0,0.2-0.1,0.3-0.1c-0.2,0-0.4,0.1-0.7,0.1c0.2,0,0.4,0,0.7,0c-0.2,0-0.4-0.1-0.7-0.1c0.2,0,0.3,0.1,0.5,0.1
				c-0.4-1.4-0.7-2.8-1.1-4.2c-0.2,0.2-0.5,0.5-0.7,0.7c0.2-0.1,0.3-0.3,0.5-0.4c0,0-0.1,0.1-0.1,0.1c0.2-0.1,0.4-0.2,0.6-0.3
				c0,0-0.1,0-0.1,0c0.2,0,0.4-0.1,0.7-0.1c0,0-0.1,0-0.1,0c0.2,0,0.4,0.1,0.7,0.1c-0.2,0-0.3-0.1-0.5-0.1c-0.5-0.1-1-0.2-1.6-0.2
				c0.8,1.1,1.6,2.1,2.4,3.2c0.1-0.3,0.2-0.6,0.3-0.9c-0.1,0.2-0.2,0.4-0.3,0.6c0.1-0.2,0.2-0.4,0.3-0.6c-0.1,0.2-0.3,0.3-0.4,0.5
				c0.1-0.1,0.1-0.2,0.2-0.2c-0.2,0.1-0.3,0.3-0.5,0.4c0.1-0.1,0.2-0.1,0.2-0.1c-0.2,0.1-0.4,0.2-0.6,0.3c0.2-0.1,0.3-0.1,0.5-0.1
				c-0.2,0-0.4,0.1-0.7,0.1c0.4-0.1,0.9-0.1,1.3-0.1c-0.7-0.4-1.4-0.8-2.2-1.2c0,0.1,0.1,0.1,0.1,0.2c-0.1-0.2-0.2-0.4-0.3-0.6
				c0.3,0.6,0.4,1.2,0.5,1.9c0-0.2-0.1-0.4-0.1-0.7c0,0.1,0,0.3,0,0.4c0.6-0.8,1.2-1.6,1.8-2.4c-0.5,0.2-1,0.2-1.5,0.3
				c0.2,0,0.4-0.1,0.7-0.1c-0.5,0.1-1,0.1-1.5,0.1c-0.3,0-0.7,0.1-1,0.2c-0.3,0.1-0.6,0.3-0.8,0.5c-0.2,0.2-0.4,0.5-0.5,0.8
				c-0.2,0.3-0.2,0.6-0.2,1c0,0.6,0.2,1.3,0.7,1.8c0.2,0.1,0.3,0.3,0.5,0.4c0.4,0.2,0.8,0.3,1.3,0.3c0.4,0,0.8-0.1,1.1-0.1
				c0.8-0.1,1.7-0.2,2.5-0.4c0.2-0.1,0.4-0.2,0.6-0.3c0.3-0.2,0.5-0.4,0.7-0.6c0.2-0.2,0.3-0.3,0.3-0.6c0.2-0.3,0.2-0.6,0.2-1
				c0-1.3-0.4-2.6-1-3.8c-0.2-0.4-0.5-0.7-0.9-0.9c-0.4-0.2-0.8-0.3-1.3-0.3c-1.1,0-2.3,0-3.2,0.6c-0.6,0.4-1,0.9-1.3,1.5
				c-0.3,0.6-0.5,1.1-0.7,1.7c-0.1,0.4-0.1,0.9,0,1.3c0.1,0.3,0.2,0.6,0.4,0.9c0.2,0.3,0.4,0.5,0.7,0.6c0.4,0.2,0.8,0.3,1.3,0.3
				c0.1,0,0.2,0,0.3,0c-0.2,0-0.4-0.1-0.7-0.1c0.6,0.1,1.2,0.3,1.8,0.3c0.2,0,0.5,0,0.7-0.1c0.2-0.1,0.5-0.2,0.7-0.3
				c0.2-0.1,0.5-0.3,0.7-0.5c0.2-0.2,0.5-0.5,0.7-0.7c0.6-0.6,0.9-1.6,0.6-2.4c-0.2-0.8-0.9-1.6-1.7-1.7c-0.4-0.1-0.9-0.2-1.3-0.2
				c-0.2,0-0.3,0-0.5,0c-0.7,0.1-1,0.1-1.6,0.4c-0.3,0.1-0.5,0.3-0.8,0.6c-0.2,0.2-0.3,0.4-0.5,0.6c0,0-0.1,0.1-0.1,0.1
				c-0.2,0.3-0.3,0.6-0.4,0.9c-0.1,0.2-0.2,0.5-0.2,0.7c0.1-0.2,0.2-0.4,0.3-0.6c0,0.1-0.1,0.2-0.1,0.2c-0.3,0.6-0.4,1.3-0.3,1.9
				c0.2,0.6,0.6,1.2,1.1,1.5c0.6,0.3,1.3,0.5,1.9,0.3C280.4,18.4,281,18,281.3,17.4L281.3,17.4z"/>
		</g>
	</g>
	<g>
		<g>
			<path class="st0" d="M279.9,9.1c-1.3,0.5-2.5,1-3.4,2c-0.9,1-1.9,2.4-2.3,3.8c-0.5,1.9,0.3,3.7,1.9,4.8c1,0.7,2.2,0.9,3.4,1
				c1.1,0.1,2.2,0,3.3-0.2c0.3-0.1,0.6-0.1,0.9-0.2c0.3-0.1,0.7-0.3,1-0.4c-0.7,0.3-0.3,0.1-0.1,0.1c0.2-0.1,0.3-0.1,0.5-0.2
				c1.7-0.7,3.1-1.6,3.7-3.4c0.5-1.5,0.2-3.4-0.7-4.8c-0.9-1.4-2.3-2.3-3.9-2.6c-0.7-0.1-1.4-0.2-2.1-0.2c-1.1,0-2,0.3-2.9,1
				c-1,0.8-0.9,2.7,0,3.5c1.1,1,2.5,0.9,3.5,0c-0.1,0.1-0.2,0.2-0.4,0.3c-0.4,0.2-0.6,0.2-0.4,0.2c0.3-0.1,0.3,0-0.3,0
				c0.2,0,0.4,0,0.5,0c0.2,0,0.4,0,0.5,0c-0.9-0.1-0.2,0,0,0c0.2,0,0.4,0.1,0.6,0.1c0.1,0,0.2,0,0.2,0.1c0.3,0.1,0.3,0.3-0.1-0.1
				c0.1,0.1,0.3,0.2,0.4,0.2c0.4,0.2-0.4-0.4-0.2-0.1c0.1,0.1,0.2,0.2,0.3,0.3c0.2,0.2-0.4-0.6-0.1-0.2c0,0.1,0.1,0.2,0.1,0.2
				c0,0.1,0.2,0.5,0.1,0.1c-0.2-0.4,0,0,0,0.1c0,0.1,0,0.2,0.1,0.3c0.1,0.5,0-0.5,0-0.2c0,0.1,0,0.3,0,0.4c0-0.1,0-0.3,0.1-0.4
				c0,0.1,0,0.2-0.1,0.3c0-0.1,0.3-0.5,0.1-0.2c-0.2,0.3,0.2-0.2,0.2-0.2c0,0-0.2,0.3-0.3,0.3c0,0,0.5-0.4,0.2-0.2
				c-0.2,0.1-0.3,0.2-0.5,0.3c-0.1,0-0.2,0.1-0.3,0.1c0.6-0.3,0.3-0.1,0.1-0.1c-0.2,0.1-0.4,0.1-0.5,0.2c-0.3,0.1-0.5,0.2-0.8,0.3
				c-0.2,0.1-0.4,0.1,0.4-0.1c-0.3,0.1-0.5,0.2-0.8,0.2c-0.2,0-0.3,0.1-0.5,0.1c-0.4,0.1,0.7-0.1,0.1,0c-0.4,0-0.7,0.1-1.1,0.1
				c-0.2,0-0.4,0-0.6,0c-0.1,0-0.1,0-0.2,0c-0.4,0,0.6,0.1,0.3,0c-0.3-0.1-0.7-0.2-1-0.2c-0.3-0.1,0.6,0.3,0.3,0.1
				c-0.1,0-0.1-0.1-0.2-0.1c-0.1,0-0.1-0.1-0.2-0.1c-0.3-0.2,0.4,0.4,0.3,0.2c0,0-0.1-0.1-0.2-0.1c-0.2-0.2,0.3,0.3,0.2,0.3
				c0.1,0-0.4-0.4-0.1-0.1c0.1,0.2,0.1,0.2,0,0c0,0.4,0.1,0.5,0.1,0.3c0,0,0,0,0-0.1c0-0.3,0-0.2,0,0.2c0-0.1,0-0.1,0.1-0.2
				c0.1-0.2,0-0.1-0.1,0.3c0.1-0.2,0.2-0.4,0.4-0.6c0.2-0.2,0.3-0.5,0.5-0.7c0.1-0.1,0.1-0.1,0.2-0.2c0.3-0.4-0.4,0.4,0,0.1
				c0.1-0.2,0.3-0.3,0.5-0.5c0.2-0.2-0.6,0.4-0.2,0.2c0.1-0.1,0.2-0.1,0.3-0.2c0.2-0.1,0.8-0.3,0,0c0.2-0.1,0.5-0.2,0.7-0.3
				c0.6-0.2,1.1-0.5,1.5-1.1c0.3-0.5,0.4-1.3,0.3-1.9C282.6,9.7,281.2,8.6,279.9,9.1L279.9,9.1z"/>
		</g>
	</g>
</g>
</svg>
