<svg xmlns="http://www.w3.org/2000/svg" viewBox="0 0 571.63 561.63"><defs><style>.cls-1{fill:#fff;}.cls-2{fill:#8feaed;}.cls-3{fill:#272727;}</style></defs><title>logo-pup</title><g id="Layer_2" data-name="Layer 2"><g id="Capa_1" data-name="Capa 1"><path class="cls-1" d="M571.61,285.13c0-3.69-1.2-6.51-4.85-7.93a18,18,0,0,1-2.21-1.17c-3.92-2.26-6.08-5.4-6-10.18.18-9-.84-18.91-1.36-28.25,0,0-14.17-179.61-185-227.57C192.46-40.41,80.78,115.78,80.78,115.78c-.34.45-.82.93-1.54,1.72-1-.47-4.18-1.59-6-1.47-4,.25-6.76,1.77-8.69,5.12-.74,1.26-1.51,2.5-2.22,3.78-3.06,5.47-6.18,10.92-9.13,16.45a91.38,91.38,0,0,0-3.93,8.53c-1.17,2.85-1.28,5.86.58,8.4s3.95,4.22,3.44,7.14c-.43,2.46-2.76,6.14-3.78,8.49-3.9,9-8.29,17.8-12.66,26.59-2.14,4.31-5.3,7.56-10.69,7.37a10.13,10.13,0,0,0-1.85.33c-2.61.44-5.37,1.16-6.71,3.47-1.65,2.87-4.72,7.14-6.54,11.45-3.75,8.91-5.94,20-8.93,29.54A54,54,0,0,0,.3,260.62c-1.16,7.5,1,13.64,7.8,17.66.54.32,1.06.68,1.6,1,5.11,2.84,12.26,5.45,13.35,11,.67,3.48-.28,8.32-.76,12.48-.67,5.82-.89,11.32.38,17s2.83,9.58,8.57,11.72c6.93,2.59,9.54,9,10.12,16.13,0,.2.06.41.08.62.86,6.7,5.94,13.86,12.6,14.93,8.56,1.37,8.48,2.29,13.4,6.08,5.45,4.2,13.45,9.39,19,12.85,1.4,10.62,6.54,21.92,7.51,32.16,1.14,12,16.29,46.18,18.61,59.87,4.13,24.31-1.87,35.91,20.22,50.8,10.16,6.84,22.3,10.29,33.45,15.1,6,2.6,11.55,6.16,17.48,9a114.62,114.62,0,0,0,23.72,8c14.51,3.35,29.42,3.88,44.25,4.3,13.91.39,27.84.42,41.74-.55,12.94-.91,26-2.79,38.32-6.83,12.68-4.15,23.55-11.68,33.07-20.91,10-9.72,17.77-21.49,24.4-33.7,3.21-5.93,6.12-12,9-18.14.21-.46.43-.91.64-1.36a48.07,48.07,0,0,1,6.48.9c7.57,1.58,15.2,2.91,22.7,4.74a15.3,15.3,0,0,0,10.29-1.17,58.83,58.83,0,0,0,15.19-9.86A18.9,18.9,0,0,1,468,469.68c2.91.2,5.85-.29,8.77-.14,5.74.28,9.45-2.66,12.21-7.27,2.15-3.59,4.24-7.2,6.4-10.79.86-1.43,1.77-2.84,2.75-4.19a6.56,6.56,0,0,1,7.07-2.88c2.67.52,5.37.88,8.06,1.23a12.13,12.13,0,0,0,3.7.11c6.06-1.14,10.75-4,13.56-9.9,7.37-15.48,14-31.26,20.29-47.21,1.83-4.64,1.43-8.64-2.24-12-2.49-2.26-3-4.89-2.51-7.94.19-1.24.35-2.49.61-3.71q3.71-17.47,7.44-34.94c1-4.61,2.37-6.09,7.05-6.5a6.79,6.79,0,0,0,6.44-5,80.42,80.42,0,0,0,2.25-9.09c.39-1.83.35-3.75.72-5.59C571.76,297.68,571.66,291.41,571.61,285.13ZM129.13,145.28c-1.09,5.56-2.07,11.16-2.93,16.76-.31,2-.37,4.14-.87,6.09-.59,2.31-2.42,2.28-4.34,3.2a46.51,46.51,0,0,0-5.6,3.56,18.26,18.26,0,0,1-6.36,3,31,31,0,0,0-7.08,2c-2.4,1.08-4.51,2.88-6.69,4.36-1,.65-1.75,1.6-2.91,1.74-4.42.52-.67-5.54.14-7.13,1.33-2.61,2.74-5.21,4.26-7.71,3.9-6.38,8.32-14.27,14-21.37,1.34-1.68,3-4,4.51-5.65,2.65-2.84,3.87-5.2,5.8-6.75,1-.79,2.16-1.92,3.64-3.35a80.53,80.53,0,0,1,8.07-7.08C132.54,131.67,130.07,140.49,129.13,145.28Zm51,35.31h0l0,0ZM506.85,335.22a17.94,17.94,0,0,0-1.54-7.94,16.19,16.19,0,0,1-2.05-3.93,16.79,16.79,0,0,1-.19-2.92,11.16,11.16,0,0,0-2.86-6.75c1.07-3.53,15.53-16.13,15.61-14.09C516.18,308.77,506.85,335.22,506.85,335.22ZM516.64,246c-2.25,1.22-4.74,1.52-7.15,2.08-30,6.95-59.52,15.28-88.21,26.43-10.11,3.93-20,8.53-29.88,13a23.52,23.52,0,0,1-8.37,2.3c-10.32.64-20.49-.08-30.34-3.43-18.19-6.2-36.4-12.39-54.53-18.78-20.49-7.23-40.9-14.7-61.36-22-10.31-3.69-16.09-11.29-19.29-21.44-4.62-14.63-10.43-27.92-16.49-41A630.59,630.59,0,0,0,171,126c-4.15-7-8.72-13.78-13-20.68-1.3-2.09-3.08-4-3.3-6.82a49.49,49.49,0,0,1,8.21-5.93c24.3-14,51.85-20.17,79.68-23.38,66.6-7.68,127.53,7.26,181.77,47.19,28.68,21.12,51.36,47.75,69.58,78.24a255.3,255.3,0,0,1,21,43.41C515.72,240.51,517.13,243,516.64,246Z"/><path class="cls-2" d="M101.33,205.29c1.26,9.86-1.66,19.41,0,29a1.21,1.21,0,0,0,.78.7c2-1.67.55-7.12.87-9.71,1-8.3,1.17-15,2.14-23.33.17-1.45,1.48-3.91,1.71-5.35.8-4.9,1.85-6.09,7.71-6.64,1.69,1.54,4.3,4.62,4.71,6.64,1.55,7.65,1.76,14.6,1.5,24.4-.49,18.83-3,39.85-6,58.44a322.16,322.16,0,0,1-9.42,42.38c-4,13.43-10.13,26.06-11.19,40.12a3.35,3.35,0,0,1-.49,1.08c-3.9-1.14-4.31-1.56-4-4.83.77-7.49,1.69-15,2.39-22.45a66.83,66.83,0,0,0,0-8.13c0-.52,0-2.25-.45-2.48-2.2.52-3.77,12.44-5.49,18.49-1.08-1.82-.43-3.54-.41-5.16s.31-3.33.44-5c.14-1.87.3-3.75.32-5.63,0-1.61-.15-3.22-.22-4.7-.95-1.81-1.93.19-2.1,1-.87,4.51-1.74,9-2.48,13.55-.6,3.71-1,7.46-1.54,11.18-.07.5.19,2.08-1.36,2.22-.69-6.09,1.08-11,1.67-16s1.73-9.9,2.2-14.88c.48-5.15,2-10.25,1.31-15.44-1.67-.31-1.45.11-2.41,1.65-1.63,6.91-3.28,13.82-4.86,20.74-1,4.6-2,9.22-3.2,14.95-1.14-5.25.27-9.09.88-13a53.27,53.27,0,0,0,1-11.06c-1.74-.7-2.08.5-2.27,1.39-1.38,6.33-2.73,12.66-3.94,19-.47,2.46-.7,4.94-2.12,7.42-1-.26-2.17-.25-2.91-.8-3.68-2.71-6.09-6.13-6.32-11-.53-11.5-3.93-25.05-3-36.52A302.91,302.91,0,0,1,67.65,233c2.85-9.2,6.87-17.47,11.13-26.11,1.6-3.25,7.31-5.12,11.56-4.5,1,2.18-.15,6.15-.43,8.35-.75,6-1.41,11.32-2.17,17.34-.13,1-1.49,2.63-1.36,3.65,0,.3.49.69.81.77s1-.07,1.08-.3a19,19,0,0,0,1.23-3.49c1.29-6.11,2.52-12.23,4-19.55a16.06,16.06,0,0,1,.42,6.8c-.13,2.3-.42,4.59-.58,6.88-.15,2.08-.22,4.18-.3,6.26-.09,2.3-.18,4.6-.19,6.9,0,2.07.11,4.14.19,7,.85,1.76,2-1.2,2.17-1.73a43.77,43.77,0,0,0,1.47-6.08C98.27,225.3,98.23,214.36,101.33,205.29Z"/><path class="cls-2" d="M496.13,349.41c-1.23,1.37-2.4,2.5-3.36,3.78-3.4,4.5-6.72,9.07-10.12,13.57-.42.57-1,1.28-2,.55L493.57,344l-2.45,2.23L474.6,370c-1,1.37-2,2.74-3,4.09a1.62,1.62,0,0,1-2.78.17c.14-2.26,1.47-4.19,2.61-6.13,5.26-9,10.61-18,15.89-27,.79-1.35,2.17-2.53,1.65-4.79-2.22,1.69-3.07,4.06-4.47,6s-2.84,4.13-4.26,6.19l-4.62,6.72c-1.43,2.06-2.79,4.17-4.31,6.16s-2.49,4.06-5.44,5.6a35.06,35.06,0,0,1,3.75-8.67c4.29-7.89,8.68-15.73,13-23.61.54-1,1.72-1.9.6-3.58a20.31,20.31,0,0,0-11.79,6.21c-3.88,4.08-7.58,8.35-11.15,12.71-6.75,8.27-12.33,17.37-18.27,26.22a380.64,380.64,0,0,0-33.57,62.24,124,124,0,0,0-4.69,13.6c-1.6,5.39-1,6.43,4.09,8.65a10.8,10.8,0,0,0,2.21.4c1-1.73,2-3.49,3-5.3,4.44-8.28,8.83-16.59,13.3-24.87.95-1.75,1.55-3.84,4-5,.31,2.5-.84,4.31-1.62,6.15-3.55,8.25-7.2,16.46-10.75,24.71a30.33,30.33,0,0,0-1.11,3.92,9.59,9.59,0,0,0,3.39-3.77q9.6-18,19.14-35.95c1.28-2.4,2.59-4.78,4-7.11.34-.59.89-1.46,2.32-.37-.93,3.43-2.73,6.7-4.22,10.07s-3,6.44-4.5,9.66c-1.58,3.42-3.19,6.82-4.69,10.26s-4.25,8.21-3.84,10.34a56.56,56.56,0,0,0,4.61-7.36c1.31-2.38,2.44-4.87,3.9-7.15a34.24,34.24,0,0,1,6.21-7.44c-2.09,8.72-6.79,15.21-9.15,23,.94,1.24,2.18.34,2.88.11,6.6-2.19,12.87-5.21,17.74-10.2a74.32,74.32,0,0,0,8.64-11.48c2.27-3.48,4-7.31,6-11q15.18-28.17,27.48-57.68a37.56,37.56,0,0,0,2.22-7.16A8,8,0,0,0,496.13,349.41Z"/><path class="cls-3" d="M261.77,401.84A35.22,35.22,0,0,0,248,394.77c-7.44-2.13-19.87-.34-29.54,6-.17.33.4.29.54.24,1.79-.51,3.59-1,5.36-1.62,16.66-5.72,35,0,44.87,14.39,1.06,1.54,2.18,3.05,3.35,4.51.46.57,1.06,1.4,2.12,0C271,412.41,267.2,406.52,261.77,401.84Z"/><path class="cls-3" d="M241.17,504.48a7,7,0,0,0-.92-1.61,2.35,2.35,0,0,0-.93-.79,1.67,1.67,0,0,0-1.16-.08c-.31.14-.72.6-.7.87a17,17,0,0,0,.67,4.24c3.77,10.14,10.05,18.58,17.94,25.88.43.39,1.26,1.34,2.24,1.15.6-.48-.2-1.72-.41-2C251.52,523.41,245.05,514.73,241.17,504.48Z"/><path class="cls-3" d="M263.11,399.94c.45.39,2.15,1,1.7-.51-2-3.52-5-5.37-8.13-7a28.33,28.33,0,0,0-13.35-3c-3.22,0-6.56,0-9.84,2.16.12.69,1.24.5,1.57.47C245.4,391.19,255,392.71,263.11,399.94Z"/><path class="cls-3" d="M234.43,492.63c-.32.2-.84.34-1,.63a3.24,3.24,0,0,0,.91,3.94,2.18,2.18,0,0,0,2.14-.32C237.59,495.41,236.15,492.7,234.43,492.63Z"/><path class="cls-3" d="M562.52,283.36c-1-.3-2-.4-3.08-.63-4.76-1-7.36-3.7-7.12-9.39a154.29,154.29,0,0,0-1.54-26.9c-.7-5.18-1.61-10.34-2.11-15.54,0,0-22.34-168.61-184.56-212.64s-279.2,103-279.2,103c-3.65,4.8-4,4.84-9.32,2.46-.38-.17-.72-.44-1.1-.59-3-1.21-5.11-.63-7.07,2.09a23.94,23.94,0,0,0-1.91,3.24q-4.28,8.37-8.49,16.79a23.49,23.49,0,0,0-1.27,2.86c-1.13,3.24-.9,6.13,2,8.44,1.45,1.14,2.7,2.52,4.15,3.89-3,8.43-7.47,15.81-10.66,23.84A110.16,110.16,0,0,1,46.18,195c-3.66,6.91-6.27,14.36-10.42,21.1-2.85,0-5.35,0-7.85,0-3.34.09-6.2,1.34-8,4.24a76.27,76.27,0,0,0-5.64,10.44c-4.38,10.73-6.58,22-7.6,33.51-.43,4.84,1.22,8.15,5.34,10.27s8.28,4,12.46,5.88c1.67.77,3.41,1.4,5.19,2.12,0,1.69,0,3.11,0,4.54-.15,4.66-.41,9.32-.52,14a46.62,46.62,0,0,0,1.16,11.78c1.67,7,4.84,12.68,11.28,15.42a23.71,23.71,0,0,1,3.77,2.19,8.45,8.45,0,0,1,4.18,8.47,44.16,44.16,0,0,0-.18,6.9c.28,5.62,4.49,10.69,9.9,11.25a18.26,18.26,0,0,1,11.46,5.73c4.42,4.37,9.14,8.43,14.81,11.18a9.89,9.89,0,0,1,2.24,1.48,35,35,0,0,0,3.5,2.65v0a8.56,8.56,0,0,0,.09,2.24,20,20,0,0,0,.58,3.1c1.48,6.67,4.76,16.52,4.76,16.52l.35.84c.94,2.92,1.45,10.2,2,12.13,1.6,5.19,2.89,10.47,4.35,15.7,3.44,12.29,7.1,24.54,12.87,36A41,41,0,0,1,120.79,482c.19,5.22.62,10.44,1.1,15.64,1,11,6.44,18.79,17.12,22.5.2.07.4.12.6.21,6.54,2.74,13.14,5.39,19.62,8.29a45.46,45.46,0,0,1,8.13,4.65,86,86,0,0,0,38.49,15.82c10.53,1.57,21.15,2.56,31.74,3.72,3.74.41,7.5.73,11.26.85q23.5.75,47,1.32a32.32,32.32,0,0,0,7.5-.2c9.61-2,19.2-4.2,28.31-8,17.69-7.45,32.05-18.7,41.36-35.83,1.8-3.3,3.86-6.46,5.77-9.71,1.35-2.3,7-12.92,8.84-14.62,0-.13,0-.23,0-.35,2.69-3.8,5.09-7.8,7.7-11.66l1.67-2.31a15.92,15.92,0,0,1,6.73.49c6.05,1.61,12.17,3,18.23,4.56a25.37,25.37,0,0,0,23.84-6c2.57-2.41,5.08-4.88,7.56-7.39a9.76,9.76,0,0,1,7.91-3,80.23,80.23,0,0,0,8.77.12c8.56-.46,15.18-4.13,19.35-11.87,1.58-2.94,3.41-5.75,5.17-8.6,2.37-3.86,5.75-5.27,10.16-4a71,71,0,0,1,7.83,2.24c3.5,1.42,6.11.39,8.3-2.31,3-3.74,5.92-7.56,7.55-12.2,1-2.75,2.31-5.37,3.45-8.07,3.57-8.47,7.2-16.92,10.66-25.43,1.83-4.52,1.49-6.21-2.41-9.24-4.35-3.38-4.83-7.26-3.16-12.21,4.81-14.28,8.32-28.92,11.53-43.62,1.66-7.57,1.54-7.6,9.25-8,3-.14,4-.92,4.59-4,.9-4.93,1.63-9.9,2.42-14.85.53-3.3,1.17-6.59,1.5-9.92S565.51,284.24,562.52,283.36ZM94.13,361.91a3.35,3.35,0,0,1-.49,1.08c-3.9-1.14-4.31-1.56-4-4.83.77-7.49,1.69-15,2.39-22.45a66.83,66.83,0,0,0,0-8.13,5.73,5.73,0,0,0-.45-2.48c-2.26-.35-3.77,12.44-5.49,18.49-1.08-1.82-.43-3.54-.41-5.16s.31-3.33.44-5c.14-1.87.3-3.75.32-5.63,0-1.61-.15-3.22-.22-4.7-.77-1.93-1.93.19-2.1,1-.87,4.51-1.74,9-2.48,13.55-.6,3.71-1,7.46-1.54,11.18-.07.5-.14,2.11-1.36,2.22-.69-6.09,1.08-11,1.67-16s1.73-9.9,2.2-14.88c.48-5.15,2-10.25,1.31-15.44-.67-1.45-2.15.57-2.41,1.65-1.63,6.91-3.28,13.82-4.86,20.74-1,4.6-2,9.22-3.2,14.95-1.14-5.25.27-9.09.88-13a53.27,53.27,0,0,0,1-11.06c-1.11-1.82-2.08.5-2.27,1.39-1.38,6.33-2.73,12.66-3.94,19-.47,2.46-.7,4.94-2.12,7.42-1-.26-2.17-.25-2.91-.8-3.68-2.71-6.1-6.13-6.32-11A271.7,271.7,0,0,1,58,299.65a296.1,296.1,0,0,1,12.22-63.93A183.22,183.22,0,0,1,80.8,208.9c1.38-2.8,3.16-4.91,6.36-5a2.06,2.06,0,0,1,2.09,1.87,24.16,24.16,0,0,1-.59,4.84c-.74,6-1.61,12-2.37,18a12.24,12.24,0,0,0,.09,3.08c0,.3.49.69.81.77s1-.07,1.08-.3a19,19,0,0,0,1.23-3.49c1.29-6.11,2.52-12.23,4-19.55a16.06,16.06,0,0,1,.42,6.8c-.13,2.3-.42,4.59-.58,6.88-.22,3-.28,6.11-.42,9.16,0,1.09-.06,3.06-.07,4.14,0,2.06-.32,6.07.32,7.55,1.67-.17,1.87-1.86,2-2.39a43.77,43.77,0,0,0,1.47-6.08c1.57-9.88,2.57-20.28,4.63-29.89,1.26,9.86-1.66,19.41,0,29a1.21,1.21,0,0,0,.78.7c2.19-1.36,1.67-5.37,2-8,1-8.3,1.94-16.61,2.91-24.91.17-1.46.39-2.9.63-4.35.8-4.9,1.19-5.21,7-5.76,1.7,1.54,1.66,3.72,2.07,5.74a108.21,108.21,0,0,1,1.62,24.36,420.32,420.32,0,0,1-5.07,54.52,317.92,317.92,0,0,1-10,42.75C99.07,333.3,95.23,347.31,94.13,361.91Zm92.68-60.05c-5.47-.53-9.89-3-14.6-4.77C178.57,294.41,182.84,295.94,186.81,301.86ZM183.86,194c.08-.29.59-.47,1-.81a5.81,5.81,0,0,1,2.63,4.39c.07.41-.43,1-.82,1.36a1.19,1.19,0,0,1-1.11-.13A4.56,4.56,0,0,1,183.86,194Zm-3.75-13.4c-.58-.06-1.46.11-1.67-.19a31.93,31.93,0,0,1-2.52-4.31c-2.28-4.7-4.41-9.47-6.74-14.15-4.18-8.4-8.46-16.76-12.74-25.22.65-.74,1.32-.17,1.85.46a65.91,65.91,0,0,1,9,13.57,224.18,224.18,0,0,1,11.67,27c.33,1,.82,1.9,1.24,2.85ZM158.87,324.92c2.16,1,4.57,1.74,5.93,4.45-3.44.25-6.57,0-9.45.81-2.65.71-5,2.47-7.51,3.77,1.23-3.8,3.65-6.27,6.41-8.44A4.13,4.13,0,0,1,158.87,324.92Zm6.81,21.36c.14,3.23-4.36,6.56-7.42,5.52a4.86,4.86,0,0,1-3.58-5.14c.36-2.93,2.45-4.84,5.87-5a10.41,10.41,0,0,1,2.54.64A4.42,4.42,0,0,1,165.68,346.28Zm-7.53,25.88c11.31,4,26.11-1.62,29.87-14.46.23-.77.53-1.52.93-2.66,4,3,5.32,7.11,6.32,11.35a4.51,4.51,0,0,1-.58,2.39c-6.37,15.54-23.11,22.89-37.33,18.65-17.23-5.15-26.25-25.22-18.52-41.42a16.39,16.39,0,0,0,.65-1.82l1.06.7c.13,1.81.16,3.64.4,5.44C142.37,361,147.84,368.53,158.15,372.16ZM127.94,173.05a101.6,101.6,0,0,0-9.9,4,76.17,76.17,0,0,1-9.69,4.3c-2.71,1-5.16,2.69-7.71,4.11-2.37,1.31-4.65,2.82-7.1,4a13,13,0,0,1-4.79,1.09,2.92,2.92,0,0,1-2.91-3.82,36.84,36.84,0,0,1,2.4-6.44c3.33-6.26,6.39-12.73,10.36-18.56a187.58,187.58,0,0,1,36.28-39.56,3.52,3.52,0,0,1,2.25-.84C131.11,138.51,129.53,155.72,127.94,173.05ZM228.73,524.94c-1.31-1-2.51-2.2-3.79-3.27-8.84-7.41-18.7-10.68-30.21-7.54a51.28,51.28,0,0,1-6.77,1.2,54.43,54.43,0,0,0-16.5,5c-1.28-1.2-.21-1.79.31-2a46.19,46.19,0,0,1,7.4-3.25c5.81-1.67,11.71-3,17.57-4.51,2-.5,4-1,6.09-1.43a16,16,0,0,0,9.54-5.53c1.18-1.4,2.33-2.94,4.6-3.54,2.07,7,6.7,12.42,10.47,18.38,1.32,2.09,2.45,4.3,3.58,6.29C230,526.14,229.29,525.38,228.73,524.94Zm-5-111.59a22.77,22.77,0,0,0-16.6,9,17.35,17.35,0,0,1-1.72,1.62,5,5,0,0,1,1.09-4,20.89,20.89,0,0,1,7.59-7.32c3.4-1.9,7.14-2.3,10.91-2.35,2.41,0,5-.46,7.77,1.7-1.63.33-2.53.56-3.45.7C227.45,412.9,225.59,413.17,223.72,413.35ZM499,357.51a37.56,37.56,0,0,1-2.22,7.16q-12.32,29.5-27.48,57.68c-2,3.67-3.75,7.5-6,11a73.84,73.84,0,0,1-8.64,11.48c-4.87,5-11.14,8-17.74,10.2-.7.23-2,.86-2.88-.11,2.36-7.79,8.08-16,9.15-23-3.61,2.66-4.72,5.11-6.21,7.44s-2.59,4.77-3.9,7.15a56.56,56.56,0,0,1-4.61,7.36c-.33-2.71,2.38-7,3.84-10.34s3.11-6.84,4.69-10.26c1.49-3.22,3.06-6.41,4.5-9.66s3.29-6.64,4.22-10.07c-1.43-1.09-2-.22-2.32.37-1.39,2.33-2.7,4.71-4,7.11q-9.57,18-19.14,35.95a9.59,9.59,0,0,1-3.39,3.77,30.33,30.33,0,0,1,1.11-3.92c3.55-8.25,7.2-16.46,10.75-24.71.78-1.84,1.93-3.65,1.62-6.15-2.43,1.18-3,3.27-4,5-4.47,8.28-8.86,16.59-13.3,24.87-1,1.81-2,3.57-3,5.3a10.8,10.8,0,0,1-2.21-.4c-5.09-2.22-5.69-3.26-4.09-8.65a124,124,0,0,1,4.69-13.6A380.64,380.64,0,0,1,442,376.24c5.94-8.85,11.52-17.95,18.27-26.22,3.56-4.36,7.27-8.63,11.15-12.71a20.31,20.31,0,0,1,11.79-6.21c1.12,1.68-.06,2.59-.6,3.58-4.31,7.88-8.7,15.72-13,23.61a35.06,35.06,0,0,0-3.75,8.67c3-1.54,4-3.75,5.44-5.6s2.88-4.1,4.31-6.16l4.62-6.72c1.42-2.06,2.79-4.17,4.26-6.19s2.25-4.29,4.47-6c.52,2.26-.86,3.44-1.65,4.79-5.28,9-10.63,18-15.89,27-1.14,1.94-2.47,3.87-2.61,6.13a1.62,1.62,0,0,0,2.78-.17c2.78-3.66,5.44-7.41,8.2-11.08,1.46-1.94,3-3.8,4.57-5.7.45,1.75-.86,2.95-1.49,4.36-.81,1.85-2.54,3.33-2.3,5.55,1,.93,1.65.16,2.1-.44,3.4-4.5,6.72-9.07,10.12-13.57,1-1.28,2.13-2.41,3.36-3.78A8,8,0,0,1,499,357.51ZM487.15,354Zm-2.67,3h0l0,0Zm.16-.53v0Zm3.12-3.67s-.19-.18-.3-.27v0c.11.09.31.23.3.27Zm18.44-10.56c-.51-1-1.22-1.72-1.1-2.25a15.16,15.16,0,0,0-2.91-13,5.64,5.64,0,0,1-.88-2.31,19.94,19.94,0,0,0-4.76-10.32c2.63-2.32,4.86-5.14,7.12-7.22,2.62-2.43,4.14-4.15,6.22-6,2.25-2,4.6-4.4,7.52-5.72C519.51,311.16,506.2,342.25,506.2,342.25Zm19.71-26.13c-1.08,4.42-1.89,9-4.6,12.9,2-12.33,4.9-24.48,4.72-37.11s-.25-25-3.78-37c-2.34-1.07-4.46-.71-6.52-.67a139.92,139.92,0,0,0-43.55,8.32q-8,2.81-15.92,5.75c-17.85,6.6-35.62,13.34-52.51,22.23-5,2.61-10.36,4.36-15.55,6.53a23.17,23.17,0,0,1-16.38.48c-6.19-2.11-12.47-3.95-18.69-6a197.85,197.85,0,0,0-31-7.83c-1.56-.24-3.24-1-4.82.5a20.77,20.77,0,0,0,.46,2.38c2.52,7.93,2.69,16,1.66,24.2-1.44,11.53-5.06,22.4-9.76,32.94a214.68,214.68,0,0,1-16.5,29.55,28.34,28.34,0,0,0-3.36,6.66c-3.95,12.42-2.88,24.38,4,35.57a56.55,56.55,0,0,0,6.71,9c5.84,6.24,8.56,13.7,9.75,22,1.22,8.57.69,17.1-.06,25.65-2,22.59-5.48,44.83-14.62,65.82a9.37,9.37,0,0,0-1,3.41,1.36,1.36,0,0,0,1.44.59c14.08-1.07,27.6-3.86,40.31-10.58,9.81-5.18,17.36-12.22,22.59-21.88,1.69-3.13,3.36-6.27,4.83-9.5,2.61-5.71,5-11.49,7.57-17.23.83-1.88,1.72-3.73,2.6-5.64,1.8.15,3.24.24,4.69.38a22.49,22.49,0,0,0,3.66.09c-.85,2.62-1.7,5.23-2.6,7.83a16.93,16.93,0,0,0-2.08,2.89c-4,6.88-8.14,13.65-12,20.62a64.42,64.42,0,0,1-18.1,20.54,87.84,87.84,0,0,1-30.28,14.69c-4.64,1.26-9.34,2.32-14.05,3.25a28.07,28.07,0,0,1-6.85.41A217,217,0,0,1,266,544.15a23.37,23.37,0,0,1-13.28-7.6c-12-13.36-20.59-28.44-23.53-46.3-1.36-8.26-1.73-16.6,1.42-24.73,2.39-6.16,9.39-10,15.66-8.1a13.7,13.7,0,0,1,3.77,2.12c.84.59,1.43,1.53,2.26,2.15,5.8,4.41,12.19,4.44,17.89-.12,5.91-4.72,9.36-10.72,8.24-18.55a45.19,45.19,0,0,0-2.29-9.73c-5.5-14.23-14.93-24.52-30-28.82-7-2-14.13-1.54-21.14-.1A43.3,43.3,0,0,0,213.74,408c-8.4,4.38-13.59,11.55-16.06,20.68a14.87,14.87,0,0,0-.44,2.47c-.94,9.18,2.26,15.13,12.31,15.85,5.06.37,7.51,3.18,9,7.33a21.64,21.64,0,0,1,.42,14.2c-3.17,9.81-7.55,18.93-15.87,25.79-5.16,4.26-10.74,7.28-17.24,8.41-9.12,1.58-17.16,5.2-23.81,11.67a7.68,7.68,0,0,1-7.47,2.14,74.88,74.88,0,0,1-15.51-4.87,14,14,0,0,1-8.55-10.86c-.66-3.9-1.1-7.85-1.46-11.8-.45-5-.47-10-1.15-15a29.66,29.66,0,0,0-2.73-9.57c-7.79-15-12.54-31-16.34-47.28-1.09-4.68-2.13-9.38-2.86-14.13-.35-2.3-1-4-1.36-6.29-.34-2.46-1-4.46-1.22-6.71a50.14,50.14,0,0,1,0-6.13c1.08.36,2.17.71,3.26,1,1.36.39,2.66,1,4,1.5.25,2.57.47,4.85.7,7.12.57,5.62,1,11.26,1.73,16.84a175.69,175.69,0,0,0,7.57,33.6,59.37,59.37,0,0,0,5.33,12c3.3,5.32,7,10.37,8.8,17.42,1-1.95,1.55-3,2-4.14,2.05-5,4-10.1,6.11-15.12,5.23-12.56,11.07-24.82,18.77-36.11a94,94,0,0,1,16-18.44,45.45,45.45,0,0,1,24.13-11.05,41.88,41.88,0,0,0,36.32-37.94,203.4,203.4,0,0,1,4.1-26.09c2.86-12.55,6.92-24.67,13.59-35.76,4.47-7.43,9.84-14,17.12-18.92a18.43,18.43,0,0,0,2.24-2.21c-1.46-1.15-2.54-2.13-3.74-2.93a83.75,83.75,0,0,0-15.62-7.94,116.71,116.71,0,0,0-26.67-6.85,12.29,12.29,0,0,1-8.38-4.91,48.65,48.65,0,0,1-7.57-14.35c-2.58-7.51-5.18-15-8.09-22.41a420.53,420.53,0,0,0-43.07-81.32c-4.44-6.58-9-13.06-13.66-19.52a20.86,20.86,0,0,0-3-3.44c-3.43,1.68-6.09,4.26-8.56,6.45-5.31,4.72-10.66,9.44-15.59,14.54-13.71,14.19-26.21,29.33-34.92,47.22-2.91,6-5.52,12.09-8.32,18.12a12.24,12.24,0,0,1-.67,1.23A23.38,23.38,0,0,1,75,194.84,87.68,87.68,0,0,1,82,172.91c7-14.75,15.32-28.7,26.33-41,41.47-46.42,93.1-71.12,155.35-73.36a285.26,285.26,0,0,1,55,3.73c23.06,3.66,45.28,10,66.4,20.06C446,111.42,491.06,156,517.75,218.4c4.54,10.61,8.41,21.4,9.65,33,.49,4.54,1.05,9.07,1.59,13.6A144.14,144.14,0,0,1,525.91,316.12Zm-172,114.45c2.08-.84,4.05-1.94,6.39-3.08a18.37,18.37,0,0,1-15,8.7,21.59,21.59,0,0,1-8-1c-8.74-3.24-15.11-8.88-17.17-18.37.82,1,1.63,2,2.48,3,2,2.36,3.84,5,6.18,7C336.29,433.15,344.78,434.28,353.89,430.57Zm-23.05-24.29a4,4,0,0,1,4.2-3.73,4.22,4.22,0,0,1,3.71,4.3,4.42,4.42,0,0,1-4,4.11A4.15,4.15,0,0,1,330.84,406.28Zm24.44-6.92c-2.65-2.23-5.62-4.08-8.61-6.21,7.63-.79,14.94,5.09,17.34,14.7C360.6,404.5,358.09,401.74,355.28,399.36Zm1.18-15.31a2.07,2.07,0,0,1-.56-1.52,1.69,1.69,0,0,1,1.88-1.07A19.15,19.15,0,0,1,368,388.05C363.9,387.1,359.8,386.57,356.46,384.05Z"/><path class="cls-1" d="M140.58,344.92c.13,1.82.16,3.65.4,5.45,1.42,10.66,6.89,18.2,17.2,21.83,11.31,4,26.11-1.62,29.87-14.46.23-.78.53-1.53.93-2.67,4,3,5.31,7.11,6.32,11.35a4.51,4.51,0,0,1-.58,2.39c-6.37,15.54-23.11,22.9-37.33,18.65-17.23-5.14-26.25-25.21-18.52-41.42a16.23,16.23,0,0,0,.65-1.81Z"/><path class="cls-1" d="M319.91,416.54c.91,1.08,1.8,2.17,2.73,3.24,2,2.35,3.84,5,6.18,7,7.5,6.42,16,7.56,25.1,3.85,2.08-.85,4.05-1.95,6.39-3.09a18.38,18.38,0,0,1-15,8.71,21.59,21.59,0,0,1-8-1c-8.87-3.3-15.3-9.05-17.27-18.8Z"/><path class="cls-1" d="M160.58,341.74a10.9,10.9,0,0,1,2.54.64,4.42,4.42,0,0,1,2.59,3.93c.14,3.24-4.36,6.56-7.42,5.53a4.87,4.87,0,0,1-3.58-5.14C155.07,343.77,157.16,341.85,160.58,341.74Z"/><path class="cls-1" d="M147.87,334c1.23-3.8,3.65-6.26,6.41-8.44a4.13,4.13,0,0,1,4.62-.58c2.16,1,4.57,1.73,5.93,4.45-3.44.24-6.57,0-9.45.8C152.73,330.92,150.36,332.68,147.87,334Z"/><path class="cls-1" d="M364,407.89c-3.41-3.36-5.92-6.11-8.73-8.49-2.65-2.24-5.62-4.09-8.61-6.22C354.33,392.4,361.64,398.27,364,407.89Z"/><path class="cls-1" d="M338.78,406.89a4.41,4.41,0,0,1-4,4.1,4.15,4.15,0,0,1-3.92-4.68,4,4,0,0,1,4.2-3.73A4.22,4.22,0,0,1,338.78,406.89Z"/><path class="cls-1" d="M172.24,297.13c6.36-2.69,10.63-1.15,14.6,4.76C181.37,301.36,177,298.86,172.24,297.13Z"/><path class="cls-1" d="M368,388.08c-4.05-.94-8.15-1.48-11.49-4-.39-.29-.74-1.33-.56-1.53.47-.52,1.35-1.2,1.88-1.07A19.15,19.15,0,0,1,368,388.08Z"/></g></g></svg>